<?xml version="1.0" ?>
<svg xmlns="http://www.w3.org/2000/svg" width="178.29" height="178.15628" viewBox="0 0 178.29 178.15628">
  <path d="m74.64,0h29.11c15.11,3.17 25.59,8.27 37.92,17.41 6.57,5.1 13.91,7.53 21.82,9.68 -1.75,3.03 -5.24,2.52 -8.25,3.22 -5.67,1.62 -15.95,2.36 -14.42,10.53 -0.47,0.76 -0.95,1.52 -1.42,2.29 -0.21,-2.31 -0.31,-4.63 -0.53,-6.94 -6.04,3.31 -11.02,3.62 -10.19,12.04 -1.49,-3.17 0.53,-11.66 -1.49,-13.01 -0.28,5.32 0.31,10.34 -1.45,15.51 -3.07,0.49 -6.31,0.45 -9.38,0.05 -0.54,-5.86 -1.4,-11.63 -1.44,-17.54 -2.27,3.58 0.63,12.42 -2.16,17.48 -3.39,0.11 -8.86,2.05 -9.13,-2.94 -5.56,-0.42 -8.39,-2.28 -7.32,-8.34 7.98,0.79 0.72,-10.97 -3.07,-10.75 -3.95,-1.88 -4.6,5.24 -0.65,5.46 -2.11,3 -0.4,8.4 -3.52,10 -3.6,-1.79 -0.66,-7.11 -3.66,-10.2 2.41,-1.15 3.95,-6.04 -0.34,-4.99 -4.25,-0.7 -5.36,4.27 -6.81,7.22 -1.42,3.43 4.38,2.48 3.85,5.84 0.47,6.25 -6.37,4.24 -9.28,8.84 -2.38,0.36 -5.09,0.31 -7.46,-0.14 -1.83,-4.31 -1.04,-8.28 -1.53,-12.78 -1.88,3.7 -1.01,8.78 -2.01,12.82 -3.09,0.43 -6.38,0.47 -9.45,-0.04C50.25,45.68 51.4,40.66 50.97,35.23 49.48,34.82 50.25,39.98 49.86,41.01 46.47,39.21 43,37.06 39.27,36.05 38.97,40.1 39.08,44.18 38.76,48.24 38.21,45.79 37.85,43.27 37.43,40.79 37.22,38.98 37.09,37.13 36.71,35.35 29.62,31.2 20.45,31.32 13.8,27.2 27.47,24.69 37.21,16.71 48.39,9.33 56.62,4.55 65.55,2.41 74.64,0Z" fill="#71aba0"/>
  <path d="m13.8,27.2c6.65,4.12 15.82,4 22.91,8.15 0.38,1.78 0.51,3.63 0.72,5.44 -0.26,3.43 -0.4,6.69 -1.66,9.93 -5.09,0.7 -10.35,-0.01 -15.48,0.39 5.01,8.02 11.58,19.66 21.09,22.58 2.67,6.08 8.03,4.66 12.02,8.99 2.69,2.84 6.74,-1.85 8.41,0.73 -1.01,0.56 -2,1.14 -2.99,1.71 3.2,1.69 7,2.53 10.45,3.68l-1.95,0.36C44.89,88.85 22.44,89 0,89.07 0.14,68.73 0.06,48.38 0.04,28.04 4.74,28.17 9.16,27.95 13.8,27.2Z" fill="#649188"/>
  <path d="m163.49,27.09c4.44,1.54 11.47,-0.03 14.77,1.77 -0.3,20.07 -0.35,40.26 0.03,60.32 -22.82,-0.4 -45.69,-0.11 -68.51,-0.14l-0.96,-0.15c15.5,-4.57 29.48,-12.72 39.91,-25.21 2.36,-3.74 8.08,-8.05 8.25,-12.47 -4.83,-0.59 -9.82,0.22 -14.61,-0.49 -1.3,-3.21 -1.38,-6.47 -1.55,-9.88 -1.53,-8.17 8.75,-8.91 14.42,-10.53 3.01,-0.7 6.5,-0.19 8.25,-3.22z" fill="#65938a"/>
  <path d="m93.24,28.69c3.79,-0.22 11.05,11.54 3.07,10.75 -1.07,6.06 1.76,7.92 7.32,8.34 0.27,4.99 5.74,3.05 9.13,2.94 2.79,-5.06 -0.11,-13.9 2.16,-17.48 0.04,5.91 0.9,11.68 1.44,17.54 3.07,0.4 6.31,0.44 9.38,-0.05 1.76,-5.17 1.17,-10.19 1.45,-15.51 2.02,1.35 0,9.84 1.49,13.01 0.14,4.1 3.53,2.49 6.41,2.82 3.79,0.67 4.85,-5.16 4.31,-7.92 0.47,-0.77 0.95,-1.53 1.42,-2.29 0.17,3.41 0.25,6.67 1.55,9.88 4.79,0.71 9.78,-0.1 14.61,0.49 -0.17,4.42 -5.89,8.73 -8.25,12.47C138.3,76.17 124.32,84.32 108.82,88.89 95.66,89.02 82.43,89.18 69.27,88.8 65.82,87.65 62.02,86.81 58.82,85.12 59.81,84.55 60.8,83.97 61.81,83.41 60.14,80.83 56.09,85.52 53.4,82.68 49.41,78.35 44.05,79.77 41.38,73.69 31.87,70.77 25.3,59.13 20.29,51.11c5.13,-0.4 10.39,0.31 15.48,-0.39 1.26,-3.24 1.4,-6.5 1.66,-9.93 0.42,2.48 0.78,5 1.33,7.45 -0.59,4.54 7.31,2.46 10.04,2.51 0.83,-3.24 0.85,-6.43 1.06,-9.74 0.39,-1.03 -0.38,-6.19 1.11,-5.78 0.43,5.43 -0.72,10.45 1.41,15.49 3.07,0.51 6.36,0.47 9.45,0.04 1,-4.04 0.13,-9.12 2.01,-12.82 0.49,4.5 -0.3,8.47 1.53,12.78 2.37,0.45 5.08,0.5 7.46,0.14 2.91,-4.6 9.75,-2.59 9.28,-8.84 0.53,-3.36 -5.27,-2.41 -3.85,-5.84 1.45,-2.95 2.56,-7.92 6.81,-7.22 4.29,-1.05 2.75,3.84 0.34,4.99 3,3.09 0.06,8.41 3.66,10.2 3.12,-1.6 1.41,-7 3.52,-10 -3.95,-0.22 -3.3,-7.34 0.65,-5.46z" fill="#9dd2c5"/>
  <path d="m39.27,36.05c3.73,1.01 7.2,3.16 10.59,4.96 -0.21,3.31 -0.23,6.5 -1.06,9.74 -2.73,-0.05 -10.63,2.03 -10.04,-2.51 0.32,-4.06 0.21,-8.14 0.51,-12.19z" fill="#62948b"/>
  <path d="m138.87,36.19c0.22,2.31 0.32,4.63 0.53,6.94 0.54,2.76 -0.52,8.59 -4.31,7.92 -2.88,-0.33 -6.27,1.28 -6.41,-2.82 -0.83,-8.42 4.15,-8.73 10.19,-12.04z" fill="#639489"/>
  <path d="m0,89.07c22.44,-0.07 44.89,-0.22 67.32,0.09 -8.44,3.13 -19.14,6.75 -25.25,13.7 -8.22,3.74 -14.4,12.37 -19.63,19.51 -0.88,1.41 -1.45,2.72 -1.29,4.42 4.83,0.58 9.82,-0.21 14.63,0.48 1.4,3.63 1.35,7.13 1.68,10.95 0.3,7.47 -5.36,4.22 -9.98,7.22 -5.5,2.73 -12,3.3 -17.65,4.33C6.61,149.93 3.45,149.4 0.32,148.66 -0.33,128.92 0.34,108.86 0,89.07Z" fill="#27292b"/>
  <path d="m67.32,89.16 l1.95,-0.36c13.16,0.38 26.39,0.22 39.55,0.09l0.96,0.15c13.55,4.41 25.83,11.18 35.96,21.26 3.31,4.96 10.52,10.6 11.25,16.49 -4.83,0.58 -9.82,-0.22 -14.62,0.49 -1.01,2.59 -1.31,5.27 -1.6,8.02 -2.99,-1.13 -0.56,-6.63 -3,-8.03 -2.7,-0.53 -5.69,-0.46 -8.39,0.01 -2.14,5.1 -0.95,10.03 -1.43,15.5 -2.21,-2.76 0.43,-11.13 -2.19,-15.49 -3.08,-0.53 -6.39,-0.49 -9.48,-0.03 -0.96,6.08 -1.11,12.39 -1.35,18.54 -2.35,-3.86 0.7,-13.2 -2.16,-18.52 -6.67,-1.8 -9.38,2.32 -15.33,4.11 -2.75,4.49 -1.74,6.52 2.7,8.74 -1.91,4.43 -2.63,10.48 -9,8.73 1.49,-5.21 0.56,-8.99 -0.81,-14.18 -5.35,-3.4 -1.81,5.85 -4.85,8.38 1.69,1.44 4.92,6.24 0.56,5.96 -5.43,1.3 -6.68,-5.04 -7.99,-8.83 4.24,-2.41 5.55,-4.18 2.62,-8.76 -6.93,-1.17 -6.78,-6.12 -14.5,-4.31 -4.27,1.72 -0.47,12.84 -2.86,14.54 -0.57,-4.81 -1.07,-9.62 -1.52,-14.44 -3.09,-0.4 -6.36,-0.45 -9.44,0.05 -2.45,4.32 -0.72,10.65 -1.38,15.5 -1.59,0.27 -0.63,-5.51 -1.09,-6.76 -0.23,-2.92 -0.47,-5.89 -1.09,-8.76 -2.81,-0.43 -5.73,-0.42 -8.56,-0.15 -2.63,1.56 -1.96,8.26 -2.77,11.12 -0.33,-3.82 -0.28,-7.32 -1.68,-10.95 -4.81,-0.69 -9.8,0.1 -14.63,-0.48 -0.16,-1.7 0.41,-3.01 1.29,-4.42 5.23,-7.14 11.41,-15.77 19.63,-19.51 6.11,-6.95 16.81,-10.57 25.25,-13.7z" fill="#4e6884"/>
  <path d="m109.78,89.04c22.82,0.03 45.69,-0.26 68.51,0.14 -0.69,19.74 0.28,39.82 -0.47,59.53 -2.84,2.4 -9.53,0.91 -13.42,2.02 -6.26,-4.81 -16.39,-4.1 -23.05,-9.03 -0.34,-2.11 -0.38,-4.27 -0.58,-6.4 0.29,-2.75 0.59,-5.43 1.6,-8.02 4.8,-0.71 9.79,0.09 14.62,-0.49 -0.73,-5.89 -7.94,-11.53 -11.25,-16.49 -10.13,-10.08 -22.41,-16.85 -35.96,-21.26z" fill="#252629"/>
  <path d="m40.23,127.1c-0.33,5.11 -1.74,9.69 -0.98,14.87 3.75,-1.48 7.31,-3.68 10.63,-5.96 0.46,1.25 -0.5,7.03 1.09,6.76 0.66,-4.85 -1.07,-11.18 1.38,-15.5 3.08,-0.5 6.35,-0.45 9.44,-0.05 0.45,4.82 0.95,9.63 1.52,14.44 2.39,-1.7 -1.41,-12.82 2.86,-14.54 7.72,-1.81 7.57,3.14 14.5,4.31 2.93,4.58 1.62,6.35 -2.62,8.76 1.31,3.79 2.56,10.13 7.99,8.83 4.36,0.28 1.13,-4.52 -0.56,-5.96 3.04,-2.53 -0.5,-11.78 4.85,-8.38 1.37,5.19 2.3,8.97 0.81,14.18 6.37,1.75 7.09,-4.3 9,-8.73 -4.44,-2.22 -5.45,-4.25 -2.7,-8.74 5.95,-1.79 8.66,-5.91 15.33,-4.11 2.86,5.32 -0.19,14.66 2.16,18.52 0.24,-6.15 0.39,-12.46 1.35,-18.54 3.09,-0.46 6.4,-0.5 9.48,0.03 2.62,4.36 -0.02,12.73 2.19,15.49 0.48,-5.47 -0.71,-10.4 1.43,-15.5 2.7,-0.47 5.69,-0.54 8.39,-0.01 2.44,1.4 0.01,6.9 3,8.03 0.2,2.13 0.24,4.29 0.58,6.4 6.66,4.93 16.79,4.22 23.05,9.03 -17.49,2.57 -26.99,15.11 -42.19,21.46 -15.58,7.12 -31.1,6.25 -47.78,5.42 -15.01,-2.07 -27.04,-9.17 -39.04,-17.92 -7.77,-5.62 -16.49,-7.49 -25.56,-9.92 5.65,-1.03 12.15,-1.6 17.65,-4.33 4.62,-3 10.28,0.25 9.98,-7.22 0.81,-2.86 0.14,-9.56 2.77,-11.12z" fill="#303141"/>
  <path d="m40.23,127.1c2.83,-0.27 5.75,-0.28 8.56,0.15 0.62,2.87 0.86,5.84 1.09,8.76 -3.32,2.28 -6.88,4.48 -10.63,5.96 -0.76,-5.18 0.65,-9.76 0.98,-14.87z" fill="#24292f"/>
</svg>
