<?xml version="1.0" ?>
<svg xmlns="http://www.w3.org/2000/svg" width="179" height="177.90955" viewBox="0 0 179 177.90955">
  <path d="m94,0c4.28,0.89 8.81,0.53 12.85,2.12 0.6,8.12 -1.01,15.05 2.33,22.89l0.18,0.6c0.08,1.81 0.37,3.19 1.7,4.51l0.16,0.61c1.17,5.75 3.94,9.79 2.73,16.08 -1.29,8.63 -13.22,13.7 -12.85,22.82 3.03,1.04 1.22,-4.9 3.27,-6.46 5.68,-6 10.67,-11.32 11.89,-19.87 -2.09,-4.08 -1.43,-8.82 -4.36,-12.8l-0.24,-0.57c-0.13,-1.75 -0.45,-3.14 -1.69,-4.47l-0.11,-0.63c-1.64,-7.62 -2.49,-14.29 -1.65,-22.16 17.17,3.18 28.29,13.67 43.38,21.46 7.51,3.04 17.87,5.36 25.7,5.49 1.69,2.79 -0.33,7.57 1.71,10.76v64.57c-1.54,1.41 -1.26,3.08 -1.31,4.98 -1.43,-1.46 -2.79,-2.31 -4.74,-2.96 0.6,2.27 3.53,3.74 5.49,4.71l0.56,0.26v0.65c-1.66,3.21 -1.5,14.45 0,17.78v19.69l-0.97,-0.31c-0.19,-6.27 0.25,-12.6 -0.22,-18.85 -6.07,2.83 -9.11,1.18 -13.44,-3.48 -4.21,-5.38 -6.64,2.81 -11.24,-4.24 7.11,-1.18 -3,-2.6 -4.76,-2.83 -7.9,-3.16 -13.92,1.12 -17.94,7.7 -1.35,4.45 3.13,9.41 5.13,13.17 4,5.54 5.2,11.83 6.72,18.35 -3.71,2.19 -6.07,5.66 -10.28,7.25 -7.37,3.04 -12.17,7.74 -20.15,8.68 -4.9,0.19 -6.77,3.46 -11.89,1.42 -8.64,1.44 -17.35,1.29 -25.96,-0.33 -0.35,-9.51 0.94,-19.48 -1.16,-28.74 -2.19,-13.25 -4.8,-25.03 -7.79,-38.07 -0.53,-9.89 8.7,-12.66 8.99,-21.97 -0.13,-1.89 -0.49,-4.65 -1.99,-5.97 -0.15,3.1 1.49,5.63 0.41,8.36 -1.36,5.32 -6.09,8.11 -7.66,13.47 -2.35,6.35 0.78,11.45 1.63,17.77 2.45,13.45 6.7,27.54 6.25,41.2 -0.79,4.49 -1.45,9.52 0.43,13.82 -12.1,-0.81 -21.47,-6.93 -31.16,-13.59 -2.78,-4.21 -7.7,-2.18 -10.49,-5.8 1.28,0.19 2.9,0.92 4.15,0.46 2.56,-8.16 5,-15.92 10.22,-22.85 2.83,-4.91 1.57,-6.42 -1.53,-10.6 6.04,-3.85 -2.42,-1.47 -4.54,-3.96 -4.5,-0.82 -9.02,-0.54 -13.31,1.1 -2.33,-2.83 -0.91,1.75 -2.19,2.88 -2.65,3.86 -8.68,-0.6 -11.24,3.72 -3.14,4.57 -7.65,3.8 -12.36,5.04L0,132.97v-0.84c1.65,-3.22 1.51,-13.57 0,-16.88v-1.69l0.63,0.31c1.87,1.78 3.67,-0.7 5.19,-1.78 -1.66,-0.76 -3.25,-1.91 -5.14,-1.56L0,110.57v-1.83c1.35,-1.13 1.32,-2.41 1.28,-4.04 4.31,-2.61 8.53,-7.16 13.69,-7.03 6.23,-0.33 7.71,-5.12 12.71,-8.21 2.43,-2.28 5.88,-2.45 8.31,-4.55 -9.23,-0.17 -12.35,8.46 -19.29,10.51 -0.16,0.02 -0.32,0.04 -0.47,0.06 -3.33,0.75 -1.89,-0.73 -1.24,-2.67 2.98,-4.51 2.59,-9.52 6.48,-13.51 2.74,0.04 5.8,-0.39 8.28,-1.57 -0.92,-8.49 -8.09,-0.97 -10.47,-8.22 -2.3,-7.36 -4.65,-11.52 -9.14,-17.68 8.17,1.3 16.16,7.3 20.71,14.16 2.38,3.65 9.18,0.74 10.14,5.8 -2.43,4.42 -5.68,0.64 -7.07,5.56 2.04,0.04 2.71,-1.34 2.66,1.43 3.2,0.36 2.26,-3.16 4.25,-4.96 -0.36,3.23 -0.99,5.56 1.22,8.36l0.44,0.7c-1.25,0.9 -4.86,0.53 -5.3,1.76 2.73,0.18 4.88,0 7.12,1.84l0.44,0.54c1.6,2.21 2.26,3.89 5.38,3.81l1.85,0.26c2.23,1.43 3.85,1.31 6.11,0.04l2.03,-0.71 0.66,-0.28 0.79,-0.38c2.78,-1.29 4.52,-2.21 5.43,-5.35l0.34,-0.81 0.23,-0.66 0.54,-1.98c0.91,-0.46 1.21,-1.2 0.88,-2.24l-0.07,-1.84c0.49,-1.45 0.2,-2.54 -0.86,-3.29L67.65,72.65 67.27,71.82 66.78,70.8 66.33,70.04C65.07,68.27 63.6,66.71 61.77,65.52l-0.63,-0.37 -0.88,-0.43c-0.53,-0.89 -1.31,-1.18 -2.33,-0.85 -1.05,-0.15 -2.1,-0.29 -3.15,-0.41 -0.19,-0.02 -0.38,-0.02 -0.57,0.01l-2.11,0.35c-1.05,-0.28 -1.84,0.03 -2.36,0.92l-0.87,0.45 -0.62,0.32 -0.77,0.43C43.27,69.26 33.3,67.91 30.54,63.24 23.94,53.41 13.03,52.81 5.26,44.55 4,43.21 2.81,42.33 1.13,41.58 1,37.78 0.76,33.88 1.21,30.1 8.49,29.42 15.47,27.56 22.65,26.36 31.86,22.25 40.28,17.27 48.39,11.3 48.51,11.24 48.63,11.18 48.76,11.11 57.72,6.84 68.24,1.09 78.23,1.14 78.43,1.16 78.62,1.15 78.78,1.1 84.24,-1.29 88.41,1.88 94,0Z" fill="#252526"/>
  <path d="M78.23,1.14 L78.78,1.1c-0.16,0.05 -0.35,0.06 -0.55,0.04z" fill="#816f50"/>
  <path d="M84.21,9.53C83.92,7.18 83.73,4.83 83.45,2.48 83.43,2.33 83.42,2.19 83.41,2.05c1.88,-5.69 2.35,8.52 0.8,7.48z" fill="#816f50"/>
  <path d="M94.8,0.89C94.44,3.9 93.55,6.84 93.12,9.83 92,16.23 94.72,21.6 94.94,27.77 91.52,22.6 91.98,12.89 91.97,6.81 92.24,4.34 91.07,0.78 94.8,0.89Z" fill="#816f50"/>
  <path d="m75.27,2.08c0.49,0.49 0.49,0.49 0,0z" fill="#816f50"/>
  <path d="m83.41,2.05c0.01,0.14 0.02,0.28 0.04,0.43z" fill="#91ab84"/>
  <path d="m106.85,2.12 l1.36,0.55c-0.84,7.87 0.01,14.54 1.65,22.16l-0.68,0.18c-3.34,-7.84 -1.73,-14.77 -2.33,-22.89z" fill="#816f50"/>
  <path d="m69.13,2.97c2.93,-0.94 1.51,3.15 1.94,4.84 -0.61,7.1 -1.08,14.69 -3.68,21.37 -1.36,4.5 -4.29,7.95 -3.01,12.8l0.09,0.9 0.02,1.03c-0.01,0.17 -0.02,0.33 -0.02,0.5C61.55,55.25 78.18,59.13 75.94,70.59 72.82,57.28 64.04,58.38 61.42,44.17 62.3,38.88 63.54,33.7 65.82,28.82l0.41,-1.76c3.59,-7.12 3.4,-16.36 2.9,-24.09z" fill="#816f50"/>
  <path d="m48.39,11.3 l0.37,-0.19c-0.13,0.07 -0.25,0.13 -0.37,0.19z" fill="#816f50"/>
  <path d="m84.11,11.06c-1.4,3.37 3.33,0.29 0,0z" fill="#816f50"/>
  <path d="m84.14,14.04c1.78,0.78 0.97,8.98 -0.21,11.02l-0.67,-0.14c0.73,-3.61 0.73,-7.22 0.88,-10.88z" fill="#816f50"/>
  <path d="m90.27,23.08c0.48,0.49 0.48,0.49 0,0z" fill="#816f50"/>
  <path d="m83.26,24.92 l0.67,0.14 -0.19,0.64 -0.68,-0.14z" fill="#91ab84"/>
  <path d="m101.25,24.91c0.28,3.34 3.37,-1.38 0,0z" fill="#816f50"/>
  <path d="m109.18,25.01 l0.68,-0.18 0.11,0.63 -0.61,0.15z" fill="#91ab84"/>
  <path d="m83.06,25.56 l0.68,0.14c-0.63,3.28 -0.73,6.57 -0.9,9.89 -1.79,-0.61 -0.87,-8.2 0.22,-10.03z" fill="#816f50"/>
  <path d="m109.36,25.61 l0.61,-0.15c1.24,1.33 1.56,2.72 1.69,4.47l-0.6,0.19c-1.33,-1.32 -1.62,-2.7 -1.7,-4.51z" fill="#816f50"/>
  <path d="m66.23,27.06 l-0.41,1.76c-1.49,-0.88 -1.35,-1.46 0.41,-1.76z" fill="#000000"/>
  <path d="m89.64,29.08c2.19,1.13 2.94,1.46 0.32,2.68 -2.45,1.4 -3.11,-5.83 -0.32,-2.68z" fill="#816f50"/>
  <path d="m86.1,29.85c1.55,5.11 5.54,0.63 6.05,6.01 -2.07,-0.08 -4.14,-0.09 -6.21,-0.01 0.76,-1.82 0.15,-4.01 0.16,-6z" fill="#816f50"/>
  <path d="m111.06,30.12 l0.6,-0.19 0.24,0.57 -0.68,0.23z" fill="#91ab84"/>
  <path d="m14.27,31.08c0.49,0.49 0.49,0.49 0,0z" fill="#816f50"/>
  <path d="m95.28,31.22c1.29,-0.29 1.02,3.55 0.48,4.17C94,35.28 93.95,32.15 95.28,31.22Z" fill="#816f50"/>
  <path d="m111.22,30.73 l0.68,-0.23c2.93,3.98 2.27,8.72 4.36,12.8 -1.22,8.55 -6.21,13.87 -11.89,19.87 -2.05,1.56 -0.24,7.5 -3.27,6.46 -0.37,-9.12 11.56,-14.19 12.85,-22.82 1.21,-6.29 -1.56,-10.33 -2.73,-16.08z" fill="#816f50"/>
  <path d="m12.44,33.28c3.38,-2.08 -0.91,4.53 -2.43,4.44 0.39,-1.74 1.2,-3.16 2.43,-4.44z" fill="#816f50"/>
  <path d="m84.9,36.2 l-0.91,0.37z" fill="#816f50"/>
  <path d="m84.9,36.2 l1.04,-0.35c2.07,-0.08 4.14,-0.07 6.21,0.01l0.96,0.33 0.74,0.25 0.94,0.31c0.39,1.01 1.11,1.38 2.16,1.12l0.85,1.09c0,1.44 0.71,2.1 2.14,1.96 0.46,0.72 0.92,1.44 1.38,2.16l0.42,0.71 0.55,0.96 0.34,0.9c0.51,2.45 0.57,4.89 -0.04,7.32l-0.21,0.76 -0.31,0.94c-1.45,0.9 -1.76,1.74 -1.8,3.4 -1.13,1.06 -2.27,2.1 -3.51,3.05l-0.76,0.47 -1.01,0.5 -0.84,0.4 -0.93,0.43c-1.68,-0.43 -2.95,-0.61 -4.29,0.68l-0.83,0.14c-0.65,-1.17 -1.72,-1.39 -3.22,-0.67 -1.06,-0.49 -2.1,-1.01 -3.13,-1.55l-0.56,-0.36c-1.65,-1.21 -3.02,-2.69 -4.36,-4.23 0.44,-1.07 0.14,-1.84 -0.9,-2.31l-0.32,-0.93 -0.2,-0.73c-0.6,-2.48 -0.59,-4.82 0,-7.3l0.31,-0.88 0.49,-1.02 0.38,-0.88 0.37,-0.94c1.72,-0.62 2.85,-0.94 3.13,-2.96 0.72,-0.5 1.45,-0.99 2.17,-1.48l0.75,-0.43 0.98,-0.5z" fill="#91ab84"/>
  <path d="m93.11,36.19 l0.74,0.25z" fill="#816f50"/>
  <path d="M83.01,37.07 L82.26,37.5Z" fill="#816f50"/>
  <path d="m94.79,36.75c1.11,-0.24 1.83,0.13 2.16,1.12 -1.05,0.26 -1.77,-0.11 -2.16,-1.12z" fill="#816f50"/>
  <path d="m80.09,38.98c-0.28,2.02 -1.41,2.34 -3.13,2.96 0.11,-2.35 1.05,-2.61 3.13,-2.96z" fill="#816f50"/>
  <path d="m97.8,38.96c1.33,-0.03 2.04,0.63 2.14,1.96 -1.43,0.14 -2.14,-0.52 -2.14,-1.96z" fill="#816f50"/>
  <path d="m177.79,40.93c0.52,19.22 0.02,38.63 0.25,57.88 -0.13,1.98 0.35,4.27 -1.16,5.82 -5.92,-3.8 -10.42,-7.3 -17.74,-7.98 -5.76,-0.55 -4.79,-5.13 -9.54,-7.42 -5.1,-2.53 -10.04,-6.72 -15.35,-2.2 0.88,-1.76 1.7,-3.54 2.46,-5.35 0.69,6.26 4.84,-5.21 0.41,-1.92 0.3,-1.73 0.31,-3.21 0.04,-4.94 2.86,1.26 3.47,-1.51 6.34,-0.97 0.05,1.22 0.05,2.45 -0.01,3.67 -3.51,-1.93 -5.07,7.09 -1.12,6.88 9.14,2.07 13.58,10.64 22.48,12.3 -4.68,-6.51 -5.03,-12.89 -7.13,-20.26 1.58,-5.33 1.58,-10.69 4.09,-15.78 1.18,-3.36 5,-4.97 5.1,-8.73 -7.72,1.29 -14.89,7.15 -19.5,13.27 -1.92,3.27 -6.74,2.29 -9.76,4.72l-0.63,0.24 -0.96,-0.06 -1.14,-1.12c3.71,-1.79 9.89,-1.53 11.94,-5.33 5.38,-8.31 13.3,-10.12 20.97,-14.99 3.63,-1.65 6.35,-7.2 9.96,-7.73z" fill="#816f50"/>
  <path d="m1.13,41.58c1.68,0.75 2.87,1.63 4.13,2.97 7.77,8.26 18.68,8.86 25.28,18.69 2.76,4.67 12.73,6.02 16.94,2.7 -1.02,3.1 -5.67,2.87 -2.99,6.11 0.79,0.92 8.45,0.2 3.85,1.94 -4.46,0.03 -0.49,5.06 -4.5,5.63 -3.89,0.66 2.39,1.88 -1.79,2.56 -2.21,-2.8 -1.58,-5.13 -1.22,-8.36 -1.99,1.8 -1.05,5.32 -4.25,4.96 0.05,-2.77 -0.62,-1.39 -2.66,-1.43 1.39,-4.92 4.64,-1.14 7.07,-5.56C40.03,66.73 33.23,69.64 30.85,65.99 26.3,59.13 18.31,53.13 10.14,51.83c4.49,6.16 6.84,10.32 9.14,17.68 2.38,7.25 9.55,-0.27 10.47,8.22 -2.48,1.18 -5.54,1.61 -8.28,1.57 -3.89,3.99 -3.5,9 -6.48,13.51 -0.65,1.94 -2.09,3.42 1.24,2.67l0.47,-0.06c6.94,-2.05 10.06,-10.68 19.29,-10.51 -2.43,2.1 -5.88,2.27 -8.31,4.55 -5,3.09 -6.48,7.88 -12.71,8.21 -5.16,-0.13 -9.38,4.42 -13.69,7.03l-0.5,-0.81C1.09,99.83 1.14,95.78 0.74,91.73 1.37,89.95 1.3,88.52 0.66,86.75c0.51,-0.99 0.57,-1.98 0.19,-2.96 0.17,-3.3 0.2,-6.59 0.09,-9.9 0.1,-3.39 0.12,-6.78 -0.18,-10.17 0.51,-1.3 0.52,-2.61 0.03,-3.93 0.26,-3.05 0.27,-6.02 -0.02,-9.06 0.49,-1.29 0.48,-2.62 -0.04,-4l0.14,-1.91c0.08,-1.08 0.17,-2.16 0.26,-3.24z" fill="#816f50"/>
  <path d="m64.38,41.98 l0.09,0.9z" fill="#000000"/>
  <path d="m67.27,42.08c0.48,0.49 0.48,0.49 0,0z" fill="#816f50"/>
  <path d="m127.3,42.1c2.98,-1.09 1.3,2.22 -0.04,2.88 -2.09,2.45 -1.32,-2.68 0.04,-2.88z" fill="#816f50"/>
  <path d="m76.59,42.88 l-0.38,0.88z" fill="#816f50"/>
  <path d="m101.32,43.08 l0.42,0.71z" fill="#816f50"/>
  <path d="m121.17,42.98c-0.97,5.04 5.05,-0.96 0,0z" fill="#816f50"/>
  <path d="m64.49,43.91 l-0.02,0.5c0,-0.17 0.01,-0.33 0.02,-0.5z" fill="#91ab84"/>
  <path d="M0,44.83 L0.87,44.82 0.73,46.73 0,46.69Z" fill="#252526"/>
  <path d="m75.72,44.78 l-0.31,0.88z" fill="#816f50"/>
  <path d="m102.29,44.75 l0.34,0.9z" fill="#816f50"/>
  <path d="m59.27,46.08c0.48,0.49 0.48,0.49 0,0z" fill="#816f50"/>
  <path d="m0,46.69 l0.73,0.04c0.52,1.38 0.53,2.71 0.04,4L0,50.49Z" fill="#000000"/>
  <path d="m0,50.49 l0.77,0.24c0.29,3.04 0.28,6.01 0.02,9.06L0,59.8Z" fill="#252526"/>
  <path d="m166.91,51.93c-0.1,3.76 -3.92,5.37 -5.1,8.73 -2.51,5.09 -2.51,10.45 -4.09,15.78 2.1,7.37 2.45,13.75 7.13,20.26 -8.9,-1.66 -13.34,-10.23 -22.48,-12.3 -3.95,0.21 -2.39,-8.81 1.12,-6.88 0.06,-1.22 0.06,-2.45 0.01,-3.67 -2.87,-0.54 -3.48,2.23 -6.34,0.97l-0.54,-2.17 -0.17,-0.69 -0.39,-1.86 0.96,0.06c0.3,0.06 0.5,-0.02 0.63,-0.24 3.02,-2.43 7.84,-1.45 9.76,-4.72 4.61,-6.12 11.78,-11.98 19.5,-13.27z" fill="#252526"/>
  <path d="m75.41,52.96 l0.2,0.73z" fill="#816f50"/>
  <path d="m102.59,52.97 l-0.21,0.76z" fill="#816f50"/>
  <path d="m75.93,54.62c1.04,0.47 1.34,1.24 0.9,2.31 -0.86,-0.48 -1.15,-1.25 -0.9,-2.31z" fill="#816f50"/>
  <path d="m102.07,54.67c0.21,1.86 0.27,2.91 -1.8,3.4 0.04,-1.66 0.35,-2.5 1.8,-3.4z" fill="#816f50"/>
  <path d="m0,59.8 l0.79,-0.01c0.49,1.32 0.48,2.63 -0.03,3.93L0,63.49Z" fill="#000000"/>
  <path d="m81.19,61.16 l0.56,0.36z" fill="#816f50"/>
  <path d="M96.76,61.12 L96,61.59Z" fill="#816f50"/>
  <path d="m94.99,62.09 l-0.84,0.4z" fill="#816f50"/>
  <path d="m54.78,63.46 l-0.57,0.01c0.19,-0.03 0.38,-0.03 0.57,-0.01z" fill="#816f50"/>
  <path d="m84.88,63.07c1.5,-0.72 2.57,-0.5 3.22,0.67 -1.34,0.49 -2.41,0.27 -3.22,-0.67z" fill="#816f50"/>
  <path d="m93.22,62.92c-1.36,1.39 -2.57,1.23 -4.29,0.68 1.34,-1.29 2.61,-1.11 4.29,-0.68z" fill="#816f50"/>
  <path d="m124.78,63.43 l-0.54,-0.01c0.19,-0.03 0.36,-0.03 0.54,0.01z" fill="#816f50"/>
  <path d="m0,63.49 l0.76,0.23c0.3,3.39 0.28,6.78 0.18,10.17L0,73.39Z" fill="#252526"/>
  <path d="m52.1,63.82c-0.43,0.99 -1.21,1.29 -2.36,0.92 0.52,-0.89 1.31,-1.2 2.36,-0.92z" fill="#816f50"/>
  <path d="m52.1,63.82 l2.11,-0.35 0.57,-0.01c1.05,0.12 2.1,0.26 3.15,0.41 0.42,0.97 1.2,1.25 2.33,0.85l0.88,0.43 0.63,0.37c1.83,1.19 3.3,2.75 4.56,4.52l0.45,0.76 0.49,1.02 0.38,0.83 0.41,0.94c-0.51,1.53 -0.22,2.63 0.86,3.29l0.07,1.84C68,79.11 67.71,79.86 68.11,80.96L67.57,82.94 67.34,83.6 67,84.41c-2.21,1.5 -4.22,2.87 -5.43,5.35l-0.79,0.38 -0.66,0.28 -2.03,0.71c-2.29,-0.67 -3.81,-0.7 -6.11,-0.04l-1.85,-0.26c-1.65,-1.65 -3.06,-3.14 -5.38,-3.81l-0.44,-0.54c-0.45,-1.33 -0.89,-2.52 -1.82,-3.6l-0.44,-0.7c4.18,-0.68 -2.1,-1.9 1.79,-2.56 4.01,-0.57 0.04,-5.6 4.5,-5.63 4.6,-1.74 -3.06,-1.02 -3.85,-1.94 -2.68,-3.24 1.97,-3.01 2.99,-6.11l0.77,-0.43 0.62,-0.32 0.87,-0.45c1.15,0.37 1.93,0.07 2.36,-0.92z" fill="#91ab84"/>
  <path d="m57.93,63.87c1.02,-0.33 1.8,-0.04 2.33,0.85 -1.13,0.4 -1.91,0.12 -2.33,-0.85z" fill="#816f50"/>
  <path d="m119.83,64.19 l-0.68,0.22z" fill="#816f50"/>
  <path d="m119.83,64.19c1.44,-0.32 2.91,-0.57 4.41,-0.77l0.54,0.01c1.13,0.21 2.27,0.48 3.4,0.79l0.86,0.33 0.98,0.48 0.74,0.46c1.44,1.1 2.79,2.3 4.16,3.49l1.14,1.12 0.39,1.86 0.17,0.69 0.54,2.17c0.27,1.73 0.26,3.21 -0.04,4.94l-0.41,1.92c-0.76,1.81 -1.58,3.59 -2.46,5.35 -0.81,0.72 -1.65,1.41 -2.5,2.09l-0.75,0.46 -1.01,0.5 -0.83,0.38 -0.94,0.41c-1.54,-0.51 -2.63,-0.22 -3.28,0.87 -0.95,0.02 -1.91,0.04 -2.86,0.07 -0.38,-0.99 -1.12,-1.29 -2.22,-0.91l-2.02,-0.54 -0.77,-0.22 -0.98,-0.3c-1.05,-1.98 -2.14,-3 -4.04,-4.15l-0.43,-0.95 -0.41,-0.87 -0.49,-1.02 -0.31,-0.89c-0.79,-3.82 -0.65,-7.3 0.64,-10.98 1.6,0.08 2.2,-0.69 1.82,-2.31 0.76,-0.75 1.53,-1.49 2.33,-2.2l0.54,-0.38c1.08,-0.63 2.22,-1.19 3.41,-1.68z" fill="#91ab84"/>
  <path d="m128.18,64.22 l0.86,0.33z" fill="#816f50"/>
  <path d="m48.87,65.19 l-0.62,0.32z" fill="#816f50"/>
  <path d="m61.14,65.15 l0.63,0.37z" fill="#816f50"/>
  <path d="m130.02,65.03 l0.74,0.46z" fill="#816f50"/>
  <path d="m95.26,66.19c1.3,-0.66 1.29,4.9 0,4.24 -0.66,-1.05 -0.66,-3.19 0,-4.24z" fill="#816f50"/>
  <path d="m115.74,66.09 l-0.54,0.38z" fill="#816f50"/>
  <path d="m82.3,67.22c1.63,-0.26 0.99,4.49 -0.82,3.46 -0.41,-0.98 0.24,-2.63 0.82,-3.46z" fill="#816f50"/>
  <path d="m112.87,68.67c0.38,1.62 -0.22,2.39 -1.82,2.31 0.07,-1.16 0.68,-1.92 1.82,-2.31z" fill="#816f50"/>
  <path d="m66.33,70.04 l0.45,0.76z" fill="#816f50"/>
  <path d="m109.11,70.06c-1.4,3.37 3.33,0.29 0,0z" fill="#816f50"/>
  <path d="m137.02,70.16 l0.63,-0.24c-0.13,0.22 -0.33,0.3 -0.63,0.24z" fill="#000000"/>
  <path d="m67.27,71.82 l0.38,0.83z" fill="#816f50"/>
  <path d="m123.27,72.08c0.49,0.49 0.49,0.49 0,0z" fill="#816f50"/>
  <path d="m136.45,71.96 l0.17,0.69z" fill="#816f50"/>
  <path d="m119.19,72.93c-3.79,2.93 3.55,2.06 0,0z" fill="#816f50"/>
  <path d="m151.35,73.26c1.85,0.26 6.52,-0.35 4.94,2.69 0.37,4.46 -5.19,2.68 -7.98,2.59 -1.44,-4.62 -2.25,-4.57 3.04,-5.28z" fill="#816f50"/>
  <path d="m0,73.39 l0.94,0.5c0.11,3.31 0.08,6.6 -0.09,9.9L0,83.82Z" fill="#000000"/>
  <path d="m30.27,74.08c0.48,0.49 0.48,0.49 0,0z" fill="#816f50"/>
  <path d="m42.25,73.91c0.28,3.34 3.37,-1.38 0,0z" fill="#91ab84"/>
  <path d="m68.06,73.59c1.06,0.75 1.35,1.84 0.86,3.29 -1.08,-0.66 -1.37,-1.76 -0.86,-3.29z" fill="#816f50"/>
  <path d="m130.27,74.08c0.48,0.49 0.48,0.49 0,0z" fill="#816f50"/>
  <path d="m141.27,75.08c0.49,0.49 0.49,0.49 0,0z" fill="#252526"/>
  <path d="m27.27,76.08c0.49,0.49 0.49,0.49 0,0z" fill="#252526"/>
  <path d="m43.28,76.14c-3.76,4.67 3.6,2.18 0,0z" fill="#91ab84"/>
  <path d="m23.27,77.08c0.48,0.49 0.48,0.49 0,0z" fill="#252526"/>
  <path d="m130.17,78.16c-1.84,4.73 3.53,0.98 0,0z" fill="#816f50"/>
  <path d="m68.99,78.72c0.33,1.04 0.03,1.78 -0.88,2.24 -0.4,-1.1 -0.11,-1.85 0.88,-2.24z" fill="#816f50"/>
  <path d="m136.71,81.68 l0.41,-1.92c4.43,-3.29 0.28,8.18 -0.41,1.92z" fill="#252526"/>
  <path d="m90.13,80.04c3.24,2.17 -3.13,17.47 5.58,14.53 2.43,-1.94 1.54,-4.08 1.51,-6.74 4.83,4.6 -1.97,12.24 -6.49,7.27 -1.55,-4.18 -0.51,-10.47 -0.6,-15.06z" fill="#816f50"/>
  <path d="m87.13,81.04c1.74,-0.01 0.63,6.92 0.74,8.54 -1.74,0.01 -0.63,-6.92 -0.74,-8.54z" fill="#816f50"/>
  <path d="m95.22,81.18c-1.95,6.25 3.4,1.96 0,0z" fill="#816f50"/>
  <path d="m72.05,81.84c1.5,1.32 1.86,4.08 1.99,5.97 -0.29,9.31 -9.52,12.08 -8.99,21.97 2.99,13.04 5.6,24.82 7.79,38.07 2.1,9.26 0.81,19.23 1.16,28.74l-0.89,-0.13c-1.88,-4.3 -1.22,-9.33 -0.43,-13.82 0.45,-13.66 -3.8,-27.75 -6.25,-41.2 -0.85,-6.32 -3.98,-11.42 -1.63,-17.77 1.57,-5.36 6.3,-8.15 7.66,-13.47 1.08,-2.73 -0.56,-5.26 -0.41,-8.36z" fill="#816f50"/>
  <path d="m82.27,82.08c0.48,0.49 0.48,0.49 0,0z" fill="#816f50"/>
  <path d="m105.27,82.08c0.49,0.49 0.49,0.49 0,0z" fill="#816f50"/>
  <path d="m110.41,81.96 l0.31,0.89z" fill="#816f50"/>
  <path d="m42.49,82.88c0.93,1.08 1.37,2.27 1.82,3.6 -2.24,-1.84 -4.39,-1.66 -7.12,-1.84 0.44,-1.23 4.05,-0.86 5.3,-1.76z" fill="#816f50"/>
  <path d="M67.57,82.94 L67.34,83.6Z" fill="#816f50"/>
  <path d="m0,83.82 l0.85,-0.03c0.38,0.98 0.32,1.97 -0.19,2.96L0,86.7Z" fill="#252526"/>
  <path d="m104.99,87.81c-0.6,5.76 4.91,9.16 7.07,13.96 3.57,10.19 -2.45,21.97 -2.99,31.98l-0.2,0.71c-4.55,13.97 -3.88,27.69 -4,42.12 -1.42,0.64 -0.62,-3.02 -0.89,-3.76 -1.1,-17.65 1.83,-33.98 6.02,-51.01 1.34,-5.55 3.17,-12.82 1.37,-18.36 -3.11,-6.65 -8.86,-9.18 -7.37,-17.66 0.43,-4.76 1.29,0.61 0.99,2.02z" fill="#816f50"/>
  <path d="m111.21,83.87 l0.41,0.87z" fill="#816f50"/>
  <path d="m67,84.41c-0.91,3.14 -2.65,4.06 -5.43,5.35 1.21,-2.48 3.22,-3.85 5.43,-5.35z" fill="#816f50"/>
  <path d="m81.27,85.08c0.49,0.49 0.49,0.49 0,0z" fill="#816f50"/>
  <path d="m96.27,86.08c0.48,0.49 0.48,0.49 0,0z" fill="#816f50"/>
  <path d="m112.05,85.69c1.9,1.15 2.99,2.17 4.04,4.15 -2.94,-0.35 -3.87,-1.13 -4.04,-4.15z" fill="#816f50"/>
  <path d="m0,86.7 l0.66,0.05c0.64,1.77 0.71,3.2 0.08,4.98L0,91.48Z" fill="#000000"/>
  <path d="m44.75,87.02c2.32,0.67 3.73,2.16 5.38,3.81 -3.12,0.08 -3.78,-1.6 -5.38,-3.81z" fill="#816f50"/>
  <path d="m80.79,86.84c-0.25,1.62 -0.66,3.26 -0.76,4.89 2.26,6.2 6.71,-0.24 7.76,4.72 -1.47,0.03 -2.73,0.13 -4.11,0.67C79.37,97.05 76.84,89 80.79,86.84Z" fill="#816f50"/>
  <path d="M131.75,89.12 L131,89.58Z" fill="#816f50"/>
  <path d="m60.78,90.14 l-0.66,0.28z" fill="#816f50"/>
  <path d="m117.07,90.14 l0.77,0.22z" fill="#816f50"/>
  <path d="m129.99,90.08 l-0.83,0.38z" fill="#816f50"/>
  <path d="m51.98,91.09c2.3,-0.66 3.82,-0.63 6.11,0.04 -2.26,1.27 -3.88,1.39 -6.11,-0.04z" fill="#816f50"/>
  <path d="m87.11,91.06c-1.4,3.37 3.33,0.29 0,0z" fill="#816f50"/>
  <path d="m119.86,90.9c1.1,-0.38 1.84,-0.08 2.22,0.91 -1.05,0.32 -1.79,0.02 -2.22,-0.91z" fill="#816f50"/>
  <path d="m128.22,90.87c-0.75,1.06 -1.84,1.35 -3.28,0.87 0.65,-1.09 1.74,-1.38 3.28,-0.87z" fill="#816f50"/>
  <path d="m0,91.48 l0.74,0.25c0.4,4.05 0.35,8.1 0.04,12.16L0,103.92Z" fill="#252526"/>
  <path d="m76.27,92.08c0.49,0.49 0.49,0.49 0,0z" fill="#816f50"/>
  <path d="m102.27,93.08c0.48,0.49 0.48,0.49 0,0z" fill="#816f50"/>
  <path d="m76.27,94.08c0.49,0.49 0.49,0.49 0,0z" fill="#816f50"/>
  <path d="m16.7,95.42 l-0.47,0.06c0.15,-0.02 0.31,-0.04 0.47,-0.06z" fill="#000000"/>
  <path d="m101.27,95.08c0.48,0.49 0.48,0.49 0,0z" fill="#816f50"/>
  <path d="m131.27,95.08c0.49,0.49 0.49,0.49 0,0z" fill="#000000"/>
  <path d="m89.27,96.08c0.49,0.49 0.49,0.49 0,0z" fill="#816f50"/>
  <path d="m99.18,97.23c1.09,-0.46 2.22,2.49 1.58,3.22 -1.49,0.59 -2.42,-2.24 -1.58,-3.22z" fill="#816f50"/>
  <path d="m105.27,98.08c0.49,0.49 0.49,0.49 0,0z" fill="#816f50"/>
  <path d="m0,103.92 l0.78,-0.03 0.5,0.81c0.04,1.63 0.07,2.91 -1.28,4.04z" fill="#000000"/>
  <path d="m171.27,105.08c0.49,0.49 0.49,0.49 0,0z" fill="#816f50"/>
  <path d="m179,104.95v6.99l-0.56,-0.26 -0.75,-1.75c0.05,-1.9 -0.23,-3.57 1.31,-4.98z" fill="#000000"/>
  <path d="m172.95,106.97c1.95,0.65 3.31,1.5 4.74,2.96l0.75,1.75c-1.96,-0.97 -4.89,-2.44 -5.49,-4.71z" fill="#816f50"/>
  <path d="m5.82,112.09c-1.52,1.08 -3.32,3.56 -5.19,1.78 0.51,-1.09 0.52,-2.2 0.05,-3.34 1.89,-0.35 3.48,0.8 5.14,1.56z" fill="#816f50"/>
  <path d="m0,110.57 l0.68,-0.04c0.47,1.14 0.46,2.25 -0.05,3.34L0,113.56Z" fill="#000000"/>
  <path d="m33.24,112.05c-6.25,2.35 4.1,4.46 0,0z" fill="#816f50"/>
  <path d="m36.2,112.01c-1.2,4.44 4.44,-1.19 0,0z" fill="#816f50"/>
  <path d="m179,112.59v17.78c-1.5,-3.33 -1.66,-14.57 0,-17.78z" fill="#000000"/>
  <path d="m27.21,114.08c-0.34,5.13 6.1,-0.92 0,0z" fill="#816f50"/>
  <path d="m157.2,113.79c1.49,1.56 2.64,6.05 -0.03,7 -0.25,-2.35 -0.24,-4.65 0.03,-7z" fill="#816f50"/>
  <path d="m0,115.25c1.51,3.31 1.65,13.66 0,16.88z" fill="#000000"/>
  <path d="m24.2,116.01c-1.2,4.44 4.44,-1.2 0,0z" fill="#816f50"/>
  <path d="m35.27,116.08c2.05,0.39 -0.48,3.64 -1.87,2.55 -0.49,-1 1.02,-2.29 1.87,-2.55z" fill="#816f50"/>
  <path d="m134.35,115.98c0.98,3.53 4.73,-1.84 0,0z" fill="#816f50"/>
  <path d="m41.27,117.08c0.48,0.49 0.48,0.49 0,0z" fill="#816f50"/>
  <path d="m139.27,117.08c0.49,0.49 0.49,0.49 0,0z" fill="#816f50"/>
  <path d="m43.27,118.08c0.48,0.49 0.48,0.49 0,0z" fill="#816f50"/>
  <path d="m132.27,118.08c0.48,0.49 0.48,0.49 0,0z" fill="#816f50"/>
  <path d="m148.37,120.35c1.76,0.23 11.87,1.65 4.76,2.83 4.6,7.05 7.03,-1.14 11.24,4.24 4.33,4.66 7.37,6.31 13.44,3.48 0.47,6.25 0.03,12.58 0.22,18.85 -2.66,0.02 -5.32,0.08 -7.98,0.18 -1.65,-0.47 -2.86,-0.65 -4.11,0.74 -0.95,0.06 -1.9,0.11 -2.86,0.17 -1.04,-0.34 -1.78,-0.05 -2.23,0.88l-1.99,0.5 -0.75,0.22 -2.22,0.75 -0.69,0.24 -0.86,0.31c-2.58,0.61 -4.36,1.43 -6.47,3.01l-0.74,0.15c-1.24,0.08 -2.01,0.75 -2.31,2.02l-0.94,0.24 -0.71,0.18 -0.89,0.23c-1.52,-6.52 -2.72,-12.81 -6.72,-18.35 -2,-3.76 -6.48,-8.72 -5.13,-13.17 4.02,-6.58 10.04,-10.86 17.94,-7.7z" fill="#816f50"/>
  <path d="m26.45,121.22c4.29,-1.64 8.81,-1.92 13.31,-1.1 2.12,2.49 10.58,0.11 4.54,3.96 3.1,4.18 4.36,5.69 1.53,10.6 -5.22,6.93 -7.66,14.69 -10.22,22.85 -1.25,0.46 -2.87,-0.27 -4.15,-0.46l-0.74,-0.54 -0.74,-0.45 -0.99,-0.51 -0.83,-0.39 -0.94,-0.41c-0.52,-0.92 -1.33,-1.24 -2.42,-0.98l-0.93,-0.34 -0.75,-0.26 -2.23,-0.75 -0.75,-0.22 -1.99,-0.5c-0.44,-0.92 -1.19,-1.22 -2.23,-0.9 -0.95,-0.02 -1.91,-0.04 -2.86,-0.05 -0.6,-1.11 -1.63,-1.42 -3.11,-0.92 -2.89,-0.17 -6.77,0.61 -9.26,-1.04l0.04,-2.14 0.01,-0.73c0.35,-3.2 0.34,-6.23 -0.02,-9.43l-0.01,-0.75v-2.13l-0.05,-0.77c4.71,-1.24 9.22,-0.47 12.36,-5.04 2.56,-4.32 8.59,0.14 11.24,-3.72 1.28,-1.13 -0.14,-5.71 2.19,-2.88z" fill="#816f50"/>
  <path d="m23.19,120.93c-3.79,2.93 3.55,2.06 0,0z" fill="#816f50"/>
  <path d="m131.19,121.06c-4.65,4.73 5.31,1.29 0,0z" fill="#816f50"/>
  <path d="m128.27,125.08c0.48,0.49 0.48,0.49 0,0z" fill="#816f50"/>
  <path d="m49.24,130.03c-1.81,6.74 5.64,-0.43 0,0z" fill="#816f50"/>
  <path d="m0,132.97 l0.66,-0.11 0.05,0.77 -0.71,0.02z" fill="#000000"/>
  <path d="m0,133.65 l0.71,-0.02v2.13L0,135.71Z" fill="#252526"/>
  <path d="m109.07,133.75c0.57,0.45 0.5,0.69 -0.2,0.71z" fill="#000000"/>
  <path d="m0,135.71 l0.71,0.05 0.01,0.75L0,136.38Z" fill="#000000"/>
  <path d="m0,136.38 l0.72,0.13c0.36,3.2 0.37,6.23 0.02,9.43H0Z" fill="#252526"/>
  <path d="m99.27,139.08c0.48,0.49 0.48,0.49 0,0z" fill="#816f50"/>
  <path d="M0,145.94H0.74L0.73,146.67 0,146.6Z" fill="#000000"/>
  <path d="m0,146.6 l0.73,0.07 -0.04,2.14L0,148.53Z" fill="#252526"/>
  <path d="m9.95,149.85c1.48,-0.5 2.51,-0.19 3.11,0.92 -1.49,0.49 -2.53,0.19 -3.11,-0.92z" fill="#252526"/>
  <path d="m170.05,149.93c-1.21,1.44 -2.46,1.22 -4.11,0.74 1.25,-1.39 2.46,-1.21 4.11,-0.74z" fill="#252526"/>
  <path d="m15.92,150.82c1.04,-0.32 1.79,-0.02 2.23,0.9 -1.1,0.39 -1.85,0.09 -2.23,-0.9z" fill="#252526"/>
  <path d="m163.08,150.84c-0.39,0.98 -1.14,1.27 -2.23,0.88 0.45,-0.93 1.19,-1.22 2.23,-0.88z" fill="#252526"/>
  <path d="m20.14,152.22 l0.75,0.22z" fill="#252526"/>
  <path d="m158.86,152.22 l-0.75,0.22z" fill="#252526"/>
  <path d="m23.12,153.19 l0.75,0.26z" fill="#252526"/>
  <path d="m155.89,153.19 l-0.69,0.24z" fill="#252526"/>
  <path d="m24.8,153.79c1.09,-0.26 1.9,0.06 2.42,0.98 -1.11,0.32 -1.92,-0.01 -2.42,-0.98z" fill="#252526"/>
  <path d="m154.34,153.74c-2.26,2.38 -3.13,2.86 -6.47,3.01 2.11,-1.58 3.89,-2.4 6.47,-3.01z" fill="#252526"/>
  <path d="m28.16,155.18 l0.83,0.39z" fill="#252526"/>
  <path d="m29.98,156.08 l0.74,0.45z" fill="#252526"/>
  <path d="m147.13,156.9c0.05,1.47 -0.72,2.15 -2.31,2.02 0.3,-1.27 1.07,-1.94 2.31,-2.02z" fill="#252526"/>
  <path d="m143.88,159.16 l-0.71,0.18z" fill="#252526"/>
</svg>
