<?xml version="1.0" ?>
<svg xmlns="http://www.w3.org/2000/svg" width="179.28539" height="178.27766" viewBox="0 0 179.28539 178.27766">
  <path d="m101,0.458c13.96,1.73 27.18,6.93 38.39,15.44 10.34,8.38 23.73,13 37.03,12.93 -10.47,7 -20.64,14.48 -31.24,21.29 -0.59,-2.48 -0.6,-4.95 -0.53,-7.47 -1.88,-0.27 -3.74,-0.54 -5.64,-0.62 -32.65,-0.12 -65.37,0.09 -98.01,-0.13 -1.96,-0.04 -3.69,0.2 -5.55,0.82 -0.05,2.7 -0.01,5.41 -0.06,8.11 -0.78,-0.4 -1.55,-0.81 -2.31,-1.23 -2.7,-1.78 -5.4,-3.55 -7.98,-5.51 -3.13,-2.33 -6.73,-3.77 -9.84,-6.1 -3.67,-2.81 -7.32,-5.72 -11.2,-8.26 3.5,-1.1 7.07,-1.27 10.66,-1.8 5.48,-1.17 10.82,-2.53 15.77,-5.22 9.08,-4.24 15.37,-11.61 24.68,-15.13C69.6,0.428 85.15,-0.862 101,0.458Z" fill="#373939"/>
  <path d="m1.73,28.378c0.79,0.44 1.56,0.89 2.33,1.35 3.88,2.54 7.53,5.45 11.2,8.26 3.11,2.33 6.71,3.77 9.84,6.1 2.58,1.96 5.28,3.73 7.98,5.51l0.76,1.21c-8.57,-3.73 -16.56,-9.92 -24.33,-15.05 -2.88,-1.85 -5.66,-4.28 -8.83,-5.45l-0.68,-0.31v-0.39c0.57,-0.42 1.15,-0.83 1.73,-1.23z" fill="#adafaf"/>
  <path d="m176.42,28.828c0.73,-0.14 1.46,-0.29 2.2,-0.43l0.13,1.21c-5.04,2.61 -9.83,5.52 -14.03,9.38 -6.57,4.66 -13.25,9.2 -19.95,13.69 0.13,-0.86 0.27,-1.71 0.41,-2.56 10.6,-6.81 20.77,-14.29 31.24,-21.29z" fill="#969ca4"/>
  <path d="m0.68,30.308c3.17,1.17 5.95,3.6 8.83,5.45 7.77,5.13 15.76,11.32 24.33,15.05 2.06,2 1.57,4.19 1.81,6.8 1.01,0.81 2.01,1.62 3.02,2.43 -1.37,3.06 -3.49,5.74 -3.23,9.2 0.13,18.76 0.15,37.4 0.05,56.15 -3.31,2.9 -6.94,5.31 -10.57,7.77 -6.84,4.42 -13.37,9.32 -20.13,13.84 -1.32,0.88 -2.39,2.01 -3.5,3.14l-0.2,0.03c-0.16,-36.97 0.08,-73.91 -0.08,-110.89 -0.02,-2.93 0.29,-6.12 -0.33,-8.97z" fill="#373838"/>
  <path d="m178.75,29.608c0.24,1.89 0.48,3.76 0.51,5.67 -0.08,30.99 0.04,62 -0.02,93 -0.06,7.43 0.21,14.86 -0.13,22.27 -0.84,-0.22 -1.69,-0.43 -2.53,-0.65l-0.58,-0.42 3,0.49c-1.08,-1.55 -2.57,-2.56 -4.12,-3.58 -10.14,-6.8 -20.23,-13.55 -30.14,-20.7 0.44,-3.94 0.37,-7.47 0.01,-11.41 -0.02,-13.97 0,-28.02 0.01,-42 0.03,-6.46 -0.34,-13.17 0.01,-19.6 6.7,-4.49 13.38,-9.03 19.95,-13.69 4.2,-3.86 8.99,-6.77 14.03,-9.38z" fill="#333434"/>
  <path d="m35.45,42.718c1.86,-0.62 3.59,-0.86 5.55,-0.82 32.64,0.22 65.36,0.01 98.01,0.13 1.9,0.08 3.76,0.35 5.64,0.62 -0.07,2.52 -0.06,4.99 0.53,7.47 -0.14,0.85 -0.28,1.7 -0.41,2.56 -0.35,6.43 0.02,13.14 -0.01,19.6 -0.01,13.98 -0.03,28.03 -0.01,42 0.36,3.94 0.43,7.47 -0.01,11.41 0.19,0.94 0.38,1.89 0.58,2.83 0.17,2.84 -0.28,5.6 -0.88,8.36 -0.99,-0.15 -1.97,-0.3 -2.96,-0.45 0.15,-1.51 0.28,-3.02 0.4,-4.54 -1.14,1.49 -2.08,3.05 -2.92,4.72 -3.19,0.21 -6.39,0.19 -9.58,0.09 0.04,-2.1 0.1,-4.2 0.23,-6.29 -0.72,2.13 -1.54,4.22 -2.43,6.28 -30.53,0.1 -61.09,0.19 -91.62,-0.07 -0.07,-2.93 -0.13,-5.85 -0.11,-8.78 0.03,-0.82 0.04,-1.63 0.04,-2.45 0.1,-18.75 0.08,-37.39 -0.05,-56.15 -0.26,-3.46 1.86,-6.14 3.23,-9.2 -1.01,-0.81 -2.01,-1.62 -3.02,-2.43 -0.24,-2.61 0.25,-4.8 -1.81,-6.8l-0.76,-1.21c0.76,0.42 1.53,0.83 2.31,1.23 0.05,-2.7 0.01,-5.41 0.06,-8.11z" fill="#c24b33"/>
  <path d="m64.37,46.628c0.89,-0.42 1.66,-0.46 2.31,-0.09 0.81,1.58 -2.29,2.67 -3.3,1.66 -0.25,-0.58 0.08,-1.1 0.99,-1.57z" fill="#842a10"/>
  <path d="m67.94,46.988c2.41,-0.03 3.46,0.6 5.2,2.11 -1.04,0.56 -2.09,1.12 -3.14,1.66 -0.73,-1.24 -1.41,-2.5 -2.06,-3.77z" fill="#823117"/>
  <path d="m141.18,58.758c1.02,-0.83 3.3,-0.08 2.49,1.42 -0.96,0.94 -3.64,0.05 -2.49,-1.42z" fill="#802b11"/>
  <path d="m133.97,91.298c1.84,2.22 0.96,4.44 -0.83,6.26 -0.16,-2.27 -0.51,-4.23 0.83,-6.26z" fill="#942c12"/>
  <path d="m35.49,125.388c0,0.82 -0.01,1.63 -0.04,2.45 -5.87,2.78 -10.62,6.1 -15.26,10.64 -5.64,3.98 -11.29,8.35 -17.37,11.61l-1.53,0.05c1.11,-1.13 2.18,-2.26 3.5,-3.14 6.76,-4.52 13.29,-9.42 20.13,-13.84 3.63,-2.46 7.26,-4.87 10.57,-7.77z" fill="#686b65"/>
  <path d="m144.74,125.688c9.91,7.15 20,13.9 30.14,20.7 1.55,1.02 3.04,2.03 4.12,3.58l-3,-0.49c-6.35,-4.77 -13.1,-9 -19.61,-13.56 -3.73,-2.48 -7.04,-5.38 -11.07,-7.4 -0.2,-0.94 -0.39,-1.89 -0.58,-2.83z" fill="#9f7c63"/>
  <path d="m35.45,127.838c-0.02,2.93 0.04,5.85 0.11,8.78 30.53,0.26 61.09,0.17 91.62,0.07 0.89,-2.06 1.71,-4.15 2.43,-6.28 -0.13,2.09 -0.19,4.19 -0.23,6.29 3.19,0.1 6.39,0.12 9.58,-0.09 0.84,-1.67 1.78,-3.23 2.92,-4.72 -0.12,1.52 -0.25,3.03 -0.4,4.54 0.99,0.15 1.97,0.3 2.96,0.45 0.6,-2.76 1.05,-5.52 0.88,-8.36 4.03,2.02 7.34,4.92 11.07,7.4 6.51,4.56 13.26,8.79 19.61,13.56l0.58,0.42c-4.59,0.13 -9.11,0.27 -13.57,1.46 -8.11,1.56 -15.77,5.82 -22.52,10.43 -8.6,6.87 -18.88,11.7 -29.52,14.43 -3.2,0.86 -6.51,1.02 -9.68,2.06H78.9c-0.55,-1.74 -2.48,-1.73 -3.03,0h-0.05c-4.44,-2 -9.27,-2.28 -13.76,-4.08 -6.75,-2.76 -13.13,-5.57 -19.01,-9.98 -11.1,-9.11 -25.7,-15.16 -40.23,-14.13 6.08,-3.26 11.73,-7.63 17.37,-11.61 4.64,-4.54 9.39,-7.86 15.26,-10.64z" fill="#373737"/>
  <path d="m85.07,130.658 l0.8,0.01 0.38,0.75 -0.4,0.73h-0.8l-0.39,-0.75z" fill="#96230a"/>
  <path d="m78.9,178.278h-3.03c0.55,-1.73 2.48,-1.74 3.03,0z" fill="#141414"/>
</svg>
