<?xml version="1.0" ?>
<svg xmlns="http://www.w3.org/2000/svg" width="178.3404" height="178.00049" viewBox="0 0 178.3404 178.00049">
  <path d="M73.69,0C62.91,2.59 52.77,6.081 43.56,12.431c-6.96,5.22 -13.859,10.14 -22.299,12.69 -4.26,1.58 -8.69,1.729 -13.03,2.909 -2.7,0.01 -5.401,0 -8.101,0 0.01,5.67 0.13,11.35 -0.13,17.02l0.4,0.76c3.24,4.78 6.061,9.75 9.611,14.36 3.68,5.7 8.949,9.66 13.299,14.76 4.86,3.09 9.04,7.151 14.08,9.901 2.26,1.17 4.441,2.479 6.731,3.599 0.088,-0.353 0.173,-0.902 0.245,-1.371 -0.078,0.513 -0.149,0.989 -0.245,1.371l1.159,0.8c2.96,-0.27 2.5,-2.159 3.7,-4.289 1.74,-3.36 4.451,-5.7 7.011,-8.38 1.3,-3.68 5.729,-5.93 7.809,-9.48 1.17,-1.37 2.37,-2.71 3.52,-4.09 0.19,-0.75 0.371,-1.5 0.561,-2.25 6.41,-6.07 11.349,-13.539 17.399,-19.989 -0.47,-0.6 -0.95,-1.19 -1.43,-1.78 -1.95,-1.78 -4.011,-3.441 -6.021,-5.161 -1.01,-0.76 -0.82,-1.85 -0.07,-2.73 1.54,-2.22 3.761,-3.09 5.851,-4.62 1.35,-1.6 2.47,-4.899 4.6,-5.459 3.42,0.22 5.73,3.08 7.49,5.73 2.12,1.41 4.23,3.009 5.43,5.319v0.911c-1.55,3.27 -5.689,3.54 -7.419,6.97 1.03,2.31 2.749,3.94 4.479,5.71 2.67,2.63 4.72,5.8 7.34,8.5l0.39,1.159c0.69,3.33 4.57,4.65 6.19,7.68 1.03,1.37 2.09,2.71 3.18,4.03l0.81,0.491c2.38,3.9 5.84,7.32 9.01,10.6 1.61,4.32 4.829,6.651 7.469,10.191 0.5,0.1 1,0.18 1.5,0.23 3.18,-1.46 6.14,-3.15 9.06,-5.08 1.3,-0.74 2.55,-1.53 3.79,-2.36 2.55,-2.02 4.981,-4.18 7.541,-6.19 5.09,-4.37 9.659,-9.231 13.639,-14.631 4.04,-4.37 6.17,-9.89 9.86,-14.47l0.19,-0.879c0.02,-3.33 -0.019,-6.65 -0.089,-9.98 0.07,-2.03 0.16,-4.051 0.27,-6.081 -2.95,0.1 -5.62,0.54 -8.43,-0.63l-0.82,-0.261c-2.14,-0.83 -4.359,-0.959 -6.589,-1.399 -4.5,-0.82 -8.88,-3.011 -13.1,-4.771 -3.67,-1.95 -7.301,-3.859 -10.531,-6.489 -5.83,-4.59 -12.37,-7.841 -19.09,-10.881C115.28,2.469 110.38,1.96 105.91,0ZM45.182,83.917c-0.005,0.009 -0.009,0.02 -0.015,0.029 0.005,-0.01 0.009,-0.02 0.015,-0.029z" fill="#cbcbcb" stroke-width="0.999997"/>
  <path d="m88.21,21c3.42,0.22 5.73,3.08 7.49,5.73 -0.87,0.81 -1.76,1.6 -2.67,2.35 -3.38,-0.3 1.41,5.14 -2.96,5.91 -4.05,0.08 -2.61,-3.52 -2.43,-6.09 -3.02,3.45 -5.56,4.13 -9.88,2.18 1.54,-2.22 3.76,-3.09 5.85,-4.62 1.35,-1.6 2.47,-4.9 4.6,-5.46z" fill="#424954"/>
  <path d="m95.7,26.73c2.12,1.41 4.23,3.01 5.43,5.32 -2.55,-0.04 -5.17,0.07 -7.7,-0.27 -0.16,-0.9 -0.29,-1.8 -0.4,-2.7 0.91,-0.75 1.8,-1.54 2.67,-2.35z" fill="#343b43"/>
  <path d="m169.91,28.22c2.52,0.07 6.31,-1.01 8.43,0.63 -2.95,0.1 -5.62,0.54 -8.43,-0.63z" fill="#aeb2b0"/>
  <path d="m87.64,28.9c-0.18,2.57 -1.62,6.17 2.43,6.09 4.37,-0.77 -0.42,-6.21 2.96,-5.91 0.11,0.9 0.24,1.8 0.4,2.7 2.53,0.34 5.15,0.23 7.7,0.27v0.91c-2.74,0.35 -6.72,-1.02 -8.38,1.65 -1.39,1.87 -3.32,1.21 -5.36,1.44 -1.55,-4.48 -6,-3.33 -9.56,-2.24 -1.01,-0.76 -0.82,-1.85 -0.07,-2.73 4.32,1.95 6.86,1.27 9.88,-2.18z" fill="#a8b0b9"/>
  <path d="m87.39,36.05c-1.22,0.93 -2.41,1.88 -3.54,2.92 -1.95,-1.78 -4.01,-3.44 -6.02,-5.16 3.56,-1.09 8.01,-2.24 9.56,2.24z" fill="#434853"/>
  <path d="m101.13,32.96c-1.55,3.27 -5.69,3.54 -7.42,6.97 -0.72,0.94 -1.25,1.98 -1.75,3.05 -1.21,0.52 -2.46,0.94 -3.72,1.34l-1.24,-1.49c-0.56,-0.7 -1.13,-1.4 -1.72,-2.08 -0.47,-0.6 -0.95,-1.19 -1.43,-1.78 1.13,-1.04 2.32,-1.99 3.54,-2.92 2.04,-0.23 3.97,0.43 5.36,-1.44 1.66,-2.67 5.64,-1.3 8.38,-1.65z" fill="#353f48"/>
  <path d="m93.71,39.93c1.03,2.31 2.75,3.94 4.48,5.71 -2.05,0.64 -2.23,1.16 -1.9,3.24 1.5,4.74 3.74,8.94 3.95,14.05 -1.11,-0.04 -2.15,-0.23 -3.14,-0.57 3.42,-0.14 0.87,-4.04 0.48,-5.91 -2.31,-3.7 -2.34,-9.09 -5.66,-11.89l0.04,-1.58c0.5,-1.07 1.03,-2.11 1.75,-3.05z" fill="#a1b9c3"/>
  <path d="m85.28,40.75c0.59,0.68 1.16,1.38 1.72,2.08 -2.38,6.32 -5.89,12.43 -7.74,18.88 1,0.22 2.01,0.42 3.02,0.6l-0.23,0.8c-4.87,0.21 -9.94,-0.79 -14.73,-0.12 0.19,-0.75 0.37,-1.5 0.56,-2.25 6.41,-6.07 11.35,-13.54 17.4,-19.99z" fill="#98bccf"/>
  <path d="m87,42.83 l1.24,1.49c-1.11,3.61 -2.57,7.1 -3.8,10.66 0.21,0.71 0.45,1.41 0.71,2.1 -0.91,1.77 -1.85,3.52 -2.87,5.23 -1.01,-0.18 -2.02,-0.38 -3.02,-0.6 1.85,-6.45 5.36,-12.56 7.74,-18.88z" fill="#bec3c3"/>
  <path d="m91.96,42.98 l-0.04,1.58c-0.3,4.65 1.64,8.37 3.91,12.25l-1.74,0.42c-3.61,-1.61 -5.29,-1.43 -8.94,-0.15 -0.26,-0.69 -0.5,-1.39 -0.71,-2.1 1.23,-3.56 2.69,-7.05 3.8,-10.66 1.26,-0.4 2.51,-0.82 3.72,-1.34z" fill="#cdc0ac"/>
  <path d="m91.92,44.56c3.32,2.8 3.35,8.19 5.66,11.89 0.39,1.87 2.94,5.77 -0.48,5.91l-0.8,-0.26c-0.67,-1.65 -1.48,-3.25 -2.21,-4.87l1.74,-0.42c-2.27,-3.88 -4.21,-7.6 -3.91,-12.25z" fill="#c4c2bf"/>
  <path d="M0.4,45.81C-0.16,78.52 0.28,111.359 0.18,144.089c4.15,-4.66 7.99,-9.41 11.87,-14.29 0.55,-0.59 1.12,-1.16 1.69,-1.73 3.44,-4.96 7.71,-9.33 11.29,-14.21 5.16,-5.3 9.031,-11.539 14.101,-16.929l0.951,-1.071c0.89,-1.04 1.799,-2.059 2.719,-3.069 0.76,-1.23 1.58,-2.421 2.48,-3.561l-1.159,-0.8c-2.29,-1.12 -4.471,-2.429 -6.731,-3.599 -5.04,-2.75 -9.22,-6.811 -14.08,-9.901 -0.265,0.201 -0.531,0.375 -0.8,0.527 -0.268,0.152 -0.539,0.282 -0.812,0.394 -0.272,0.112 -0.546,0.208 -0.823,0.29 0.277,-0.082 0.551,-0.178 0.823,-0.29 0.272,-0.112 0.543,-0.242 0.812,-0.394 0.268,-0.152 0.535,-0.326 0.8,-0.527 -4.35,-5.1 -9.619,-9.06 -13.299,-14.76C6.461,55.56 3.64,50.59 0.4,45.81ZM20.038,76.354c-0.564,0.123 -1.138,0.215 -1.726,0.313 0.587,-0.098 1.162,-0.19 1.726,-0.313zM4.21,76.46c0.019,0.804 0.023,1.606 0.012,2.407 -0.011,0.801 -0.037,1.599 -0.079,2.396C4.101,82.061 4.043,82.857 3.97,83.65 3.896,84.443 3.805,85.234 3.699,86.023 3.592,86.812 3.47,87.598 3.33,88.381 3.189,89.165 3.032,89.947 2.856,90.725 2.681,91.504 2.489,92.279 2.278,93.051 2.067,93.824 1.838,94.594 1.591,95.36 1.838,94.594 2.067,93.824 2.278,93.051 2.489,92.279 2.681,91.504 2.856,90.725 3.032,89.947 3.189,89.165 3.33,88.381 3.47,87.598 3.592,86.812 3.699,86.023 3.805,85.234 3.896,84.443 3.97,83.65c0.074,-0.793 0.131,-1.589 0.173,-2.386 0.042,-0.797 0.068,-1.596 0.079,-2.396 0.011,-0.801 0.007,-1.603 -0.012,-2.407zM7.061,76.529C6.703,76.737 6.434,76.878 6.209,76.963 6.434,76.878 6.703,76.737 7.061,76.529ZM17.416,78.185c0.114,0.188 0.211,0.373 0.292,0.555 0.081,0.182 0.146,0.361 0.196,0.539 -0.05,-0.178 -0.115,-0.357 -0.196,-0.539 -0.081,-0.182 -0.177,-0.368 -0.292,-0.555zM17.539,82.377c-0.148,0.344 -0.32,0.692 -0.505,1.049 0.186,-0.356 0.358,-0.704 0.505,-1.049zM9.684,86.191c0.196,1.098 0.394,2.208 0.627,3.338 -0.233,-1.13 -0.431,-2.241 -0.627,-3.338zM33.416,86.206c-0.506,0.185 -1.008,0.387 -1.481,0.611 0.473,-0.223 0.975,-0.426 1.481,-0.611zM14.848,87.126c-0.199,0.184 -0.412,0.345 -0.636,0.491 -0.224,0.146 -0.46,0.277 -0.705,0.398 -0.489,0.244 -1.013,0.454 -1.553,0.687 0.54,-0.233 1.064,-0.443 1.553,-0.687 0.244,-0.122 0.481,-0.253 0.705,-0.398 0.224,-0.146 0.437,-0.307 0.636,-0.491zM30.628,87.558c-0.195,0.136 -0.376,0.28 -0.541,0.431 -0.165,0.151 -0.313,0.309 -0.441,0.476 -0.128,0.167 -0.236,0.342 -0.321,0.526 -0.085,0.184 -0.146,0.377 -0.182,0.58 0.036,-0.203 0.097,-0.396 0.182,-0.58 0.085,-0.184 0.193,-0.359 0.321,-0.526 0.128,-0.167 0.276,-0.325 0.441,-0.476 0.165,-0.151 0.346,-0.294 0.541,-0.431zM33.88,90.05c-0.317,0.308 -0.628,0.639 -0.936,0.987 0.308,-0.348 0.619,-0.68 0.936,-0.987zM30.45,90.54c-0.208,0.098 -0.413,0.185 -0.611,0.25 -0.198,0.065 -0.388,0.109 -0.568,0.119 0.18,-0.01 0.371,-0.053 0.568,-0.119 0.198,-0.065 0.402,-0.152 0.611,-0.25zM21.371,97.28c-0.252,0.308 -0.484,0.637 -0.702,0.98 -0.217,0.343 -0.42,0.698 -0.617,1.059 0.196,-0.361 0.4,-0.716 0.617,-1.059 0.217,-0.343 0.449,-0.672 0.702,-0.98zM16.365,100.151c0.077,0.002 0.149,0.009 0.221,0.019 0.144,0.021 0.28,0.057 0.41,0.105 -0.13,-0.048 -0.266,-0.085 -0.41,-0.105 -0.144,-0.021 -0.295,-0.025 -0.458,-0.012 -0.163,0.014 -0.339,0.046 -0.527,0.101 0.189,-0.055 0.364,-0.087 0.527,-0.101 0.082,-0.007 0.161,-0.009 0.237,-0.007zM17.375,100.453c0.244,0.138 0.478,0.309 0.725,0.488 -0.247,-0.179 -0.481,-0.35 -0.725,-0.488zM12.558,106.687c-0.251,0.402 -0.496,0.809 -0.727,1.228 -0.231,0.419 -0.447,0.849 -0.64,1.298 0.193,-0.449 0.409,-0.879 0.64,-1.298 0.231,-0.419 0.476,-0.826 0.727,-1.228zM6.712,113.833c-0.292,0.13 -0.584,0.27 -0.872,0.425 -0.287,0.155 -0.568,0.325 -0.839,0.521 0.271,-0.196 0.552,-0.366 0.839,-0.521 0.287,-0.155 0.58,-0.295 0.872,-0.425z" fill="#3b4251" stroke-width="0.999997"/>
  <path d="m98.19,45.64c2.67,2.63 4.72,5.8 7.34,8.5l0.39,1.16c0.69,3.33 4.57,4.65 6.19,7.68 -3.95,-0.04 -7.92,0.15 -11.87,-0.05 -0.21,-5.11 -2.45,-9.31 -3.95,-14.05 -0.33,-2.08 -0.15,-2.6 1.9,-3.24z" fill="#92bcd0"/>
  <path d="m177.97,45.79c-3.69,4.58 -5.82,10.1 -9.86,14.47 -3.98,5.4 -8.549,10.261 -13.639,14.631 -2.56,2.01 -4.991,4.17 -7.541,6.19 0.615,0.37 1.238,0.729 1.859,1.093 -0.621,-0.364 -1.244,-0.723 -1.859,-1.093 -1.24,0.83 -2.49,1.62 -3.79,2.36 -2.92,1.93 -5.88,3.62 -9.06,5.08 0.78,1.45 1.6,2.87 2.37,4.32 0.94,0.99 1.85,2 2.71,3.05l0.93,1.11c0.6,0.7 1.201,1.399 1.811,2.089 0.265,-0.455 0.534,-0.904 0.81,-1.348 0.276,-0.444 0.56,-0.881 0.85,-1.311 0.201,-0.034 0.417,-0.048 0.643,-0.05 0.226,-0.002 0.464,0.01 0.706,0.026 -0.242,-0.017 -0.48,-0.028 -0.706,-0.026 -0.226,0.002 -0.442,0.016 -0.643,0.05 -0.29,0.43 -0.573,0.867 -0.85,1.311 -0.276,0.444 -0.545,0.893 -0.81,1.348 2.97,4.06 6.42,7.691 9.47,11.681 3.92,5.24 8.67,9.461 12.17,15.081 0.79,0.79 1.619,1.54 2.439,2.29l0.48,0.889c1,1.46 2.08,2.771 3.34,4.031 2.92,3.2 5.54,6.69 8.29,10.04 0.02,-32.43 0.26,-64.901 -0.12,-97.311zM148.929,86.193c-0.189,0.322 -0.374,0.647 -0.549,0.977 -0.093,0.335 -0.159,0.679 -0.204,1.03 -0.045,0.35 -0.067,0.706 -0.073,1.068 -0.006,0.361 0.005,0.728 0.029,1.096 0.024,0.368 0.059,0.738 0.104,1.109 0.089,0.741 0.212,1.484 0.331,2.209 -0.119,-0.725 -0.242,-1.468 -0.331,-2.209 -0.045,-0.371 -0.08,-0.741 -0.104,-1.109 -0.024,-0.368 -0.035,-0.734 -0.029,-1.096 0.006,-0.361 0.028,-0.718 0.073,-1.068 0.045,-0.35 0.111,-0.695 0.204,-1.03 0.175,-0.33 0.36,-0.655 0.549,-0.977zM175.071,118.291c-0.333,0.207 -0.641,0.39 -0.933,0.549 -0.292,0.16 -0.567,0.297 -0.832,0.413 -0.265,0.116 -0.518,0.211 -0.769,0.287 -0.251,0.076 -0.499,0.134 -0.75,0.174 -0.251,0.04 -0.505,0.063 -0.769,0.072 -0.264,0.008 -0.539,0.002 -0.831,-0.018 -0.291,-0.02 -0.601,-0.053 -0.933,-0.097 -0.332,-0.044 -0.687,-0.099 -1.074,-0.163 0.386,0.064 0.742,0.119 1.074,0.163 0.332,0.044 0.642,0.077 0.933,0.097 0.291,0.02 0.566,0.026 0.831,0.018 0.264,-0.008 0.518,-0.032 0.769,-0.072 0.251,-0.04 0.499,-0.098 0.75,-0.174 0.251,-0.076 0.504,-0.171 0.769,-0.287 0.265,-0.116 0.54,-0.253 0.832,-0.413 0.292,-0.16 0.601,-0.342 0.933,-0.549zM170.08,121.66c0.029,0.117 0.041,0.235 0.037,0.354 -0.005,0.119 -0.024,0.239 -0.056,0.359 -0.032,0.12 -0.074,0.24 -0.127,0.359 -0.053,0.119 -0.116,0.238 -0.185,0.356 -0.137,0.235 -0.298,0.465 -0.46,0.684 0.162,-0.22 0.323,-0.449 0.46,-0.684 0.068,-0.117 0.132,-0.237 0.185,-0.356 0.053,-0.119 0.096,-0.239 0.127,-0.359 0.032,-0.12 0.052,-0.24 0.056,-0.359 0.005,-0.119 -0.007,-0.238 -0.037,-0.354zM174.88,125.279c-0.198,0.009 -0.385,0.039 -0.563,0.086 -0.178,0.047 -0.346,0.113 -0.505,0.195 -0.159,0.082 -0.309,0.18 -0.451,0.293 -0.142,0.113 -0.277,0.239 -0.404,0.378 -0.127,0.139 -0.248,0.29 -0.362,0.451 -0.114,0.162 -0.222,0.334 -0.325,0.514 -0.103,0.18 -0.201,0.368 -0.294,0.563 -0.094,0.195 -0.183,0.396 -0.27,0.601 -0.172,0.41 -0.33,0.836 -0.483,1.264 0.153,-0.428 0.311,-0.854 0.483,-1.264 0.086,-0.205 0.176,-0.406 0.27,-0.601 0.094,-0.195 0.191,-0.382 0.294,-0.563 0.103,-0.18 0.211,-0.353 0.325,-0.514 0.114,-0.162 0.235,-0.312 0.362,-0.451 0.127,-0.139 0.262,-0.265 0.404,-0.378 0.142,-0.113 0.292,-0.211 0.451,-0.293 0.159,-0.082 0.328,-0.147 0.505,-0.195 0.178,-0.047 0.364,-0.078 0.563,-0.086zM169.871,125.621c0.005,0.54 -0.016,1.08 -0.048,1.619 -0.032,0.539 -0.077,1.076 -0.122,1.611 -0.375,-0.197 -0.686,-0.387 -0.968,-0.548 0.282,0.161 0.593,0.35 0.968,0.548 0.045,-0.535 0.089,-1.073 0.122,-1.611 0.032,-0.539 0.053,-1.079 0.048,-1.619z" fill="#3a4250" stroke-width="0.999997"/>
  <path d="m14.52,56.24c3.35,-0.95 0.66,4.04 -1.15,3.38 -0.58,-1.03 0.43,-2.66 1.15,-3.38z" fill="#747f81"/>
  <path d="m89.635,56.071c-1.327,0.004 -2.66,0.369 -4.485,1.009 -0.91,1.77 -1.85,3.519 -2.87,5.229l-0.23,0.8v2.041c-1.01,5.89 3.9,10.15 2.89,15.59 -4.54,3.99 -9.861,2.999 -14.791,6.019 -3.34,2.64 -5.94,5.88 -8.66,9.11 -0.98,1.11 -1.989,2.18 -3.029,3.22 -0.88,0.97 -1.749,1.951 -2.629,2.921 -5.47,3.74 -10.06,8.36 -13.8,13.84 -2.03,3.19 -5.11,5.2 -6.74,8.61 -1.98,0.96 -4.09,1.7 -6.12,2.58 -0.49,0.98 -0.98,1.969 -1.44,2.969 1.41,0.73 2.899,1.001 4.459,1.251 0.98,-0.83 1.95,-1.65 3.01,-2.38 0.86,1 1.511,2.171 2.171,3.311 0.54,-1.81 0.939,-3.641 1.569,-5.411l0.28,-0.819c2.42,-6.74 9.971,-8.74 15.111,-12.8 3.51,-3.1 6.739,-6.57 9.959,-9.98 1.18,-1.04 2.379,-2.07 3.609,-3.06 1.62,-1.46 3.19,-2.891 5.08,-4.011l0.36,0.7c-0.3,11.06 -0.32,22.34 0,33.39 -0.3,3.53 -0.29,7.071 0.05,10.591 -0.39,10.35 -0.4,21.139 0,31.479 0.81,-0.1 1.61,-0.2 2.41,-0.3l0.081,0.901c-1.58,1.23 -3.16,2.49 -4.84,3.56 1.69,0.55 3.409,0.581 5.169,0.541l1.9,-0.031 -0.309,1.061h13.61,6.549 0.841L100.15,176.94c2.68,0.03 5.59,0.32 8.15,-0.51l-2.041,-0.56c-0.1,-2.55 -0.129,-5.111 -0.359,-7.661 0.54,-11.76 0.149,-23.59 0.209,-35.37l-0.01,-0.91 0.16,-1.929 0.091,-2.041c-0.31,-1.46 -1.241,-3.05 -1.351,-4.49 0.78,-1.49 1.111,-2.55 1.021,-4.26 0.76,-7.31 -1.01,-15.631 1.03,-22.591 1.91,1.77 3.84,3.26 6.05,4.63 2.51,2.76 4.72,5.81 7.31,8.49 4.49,4.17 9.6,7.05 14.77,10.22 2.34,1.34 3.441,3.53 4.411,5.93 0.54,1.41 0.51,2.83 0.57,4.31 0.04,1.24 0.08,2.47 0.13,3.71 2.11,-1.08 1.649,-3.86 3.829,-5.01 1,0.69 1.92,1.509 2.82,2.329 1.98,0.31 4.29,2.95 4.72,-0.39l-0.239,-0.91c-0.66,-1.35 -1.431,-2.63 -2.281,-3.87 -6.25,-2.17 -10.19,-7.97 -14.25,-12.8 -4.54,-4.49 -8.81,-9.261 -13.8,-13.181 -0.45,-0.6 -0.869,-1.23 -1.239,-1.89l-0.661,0.29c-0.42,-0.76 -0.829,-1.511 -1.239,-2.271 -0.66,-0.69 -1.301,-1.389 -1.941,-2.089 -2.87,-3.15 -4.599,-6.52 -8.839,-8.15 -4.53,-2.36 -12.561,-1.92 -13.941,-7.96 0.64,-1.8 1.71,-3.511 2.76,-5.101 0.7,-3.78 1.651,-7.009 0.311,-10.809 -0.67,-1.65 -1.48,-3.251 -2.21,-4.871 -1.805,-0.805 -3.127,-1.162 -4.455,-1.159z" fill="#374151" stroke-width="0.999997"/>
  <path d="m17.44,59.32c2.48,0.42 -2.55,5.46 -2.97,2.97 0.54,-1.12 1.85,-2.43 2.97,-2.97z" fill="#657173"/>
  <path d="m20.48,60.48 l0.57,-0.46c0.36,2.91 -0.98,4.41 -3.74,5 0.86,-1.57 1.77,-3.39 3.17,-4.54z" fill="#798686"/>
  <path d="m96.3,62.101c1.34,3.8 0.389,7.029 -0.311,10.809 -1.05,1.59 -2.12,3.301 -2.76,5.101 1.38,6.04 9.411,5.6 13.941,7.96 4.24,1.63 5.969,5 8.839,8.15 4.04,-0.54 7.58,1.39 11.5,0.35 3.11,-0.61 6.03,-0.16 8.94,-1.63 -0.77,-1.45 -1.59,-2.87 -2.37,-4.32 -0.5,-0.05 -1,-0.13 -1.5,-0.23 -2.64,-3.54 -5.859,-5.871 -7.469,-10.191C121.941,74.82 118.481,71.4 116.101,67.5l-0.81,-0.491c-1.09,-1.32 -2.15,-2.66 -3.18,-4.03 -3.95,-0.04 -7.92,0.15 -11.87,-0.05 -1.11,-0.04 -2.151,-0.23 -3.141,-0.57zM70.958,62.755c-1.225,0.004 -2.441,0.067 -3.639,0.234 -1.15,1.38 -2.35,2.72 -3.52,4.09 -2.08,3.55 -6.509,5.8 -7.809,9.48 -2.56,2.68 -5.271,5.02 -7.011,8.38 -1.2,2.13 -0.74,4.019 -3.7,4.289 -0.9,1.14 -1.72,2.331 -2.48,3.561 6.18,3.46 12.49,1.109 18.69,3.079 2.72,-3.23 5.32,-6.47 8.66,-9.11 -0.36,-0.198 -0.716,-0.345 -1.053,-0.483 0.338,0.139 0.693,0.286 1.053,0.483 4.93,-3.02 10.251,-2.029 14.791,-6.019 1.01,-5.44 -3.9,-9.7 -2.89,-15.59 -0.595,0.105 -1.195,0.188 -1.796,0.265 0.601,-0.077 1.201,-0.16 1.796,-0.265v-2.041c-3.652,0.157 -7.417,-0.366 -11.092,-0.354zM78.45,65.65c-0.218,1.473 -0.362,2.787 -0.747,4.075 0.385,-1.288 0.53,-2.603 0.747,-4.075zM110.376,66.18c0.077,0 0.155,0.002 0.233,0.006 -0.156,-0.007 -0.31,-0.007 -0.461,0 0.076,-0.003 0.152,-0.006 0.229,-0.006zM77.689,69.769c-0.074,0.244 -0.158,0.487 -0.252,0.731 0.094,-0.243 0.178,-0.487 0.252,-0.731zM77.42,70.545c-0.098,0.25 -0.206,0.502 -0.33,0.753 -0.128,0.259 -0.271,0.52 -0.431,0.782 0.16,-0.262 0.303,-0.523 0.431,-0.782 0.124,-0.252 0.232,-0.502 0.33,-0.753zM76.964,74.896c0.047,0.465 0.082,0.931 0.091,1.403 0.004,0.236 0.003,0.472 -0.007,0.712 0.01,-0.239 0.012,-0.477 0.007,-0.712 -0.009,-0.473 -0.044,-0.938 -0.091,-1.403zM77.048,77.019c-0.01,0.238 -0.029,0.479 -0.057,0.722 -0.424,0.112 -0.851,0.202 -1.28,0.274 -0.425,0.072 -0.854,0.126 -1.283,0.17 0.43,-0.044 0.857,-0.098 1.283,-0.17 0.429,-0.072 0.857,-0.161 1.28,-0.274 0.029,-0.244 0.047,-0.484 0.057,-0.722zM74.411,78.186c-0.865,0.087 -1.734,0.13 -2.603,0.173 0.868,-0.043 1.739,-0.086 2.603,-0.173zM66.671,79c0.087,0.126 0.16,0.246 0.22,0.363 -0.06,-0.117 -0.132,-0.238 -0.22,-0.363zM66.891,79.365c0.06,0.117 0.108,0.231 0.144,0.341 0.036,0.111 0.061,0.217 0.076,0.322 -0.016,-0.104 -0.04,-0.212 -0.076,-0.322 -0.036,-0.111 -0.084,-0.224 -0.144,-0.341zM67.11,80.03c0.015,0.104 0.022,0.206 0.021,0.306 0.001,-0.1 -0.005,-0.202 -0.021,-0.306zM67.131,80.339c-0.003,0.191 -0.035,0.376 -0.079,0.557 0.045,-0.182 0.077,-0.365 0.079,-0.557zM67.03,80.978c-0.046,0.169 -0.1,0.336 -0.158,0.504 0.058,-0.168 0.112,-0.335 0.158,-0.504z" fill="#88aab7" stroke-width="0.999997"/>
  <path d="m50.26,70.12c2.89,0.14 4.17,-1.19 3.85,2.62 -1.62,-0.68 -4.24,-0.17 -3.85,-2.62z" fill="#555f65"/>
  <path d="m42.8,92.79c6.18,3.46 12.49,1.11 18.69,3.08 -1.82,0.15 -3.63,0.33 -5.43,0.62l-0.75,0.07c-4.92,-1.03 -10.19,-0.34 -15.23,-0.7 0.89,-1.04 1.8,-2.06 2.72,-3.07z" fill="#98a8ad"/>
  <path d="m136.45,92.84c0.94,0.99 1.85,2 2.71,3.05 -7.07,0.28 -14.15,-0.12 -21.21,0.32 -0.66,-0.69 -1.3,-1.39 -1.94,-2.09 4.04,-0.54 7.58,1.39 11.5,0.35 3.11,-0.61 6.03,-0.16 8.94,-1.63z" fill="#8c9fa7"/>
  <path d="m40.08,95.86c5.04,0.36 10.31,-0.33 15.23,0.7 -5.25,0.79 -10.85,0.36 -16.18,0.37z" fill="#babcb8"/>
  <path d="m61.49,95.87c-0.98,1.11 -1.99,2.18 -3.03,3.22 -0.78,-0.88 -1.58,-1.74 -2.4,-2.6 1.8,-0.29 3.61,-0.47 5.43,-0.62z" fill="#b8c2c6"/>
  <path d="m72.98,96.11 l0.36,0.7c-0.3,11.06 -0.32,22.34 0,33.39 -1.42,-0.15 -2.84,-0.29 -4.26,-0.42 5.64,-0.91 1.91,-7.31 2.72,-11.1 1.43,-6.09 -1.46,-11.35 -0.22,-17.36 -1.21,-0.42 -2.46,-0.78 -3.68,-1.2 1.62,-1.46 3.19,-2.89 5.08,-4.01z" fill="#cfc9c7"/>
  <path d="m117.95,96.21c7.06,-0.44 14.14,-0.04 21.21,-0.32l0.93,1.11c-5.38,-0.34 -10.6,0.8 -15.95,0.15 -1.69,-0.28 -2.83,0.32 -4.29,1.04l-0.66,0.29c-0.42,-0.76 -0.83,-1.51 -1.24,-2.27z" fill="#b2b6b4"/>
  <path d="m39.13,96.93c5.33,-0.01 10.93,0.42 16.18,-0.37l0.75,-0.07c0.82,0.86 1.62,1.72 2.4,2.6 -0.88,0.97 -1.75,1.95 -2.63,2.92 -5.47,3.74 -10.06,8.36 -13.8,13.84 -2.03,3.19 -5.11,5.2 -6.74,8.61 -1.98,0.96 -4.09,1.7 -6.12,2.58 -4.52,2.41 -10.67,2.84 -15.43,1.03 3.44,-4.96 7.71,-9.33 11.29,-14.21 5.16,-5.3 9.03,-11.54 14.1,-16.93z" fill="#cfc1b2"/>
  <path d="m107.05,96.62c1.91,1.77 3.84,3.26 6.05,4.63 2.51,2.76 4.72,5.81 7.31,8.49 4.49,4.17 9.6,7.05 14.77,10.22 2.34,1.34 3.44,3.53 4.41,5.93 -0.57,0.95 -1.09,3.19 -2.52,3.01 -6.96,0.3 -13.95,-0.03 -20.92,0.13 -3.36,0.03 -6.6,0.16 -9.8,-1.07 -0.31,-1.46 -1.24,-3.05 -1.35,-4.49 0.78,-1.49 1.11,-2.55 1.02,-4.26 0.76,-7.31 -1.01,-15.63 1.03,-22.59z" fill="#d1c3b5"/>
  <path d="m124.14,97.15c5.35,0.65 10.57,-0.49 15.95,-0.15 0.6,0.7 1.2,1.4 1.81,2.09 2.97,4.06 6.42,7.69 9.47,11.68 3.92,5.24 8.67,9.46 12.17,15.08 -0.2,0.98 -0.43,1.96 -0.68,2.92 -5.6,1.15 -8.92,-0.28 -13.72,-2.71 -6.25,-2.17 -10.19,-7.97 -14.25,-12.8 -4.54,-4.49 -8.81,-9.26 -13.8,-13.18 -0.45,-0.6 -0.87,-1.23 -1.24,-1.89 1.46,-0.72 2.6,-1.32 4.29,-1.04z" fill="#cec1b1"/>
  <path d="m67.9,100.12c1.22,0.42 2.47,0.78 3.68,1.2 -1.24,6.01 1.65,11.27 0.22,17.36 -0.81,3.79 2.92,10.19 -2.72,11.1l-0.79,-0.04c-2.93,-0.9 -5.37,-2.16 -8.5,-1.19 -5.44,0.86 -11.14,0.4 -16.65,0.41 -2.24,0.17 -2.64,-1.59 -3.92,-3 2.42,-6.74 9.97,-8.74 15.11,-12.8 3.51,-3.1 6.74,-6.57 9.96,-9.98 1.18,-1.04 2.38,-2.07 3.61,-3.06z" fill="#d2c4b5"/>
  <path d="m39.22,125.96c1.28,1.41 1.68,3.17 3.92,3 5.51,-0.01 11.21,0.45 16.65,-0.41 3.13,-0.97 5.57,0.29 8.5,1.19 -5.77,0.45 -11.49,0.17 -17.28,0.34 -3.91,-0.12 -7.81,-0.08 -11.74,-0.07 -0.11,-1.08 -0.23,-2.16 -0.33,-3.23z" fill="#c7c7c5"/>
  <path d="m139.59,125.89c0.54,1.41 0.51,2.83 0.57,4.31 -4.66,0.13 -9.33,-0.47 -14.01,-0.14 -6.63,-0.11 -13.26,-0.04 -19.89,-0.06l0.09,-2.04c3.2,1.23 6.44,1.1 9.8,1.07 6.97,-0.16 13.96,0.17 20.92,-0.13 1.43,0.18 1.95,-2.06 2.52,-3.01z" fill="#c0c3c1"/>
  <path d="m149.14,126.06c4.8,2.43 8.12,3.86 13.72,2.71 0.25,-0.96 0.48,-1.94 0.68,-2.92 0.79,0.79 1.62,1.54 2.44,2.29l0.48,0.89c-4.31,1.97 -10.32,0.62 -15.04,0.9 -0.66,-1.35 -1.43,-2.63 -2.28,-3.87z" fill="#c1c5c1"/>
  <path d="m29.17,127.04c-0.49,0.98 -0.98,1.97 -1.44,2.97l-0.5,0.99c-4.7,-2.16 -10.06,0.16 -15.18,-1.2 0.55,-0.59 1.12,-1.16 1.69,-1.73 4.76,1.81 10.91,1.38 15.43,-1.03z" fill="#b8bebe"/>
  <path d="m38.94,126.78c0.1,1.07 0.22,2.15 0.33,3.23 -0.07,1.27 -0.18,2.54 -0.35,3.81 -1.23,0.32 -1.75,-0.23 -1.55,-1.63 0.54,-1.81 0.94,-3.64 1.57,-5.41z" fill="#52687b"/>
  <path d="m35.2,128.88c-1.06,0.73 -2.03,1.55 -3.01,2.38 -1.95,1.8 -4.119,5.54 -6.939,5.67 0.4,-2.01 1.289,-3.991 1.979,-5.931 -4.7,-2.16 -10.06,0.16 -15.18,-1.2 -3.88,4.88 -7.72,9.63 -11.87,14.29 -0.02,1.57 -0.03,3.11 0.16,4.67 12.01,0.72 23.621,2.601 33.791,9.461 0.118,-0.165 0.219,-0.339 0.312,-0.514 0.093,-0.176 0.177,-0.354 0.256,-0.532 -0.08,0.177 -0.163,0.356 -0.256,0.532 -0.093,0.176 -0.195,0.349 -0.312,0.514 1,0.61 2.039,1.17 3.069,1.73 1.02,0.76 2.031,1.539 3.051,2.309 1.64,-4.06 3.37,-8.089 5.01,-12.149 1.91,-6.61 5.449,-12.249 7.009,-19.009l-1.26,-1.021c-3.91,-0.12 -7.809,-0.08 -11.739,-0.07 -0.07,1.27 -0.18,2.54 -0.35,3.81 -1.23,0.32 -1.75,-0.229 -1.55,-1.629 -0.66,-1.14 -1.311,-2.311 -2.171,-3.311z" fill="#5c8299" stroke-width="0.999997"/>
  <path d="m144.12,128.9c1,0.69 1.92,1.51 2.82,2.33 1.67,1.96 3.43,3.91 5.27,5.72 2.22,-0.09 0.03,-4.92 -0.55,-6.11l-0.24,-0.91c4.72,-0.28 10.73,1.07 15.04,-0.9 1,1.46 2.08,2.77 3.34,4.03 2.92,3.2 5.54,6.69 8.29,10.04 0.04,1.95 0.04,3.91 0,5.86 -3.13,0.01 -6.11,-0.17 -9.15,0.71 -10.15,0.85 -19.45,4.82 -27.77,10.55 -1,-0.25 -2.98,0.02 -3.52,-1.02 -3,-4.3 -3.81,-9.63 -6.15,-14.36 -0.09,-4.59 -3.32,-7.33 -3.79,-11.78 0.49,-2.48 4.6,-1.8 6.45,-2.09 2.81,-0.31 4.12,1.41 6.13,2.94 2.11,-1.08 1.65,-3.86 3.83,-5.01z" fill="#8dbcd4"/>
  <path d="m27.73,130.01c1.41,0.73 2.9,1 4.46,1.25 -1.95,1.8 -4.12,5.54 -6.94,5.67 0.4,-2.01 1.29,-3.99 1.98,-5.93z" fill="#2e5065"/>
  <path d="m68.291,129.74c-5.77,0.45 -11.491,0.17 -17.281,0.34l1.26,1.021c-1.56,6.76 -5.099,12.399 -7.009,19.009 -1.64,4.06 -3.37,8.089 -5.01,12.149 9.04,7.41 19.59,11.301 30.79,14.171 1.68,-1.07 3.26,-2.33 4.84,-3.56l-0.081,-0.901c-0.8,0.1 -1.6,0.2 -2.41,0.3 -0.4,-10.34 -0.39,-21.129 0,-31.479 -0.34,-3.52 -0.35,-7.061 -0.05,-10.591 -1.42,-0.15 -2.84,-0.29 -4.26,-0.42zM69.209,132.139c0.269,0.133 0.532,0.28 0.788,0.438 0.256,0.158 0.504,0.328 0.743,0.504 -0.239,-0.176 -0.487,-0.346 -0.743,-0.504 -0.256,-0.158 -0.519,-0.305 -0.788,-0.438zM72.16,141.889c0.02,2.566 0.023,5.134 0.018,7.702 0.005,-2.568 0.002,-5.136 -0.018,-7.702zM72.086,165.681c-0.042,0.112 -0.099,0.222 -0.168,0.331 0.069,-0.109 0.127,-0.219 0.168,-0.331zM71.106,169.326c0.076,0.05 0.144,0.111 0.204,0.18 -0.06,-0.069 -0.128,-0.13 -0.204,-0.18z" fill="#8dabb6" stroke-width="0.999997"/>
  <path d="m116.206,129.996c-3.315,0.001 -6.631,0.014 -9.946,0.004l-0.16,1.929 0.01,0.91c0.789,-0.142 1.591,-0.281 2.402,-0.413 0.811,-0.133 1.631,-0.258 2.459,-0.378 0.828,-0.12 1.663,-0.233 2.502,-0.337 0.839,-0.104 1.682,-0.198 2.525,-0.283 0.843,-0.085 1.688,-0.158 2.53,-0.221 0.842,-0.063 1.682,-0.115 2.517,-0.152 0.835,-0.038 1.666,-0.062 2.487,-0.072 -0.822,0.01 -1.652,0.034 -2.487,0.072 -0.835,0.038 -1.674,0.09 -2.517,0.152 -0.842,0.063 -1.686,0.137 -2.53,0.221 -0.843,0.085 -1.687,0.179 -2.525,0.283 -0.839,0.104 -1.674,0.217 -2.502,0.337 -0.828,0.12 -1.648,0.245 -2.459,0.378 -0.811,0.133 -1.614,0.271 -2.402,0.413 -0.06,11.78 0.331,23.61 -0.209,35.37 0.23,2.55 0.259,5.111 0.359,7.661l2.041,0.56c12.03,-3.48 23.18,-8.08 32.87,-16.21 -1,-0.25 -2.98,0.021 -3.52,-1.02 -3,-4.3 -3.809,-9.631 -6.149,-14.361 -0.09,-4.59 -3.32,-7.329 -3.79,-11.779 -0.58,-0.69 -1.16,-1.371 -1.74,-2.061l0.18,-0.939c-3.315,-0.055 -6.63,-0.066 -9.945,-0.064z" fill="#8ba7b1" stroke-width="0.999997"/>
  <path d="m126.15,130.06c4.68,-0.33 9.35,0.27 14.01,0.14 0.04,1.24 0.08,2.47 0.13,3.71 -2.01,-1.53 -3.32,-3.25 -6.13,-2.94 -1.85,0.29 -5.96,-0.39 -6.45,2.09 -0.58,-0.69 -1.16,-1.37 -1.74,-2.06z" fill="#96b6c4"/>
  <path d="m146.94,131.23c1.98,0.31 4.29,2.95 4.72,-0.39 0.58,1.19 2.77,6.02 0.55,6.11 -1.84,-1.81 -3.6,-3.76 -5.27,-5.72z" fill="#34516a"/>
</svg>
