<?xml version="1.0" ?>
<svg xmlns="http://www.w3.org/2000/svg" width="179.22272" height="178.24507" viewBox="0 0 179.22272 178.24507">
  <path d="m76.526,0h27.01l-0.61,0.79c-1.24,0.12 -2.46,0.27 -3.68,0.46 -0.11,2.52 -1.22,5.65 1.43,7.15 3.07,2.14 3.09,5.22 4.69,8.32 4.87,0.7 9.83,0.47 14.57,-0.9 1.73,-0.57 3.22,-0.04 4.91,0.37 -0.98,4.02 -4.81,4.79 -8.14,6.38 -4.19,0.63 -8.57,1.95 -12.07,-1.14 -2.38,-1.45 -2.4,-5.14 -5.3,-5.5 1.28,2.63 2.6,5.06 2.7,8.07 -0.16,3.86 3.23,6.64 7.01,6.08 3.69,0.39 5.76,-1.49 8.33,-3.71 5.51,-3.88 11.39,-7.27 16.86,-11.2 1.44,-0.99 0.2,-2 -0.21,-3.17 1.99,0.51 3.53,2.39 5.08,3.68 -3.98,0.78 -7.69,3.02 -10.76,5.61 -0.3,1.78 -0.31,3.6 -0.58,5.39 -7.36,-0.18 -9.03,6.56 -15.85,8.17 -4,1.67 -6.76,-0.64 -10.04,-2.68 -4.18,-4.28 -2.45,-9.25 -4.5,-14.48 -3.28,-0.99 -5.78,-1.19 -7.94,-4.17 -1.27,1.59 -2.13,3.01 -4.39,3.03 -1.77,0.06 -2.7,0 -3.62,1.76 -0.85,3.4 -1.12,6.93 -1.77,10.35 -2.6,3.18 -5.99,7.14 -10.59,6.34 -5.72,-0.64 -8.09,-4.52 -12.37,-7.6 -1.88,-0.95 -6.07,0.66 -5.6,-2.43 0.16,-4.5 -4.01,-6.68 -7.38,-8.66 -2.07,-1.14 -3.84,1.02 -4.69,2.67 0.8,2.11 2.24,3.66 3.69,5.34 2.65,3.09 4.4,6.89 7.06,9.95 2.3,2.67 5.49,3.51 8.09,5.9 3.08,2.6 5.75,5.34 10.17,4.86 6.61,-1.36 8.2,-8.71 13.33,-10.73 2.54,-1.12 4.05,1.13 6.39,1.6 0.62,-1.32 -0.48,-5.73 1.91,-4.63 0.48,1.63 0.5,3.14 1.47,4.48 1.82,-0.57 3.89,-1.99 5.81,-1.71 5.8,1.54 7.82,9.56 14.03,10.95 1.89,-0.7 3.23,-3.03 4.66,-4.42 2.92,-3.1 7.26,-4.98 11.23,-6.35 -0.17,1.25 -0.41,2.5 -0.58,3.75 5.74,-6.28 9.83,-13.79 14.84,-20.85 5.38,3.84 11.26,5.69 17.08,8.65 6.59,1.81 13.85,2.25 20.65,2.42 0.34,21.61 0.28,43.37 0.02,64.99 -0.41,-1.3 -0.78,-2.61 -1.22,-3.89 -7.11,-0.81 -14.44,0.16 -21.59,-0.49 3.55,-1.63 6.94,-3.21 9.73,-6.04 3.89,-3.52 6.02,-8.07 12.14,-6.22 0.21,-5.68 0.23,-11.78 -0.05,-17.46 -2,0.9 -4.77,6.04 -6.52,2.61 -0.29,-4.1 7.81,-8.12 6.71,-12.67 -0.16,-6.6 0.24,-13.26 -0.22,-19.83 -4.65,-0.21 -9.03,-0.18 -13.63,-1.08 -0.98,5.29 0.84,9.7 3.8,13.95 -2.03,1.36 -3.93,1.56 -4.64,4.25 -1.05,5.61 0.41,11.73 -0.76,17.34 -1.31,4.03 -2,8.92 -4.83,12.1 -4.28,4.94 -10.69,8.24 -16.87,10.11 -1.43,0.44 -2.7,1.05 -3.91,1.94 3.85,0.51 7.88,-0.54 11.64,-1.3 6.25,-2.85 11.41,-8.36 14.46,-14.46 0.88,-1.13 2.32,-4.85 3.76,-4.75 2.3,1.33 -0.41,5.66 -1.26,7.31 -3.71,5.33 -8.37,10.71 -14.22,13.73 -2.14,1.08 -5.06,0.59 -7.4,0.72l-2.11,0.2 -1.04,0.06h-0.55l-2.23,-0.14 -0.95,-0.06c-2.01,0.15 -5,-1.07 -5.2,1.87 -0.2,2.21 -0.97,-1.3 -1.36,-1.61 -3.06,-0.68 -6.4,-0.24 -9.53,-0.69l0.41,-0.88 0.37,-0.8 0.45,-1 0.37,-0.88 0.86,-2.18 0.3,-0.68c0.56,-1.16 1.11,-2.31 1.66,-3.47l0.37,-0.79 0.49,-1.02 0.48,-0.96 0.53,-0.99 0.43,-0.75c0.53,-0.85 1.05,-1.7 1.58,-2.55l0.38,-0.63 0.46,-0.8c2.21,-0.44 2.87,-0.94 2.83,-3.28 0.37,-0.63 0.75,-1.26 1.13,-1.89 1.49,0.08 2.16,-0.63 2,-2.14l0.05,-0.8c1.47,0.03 2.09,-0.71 1.86,-2.23 0.69,-0.99 1.39,-1.97 2.08,-2.96 1.69,-0.73 2.38,-1.32 2.83,-3.15l0.32,-0.78c1.41,-1.62 1.07,-3.27 0.55,-5.19l0.25,-0.88c1.03,-0.3 1.95,-0.75 2.75,-1.35 0.85,-1.68 -0.8,-1.38 -1.86,-1.26 -0.92,0.07 -1.84,0.17 -2.76,0.26 0.05,-1.31 -0.39,-1.78 -1.31,-1.43 -0.7,0.33 -1.38,0.7 -2.05,1.09l-0.57,0.36c-0.82,0.54 -1.64,1.08 -2.46,1.63l-0.56,0.36c-0.74,0.46 -1.48,0.92 -2.23,1.36 -2.16,0 -2.42,1.16 -2.97,2.92 -0.74,0.6 -1.47,1.2 -2.2,1.81 -1.46,0.07 -2.05,0.84 -1.79,2.3 -0.45,0.72 -0.89,1.44 -1.34,2.15l-0.36,0.57c-0.54,0.83 -1.08,1.67 -1.61,2.51l-0.44,0.75 -0.53,0.99 -0.48,0.95 -0.52,1.05 -0.46,0.96 -0.49,1.03 -0.37,0.79c-0.54,1.16 -1.1,2.32 -1.68,3.47l-0.3,0.59c-0.56,1.14 -1.14,2.27 -1.74,3.4l-0.35,0.66 -0.5,0.95 -0.83,0.29 -0.77,0.97 -0.1,0.97 -0.49,0.95 -0.38,0.68c-0.52,0.86 -1.04,1.7 -1.57,2.55l-0.43,0.76 -0.52,0.96 -0.4,0.8 -0.42,0.86c-1.47,0.11 -2.12,0.9 -1.94,2.35 -0.31,0.68 -0.63,1.35 -0.94,2.01 -0.71,-0.53 -1.46,-0.83 -2.26,-0.9 -0.1,-0.77 -0.18,-1.54 -0.25,-2.32l0.2,-0.88 0.5,-0.98 0.48,-0.93 0.54,-1.03 0.48,-0.96 0.49,-1.03 0.39,-0.83 0.41,-0.92c0.94,-0.46 1.24,-1.21 0.93,-2.26 0.44,-0.74 0.87,-1.49 1.3,-2.25l0.34,-0.64 0.42,-0.85c1.23,-0.48 1.85,-1.34 1.87,-2.6l0.46,-0.77 0.37,-0.61c0.52,-0.84 1.04,-1.68 1.56,-2.52l0.37,-0.61 0.46,-0.77c1.51,-0.2 2.13,-1.07 1.86,-2.6l0.43,-0.85 0.34,-0.65c0.44,-0.75 0.89,-1.49 1.35,-2.23 2.06,0.04 3.97,-1.1 2.18,-3.14l-0.36,-0.52c1.66,-0.87 2.01,-1.47 2.04,-3.34 0.46,-0.76 0.93,-1.51 1.39,-2.27l0.4,-0.69 0.52,-0.91c0.57,-0.96 1.1,-1.95 1.58,-2.97 -1.96,0.31 -3.9,0.69 -5.87,0.91 0.28,-0.78 0.59,-1.54 0.94,-2.29 0.87,-0.57 0.87,-0.78 0,-0.64l-2.18,0.18 -0.59,0.06 -0.99,0.1 -0.83,0.35 -1.29,1.08c-1.47,-0.17 -2.22,0.48 -2.26,1.95l-1.14,1.29 -0.41,0.48 -1.09,1.28c-2.51,1.32 -4.66,1.93 -5.14,5.11 -0.68,0.95 -1.38,1.88 -2.09,2.81 -1.53,-0.02 -2.18,0.76 -1.94,2.35l-0.37,0.93 -0.36,0.85 -0.47,1.04 -0.48,0.96 -0.53,0.99 -0.45,0.75c-0.51,0.74 -1.02,1.47 -1.55,2.19 -1.15,0.39 -1.94,1.08 -2.81,1.9l-0.35,-0.9 -0.3,-0.72 -0.36,-0.87c0.51,-0.8 0.81,-1.62 0.88,-2.47l0.14,-0.8c0.37,-1.04 0.08,-1.78 -0.87,-2.2l-0.49,-2 -0.17,-0.71c-0.28,-1.1 -0.56,-2.2 -0.84,-3.3l-0.18,-0.72 -0.52,-2c0.56,-1.47 0.32,-2.53 -0.71,-3.2 -0.16,-1.37 -0.35,-2.73 -0.59,-4.09l-0.16,-0.73 -0.56,-2.07c-0.38,-0.96 -0.61,-0.97 -0.69,-0.02 -0.14,1.64 -0.2,3.28 -0.26,4.92 -1.07,0.59 -1.35,1.63 -0.86,3.11 -0.02,1.3 -0.05,2.59 -0.07,3.88 -0.97,0.35 -1.27,1.09 -0.91,2.21l-0.48,2 -0.17,0.71c-0.27,1.1 -0.54,2.2 -0.82,3.3l-0.18,0.71c-0.28,1.1 -0.57,2.2 -0.89,3.3l-0.31,0.86 -0.43,0.99 -0.36,0.88 -0.82,2.23 -0.3,0.8 -0.34,0.92 -0.77,0.06 -0.65,-1.99 -0.27,-0.67c-0.55,-1.13 -1.11,-2.27 -1.69,-3.39l-0.33,-0.6c-0.46,-0.77 -0.93,-1.55 -1.4,-2.32 0.41,-2.35 0.04,-4.44 -2.57,-5.06l-0.27,-0.73c-0.91,-2.83 -3.04,-6.17 -5.88,-7.35 -0.79,-0.9 -1.59,-1.8 -2.37,-2.7 -0.09,-2.18 -2.71,-1.22 -0.89,0.36l0.57,1.7 0.21,0.61 0.3,0.8 -1.83,0.21 -0.46,-0.86 -0.38,-0.66c-0.51,-0.84 -1.03,-1.67 -1.58,-2.5l-0.38,-0.55c-1.47,-2.04 -3.03,-3.79 -5.49,-4.6l-0.69,-0.29 -0.92,-0.36c-0.49,-0.92 -1.27,-1.23 -2.34,-0.93l-1,0.07c-0.25,-1.33 -0.89,-2.05 -1.92,-2.15 -1.9,0.49 0.41,2.05 1.11,2.48l0.38,0.75 0.31,0.57c0.41,0.75 0.83,1.49 1.25,2.24 -0.31,1.07 0.01,1.79 0.98,2.14l0.08,0.86c-0.03,2.11 0.36,3.76 2.72,4.13 0.43,0.58 0.87,1.15 1.3,1.73 0.04,1.31 0.7,2.02 1.99,2.13 0.43,1.06 0.85,2.13 1.26,3.2l0.27,0.73 0.79,2.21 0.38,0.89 0.48,1.03 0.46,0.95 0.49,1.03 0.37,0.86 0.38,0.92c-0.21,1.58 0.43,2.39 1.94,2.42l0.16,0.78c0.01,2.11 0.35,3.8 2.76,4.09 0.83,1.04 1.65,2.08 2.4,3.19l0.36,0.59c0.77,1.4 1.57,2.77 2.42,4.13 -0.29,1.08 0.06,1.8 1.05,2.15l0.33,0.89c-1.01,0.91 -1.95,1.55 -3.26,1.96l-0.46,-1.03 -0.42,-0.94 -0.49,-1.05 -0.49,-0.95 -0.54,-0.97 -0.49,-0.74c-0.84,-1.03 -1.71,-2.05 -2.52,-3.11 0.54,-1.07 0.32,-1.82 -0.65,-2.25 -0.45,-0.73 -0.9,-1.47 -1.33,-2.21l-0.35,-0.65 -0.42,-0.85c0.27,-1.54 -0.36,-2.4 -1.86,-2.59l-0.47,-0.78 -0.36,-0.61c-0.52,-0.84 -1.03,-1.68 -1.53,-2.53l-0.35,-0.64 -0.41,-0.85c0.29,-1.61 -0.34,-2.4 -1.89,-2.38 -0.8,-1.36 -1.6,-2.72 -2.44,-4.06l-0.35,-0.57c-0.53,-0.82 -1.05,-1.65 -1.56,-2.49l-0.36,-0.65 -0.41,-0.85c0.3,-1.61 -0.31,-2.41 -1.84,-2.4l-0.19,-0.73c-0.92,-3.06 -0.29,-4.22 -4.12,-4.11l-0.75,-0.25c-0.57,-2.75 -2.83,-2.96 -5.22,-2.67l-0.94,-0.39 -0.77,-0.32 -0.93,-0.38c-0.47,-0.95 -1.24,-1.26 -2.33,-0.93l-0.83,-0.31c-1.05,-0.51 -2.7,-1.63 -3.86,-1.3 -0.71,1.71 1.43,2.59 2.78,2.74l0.34,0.94 0.27,0.75 0.71,2.14 -0.27,0.74 -0.98,0.43c-0.66,0.17 -0.74,0.43 -0.24,0.79l1.36,1.35 0.49,0.47 1.25,1.18c0.25,1.21 0.97,1.88 2.16,2 0.3,0.68 0.59,1.35 0.88,2.03 -0.13,1.45 0.54,2.23 2,2.31l0.41,0.87 0.39,0.81 0.49,1.02 0.41,0.87 0.42,0.94c0.02,2.24 0.4,3.85 2.82,4.44l0.36,0.85 0.25,0.63 0.27,0.69c-1.12,2.39 3.34,4.84 5,5.83l0.33,0.66c-0.3,1.54 0.34,2.33 1.92,2.36l0.29,0.87 0.23,0.7 0.6,2c-0.39,1.09 -0.11,1.87 0.83,2.37l0.42,0.9 0.35,0.74 0.44,0.94c-1.56,1.76 -4.17,1.1 -6.31,1.33 -1.99,-0.1 -3.97,-0.16 -5.96,-0.14 -2.23,-0.02 -4.47,0.01 -6.7,0.11 -2.16,-0.05 -4.31,-0.03 -6.46,0.09 -5.61,-0.2 -9.95,-5.64 -13.99,-8.97 -3.14,-2.53 -4.87,-5.94 -6.39,-9.59 -0.78,-1.57 -0.09,-2.31 0.8,-3.56 2.55,1.14 3.49,4.63 4.89,6.89 4.35,8.61 14.13,14.48 23.81,13.91l-0.14,-1.51c-8.51,-1.47 -15.79,-6.25 -21.27,-12.8 -1.48,-3.41 -2.45,-7.07 -3.23,-10.7 -0.74,-5.79 0.31,-11.82 -0.5,-17.59 -1.04,-1.55 -3.21,-2.13 -4.73,-3.22 3.09,-4.44 5.11,-8.15 3.71,-13.77l-1.8,-0.61c1.97,-0.62 4.05,-0.95 6.07,-1.4 0.12,3.64 0.09,9.56 2.29,12.48 5.12,0.49 10.47,0.33 15.61,0.05 -1,-4.63 -2.74,-9.14 -4.08,-13.68 -0.34,-1.33 -1.05,-2.33 -1.98,-3.31 4.78,-3.25 9.66,-6.18 14,-10.03 6.75,-3.81 12.64,-8.05 20.39,-8.59 -3.16,2.64 -8.33,2.3 -11.62,5.4 -2.5,3.23 -6.79,2.23 -9.77,5.45 2.99,3.34 7.82,5.01 11.41,7.72 3.67,2.09 5.88,5.62 9.73,7.29 3.26,1.76 7.44,1 10.68,-0.43 2.05,-3.03 0.8,-6.81 3.02,-9.96 0.2,-0.67 2.33,-4.1 0.4,-3.6 -2.26,1.65 -3.13,6.6 -6.36,7.62 -5.73,1.3 -11.22,-0.62 -16.37,-3.02 -2.06,-0.94 -0.72,-2.98 -0.73,-4.7 0.15,-1.49 -3.01,-2.87 -1.95,-4.34 0.52,-1.62 1.83,-1.87 3.21,-2.5 1.33,2.41 2.01,5.12 3.52,7.49 3.62,2.21 8.19,3.02 12.33,2.1 4.17,-2.51 2.05,-8.39 6.38,-9.71 3.16,-0.62 3.95,2.05 5.9,3.86 -0.19,-4.08 -2.37,-7.11 -4.41,-10.48 -1.47,-0.5 -3.16,-0.43 -4.7,-0.59z" fill="#264446"/>
  <path d="m73.106,1.09c-0.59,1.07 -1.64,1.35 -3.13,0.86 0.59,-1.11 1.63,-1.4 3.13,-0.86z" fill="#264446"/>
  <path d="m73.106,1.09c0.94,-0.09 1.88,-0.19 2.82,-0.29 1.54,0.16 3.23,0.09 4.7,0.59 2.04,3.37 4.22,6.4 4.41,10.48 -1.95,-1.81 -2.74,-4.48 -5.9,-3.86 -4.33,1.32 -2.21,7.2 -6.38,9.71 -4.14,0.92 -8.71,0.11 -12.33,-2.1 -1.51,-2.37 -2.19,-5.08 -3.52,-7.49 -1.38,0.63 -2.69,0.88 -3.21,2.5 -1.06,1.47 2.1,2.85 1.95,4.34 0.01,1.72 -1.33,3.76 0.73,4.7 5.15,2.4 10.64,4.32 16.37,3.02 3.23,-1.02 4.1,-5.97 6.36,-7.62 1.93,-0.5 -0.2,2.93 -0.4,3.6 -2.22,3.15 -0.97,6.93 -3.02,9.96 -3.24,1.43 -7.42,2.19 -10.68,0.43 -3.85,-1.67 -6.06,-5.2 -9.73,-7.29 -3.59,-2.71 -8.42,-4.38 -11.41,-7.72 2.98,-3.22 7.27,-2.22 9.77,-5.45 3.29,-3.1 8.46,-2.76 11.62,-5.4l0.75,-0.3c1.5,0.55 2.54,0.27 3.11,-0.85l0.86,-0.1c1.49,0.49 2.54,0.21 3.13,-0.86z" fill="#356966"/>
  <path d="m99.246,1.25c1.22,-0.19 2.44,-0.34 3.68,-0.46 1.02,0.1 2.04,0.19 3.07,0.28 0.57,1.08 1.61,1.37 3.11,0.88l1.86,0.07c0.37,0.97 1.11,1.26 2.23,0.88l2,0.54 0.72,0.21 0.95,0.29c0.39,0.97 1.13,1.33 2.22,1.07l0.91,-0.01c0.35,0.96 1.1,1.3 2.26,1.01l0.93,0.36 0.75,0.29 0.93,0.35c0.92,1.23 1.88,1.64 3.36,1.87l0.69,0.29c0.38,2.44 2.06,2.9 4.26,2.52l0.85,0.31c0.41,1.17 1.65,2.18 0.21,3.17 -5.47,3.93 -11.35,7.32 -16.86,11.2 -2.57,2.22 -4.64,4.1 -8.33,3.71 -3.78,0.56 -7.17,-2.22 -7.01,-6.08 -0.1,-3.01 -1.42,-5.44 -2.7,-8.07 2.9,0.36 2.92,4.05 5.3,5.5 3.5,3.09 7.88,1.77 12.07,1.14 3.33,-1.59 7.16,-2.36 8.14,-6.38 -1.69,-0.41 -3.18,-0.94 -4.91,-0.37 -4.74,1.37 -9.7,1.6 -14.57,0.9 -1.6,-3.1 -1.62,-6.18 -4.69,-8.32C98.026,6.9 99.136,3.77 99.246,1.25Z" fill="#356966"/>
  <path d="m105.996,1.07c1.5,-0.51 2.54,-0.22 3.11,0.88 -1.5,0.49 -2.54,0.2 -3.11,-0.88z" fill="#264446"/>
  <path d="m69.116,2.05c-0.57,1.12 -1.61,1.4 -3.11,0.85 0.6,-1.06 1.64,-1.35 3.11,-0.85z" fill="#264446"/>
  <path d="m110.966,2.02c1.06,-0.32 1.81,-0.03 2.23,0.88 -1.12,0.38 -1.86,0.09 -2.23,-0.88z" fill="#264446"/>
  <path d="m115.196,3.44 l0.72,0.21z" fill="#264446"/>
  <path d="m116.866,3.94c1.15,-0.25 1.9,0.11 2.22,1.07 -1.09,0.26 -1.83,-0.1 -2.22,-1.07z" fill="#264446"/>
  <path d="m119.996,5c1.08,-0.28 1.83,0.06 2.26,1.01 -1.16,0.29 -1.91,-0.05 -2.26,-1.01z" fill="#264446"/>
  <path d="m95.336,6.27c3.23,-1.05 1.6,4.09 -1.01,3.78 0.27,-1.28 0.61,-2.54 1.01,-3.78z" fill="#356966"/>
  <path d="m123.186,6.37 l0.75,0.29z" fill="#264446"/>
  <path d="m124.866,7.01c1.84,-0.33 3.16,-0.34 3.36,1.87 -1.48,-0.23 -2.44,-0.64 -3.36,-1.87z" fill="#264446"/>
  <path d="m128.916,9.17c2.03,0.4 3.03,0.81 4.26,2.52 -2.2,0.38 -3.88,-0.08 -4.26,-2.52z" fill="#264446"/>
  <path d="m89.436,13.52c2.16,2.98 4.66,3.18 7.94,4.17 2.05,5.23 0.32,10.2 4.5,14.48 3.28,2.04 6.04,4.35 10.04,2.68 6.82,-1.61 8.49,-8.35 15.85,-8.17 0.27,-1.79 0.28,-3.61 0.58,-5.39 3.07,-2.59 6.78,-4.83 10.76,-5.61 0.67,0.49 1.34,0.97 2.02,1.44 -5.01,7.06 -9.1,14.57 -14.84,20.85 0.17,-1.25 0.41,-2.5 0.58,-3.75 -3.97,1.37 -8.31,3.25 -11.23,6.35 -1.43,1.39 -2.77,3.72 -4.66,4.42 -6.21,-1.39 -8.23,-9.41 -14.03,-10.95 -1.92,-0.28 -3.99,1.14 -5.81,1.71 -0.97,-1.34 -0.99,-2.85 -1.47,-4.48 -2.39,-1.1 -1.29,3.31 -1.91,4.63 -2.34,-0.47 -3.85,-2.72 -6.39,-1.6 -5.13,2.02 -6.72,9.37 -13.33,10.73 -4.42,0.48 -7.09,-2.26 -10.17,-4.86 -2.6,-2.39 -5.79,-3.23 -8.09,-5.9 -2.66,-3.06 -4.41,-6.86 -7.06,-9.95 -1.45,-1.68 -2.89,-3.23 -3.69,-5.34 0.85,-1.65 2.62,-3.81 4.69,-2.67 3.37,1.98 7.54,4.16 7.38,8.66 -0.47,3.09 3.72,1.48 5.6,2.43 4.28,3.08 6.65,6.96 12.37,7.6 4.6,0.8 7.99,-3.16 10.59,-6.34 0.65,-3.42 0.92,-6.95 1.77,-10.35 0.92,-1.76 1.85,-1.7 3.62,-1.76 2.26,-0.02 3.12,-1.44 4.39,-3.03z" fill="#356966"/>
  <path d="m43.176,18.13c2.37,-0.47 2.23,2.11 2.88,3.7 -2.35,-0.94 -3.33,-0.68 -2.88,-3.7z" fill="#264446"/>
  <path d="m144.956,20.05c-2.25,6.22 -3.81,12.62 -6.03,18.85 -0.51,2.2 -3.9,3.07 -5.74,3.9 -3.6,-4.56 1.35,-6.67 3.41,-10.21 2.49,-4.13 4.71,-9.32 8.36,-12.54z" fill="#356966"/>
  <path d="m34.296,20.96c2.77,0.14 4.03,4.57 5.31,6.57 3.41,5.39 5.03,10.24 6.1,16.5 -0.95,-0.59 -1.84,-1.27 -2.8,-1.85 -0.8,-0.39 -1.65,-0.62 -2.48,-0.92 -1.36,-6.85 -3.96,-13.69 -6.13,-20.3z" fill="#356966"/>
  <path d="m29.926,22.23 l-0.75,0.29z" fill="#264446"/>
  <path d="m29.926,22.23 l0.94,-0.41c0.93,0.98 1.64,1.98 1.98,3.31 1.34,4.54 3.08,9.05 4.08,13.68 -5.14,0.28 -10.49,0.44 -15.61,-0.05 -2.2,-2.92 -2.17,-8.84 -2.29,-12.48l0.76,-0.19c0.42,2.59 1.2,2.65 3.26,3.84 -0.59,0.67 -1.17,1.35 -1.76,2.02 1.52,-0.1 3.04,-0.25 4.55,-0.47 0.69,-3.44 -1.02,-6.44 2.42,-8.64l0.92,-0.32z" fill="#356966"/>
  <path d="m28.256,22.84c-3.44,2.2 -1.73,5.2 -2.42,8.64 -1.51,0.22 -3.03,0.37 -4.55,0.47 0.59,-0.67 1.17,-1.35 1.76,-2.02 -2.06,-1.19 -2.84,-1.25 -3.26,-3.84 2.93,-0.85 5.54,-2.46 8.47,-3.25z" fill="#264446"/>
  <path d="m147.476,23.33c2.12,-1.18 5.17,1.3 7.13,2.14 0.98,1.75 -1.9,4.76 -3.04,6.01 -2.46,4.43 -4.54,6.78 -9.51,8.34 0.89,-5.65 3.39,-11.16 5.42,-16.49z" fill="#356966"/>
  <path d="m159.326,27.45 l0.59,-0.42c0.31,4.13 -0.16,9.65 -5.75,8.84 0.22,-1.89 3.5,-7.44 5.16,-8.42z" fill="#356966"/>
  <path d="m11.246,28.22c-2.88,1.68 -7.98,-0.43 -9.96,2.05 -0.49,7.13 -0.28,14.49 -0.12,21.64 1.25,3.39 7.66,6.06 6.75,10.93 -3.84,1.11 -4.01,-2.03 -6.67,-3.82 -0.3,5.49 -0.42,11.18 0.02,16.65 3.81,0.39 7.25,1.3 10.05,4.06 1.98,1.79 3.04,4.51 5.38,5.62 2.07,1.22 4.21,2.31 6.31,3.47 -7.23,0.54 -14.55,-0.2 -21.77,0.37 -0.32,19.81 -0.32,39.8 0,59.61 3.11,0.33 6,-0.09 9.03,0.91 -3.28,0.29 -6.76,0.52 -10.03,0.1 -0.45,-27.13 -0.06,-54.63 -0.19,-81.81 0.17,-12.85 -0.34,-25.93 0.24,-38.73C2.266,26.79 8.326,28.42 11.246,28.22Z" fill="#264446"/>
  <path d="m11.246,28.22 l1.71,-0.54 1.8,0.61c1.4,5.62 -0.62,9.33 -3.71,13.77 1.52,1.09 3.69,1.67 4.73,3.22 0.81,5.77 -0.24,11.8 0.5,17.59 0.78,3.63 1.75,7.29 3.23,10.7 5.48,6.55 12.76,11.33 21.27,12.8l0.14,1.51c-9.68,0.57 -19.46,-5.3 -23.81,-13.91 -1.4,-2.26 -2.34,-5.75 -4.89,-6.89 -0.89,1.25 -1.58,1.99 -0.8,3.56 1.52,3.65 3.25,7.06 6.39,9.59 4.04,3.33 8.38,8.77 13.99,8.97 0.65,3.06 5.14,2.05 6.46,-0.09 2.23,-0.1 4.47,-0.13 6.7,-0.11 -0.3,0.81 -0.56,1.64 -0.78,2.48 3.27,0.46 6.46,0.75 9.77,0.35 0.17,-2.03 -1.68,-1.84 -3.03,-2.69 2.14,-0.23 4.75,0.43 6.31,-1.33 2.63,5.52 6.14,10.64 8.72,16.19 -2.17,5.48 -6.36,9.79 -8.58,15.32 -3.02,4.61 -4.09,9.69 -6.03,14.76 2.12,-0.79 2.86,-3.52 4.84,-4.69 2.82,-1.68 4.72,-4.02 8.17,-4.23 2.59,-2.52 3.63,-7.17 6.69,-9.32 2.45,3.22 3.43,7.92 5.68,11.49 2.88,7.69 4.29,16.29 8.11,23.67 0.4,-4.3 0.17,-8.68 0.25,-13 0.19,-5.08 -1.32,-9.87 -1.15,-14.99 -1.48,-5.92 -2.94,-11.99 -5.29,-17.64 -1.34,-2.55 0.74,-4.87 1.72,-7.16 1.44,0.45 1.22,1.5 1.61,2.73 -0.56,0.45 -0.49,0.68 0.2,0.71 3.31,6.53 6.2,14.05 7.23,21.31 2,-1.4 1.75,-3.89 2.38,-6.11 0.4,-3.39 1.73,-6.32 3.39,-9.26 0.07,-0.13 0.13,-0.26 0.18,-0.4 1.13,-2.93 1.75,-6.03 2.91,-8.94 1.29,0.02 1.51,3.02 1.49,3.97 0.01,0.19 0.02,0.38 0.04,0.58 0.58,2.65 -0.91,4.23 -1.93,6.48 -0.08,0.16 -0.11,0.33 -0.1,0.53 0.13,3.76 -1.32,6.77 -2,10.43 -0.03,0.17 -0.06,0.33 -0.07,0.5 -1.88,10.43 -2.02,20.7 -1.41,31.26 2.69,-3.59 3.36,-8.5 5.1,-12.64 1.58,-8.26 4.84,-16.29 8.91,-23.64l0.74,-0.1c1.55,2.53 3.3,4.95 4.7,7.56 0.07,0.14 0.16,0.27 0.25,0.39 0.93,1.1 1.88,2.19 2.85,3.25 0.16,-1.25 0.33,-2.5 0.51,-3.75 3.32,2.1 3.8,5.82 7.56,7.14 2.58,1.18 4.47,3.64 6.95,4.85 -1.59,-4.26 -4.11,-8.31 -7.35,-11.51 -3.1,-4.48 -4.05,-13.1 -9.98,-15.08 -0.53,-2.89 -2.5,-5.91 0.59,-7.89 0.12,-0.1 0.2,-0.24 0.24,-0.42 1.27,-4.24 3.74,-7.54 5.68,-11.48 3.13,0.45 6.47,0.01 9.53,0.69 0.39,0.31 1.16,3.82 1.36,1.61 0.2,-2.94 3.19,-1.72 5.2,-1.87 -0.89,2.16 1.66,2.33 0.95,0.06l2.23,0.14c0.18,0.01 0.37,0.01 0.55,0l1.04,-0.06c0.91,1.32 1.62,1.26 2.11,-0.2 2.34,-0.13 5.26,0.36 7.4,-0.72 5.85,-3.02 10.51,-8.4 14.22,-13.73 0.85,-1.65 3.56,-5.98 1.26,-7.31 -1.44,-0.1 -2.88,3.62 -3.76,4.75 -3.05,6.1 -8.21,11.61 -14.46,14.46 -3.76,0.76 -7.79,1.81 -11.64,1.3 1.21,-0.89 2.48,-1.5 3.91,-1.94 6.18,-1.87 12.59,-5.17 16.87,-10.11 2.83,-3.18 3.52,-8.07 4.83,-12.1 1.17,-5.61 -0.29,-11.73 0.76,-17.34 0.71,-2.69 2.61,-2.89 4.64,-4.25 -2.96,-4.25 -4.78,-8.66 -3.8,-13.95 4.6,0.9 8.98,0.87 13.63,1.08 0.46,6.57 0.06,13.23 0.22,19.83 1.1,4.55 -7,8.57 -6.71,12.67 1.75,3.43 4.52,-1.71 6.52,-2.61 0.28,5.68 0.26,11.78 0.05,17.46 -6.12,-1.85 -8.25,2.7 -12.14,6.22 -2.79,2.83 -6.18,4.41 -9.73,6.04 7.15,0.65 14.48,-0.32 21.59,0.49 0.44,1.28 0.81,2.59 1.22,3.89 0.02,1.27 0.02,2.53 0,3.8 -1.54,1.87 -1.48,4.11 -0.05,6.03l-0.08,1.74c-1.29,4.13 -0.52,8.94 -0.69,13.25 0.18,4.29 -0.62,9.1 0.7,13.2v1.6c-1.06,3.55 -1.2,7.9 0.08,11.41 0.13,1.58 0.23,3.15 0.11,4.74 -3.17,0.06 -6.06,-0.25 -9.12,0.75 -0.9,0.15 -1.81,0.29 -2.71,0.42 -1.48,-0.55 -2.55,-0.27 -3.2,0.82l-0.85,0.32c-2.58,-0.55 -4.65,-1.24 -6.04,1.6l-0.87,0.15c-1.1,-0.3 -1.85,0.03 -2.23,0.98l-0.9,0.16c-2.5,-0.41 -4.51,0.03 -5.24,2.72l-0.87,0.38 -0.7,0.3 -0.88,0.36c-2.74,0.46 -3.91,1.77 -5.74,3.62 -2.71,1.74 -5.33,2.37 -6.85,5.5l-0.86,0.35 -0.65,0.26 -0.87,0.32c-2.87,0.76 -5.16,2.47 -7.63,4.08l-0.88,0.32 -0.72,0.25 -2.2,0.8 -0.81,0.31 -0.95,0.38c-2.98,-0.47 -3.98,-0.34 -6.16,1.73l-2.09,0.56 -0.72,0.19c-0.98,0.26 -1.95,0.51 -2.93,0.75 -2.94,-0.28 -5.64,-0.78 -8.45,0.45 -5.23,0.36 -10.55,0.33 -15.79,0.01 -2.23,-1.62 -4.49,-0.99 -6.99,-0.53 -0.97,-0.11 -1.95,-0.21 -2.93,-0.3 -0.33,-0.95 -1.05,-1.27 -2.14,-0.98l-0.88,-0.01c-0.55,-1.1 -1.58,-1.41 -3.11,-0.94h-0.88c-0.3,-0.98 -1.01,-1.33 -2.11,-1.06l-0.9,0.03c-0.35,-0.96 -1.1,-1.3 -2.26,-1.01l-0.94,-0.35 -0.74,-0.29 -0.91,-0.34c-0.83,-1.74 -1.49,-2.1 -3.42,-1.97l-0.86,-0.42 -0.66,-0.32 -0.77,-0.4c-1.45,-2.02 -4.13,-2.65 -6.11,-4.2 -4.9,-3.04 -9.75,-8.56 -15.54,-9.58l-0.79,-0.2c-0.35,-0.93 -1.07,-1.24 -2.16,-0.92l-0.85,-0.06c-0.85,-2.19 -1.93,-2.24 -4.07,-1.84l-0.87,-0.16c-0.61,-1.07 -1.67,-1.37 -3.16,-0.88l-1.86,-0.07c-0.34,-0.97 -1.06,-1.28 -2.16,-0.93 -0.9,-0.11 -1.8,-0.23 -2.7,-0.35 -3.03,-1 -5.92,-0.58 -9.03,-0.91 -0.32,-19.81 -0.32,-39.8 0,-59.61 7.22,-0.57 14.54,0.17 21.77,-0.37 -2.1,-1.16 -4.24,-2.25 -6.31,-3.47 -2.34,-1.11 -3.4,-3.83 -5.38,-5.62C8.516,76.97 5.076,76.06 1.266,75.67 0.826,70.2 0.946,64.51 1.246,59.02c2.66,1.79 2.83,4.93 6.67,3.82 0.91,-4.87 -5.5,-7.54 -6.75,-10.93 -0.16,-7.15 -0.37,-14.51 0.12,-21.64 1.98,-2.48 7.08,-0.37 9.96,-2.05z" fill="#356966"/>
  <path d="m26.216,33.17c1.79,-1.18 2.92,1.59 0.83,2 -1.13,-0.3 -1.4,-0.97 -0.83,-2z" fill="#264446"/>
  <path d="m152.196,41.99c0.33,-0.79 0.46,-1.57 0.38,-2.34 2.71,-1.17 2.01,2.96 -0.38,2.34z" fill="#356966"/>
  <path d="m158.856,39.11c0.03,11.35 1.79,21.32 -3.21,31.5 -6.04,8.97 -16.64,14.83 -27.52,14.24 0.96,-5.2 4.78,-9.89 7.21,-14.55 5.54,-10.17 15.41,-17.03 20.76,-27.12 0.9,-1.51 0.3,-4.52 2.76,-4.07z" fill="#356966"/>
  <path d="m49.016,39.94c1.03,0.1 1.67,0.82 1.92,2.15l-0.81,0.33c-0.7,-0.43 -3.01,-1.99 -1.11,-2.48z" fill="#356966"/>
  <path d="m151.006,40.29 l0.37,1.67c-0.62,0.76 -1.92,3.1 -3.1,2.64 -0.63,-1.36 1.62,-3.68 2.73,-4.31z" fill="#356966"/>
  <path d="m151.006,40.29 l1.57,-0.64c0.08,0.77 -0.05,1.55 -0.38,2.34l-0.82,-0.03z" fill="#a8e0c6"/>
  <path d="m20.246,41.1c1.71,-0.18 2.49,1.05 3.53,2.15 2.99,3.9 5.13,8.24 7.61,12.43 2.81,3.29 6.2,5.74 8.23,9.71 3.08,6.4 7.93,11.49 11.35,17.69l-0.04,1.75c-4.55,0.8 -9.67,-1.36 -14.01,-2.66 -7.57,-2.71 -12.3,-9.44 -15.47,-16.5 -1.49,-8.15 -1.79,-16.31 -1.2,-24.57z" fill="#356966"/>
  <path d="m30.246,41.45c1.16,-0.33 2.81,0.79 3.86,1.3l-1.08,1.44c-1.35,-0.15 -3.49,-1.03 -2.78,-2.74z" fill="#356966"/>
  <path d="m85.896,41.14c0.5,2.38 -0.62,4.08 -1.3,6.25 -1.04,4.46 -2.53,9.76 -4.58,13.79 -1.41,-1.86 -2.76,-4.07 -3.8,-6.16 0.9,-1.89 2.27,-3.16 2.25,-5.37 -0.11,-1.21 0.8,-1.13 1.54,-1.8 1.86,-1.97 2.33,-8.06 5.89,-6.71z" fill="#356966"/>
  <path d="m92.186,41.14c1.74,-0.32 3.11,-0.05 3.91,1.66 1.47,3.78 3.71,6.94 5.9,10.3 -0.38,2.37 -2.39,4.73 -3.68,6.76 -1.76,-3.77 -2.37,-7.75 -3.52,-11.7 -0.8,-2.36 -3.24,-4.43 -2.61,-7.02z" fill="#356966"/>
  <path d="m50.126,42.42 l0.81,-0.33 1,-0.07c0.4,0.95 1.18,1.26 2.34,0.93l0.92,0.36 0.69,0.29c2.46,0.81 4.02,2.56 5.49,4.6l0.38,0.55c0.55,0.83 1.07,1.66 1.58,2.5l0.38,0.66 0.46,0.86c0.19,1.3 1.11,2.94 2.61,1.99 0.36,-0.7 0.1,-1.43 -0.78,-2.2l-0.3,-0.8 -0.21,-0.61 -0.57,-1.7 0.89,-0.36c0.78,0.9 1.58,1.8 2.37,2.7 1.48,2.99 3.11,5.4 5.88,7.35l0.27,0.73c0.34,2.26 0.91,3.48 2.57,5.06 0.47,0.77 0.94,1.55 1.4,2.32l0.33,0.6c0.58,1.12 1.14,2.26 1.69,3.39l0.27,0.67 0.65,1.99c0.19,0.86 0.44,0.84 0.77,-0.06l0.34,-0.92 0.3,-0.8 0.82,-2.23 0.36,-0.88 0.43,-0.99 0.31,-0.86c0.32,-1.1 0.61,-2.2 0.89,-3.3l0.18,-0.71c0.28,-1.1 0.55,-2.2 0.82,-3.3l0.17,-0.71 0.48,-2c0.93,-0.4 1.23,-1.14 0.91,-2.21 0.02,-1.29 0.05,-2.58 0.07,-3.88 1.11,-0.56 1.4,-1.59 0.86,-3.11 0.06,-1.64 0.12,-3.28 0.26,-4.92l0.69,0.02 0.56,2.07 0.16,0.73c0.24,1.36 0.43,2.72 0.59,4.09 -0.6,1.47 -0.36,2.54 0.71,3.2l0.52,2 0.18,0.72c0.28,1.1 0.56,2.2 0.84,3.3l0.17,0.71 0.49,2c-0.37,1.12 -0.08,1.85 0.87,2.2l-0.14,0.8c-1.94,-0.07 -2.45,1.29 -0.88,2.47l0.36,0.87 0.3,0.72 0.35,0.9c0.23,0.85 0.65,1.5 1.25,1.93 1.25,0.03 1.22,-2.91 1.56,-3.83 0.53,-0.72 1.04,-1.45 1.55,-2.19l0.45,-0.75 0.53,-0.99 0.48,-0.96 0.47,-1.04 0.36,-0.85 0.37,-0.93c1.19,-0.34 1.84,-1.12 1.94,-2.35 0.71,-0.93 1.41,-1.86 2.09,-2.81 1.8,-1.48 4.34,-2.84 5.14,-5.11l1.09,-1.28 0.41,-0.48 1.14,-1.29c1.31,-0.01 2.06,-0.65 2.26,-1.95l1.29,-1.08 0.83,-0.35 0.99,-0.1c0.19,-0.02 0.39,-0.04 0.59,-0.06l2.18,-0.18v0.64c-0.35,0.75 -0.66,1.51 -0.94,2.29 0.75,1.84 2.67,1.44 4.29,2.06l-0.52,0.91 -0.4,0.69c-0.46,0.76 -0.93,1.51 -1.39,2.27 -1.36,0.63 -3.68,1.58 -2.04,3.34l0.36,0.52c-0.98,0.94 -1.7,1.85 -2.18,3.14 -0.46,0.74 -0.91,1.48 -1.35,2.23l-0.34,0.65 -0.43,0.85c-1.22,0.48 -1.84,1.35 -1.86,2.6l-0.46,0.77 -0.37,0.61c-0.52,0.84 -1.04,1.68 -1.56,2.52l-0.37,0.61 -0.46,0.77c-1.5,0.2 -2.13,1.07 -1.87,2.6l-0.42,0.85 -0.34,0.64c-0.43,0.76 -0.86,1.51 -1.3,2.25 -0.96,0.37 -1.27,1.12 -0.93,2.26l-0.41,0.92 -0.39,0.83 -0.49,1.03 -0.48,0.96 -0.54,1.03 -0.48,0.93 -0.5,0.98 -0.2,0.88c0.07,0.78 0.15,1.55 0.25,2.32 -0.14,1.7 1.5,2.92 2.26,0.9 0.31,-0.66 0.63,-1.33 0.94,-2.01 1.28,-0.24 1.93,-1.03 1.94,-2.35l0.42,-0.86 0.4,-0.8 0.52,-0.96 0.43,-0.76c0.53,-0.85 1.05,-1.69 1.57,-2.55l0.38,-0.68 0.49,-0.95c1.6,0.14 2.17,-0.6 1.7,-2.23l0.5,-0.95 0.35,-0.66c0.6,-1.13 1.18,-2.26 1.74,-3.4l0.3,-0.59c0.58,-1.15 1.14,-2.31 1.68,-3.47l0.37,-0.79 0.49,-1.03 0.46,-0.96 0.52,-1.05 0.48,-0.95 0.53,-0.99 0.44,-0.75c0.53,-0.84 1.07,-1.68 1.61,-2.51l0.36,-0.57c0.45,-0.71 0.89,-1.43 1.34,-2.15 1.28,-0.24 1.88,-1 1.79,-2.3 0.73,-0.61 1.46,-1.21 2.2,-1.81 2.2,0.07 2.47,-1.1 2.97,-2.92 0.75,-0.44 1.49,-0.9 2.23,-1.36l0.56,-0.36c0.82,-0.55 1.64,-1.09 2.46,-1.63l0.57,-0.36c0.67,-0.39 1.35,-0.76 2.05,-1.09 -0.09,1.2 0.34,1.68 1.31,1.43 0.92,-0.09 1.84,-0.19 2.76,-0.26 -0.43,0.8 -0.73,1.67 -0.89,2.61l-0.25,0.88c-1.37,1.64 -1.07,3.28 -0.55,5.19l-0.32,0.78c-2.3,0.2 -2.93,0.81 -2.83,3.15 -0.69,0.99 -1.39,1.97 -2.08,2.96 -1.33,0.28 -1.95,1.03 -1.86,2.23l-0.05,0.8c-1.24,0.12 -1.91,0.84 -2,2.14 -0.38,0.63 -0.76,1.26 -1.13,1.89 -1.79,0.74 -2.44,1.33 -2.83,3.28l-0.46,0.8 -0.38,0.63c-0.53,0.85 -1.05,1.7 -1.58,2.55l-0.43,0.75 -0.53,0.99 -0.48,0.96 -0.49,1.02 -0.37,0.79c-0.55,1.16 -1.1,2.31 -1.66,3.47l-0.3,0.68 -0.86,2.18 -0.37,0.88 -0.45,1 -0.37,0.8 -0.41,0.88c-1.94,3.94 -4.41,7.24 -5.68,11.48l-0.24,0.42c-3.09,1.98 -1.12,5 -0.59,7.89 5.93,1.98 6.88,10.6 9.98,15.08 3.24,3.2 5.76,7.25 7.35,11.51 -2.48,-1.21 -4.37,-3.67 -6.95,-4.85 -3.76,-1.32 -4.24,-5.04 -7.56,-7.14 -0.18,1.25 -0.35,2.5 -0.51,3.75 -0.97,-1.06 -1.92,-2.15 -2.85,-3.25l-0.25,-0.39c-1.4,-2.61 -3.15,-5.03 -4.7,-7.56l-0.16,-0.61c-0.31,-0.81 -0.5,-0.79 -0.55,0.06l-0.03,0.65c-4.07,7.35 -7.33,15.38 -8.91,23.64 -1.74,4.14 -2.41,9.05 -5.1,12.64 -0.61,-10.56 -0.47,-20.83 1.41,-31.26l0.07,-0.5c0.68,-3.66 2.13,-6.67 2,-10.43l0.1,-0.53c1.02,-2.25 2.51,-3.83 1.93,-6.48l-0.04,-0.58c0.02,-0.95 -0.2,-3.95 -1.49,-3.97 -1.16,2.91 -1.78,6.01 -2.91,8.94l-0.18,0.4c-1.66,2.94 -2.99,5.87 -3.39,9.26 -0.63,2.22 -0.38,4.71 -2.38,6.11 -1.03,-7.26 -3.92,-14.78 -7.23,-21.31l-0.2,-0.71c-0.39,-1.23 -0.17,-2.28 -1.61,-2.73 -0.98,2.29 -3.06,4.61 -1.72,7.16 2.35,5.65 3.81,11.72 5.29,17.64 -0.17,5.12 1.34,9.91 1.15,14.99 -0.08,4.32 0.15,8.7 -0.25,13 -3.82,-7.38 -5.23,-15.98 -8.11,-23.67 -2.25,-3.57 -3.23,-8.27 -5.68,-11.49 -3.06,2.15 -4.1,6.8 -6.69,9.32 -3.45,0.21 -5.35,2.55 -8.17,4.23 -1.98,1.17 -2.72,3.9 -4.84,4.69 1.94,-5.07 3.01,-10.15 6.03,-14.76 2.22,-5.53 6.41,-9.84 8.58,-15.32 -2.58,-5.55 -6.09,-10.67 -8.72,-16.19l-0.44,-0.94 -0.35,-0.74 -0.42,-0.9c0.33,-1.11 0.06,-1.9 -0.83,-2.37l-0.6,-2 -0.23,-0.7 -0.29,-0.87c-0.09,-1.21 -0.73,-2 -1.92,-2.36l-0.33,-0.66c-1.03,-2.59 -3.04,-3.97 -5,-5.83l-0.27,-0.69 -0.25,-0.63 -0.36,-0.85c-0.45,-2.07 -0.91,-3.33 -2.82,-4.44l-0.42,-0.94 -0.41,-0.87 -0.49,-1.02 -0.39,-0.81 -0.41,-0.87c-0.04,-1.33 -0.71,-2.1 -2,-2.31 -0.29,-0.68 -0.58,-1.35 -0.88,-2.03 0.13,-1.56 -0.59,-2.23 -2.16,-2l-1.25,-1.18 -0.49,-0.47 -1.36,-1.35 0.24,-0.79 0.98,-0.43c0.39,-0.04 0.49,-0.29 0.27,-0.74l-0.71,-2.14 -0.27,-0.75 -0.34,-0.94 1.08,-1.44 0.83,0.31c0.43,0.93 1.2,1.23 2.33,0.93l0.93,0.38 0.77,0.32 0.94,0.39c1.65,1.57 3,2.23 5.22,2.67l0.75,0.25c1.27,1.52 2.6,2.84 4.12,4.11l0.19,0.73c0.03,1.19 0.64,1.99 1.84,2.4l0.41,0.85 0.36,0.65c0.51,0.84 1.03,1.67 1.56,2.49l0.35,0.57c0.84,1.34 1.64,2.7 2.44,4.06 0.08,1.19 0.71,1.98 1.89,2.38l0.41,0.85 0.35,0.64c0.5,0.85 1.01,1.69 1.53,2.53l0.36,0.61 0.47,0.78c0.02,1.24 0.64,2.11 1.86,2.59l0.42,0.85 0.35,0.65c0.43,0.74 0.88,1.48 1.33,2.21 -0.4,0.98 -0.18,1.73 0.65,2.25 0.81,1.06 1.68,2.08 2.52,3.11l0.49,0.74 0.54,0.97 0.49,0.95 0.49,1.05 0.42,0.94 0.46,1.03c0.83,3.79 4.67,0.14 3.26,-1.96l-0.33,-0.89c0.25,-1.11 -0.1,-1.83 -1.05,-2.15 -0.85,-1.36 -1.65,-2.73 -2.42,-4.13l-0.36,-0.59c-0.75,-1.11 -1.57,-2.15 -2.4,-3.19 -0.42,-1.95 -0.77,-3.26 -2.76,-4.09l-0.16,-0.78c-0.05,-1.21 -0.7,-2.02 -1.94,-2.42l-0.38,-0.92 -0.37,-0.86 -0.49,-1.03 -0.46,-0.95 -0.48,-1.03 -0.38,-0.89 -0.79,-2.21 -0.27,-0.73c-0.41,-1.07 -0.83,-2.14 -1.26,-3.2 0.14,-1.48 -0.53,-2.19 -1.99,-2.13 -0.43,-0.58 -0.87,-1.15 -1.3,-1.73 -0.37,-1.99 -0.73,-3.26 -2.72,-4.13l-0.08,-0.86c0.31,-1.1 -0.01,-1.81 -0.98,-2.14 -0.42,-0.75 -0.84,-1.49 -1.25,-2.24l-0.31,-0.57z" fill="#a8e0c6"/>
  <path d="m51.936,42.02c1.07,-0.3 1.85,0.01 2.34,0.93 -1.16,0.33 -1.94,0.02 -2.34,-0.93z" fill="#356966"/>
  <path d="m78.956,42.04c0.13,3.54 -2.38,7.48 -5.14,9.59 -0.99,0.51 -2.3,-1.95 -2.89,-2.6 1.43,-1.24 3.13,-2.33 4.5,-3.64 1.15,-1.16 2.19,-2.39 3.53,-3.35z" fill="#356966"/>
  <path d="m89.906,43.04 l-0.69,-0.02c0.08,-0.95 0.31,-0.94 0.69,0.02z" fill="#356966"/>
  <path d="m99.996,42.2c0.85,0.76 1.64,1.58 2.52,2.31 1.72,1.41 3.58,2.69 5.24,4.18 -1.15,0.73 -2.31,1.48 -3.54,2.08 -2.26,-2.24 -3.95,-5.38 -4.22,-8.57z" fill="#356966"/>
  <path d="m34.936,43.06c1.09,-0.33 1.86,-0.02 2.33,0.93 -1.13,0.3 -1.9,0 -2.33,-0.93z" fill="#356966"/>
  <path d="m50.506,43.17 l0.31,0.57z" fill="#356966"/>
  <path d="m55.196,43.31 l0.69,0.29z" fill="#356966"/>
  <path d="m118.196,43.51 l-0.83,0.35z" fill="#356966"/>
  <path d="m119.186,43.41 l0.59,-0.06c-0.2,0.02 -0.4,0.04 -0.59,0.06z" fill="#356966"/>
  <path d="m121.956,43.17c0.87,-0.14 0.87,0.07 0,0.64z" fill="#356966"/>
  <path d="m140.886,43.22c0.92,-0.35 1.36,0.12 1.31,1.43 -0.97,0.25 -1.4,-0.23 -1.31,-1.43z" fill="#356966"/>
  <path d="m38.196,44.37 l0.77,0.32z" fill="#356966"/>
  <path d="m48.316,44.27c0.49,0.49 0.49,0.49 0,0z" fill="#356966"/>
  <path d="m138.836,44.31 l-0.57,0.36z" fill="#356966"/>
  <path d="m146.816,45.65c-0.8,0.6 -1.72,1.05 -2.75,1.35 0.16,-0.94 0.46,-1.81 0.89,-2.61 1.06,-0.12 2.71,-0.42 1.86,1.26z" fill="#356966"/>
  <path d="m33.366,45.13 l0.27,0.75z" fill="#356966"/>
  <path d="m39.906,45.08c2.39,-0.29 4.65,-0.08 5.22,2.67 -2.22,-0.44 -3.57,-1.1 -5.22,-2.67z" fill="#356966"/>
  <path d="m90.466,45.11 l0.16,0.73z" fill="#356966"/>
  <path d="m116.076,44.94c-0.2,1.3 -0.95,1.94 -2.26,1.95 0.04,-1.47 0.79,-2.12 2.26,-1.95z" fill="#356966"/>
  <path d="m126.886,45.19c-0.48,1.02 -1.01,2.01 -1.58,2.97 -1.62,-0.62 -3.54,-0.22 -4.29,-2.06 1.97,-0.22 3.91,-0.6 5.87,-0.91z" fill="#356966"/>
  <path d="m52.066,45.98c0.97,0.33 1.29,1.04 0.98,2.14 -0.97,-0.35 -1.29,-1.07 -0.98,-2.14z" fill="#356966"/>
  <path d="m135.806,46.3 l-0.56,0.36z" fill="#356966"/>
  <path d="m149.156,46.29 l-1.06,0.32z" fill="#356966"/>
  <path d="m149.156,46.29 l0.82,0.06 0.26,0.64 -1.19,1.32 -1.05,0.53 -1,0.15 -0.84,-0.39c0.57,-0.76 1.22,-1.43 1.94,-1.99z" fill="#a8e0c6"/>
  <path d="m149.976,46.35c0.62,-0.04 0.71,0.17 0.26,0.64z" fill="#356966"/>
  <path d="m34.346,48.02c0.22,0.45 0.12,0.7 -0.27,0.74z" fill="#356966"/>
  <path d="m45.876,48c3.83,-0.11 3.2,1.05 4.12,4.11 -1.52,-1.27 -2.85,-2.59 -4.12,-4.11z" fill="#356966"/>
  <path d="m50.316,48.27c0.49,0.49 0.49,0.49 0,0z" fill="#356966"/>
  <path d="m61.376,48.2 l0.38,0.55z" fill="#356966"/>
  <path d="m65.816,49.09 l-0.89,0.36c-1.82,-1.58 0.8,-2.54 0.89,-0.36z" fill="#356966"/>
  <path d="m88.956,47.94c0.54,1.52 0.25,2.55 -0.86,3.11 -0.49,-1.48 -0.21,-2.52 0.86,-3.11z" fill="#356966"/>
  <path d="m112.676,48.18 l-0.41,0.48z" fill="#356966"/>
  <path d="m133.016,48.02c-0.5,1.82 -0.77,2.99 -2.97,2.92 0.55,-1.76 0.81,-2.92 2.97,-2.92z" fill="#356966"/>
  <path d="m143.816,47.88c0.52,1.92 0.86,3.57 -0.55,5.19 -0.52,-1.91 -0.82,-3.55 0.55,-5.19z" fill="#356966"/>
  <path d="m149.046,48.31 l-1.05,0.53z" fill="#356966"/>
  <path d="m33.096,49.19 l-0.24,0.79c-0.5,-0.36 -0.42,-0.62 0.24,-0.79z" fill="#356966"/>
  <path d="m53.126,48.98c1.99,0.87 2.35,2.14 2.72,4.13 -2.36,-0.37 -2.75,-2.02 -2.72,-4.13z" fill="#356966"/>
  <path d="m124.786,49.07 l-0.4,0.69z" fill="#356966"/>
  <path d="m146.156,48.6 l0.84,0.39c-0.36,2.14 -2.94,0.99 -0.84,-0.39z" fill="#356966"/>
  <path d="m30.316,50.27c0.49,0.49 0.49,0.49 0,0z" fill="#356966"/>
  <path d="m91.216,49.93c1.03,0.67 1.27,1.73 0.71,3.2 -1.07,-0.66 -1.31,-1.73 -0.71,-3.2z" fill="#356966"/>
  <path d="m111.176,49.94c-0.8,2.27 -3.34,3.63 -5.14,5.11 0.48,-3.18 2.63,-3.79 5.14,-5.11z" fill="#356966"/>
  <path d="m34.216,51.33 l0.49,0.47z" fill="#356966"/>
  <path d="m63.336,51.25 l0.38,0.66z" fill="#356966"/>
  <path d="m65.496,51.15 l0.21,0.61z" fill="#356966"/>
  <path d="m68.186,51.79c2.84,1.18 4.97,4.52 5.88,7.35 -2.77,-1.95 -4.4,-4.36 -5.88,-7.35z" fill="#356966"/>
  <path d="m122.996,52.03c-0.03,1.87 -0.38,2.47 -2.04,3.34 -1.64,-1.76 0.68,-2.71 2.04,-3.34z" fill="#356966"/>
  <path d="m35.956,52.98c1.57,-0.23 2.29,0.44 2.16,2 -1.19,-0.12 -1.91,-0.79 -2.16,-2z" fill="#356966"/>
  <path d="m50.186,52.84c1.53,-0.01 2.14,0.79 1.84,2.4 -1.2,-0.41 -1.81,-1.21 -1.84,-2.4z" fill="#356966"/>
  <path d="m64.176,52.77 l1.83,-0.21c0.88,0.77 1.14,1.5 0.78,2.2 -1.5,0.95 -2.42,-0.69 -2.61,-1.99z" fill="#356966"/>
  <path d="m127.846,52.75c0.09,1.3 -0.51,2.06 -1.79,2.3 -0.26,-1.46 0.33,-2.23 1.79,-2.3z" fill="#356966"/>
  <path d="m142.946,53.85c-0.45,1.83 -1.14,2.42 -2.83,3.15 -0.1,-2.34 0.53,-2.95 2.83,-3.15z" fill="#356966"/>
  <path d="m54.316,55.27c0.49,0.49 0.49,0.49 0,0z" fill="#356966"/>
  <path d="m57.146,54.84c1.46,-0.06 2.13,0.65 1.99,2.13 -1.29,-0.11 -1.95,-0.82 -1.99,-2.13z" fill="#356966"/>
  <path d="m88.026,54.93c0.32,1.07 0.02,1.81 -0.91,2.21 -0.36,-1.12 -0.06,-1.86 0.91,-2.21z" fill="#356966"/>
  <path d="m92.446,55.13 l0.18,0.72z" fill="#356966"/>
  <path d="m52.436,56.09 l0.36,0.65z" fill="#356966"/>
  <path d="m121.316,55.89c1.79,2.04 -0.12,3.18 -2.18,3.14 0.48,-1.29 1.2,-2.2 2.18,-3.14z" fill="#356966"/>
  <path d="m38.996,57.01c1.29,0.21 1.96,0.98 2,2.31 -1.46,-0.08 -2.13,-0.86 -2,-2.31z" fill="#356966"/>
  <path d="m56.316,57.27c0.49,0.49 0.49,0.49 0,0z" fill="#356966"/>
  <path d="m124.716,57.2 l-0.36,0.57z" fill="#356966"/>
  <path d="m103.946,57.86c-0.1,1.23 -0.75,2.01 -1.94,2.35 -0.24,-1.59 0.41,-2.37 1.94,-2.35z" fill="#356966"/>
  <path d="m54.356,59.23 l0.35,0.57z" fill="#356966"/>
  <path d="m86.636,59.14 l-0.17,0.71z" fill="#356966"/>
  <path d="m89.146,59.15c2.04,0.18 3.16,-1.06 2.8,1.83 0.11,2.37 -3.6,-0.01 -2.8,-1.83z" fill="#356966"/>
  <path d="m93.466,59.15 l0.17,0.71z" fill="#356966"/>
  <path d="m41.406,60.19 l0.39,0.81z" fill="#356966"/>
  <path d="m60.396,60.17 l0.27,0.73z" fill="#356966"/>
  <path d="m74.336,59.87c2.61,0.62 2.98,2.71 2.57,5.06 -1.66,-1.58 -2.23,-2.8 -2.57,-5.06z" fill="#356966"/>
  <path d="m122.746,60.28 l-0.44,0.75z" fill="#356966"/>
  <path d="m138.036,59.96c0.23,1.52 -0.39,2.26 -1.86,2.23 -0.09,-1.2 0.53,-1.95 1.86,-2.23z" fill="#356966"/>
  <path d="m39.316,61.27c0.49,0.49 0.49,0.49 0,0z" fill="#356966"/>
  <path d="m101.636,61.14 l-0.36,0.85z" fill="#356966"/>
  <path d="m117.786,61.26 l-0.34,0.65z" fill="#356966"/>
  <path d="m42.286,62.02 l0.41,0.87z" fill="#356966"/>
  <path d="m94.126,61.86c0.95,0.42 1.24,1.16 0.87,2.2 -0.95,-0.35 -1.24,-1.08 -0.87,-2.2z" fill="#356966"/>
  <path d="m121.776,62.02 l-0.48,0.95z" fill="#356966"/>
  <path d="m152.316,62.27c0.49,0.49 0.49,0.49 0,0z" fill="#264446"/>
  <path d="m164.316,62.27c0.49,0.49 0.49,0.49 0,0z" fill="#264446"/>
  <path d="m61.456,63.11 l0.38,0.89z" fill="#356966"/>
  <path d="m85.646,63.15 l-0.18,0.71z" fill="#356966"/>
  <path d="m100.806,63.03 l-0.48,0.96z" fill="#356966"/>
  <path d="m117.016,62.76c0.27,1.53 -0.35,2.4 -1.86,2.6 0.02,-1.25 0.64,-2.12 1.86,-2.6z" fill="#356966"/>
  <path d="m136.126,62.99c0.16,1.51 -0.51,2.22 -2,2.14 0.09,-1.3 0.76,-2.02 2,-2.14z" fill="#356966"/>
  <path d="m43.116,63.83c1.91,1.11 2.37,2.37 2.82,4.44 -2.42,-0.59 -2.8,-2.2 -2.82,-4.44z" fill="#356966"/>
  <path d="m57.146,63.86c1.55,-0.02 2.18,0.77 1.89,2.38 -1.18,-0.4 -1.81,-1.19 -1.89,-2.38z" fill="#356966"/>
  <path d="m120.776,64.02 l-0.46,0.96z" fill="#356966"/>
  <path d="m62.316,65.03 l0.46,0.95z" fill="#356966"/>
  <path d="m94.856,64.86c-0.07,0.85 -0.37,1.67 -0.88,2.47 -1.57,-1.18 -1.06,-2.54 0.88,-2.47z" fill="#356966"/>
  <path d="m99.796,64.98 l-0.45,0.75z" fill="#356966"/>
  <path d="m114.696,66.13 l-0.37,0.61z" fill="#356966"/>
  <path d="m119.826,66.01 l-0.37,0.79z" fill="#356966"/>
  <path d="m59.446,67.09 l0.35,0.64z" fill="#356966"/>
  <path d="m63.266,67.01 l0.37,0.86z" fill="#356966"/>
  <path d="m78.306,67.25 l0.33,0.6z" fill="#356966"/>
  <path d="m84.576,67.16 l-0.31,0.86z" fill="#356966"/>
  <path d="m132.996,67.02c0.04,2.34 -0.62,2.84 -2.83,3.28 0.39,-1.95 1.04,-2.54 2.83,-3.28z" fill="#356966"/>
  <path d="m94.336,68.2 l0.3,0.72z" fill="#356966"/>
  <path d="m97.796,67.92c-0.34,0.92 -0.31,3.86 -1.56,3.83 -0.6,-0.43 -1.02,-1.08 -1.25,-1.93 0.87,-0.82 1.66,-1.51 2.81,-1.9z" fill="#356966"/>
  <path d="m46.296,69.12 l0.25,0.63z" fill="#356966"/>
  <path d="m64.016,68.79c1.24,0.4 1.89,1.21 1.94,2.42 -1.51,-0.03 -2.15,-0.84 -1.94,-2.42z" fill="#356966"/>
  <path d="m83.836,69.01 l-0.36,0.88z" fill="#356966"/>
  <path d="m112.766,69.26 l-0.37,0.61z" fill="#356966"/>
  <path d="m61.326,70.26 l0.36,0.61z" fill="#356966"/>
  <path d="m90.916,71.08 l-0.81,0.06c0.26,-0.83 0.53,-0.85 0.81,-0.06z" fill="#356966"/>
  <path d="m117.776,70.27 l-0.3,0.59z" fill="#356966"/>
  <path d="m122.316,70.27c0.49,0.49 0.49,0.49 0,0z" fill="#356966"/>
  <path d="m46.816,70.44c1.96,1.86 3.97,3.24 5,5.83 -1.66,-0.99 -6.12,-3.44 -5,-5.83z" fill="#356966"/>
  <path d="m80.326,71.24 l0.27,0.67z" fill="#356966"/>
  <path d="m90.106,71.14 l0.81,-0.06 0.37,0.84c-0.45,2.28 -0.98,4.27 0.61,6.25l0.48,0.89 0.37,0.69c0.37,0.7 0.71,1.41 1.03,2.13 -1.36,-0.01 -1.94,0.71 -1.75,2.14l0.01,1.91c-0.96,0.33 -1.29,1.05 -1,2.17l-0.09,0.94c-0.88,-0.08 -1.76,-0.14 -2.65,-0.17l-0.68,-2.01 -0.27,-0.76 -0.36,-0.94c0.22,-1.8 0.17,-3.51 -0.07,-5.31l0.42,-0.94 0.34,-0.76 0.4,-0.92c0.95,-0.49 1.22,-1.28 0.83,-2.37l0.59,-2.02 0.26,-0.76z" fill="#264446"/>
  <path d="m107.296,71.11c0.27,3.26 3.41,-1.35 0,0z" fill="#356966"/>
  <path d="m111.936,70.64c-0.02,1.26 -0.64,2.12 -1.87,2.6 -0.26,-1.53 0.37,-2.4 1.87,-2.6z" fill="#356966"/>
  <path d="m129.706,71.1 l-0.38,0.63z" fill="#356966"/>
  <path d="m62.156,71.65c1.5,0.19 2.13,1.05 1.86,2.59 -1.22,-0.48 -1.84,-1.35 -1.86,-2.59z" fill="#356966"/>
  <path d="m66.116,71.99c1.99,0.83 2.34,2.14 2.76,4.09 -2.41,-0.29 -2.75,-1.98 -2.76,-4.09z" fill="#356966"/>
  <path d="m82.656,72.12 l-0.3,0.8z" fill="#356966"/>
  <path d="m89.756,72.08 l-0.26,0.76z" fill="#356966"/>
  <path d="m91.286,71.92c1.44,2.01 0.95,3.98 0.61,6.25 -1.59,-1.98 -1.06,-3.97 -0.61,-6.25z" fill="#356966"/>
  <path d="m121.316,72.27c0.49,0.49 0.49,0.49 0,0z" fill="#356966"/>
  <path d="m81.246,73.9 l0.77,-0.06c-0.33,0.9 -0.58,0.92 -0.77,0.06z" fill="#356966"/>
  <path d="m109.646,74.09 l-0.34,0.64z" fill="#356966"/>
  <path d="m115.736,74.26 l-0.35,0.66z" fill="#356966"/>
  <path d="m127.746,74.28 l-0.43,0.75z" fill="#356966"/>
  <path d="m64.436,75.09 l0.35,0.65z" fill="#356966"/>
  <path d="m88.906,74.86c0.39,1.09 0.12,1.88 -0.83,2.37 -0.33,-1.1 -0.06,-1.89 0.83,-2.37z" fill="#356966"/>
  <path d="m114.056,76.16 l-0.77,0.97z" fill="#010001"/>
  <path d="m114.056,76.16 l0.83,-0.29c0.47,1.63 -0.1,2.37 -1.7,2.23l0.1,-0.97z" fill="#356966"/>
  <path d="m126.786,76.02 l-0.48,0.96z" fill="#356966"/>
  <path d="m52.146,76.93c1.19,0.36 1.83,1.15 1.92,2.36 -1.58,-0.03 -2.22,-0.82 -1.92,-2.36z" fill="#356966"/>
  <path d="m108.006,76.98c0.31,1.05 0.01,1.8 -0.93,2.26 -0.34,-1.14 -0.03,-1.89 0.93,-2.26z" fill="#356966"/>
  <path d="m66.116,77.95c0.97,0.43 1.19,1.18 0.65,2.25 -0.83,-0.52 -1.05,-1.27 -0.65,-2.25z" fill="#356966"/>
  <path d="m87.676,78.15 l-0.34,0.76z" fill="#356966"/>
  <path d="m125.816,78 l-0.37,0.79z" fill="#356966"/>
  <path d="m71.276,79.27 l0.36,0.59z" fill="#356966"/>
  <path d="m92.376,79.06 l0.37,0.69z" fill="#356966"/>
  <path d="m112.696,79.05 l-0.38,0.68z" fill="#356966"/>
  <path d="m54.356,80.16 l0.23,0.7z" fill="#356966"/>
  <path d="m86.916,79.85c0.24,1.8 0.29,3.51 0.07,5.31 -3,-1.51 -1.21,-3.18 -0.07,-5.31z" fill="#356966"/>
  <path d="m106.666,80.16 l-0.39,0.83z" fill="#356966"/>
  <path d="m93.776,81.88c0.47,1.07 -0.12,1.78 -1.75,2.14 -0.19,-1.43 0.39,-2.15 1.75,-2.14z" fill="#356966"/>
  <path d="m105.786,82.02 l-0.48,0.96z" fill="#356966"/>
  <path d="m110.746,82.28 l-0.43,0.76z" fill="#356966"/>
  <path d="m123.786,82.26 l-0.3,0.68z" fill="#356966"/>
  <path d="m55.186,82.86c0.89,0.47 1.16,1.26 0.83,2.37 -0.94,-0.5 -1.22,-1.28 -0.83,-2.37z" fill="#356966"/>
  <path d="m69.286,83.31 l0.49,0.74z" fill="#356966"/>
  <path d="m74.056,83.99c0.95,0.32 1.3,1.04 1.05,2.15 -0.99,-0.35 -1.34,-1.07 -1.05,-2.15z" fill="#356966"/>
  <path d="m104.766,84.01 l-0.48,0.93z" fill="#356966"/>
  <path d="m109.796,84 l-0.4,0.8z" fill="#356966"/>
  <path d="m70.316,85.02 l0.49,0.95z" fill="#356966"/>
  <path d="m122.626,85.12 l-0.37,0.88z" fill="#356966"/>
  <path d="m56.436,86.13 l0.35,0.74z" fill="#356966"/>
  <path d="m87.346,86.1 l0.27,0.76z" fill="#356966"/>
  <path d="m92.036,85.93c0.3,1.1 -0.04,1.83 -1,2.17 -0.29,-1.12 0.04,-1.84 1,-2.17z" fill="#356966"/>
  <path d="m103.786,85.92 l-0.2,0.88z" fill="#356966"/>
  <path d="m108.976,85.66c-0.01,1.32 -0.66,2.11 -1.94,2.35 -0.18,-1.45 0.47,-2.24 1.94,-2.35z" fill="#356966"/>
  <path d="m71.296,87.02 l0.42,0.94z" fill="#356966"/>
  <path d="m75.436,87.03c1.41,2.1 -2.43,5.75 -3.26,1.96 1.31,-0.41 2.25,-1.05 3.26,-1.96z" fill="#356966"/>
  <path d="m121.806,87 l-0.37,0.8z" fill="#356966"/>
  <path d="m26.316,89.27c0.49,0.49 0.49,0.49 0,0z" fill="#a8e0c6"/>
  <path d="m31.796,89.2c2.15,-0.12 4.3,-0.14 6.46,-0.09 -1.32,2.14 -5.81,3.15 -6.46,0.09z" fill="#a8e0c6"/>
  <path d="m44.956,89c1.99,-0.02 3.97,0.04 5.96,0.14 1.35,0.85 3.2,0.66 3.03,2.69 -3.31,0.4 -6.5,0.11 -9.77,-0.35 0.22,-0.84 0.48,-1.67 0.78,-2.48z" fill="#a8e0c6"/>
  <path d="m88.296,88.87c0.89,0.03 1.77,0.09 2.65,0.17 -0.01,1.06 -0.34,2.09 -0.97,3.1l-0.74,-0.07c-0.37,-1.05 -0.68,-2.12 -0.94,-3.2z" fill="#356966"/>
  <path d="m103.836,89.12c0.8,0.07 1.55,0.37 2.26,0.9 -0.76,2.02 -2.4,0.8 -2.26,-0.9z" fill="#356966"/>
  <path d="m137.116,89.11 l0.95,0.06c0.71,2.27 -1.84,2.1 -0.95,-0.06z" fill="#a8e0c6"/>
  <path d="m140.296,89.31h0.55c-0.18,0.01 -0.37,0.01 -0.55,0z" fill="#a8e0c6"/>
  <path d="m141.886,89.25 l2.11,-0.2c-0.49,1.46 -1.2,1.52 -2.11,0.2z" fill="#a8e0c6"/>
  <path d="m68.156,91.24c-1.35,3.41 3.26,0.29 0,0z" fill="#356966"/>
  <path d="m89.236,92.07 l0.74,0.07 -0.08,1.85 -0.7,-0.02z" fill="#264446"/>
  <path d="m159.316,92.27c0.49,0.49 0.49,0.49 0,0z" fill="#264446"/>
  <path d="m36.296,93.11c0.27,3.26 3.41,-1.35 0,0z" fill="#264446"/>
  <path d="m54.316,93.27c0.49,0.49 0.49,0.49 0,0z" fill="#264446"/>
  <path d="m57.316,93.27c0.61,0.61 0.61,0.61 0,0z" fill="#a8e0c6"/>
  <path d="m140.276,93.35c1.58,-0.79 2.83,3.36 1.07,3.3 -0.72,-0.71 -1.67,-2.31 -1.07,-3.3z" fill="#a8e0c6"/>
  <path d="m45.316,94.23c2.97,-0.81 6.68,0.49 9.65,1.11 -1.46,2.86 -7.21,1.41 -9.9,1.56 -1.83,0.36 -0.66,-2.26 0.25,-2.67z" fill="#a8e0c6"/>
  <path d="m89.196,93.97 l0.7,0.02c-0.25,0.86 -0.49,0.85 -0.7,-0.02z" fill="#356966"/>
  <path d="m68.316,95.27c0.61,0.61 0.61,0.61 0,0z" fill="#356966"/>
  <path d="m136.386,95.17c0.77,-0.6 1.55,-0.6 2.32,0 0.49,1.47 -2.82,1.47 -2.32,0z" fill="#a8e0c6"/>
  <path d="m164.316,95.27c0.49,0.49 0.49,0.49 0,0z" fill="#264446"/>
  <path d="m175.156,95.24c-1.35,3.41 3.26,0.29 0,0z" fill="#264446"/>
  <path d="m38.366,96.12c0.91,-0.45 1.52,-0.17 1.82,0.84 -0.24,1.84 -2.62,0.47 -1.82,-0.84z" fill="#a8e0c6"/>
  <path d="m56.296,96.11c0.27,3.26 3.41,-1.35 0,0z" fill="#264446"/>
  <path d="m120.316,96.27c0.49,0.49 0.49,0.49 0,0z" fill="#264446"/>
  <path d="m178.876,96.98c0.47,2.17 0.47,3.86 -0.05,6.03 -1.43,-1.92 -1.49,-4.16 0.05,-6.03z" fill="#264446"/>
  <path d="m137.316,98.27c0.49,0.49 0.49,0.49 0,0z" fill="#a8e0c6"/>
  <path d="m149.316,98.27c0.49,0.49 0.49,0.49 0,0z" fill="#264446"/>
  <path d="m54.936,99.12c0.55,3.85 -7.64,2.88 -9.88,2.69 1.16,-2 2.84,-1.67 4.83,-2.16 1.68,-0.34 3.33,-0.65 5.05,-0.53z" fill="#a8e0c6"/>
  <path d="m157.296,99.11c0.27,3.26 3.41,-1.35 0,0z" fill="#264446"/>
  <path d="m115.346,100.16c-0.04,0.18 -0.12,0.32 -0.24,0.42z" fill="#264446"/>
  <path d="m24.316,101.27c0.49,0.49 0.49,0.49 0,0z" fill="#264446"/>
  <path d="m56.316,101.27c0.49,0.49 0.49,0.49 0,0z" fill="#264446"/>
  <path d="m81.966,100.94 l0.2,0.71c-0.69,-0.03 -0.76,-0.26 -0.2,-0.71z" fill="#264446"/>
  <path d="m133.386,101.17c0.77,-0.6 1.55,-0.6 2.32,0 0.49,1.47 -2.82,1.47 -2.32,0z" fill="#264446"/>
  <path d="m36.256,102.1c1.01,-0.59 3.31,-0.2 2.63,1.36 -1.28,0.51 -5.54,1.03 -2.63,-1.36z" fill="#a8e0c6"/>
  <path d="m99.746,102.22 l0.04,0.58c-0.02,-0.2 -0.03,-0.39 -0.04,-0.58z" fill="#264446"/>
  <path d="m144.316,102.27c0.49,0.49 0.49,0.49 0,0z" fill="#264446"/>
  <path d="m52.376,103.33c1.6,-0.61 2.04,0.52 2.77,1.66 -1.11,3 -4.54,1.92 -7,1.83 -0.33,-2.74 2.33,-2.75 4.23,-3.49z" fill="#a8e0c6"/>
  <path d="m140.316,103.27c0.49,0.49 0.49,0.49 0,0z" fill="#264446"/>
  <path d="m46.316,104.27c0.49,0.49 0.49,0.49 0,0z" fill="#264446"/>
  <path d="m59.316,104.27c0.49,0.49 0.49,0.49 0,0z" fill="#264446"/>
  <path d="m137.386,104.18c0.96,-0.74 2.91,0.46 2.32,1.64 -0.96,0.74 -2.91,-0.46 -2.32,-1.64z" fill="#a8e0c6"/>
  <path d="m80.316,105.27c0.49,0.49 0.49,0.49 0,0z" fill="#264446"/>
  <path d="m178.746,104.75c0.49,8.63 0.48,17.81 0.01,26.45 -1.32,-4.1 -0.52,-8.91 -0.7,-13.2 0.17,-4.31 -0.6,-9.12 0.69,-13.25z" fill="#264446"/>
  <path d="m46.316,106.27c0.49,0.49 0.49,0.49 0,0z" fill="#a8e0c6"/>
  <path d="m95.346,107.19c-0.05,0.14 -0.11,0.27 -0.18,0.4z" fill="#264446"/>
  <path d="m47.316,108.27c0.49,0.49 0.49,0.49 0,0z" fill="#264446"/>
  <path d="m51.536,109.5c0.66,-0.34 1.39,-0.53 2.2,-0.56 -1.28,3.18 -2.26,3.4 -5.64,3.95 1.01,-1.27 2.19,-2.36 3.44,-3.39z" fill="#a8e0c6"/>
  <path d="m97.856,109.28 l-0.1,0.53c-0.01,-0.2 0.02,-0.37 0.1,-0.53z" fill="#264446"/>
  <path d="m122.316,109.27c0.49,0.49 0.49,0.49 0,0z" fill="#264446"/>
  <path d="m47.316,110.27c0.49,0.49 0.49,0.49 0,0z" fill="#264446"/>
  <path d="m146.316,111.27c0.49,0.49 0.49,0.49 0,0z" fill="#264446"/>
  <path d="m108.866,115.01 l-0.55,0.06c0.05,-0.85 0.24,-0.87 0.55,-0.06z" fill="#356966"/>
  <path d="m108.316,115.07 l0.55,-0.06 0.16,0.61 -0.74,0.1z" fill="#264446"/>
  <path d="m124.156,117.24c-1.35,3.41 3.26,0.29 0,0z" fill="#264446"/>
  <path d="m130.316,117.27c0.49,0.49 0.49,0.49 0,0z" fill="#264446"/>
  <path d="m139.296,118.11c0.27,3.26 3.41,-1.35 0,0z" fill="#264446"/>
  <path d="m95.756,120.24 l-0.07,0.5c0.01,-0.17 0.04,-0.33 0.07,-0.5z" fill="#264446"/>
  <path d="m127.316,121.27c0.49,0.49 0.49,0.49 0,0z" fill="#264446"/>
  <path d="m113.726,123.18 l0.25,0.39c-0.09,-0.12 -0.18,-0.25 -0.25,-0.39z" fill="#264446"/>
  <path d="m126.316,123.27c0.49,0.49 0.49,0.49 0,0z" fill="#264446"/>
  <path d="m93.316,124.27c0.49,0.49 0.49,0.49 0,0z" fill="#264446"/>
  <path d="m50.316,129.27c0.49,0.49 0.49,0.49 0,0z" fill="#264446"/>
  <path d="m132.316,131.27c0.49,0.49 0.49,0.49 0,0z" fill="#264446"/>
  <path d="m47.316,132.27c0.49,0.49 0.49,0.49 0,0z" fill="#264446"/>
  <path d="m123.316,132.27c0.49,0.49 0.49,0.49 0,0z" fill="#264446"/>
  <path d="m178.756,132.8c0.4,3.81 0.36,7.6 0.08,11.41 -1.28,-3.51 -1.14,-7.86 -0.08,-11.41z" fill="#264446"/>
  <path d="m129.316,139.27c0.49,0.49 0.49,0.49 0,0z" fill="#264446"/>
  <path d="m169.316,147.27c0.49,0.49 0.49,0.49 0,0z" fill="#264446"/>
  <path d="m126.316,149.27c0.49,0.49 0.49,0.49 0,0z" fill="#264446"/>
  <path d="m178.946,148.95 l-0.12,0.87c-2.99,0.4 -6.02,0.16 -9,-0.12 3.06,-1 5.95,-0.69 9.12,-0.75z" fill="#264446"/>
  <path d="m12.966,150.06c1.1,-0.35 1.82,-0.04 2.16,0.93 -1.09,0.32 -1.81,0.01 -2.16,-0.93z" fill="#264446"/>
  <path d="m167.116,150.12c-0.64,1.05 -1.71,1.32 -3.2,0.82 0.65,-1.09 1.72,-1.37 3.2,-0.82z" fill="#264446"/>
  <path d="m16.986,151.06c1.49,-0.49 2.55,-0.19 3.16,0.88 -1.53,0.5 -2.58,0.21 -3.16,-0.88z" fill="#264446"/>
  <path d="m163.066,151.26c-1.86,1.07 -3.92,1.45 -6.04,1.6 1.39,-2.84 3.46,-2.15 6.04,-1.6z" fill="#264446"/>
  <path d="m21.016,152.1c2.14,-0.4 3.22,-0.35 4.07,1.84 -1.97,0.08 -2.82,-0.36 -4.07,-1.84z" fill="#264446"/>
  <path d="m156.156,153.01c-0.37,0.95 -1.12,1.28 -2.23,0.98 0.38,-0.95 1.13,-1.28 2.23,-0.98z" fill="#264446"/>
  <path d="m25.936,154c1.09,-0.32 1.81,-0.01 2.16,0.92 -1.09,0.36 -1.81,0.05 -2.16,-0.92z" fill="#264446"/>
  <path d="m153.026,154.15c-1.57,1.56 -3.1,2.24 -5.24,2.72 0.73,-2.69 2.74,-3.13 5.24,-2.72z" fill="#264446"/>
  <path d="m28.886,155.12c5.79,1.02 10.64,6.54 15.54,9.58 1.98,1.55 4.66,2.18 6.11,4.2 -4.42,-0.87 -7.73,-3.43 -11.14,-6.2 -3.4,-2.64 -7.28,-4.75 -10.51,-7.58z" fill="#264446"/>
  <path d="m146.916,157.25 l-0.7,0.3z" fill="#264446"/>
  <path d="m145.336,157.91c-3.49,4.11 -7.79,6.82 -12.59,9.12 1.52,-3.13 4.14,-3.76 6.85,-5.5 1.83,-1.85 3,-3.16 5.74,-3.62z" fill="#264446"/>
  <path d="m131.886,167.38 l-0.65,0.26z" fill="#264446"/>
  <path d="m130.366,167.96c-2.31,2.79 -3.89,3.92 -7.63,4.08 2.47,-1.61 4.76,-3.32 7.63,-4.08z" fill="#264446"/>
  <path d="m51.306,169.3 l0.66,0.32z" fill="#264446"/>
  <path d="m52.826,170.04c1.93,-0.13 2.59,0.23 3.42,1.97 -1.91,0.06 -2.53,-0.3 -3.42,-1.97z" fill="#264446"/>
  <path d="m57.156,172.35 l0.74,0.29z" fill="#264446"/>
  <path d="m121.856,172.36 l-0.72,0.25z" fill="#264446"/>
  <path d="m58.836,172.99c1.16,-0.29 1.91,0.05 2.26,1.01 -1.08,0.28 -1.83,-0.06 -2.26,-1.01z" fill="#264446"/>
  <path d="m118.936,173.41 l-0.81,0.31z" fill="#264446"/>
  <path d="m61.996,173.97c1.1,-0.27 1.81,0.08 2.11,1.06 -1.11,0.27 -1.82,-0.09 -2.11,-1.06z" fill="#264446"/>
  <path d="m117.176,174.1c-1.9,1.38 -3.77,2.18 -6.16,1.73 2.18,-2.07 3.18,-2.2 6.16,-1.73z" fill="#264446"/>
  <path d="m64.986,175.03c1.53,-0.47 2.56,-0.16 3.11,0.94 -1.52,0.47 -2.56,0.16 -3.11,-0.94z" fill="#264446"/>
  <path d="m68.976,175.98c1.09,-0.29 1.81,0.03 2.14,0.98 -1.11,0.33 -1.82,0 -2.14,-0.98z" fill="#264446"/>
  <path d="m108.926,176.39 l-0.72,0.19z" fill="#264446"/>
  <path d="m74.046,177.26c2.5,-0.46 4.76,-1.09 6.99,0.53 -2.5,0.41 -4.72,0.98 -6.99,-0.53z" fill="#264446"/>
  <path d="m105.276,177.33c-2.81,0.98 -5.55,0.66 -8.45,0.45 2.81,-1.23 5.51,-0.73 8.45,-0.45z" fill="#264446"/>
</svg>
