<?xml version="1.0" ?>
<svg xmlns="http://www.w3.org/2000/svg" width="179" height="178.68105" viewBox="0 0 179 178.68105">
  <path d="m101.03,0.321c16.19,1.33 30.49,8.81 42.87,19 1.2,7.8 1.59,15.92 0.82,23.77 -1.27,3.57 -3.14,4.65 -0.89,8.45 -4.67,3.89 -10.13,5.57 -15.49,8.13 -0.89,6.87 0.08,13.93 -0.63,20.87 -1.34,-5.97 -0.49,-11.43 -0.65,-17.45 1.72,-6.03 -14.12,-3.89 -18.16,-7.9 16.27,-15.51 4.4,-46.25 -17.88,-47.93 -22.44,-1.64 -33.35,33.71 -16.93,47.43 -5.65,3.51 -11.8,4.9 -18.29,5.89l-1.58,-0.45c-6.25,-2.75 -12.36,-5.54 -17.75,-9.81 -1.59,-11.91 -3.57,-24.82 4.62,-35.05 4.77,-4.64 10.08,-6.89 16.35,-8.77 12.93,-8.07 29.04,-6.47 43.59,-6.18z" fill="#5e8bab"/>
  <path d="m91.02,7.261c22.28,1.68 34.15,32.42 17.88,47.93 -5.88,-1.84 -13.55,-9.67 -10.01,-16.11 5.32,-6.29 2.35,-19.51 -6.02,-21.74 -7.12,0.16 -13.29,5.44 -12.97,12.91 -0.82,5.75 4.57,8.16 2.77,13.67 -1.32,4.45 -4.41,8.62 -8.58,10.77 -16.42,-13.72 -5.51,-49.07 16.93,-47.43z" fill="#dddad4"/>
  <path d="m41.09,15.271c-8.19,10.23 -6.21,23.14 -4.62,35.05 -11.35,-8.92 -24.8,-3.19 -36.47,1.85v-23.38c14.97,0.03 29.18,-4.35 41.09,-13.52z" fill="#3b3d3f"/>
  <path d="m92.87,17.341c8.37,2.23 11.34,15.45 6.02,21.74 -3.54,6.44 4.13,14.27 10.01,16.11 4.04,4.01 19.88,1.87 18.16,7.9 -5,-1.6 -8.4,2.43 -14.18,-2.72 -8.45,4.87 -14.74,-0.78 -23.89,0.99 -9.86,1.49 -14.39,2.55 -24.33,1.96 -1.27,-2.74 -8.74,1.87 -8.86,-2.74 6.49,-0.99 12.64,-2.38 18.29,-5.89 4.17,-2.15 7.26,-6.32 8.58,-10.77 1.8,-5.51 -3.59,-7.92 -2.77,-13.67 -0.32,-7.47 5.85,-12.75 12.97,-12.91z" fill="#242527"/>
  <path d="m143.9,19.321c11.12,7.23 22.26,8.64 35.1,9.95v20.26c-10.87,-4.85 -25.67,-6.46 -35.17,2.01 -2.25,-3.8 -0.38,-4.88 0.89,-8.45 0.77,-7.85 0.38,-15.97 -0.82,-23.77z" fill="#37393a"/>
  <path d="m36.47,50.321c5.39,4.27 11.5,7.06 17.75,9.81 -0.09,7.26 -1.49,14.37 -1.5,21.64 -5.51,-1.86 -13.95,-2.99 -17.87,-7.32 -1.22,-1.71 -6.13,-12.24 -5.16,-4.16 -1.92,4.92 -11.01,-7.75 -11.56,-2.04 2.61,9.54 12.73,7.05 18.62,13.26 6.16,8.04 16.19,6.76 14.6,17.97 -2,15.51 -2.46,31.33 -5.22,46.7 -6.59,5.8 -7.92,10.66 -18.27,9.23 -8.88,-3.99 -18.13,-5.63 -27.86,-5.25V52.171c11.67,-5.04 25.12,-10.77 36.47,-1.85z" fill="#e1d9cf"/>
  <path d="M179,49.531V150.361c-9.69,-0.9 -19.03,1.41 -27.88,5.21 -7.82,-1.5 -9.76,-7.72 -16.07,-11.43 -2.93,-15.43 -4.69,-31.11 -6.35,-46.72 0.09,-5.21 1.05,-5.15 5.29,-7.19 8.03,-3.63 11.85,-10.95 20.58,-13.51 2.96,-1.23 9.28,-3.82 9.47,-7.45 -0.45,-8.38 -8.8,6.64 -11.74,0.99 0.75,-8.33 -3.63,2.92 -4.7,4.62 -5.26,4.05 -13.41,4.96 -19.39,8.52 -0.17,-0.96 -0.34,-1.91 -0.5,-2.86 0.71,-6.94 -0.26,-14 0.63,-20.87 5.36,-2.56 10.82,-4.24 15.49,-8.13 9.5,-8.47 24.3,-6.86 35.17,-2.01z" fill="#ded6cc"/>
  <path d="m54.22,60.131 l1.58,0.45c0.12,4.61 7.59,0 8.86,2.74 9.94,0.59 14.47,-0.47 24.33,-1.96 9.15,-1.77 15.44,3.88 23.89,-0.99 5.78,5.15 9.18,1.12 14.18,2.72 0.16,6.02 -0.69,11.48 0.65,17.45 0.16,0.95 0.33,1.9 0.5,2.86 -6.52,7.97 -20.96,10.77 -30.5,8.12 -1.75,-6.44 3.01,-13.78 -4.02,-19.96 -9.36,-3.03 -11.04,6.69 -10.35,13.5 1.89,5.77 -1.85,8.49 -7.26,8.12 -8.06,-1.8 -18.51,-4.09 -23.36,-11.41 0.01,-7.27 1.41,-14.38 1.5,-21.64z" fill="#3a3938"/>
  <path d="m29.69,70.291c-0.97,-8.08 3.94,2.45 5.16,4.16 3.92,4.33 12.36,5.46 17.87,7.32 4.85,7.32 15.3,9.61 23.36,11.41 5.41,0.37 9.15,-2.35 7.26,-8.12 -0.69,-6.81 0.99,-16.53 10.35,-13.5 7.03,6.18 2.27,13.52 4.02,19.96 9.54,2.65 23.98,-0.15 30.5,-8.12 5.98,-3.56 14.13,-4.47 19.39,-8.52 1.07,-1.7 5.45,-12.95 4.7,-4.62 2.94,5.65 11.29,-9.37 11.74,-0.99 -0.19,3.63 -6.51,6.22 -9.47,7.45 -8.73,2.56 -12.55,9.88 -20.58,13.51 -4.24,2.04 -5.2,1.98 -5.29,7.19 -0.7,-2.19 -0.66,-5.81 -3.82,-3.28 -5.15,6.19 -18.21,7.97 -14.09,18.21 3.41,20.27 6.72,40.66 10.39,60.88 -16.79,7.01 -44.53,7.39 -61.3,0.37 4.41,-19.04 6.74,-38.73 10.52,-57.94 5.7,-11.43 -7.84,-17.92 -15.99,-22.79 -3.54,-2.32 -2.2,4.64 -3.06,6.61 1.59,-11.21 -8.44,-9.93 -14.6,-17.97 -5.89,-6.21 -16.01,-3.72 -18.62,-13.26 0.55,-5.71 9.64,6.96 11.56,2.04z" fill="#a16833"/>
  <path d="m54.41,92.871c8.15,4.87 21.69,11.36 15.99,22.79 -3.78,19.21 -6.11,38.9 -10.52,57.94 -6.43,-3.26 -12.35,-4.69 -17.69,-8.99 3.68,-4.06 3.16,-13.07 3.94,-18.43 2.76,-15.37 3.22,-31.19 5.22,-46.7 0.86,-1.97 -0.48,-8.93 3.06,-6.61z" fill="#3a3938"/>
  <path d="m128.7,97.421c1.66,15.61 3.42,31.29 6.35,46.72 1.61,5.42 0.48,14.76 4.84,18.55 -5.99,3.76 -12.27,7.61 -18.71,10.54 -3.67,-20.22 -6.98,-40.61 -10.39,-60.88 -4.12,-10.24 8.94,-12.02 14.09,-18.21 3.16,-2.53 3.12,1.09 3.82,3.28z" fill="#3b3a39"/>
  <path d="m135.05,144.141c6.31,3.71 8.25,9.93 16.07,11.43 -4.11,1.96 -7.69,4.26 -11.23,7.12 -4.36,-3.79 -3.23,-13.13 -4.84,-18.55z" fill="#6285a0"/>
  <path d="m46.13,146.181c-0.78,5.36 -0.26,14.37 -3.94,18.43 -4.43,-3.78 -9.08,-6.7 -14.33,-9.2 10.35,1.43 11.68,-3.43 18.27,-9.23z" fill="#64859d"/>
</svg>
