<?xml version="1.0" ?>
<svg xmlns="http://www.w3.org/2000/svg" width="178.67502" height="178.51637" viewBox="0 0 178.67502 178.51637">
  <path d="m96.231,0.209c15.55,0.77 30.71,6.42 42.99,15.98 11.38,8.7 25.06,13.14 39.42,12.49 -0.07,11.16 0.02,22.32 -0.05,33.48 -6.92,-7.95 -14.35,-15.16 -22.99,-21.22 -20.32,-14.3 -45.55,-22.07 -70.42,-20.94 -1.21,0.06 -2.22,0.59 -3.33,1.02 -0.86,-0.37 -1.72,-0.73 -2.61,-1.01 -1.12,0.56 -2.02,1.35 -3,2.12 -0.61,-0.49 -1.23,-0.98 -1.85,-1.46 -21.9,3.01 -42.8,11.56 -59.74,25.92 -5.25,4.13 -9.76,8.97 -14.27,13.87 -0.04,-10.59 -0.08,-21.18 0.05,-31.76 13.78,0.54 27.32,-3.63 38.38,-11.86 6.68,-5.2 13.89,-9.49 21.94,-12.21 11.14,-4.2 23.68,-5.11 35.48,-4.42z" fill="#d0d0d0"/>
  <path d="m74.391,20.669c0.62,0.48 1.24,0.97 1.85,1.46 0.98,-0.77 1.88,-1.56 3,-2.12 0.89,0.28 1.75,0.64 2.61,1.01 1.11,-0.43 2.12,-0.96 3.33,-1.02 24.87,-1.13 50.1,6.64 70.42,20.94 8.64,6.06 16.07,13.27 22.99,21.22 -0.01,2.39 -0.09,4.77 -0.05,7.16 -1.3,0.14 -1.57,0.67 -0.8,1.58l0.85,0.07 0.05,2.63c-5.73,0.02 -11.45,0.02 -17.16,-0.47 -0.86,0.05 -1.72,0.12 -2.57,0.2 -11.96,-13.58 -28.13,-23.57 -45.64,-28.14 -5.14,-1.75 -10.87,-2.18 -16.24,-3.01 0.73,0.72 1.46,1.44 2.19,2.15 1.75,-0.01 3.45,-0.09 5.17,0.29 -1.55,0.02 -3.1,0.06 -4.66,0.11 0.06,1.16 0.12,2.3 0.2,3.45 -0.9,-1.9 -2.27,-3.36 -3.67,-4.9 -1.72,-1.97 -1.27,-4.67 -2.04,-6.99 -1.05,-2.8 -2.57,-5.45 -3.97,-8.09 -2.54,4.45 -4.53,9.14 -6.81,13.72 -15.72,1.06 -30.98,5.73 -44.35,14.12 -8.21,4.98 -15.18,11.44 -21.61,18.5 -5.47,-1.36 -11.6,-0.84 -17.21,-0.67 0.34,-4.48 0.08,-8.89 0.11,-13.41 4.51,-4.9 9.02,-9.74 14.27,-13.87 16.94,-14.36 37.84,-22.91 59.74,-25.92z" fill="#666669"/>
  <path d="m90.251,28.199c1.4,2.64 2.92,5.29 3.97,8.09 0.77,2.32 0.32,5.02 2.04,6.99 1.4,1.54 2.77,3 3.67,4.9 4.34,8.62 8.25,17.27 11.92,26.19 1.37,3.28 3.46,6.07 5.07,9.21 2.47,4.92 4.89,9.84 7.07,14.9 3.43,7.02 6.96,13.97 10,21.18 0.81,1.9 0.67,3.73 1.05,5.71 1.47,2.14 3.56,3.75 4.88,6.1 1.79,3.32 3.3,6.79 4.36,10.42 -2.34,0.39 -4.67,0.71 -7.04,0.67 -15.9,-0.12 -31.8,0.05 -47.7,-0.12 -17.87,-0.29 -35.78,0.35 -53.63,-0.29 1.07,-4.17 3.39,-7.95 5.22,-11.98 0.71,0.64 1.43,1.27 2.14,1.91 -0.34,-2.4 -0.64,-4.63 0.01,-7 1.1,1.14 2.16,2.31 3.23,3.47 -0.09,-4.02 -2.11,-6.78 0.5,-10.43 0.79,0.77 1.57,1.55 2.35,2.32 -0.39,-3.1 -2.22,-7.13 1.96,-8.38 -0.09,-1.23 -0.47,-2.38 0.13,-3.53 2.66,-5.99 6.26,-11.42 8.58,-17.58 2.53,-5.48 5.23,-10.87 7.65,-16.41 5.09,-10.22 9.87,-20.58 14.9,-30.83 0.28,-0.6 0.57,-1.2 0.86,-1.79 2.28,-4.58 4.27,-9.27 6.81,-13.72z" fill="#202125"/>
  <path d="m83.441,41.919c-0.29,0.59 -0.58,1.19 -0.86,1.79 -4.25,0 -8.17,0.59 -12.25,1.71 -10.27,1.99 -20.48,5.74 -29.35,11.33 -13.56,8.68 -25.4,19.87 -32.97,34.23 -3.18,5.38 -5.13,11.22 -7.72,16.87 -0.06,-1.53 -0.02,-3.06 0.1,-4.57 4.08,-10.39 9.84,-20.24 17.09,-28.74 6.43,-7.06 13.4,-13.52 21.61,-18.5 13.37,-8.39 28.63,-13.06 44.35,-14.12z" fill="#d0d0d0"/>
  <path d="m97.031,42.179c5.37,0.83 11.1,1.26 16.24,3.01 17.51,4.57 33.68,14.56 45.64,28.14 5.42,6.23 10.15,12.96 13.78,20.4 1.92,3.61 3.31,7.44 5.14,11.1 0.86,2.84 0.89,5.68 0.82,8.62 -4.19,-14.64 -10.9,-28.31 -21.33,-39.53 -9.9,-11.16 -22.83,-19.91 -36.91,-24.85 -5.2,-2.17 -10.65,-2.86 -16.02,-4.45 -1.72,-0.38 -3.42,-0.3 -5.17,-0.29 -0.73,-0.71 -1.46,-1.43 -2.19,-2.15z" fill="#d0d0d0"/>
  <path d="m82.581,43.709c-5.03,10.25 -9.81,20.61 -14.9,30.83 -11.73,-1.2 -23.65,-0.32 -35.44,-0.65 -3.06,-0.31 -7.03,1.01 -9.19,-1.61 2.95,-2.86 6.32,-5.21 9.33,-8.01 2.37,-2.17 4.79,-3.89 7.66,-5.35 0.32,-0.72 0.63,-1.44 0.94,-2.17 8.87,-5.59 19.08,-9.34 29.35,-11.33 4.08,-1.12 8,-1.71 12.25,-1.71z" fill="#af6d33"/>
  <path d="m99.731,44.729c1.56,-0.05 3.11,-0.09 4.66,-0.11 5.37,1.59 10.82,2.28 16.02,4.45 14.08,4.94 27.01,13.69 36.91,24.85 -15.16,0.34 -30.31,-0.02 -45.47,0.45 -3.67,-8.92 -7.58,-17.57 -11.92,-26.19 -0.08,-1.15 -0.14,-2.29 -0.2,-3.45z" fill="#af6d33"/>
  <path d="m40.981,56.749c-0.31,0.73 -0.62,1.45 -0.94,2.17 -2.87,1.46 -5.29,3.18 -7.66,5.35 -3.01,2.8 -6.38,5.15 -9.33,8.01 2.16,2.62 6.13,1.3 9.19,1.61 11.79,0.33 23.71,-0.55 35.44,0.65 -2.42,5.54 -5.12,10.93 -7.65,16.41 -2.32,6.16 -5.92,11.59 -8.58,17.58 -0.6,1.15 -0.22,2.3 -0.13,3.53 -4.18,1.25 -2.35,5.28 -1.96,8.38 -0.78,-0.77 -1.56,-1.55 -2.35,-2.32 -2.61,3.65 -0.59,6.41 -0.5,10.43 -1.07,-1.16 -2.13,-2.33 -3.23,-3.47 -0.65,2.37 -0.35,4.6 -0.01,7 -0.71,-0.64 -1.43,-1.27 -2.14,-1.91 -1.83,4.03 -4.15,7.81 -5.22,11.98 17.85,0.64 35.76,0 53.63,0.29 -0.05,6.6 -0.1,13.19 -0.04,19.78 0.09,5.48 -0.33,10.72 0.7,16.15 -3.66,-0.26 -7.31,0.09 -10.96,-0.14 -14.55,-1.37 -28.46,-7.08 -39.97,-16.06 -10.97,-8.44 -25.06,-12.7 -38.84,-12.38 -0.29,-13.97 0.14,-27.96 -0.14,-41.94 2.59,-5.65 4.54,-11.49 7.72,-16.87 7.57,-14.36 19.41,-25.55 32.97,-34.23z" fill="#6d4f45"/>
  <path d="m178.541,69.319 l0.05,1.65 -0.85,-0.07c-0.77,-0.91 -0.5,-1.44 0.8,-1.58z" fill="#d0d0d0"/>
  <path d="m161.481,73.129c5.71,0.49 11.43,0.49 17.16,0.47 -0.21,8.55 0.09,17.08 -0.07,25.62 -0.02,1.9 -0.39,3.74 -0.74,5.61 -1.83,-3.66 -3.22,-7.49 -5.14,-11.1 -3.63,-7.44 -8.36,-14.17 -13.78,-20.4 0.85,-0.08 1.71,-0.15 2.57,-0.2z" fill="#6d4f45"/>
  <path d="m17.481,74.539c-7.25,8.5 -13.01,18.35 -17.09,28.74 -0.41,-9.78 -0.57,-19.63 -0.12,-29.41 5.61,-0.17 11.74,-0.69 17.21,0.67z" fill="#af6d33"/>
  <path d="m111.851,74.369c15.16,-0.47 30.31,-0.11 45.47,-0.45 10.43,11.22 17.14,24.89 21.33,39.53 -0.05,11.61 0.04,23.3 -0.02,34.89 0.1,1 -0.4,1.47 -1.49,1.41 -6.69,-0.2 -13.01,1.4 -19.45,3.02 -8.2,2.45 -15.94,7.76 -22.72,12.89 -3.11,2.29 -6.55,3.89 -10.05,5.46 -1.76,-0.49 -3.54,-0.84 -5.09,0.39 0.33,0.85 1.08,1.27 2.27,1.24 -10.37,3.82 -20.73,6.43 -31.9,5.62 -1.03,-5.43 -0.61,-10.67 -0.7,-16.15 -0.06,-6.59 -0.01,-13.18 0.04,-19.78 15.9,0.17 31.8,0 47.7,0.12 2.37,0.04 4.7,-0.28 7.04,-0.67 -1.06,-3.63 -2.57,-7.1 -4.36,-10.42 -1.32,-2.35 -3.41,-3.96 -4.88,-6.1 -0.38,-1.98 -0.24,-3.81 -1.05,-5.71 -3.04,-7.21 -6.57,-14.16 -10,-21.18 -2.18,-5.06 -4.6,-9.98 -7.07,-14.9 -1.61,-3.14 -3.7,-5.93 -5.07,-9.21z" fill="#813021"/>
  <path d="m158.541,94.169 l0.73,-0.38 0.71,0.44 -0.01,0.82 -0.73,0.38 -0.71,-0.44z" fill="#af6d33"/>
  <path d="m46.451,96.399c1.44,-0.25 3.06,0.63 4.21,1.43 1.01,1.09 0.47,3.33 0.6,4.71 -1.49,-1.28 -5.39,-3.96 -4.81,-6.14z" fill="#666669"/>
  <path d="m152.361,118.299c3.19,-1.55 3.92,3.2 5.04,5.17 -2.06,-1.41 -3.82,-2.95 -5.04,-5.17z" fill="#af6d33"/>
  <path d="m30.551,119.309 l0.74,-0.39 0.73,0.4v0.8l-0.74,0.39 -0.74,-0.4z" fill="#666669"/>
  <path d="m34.511,119.359 l0.74,-0.4 0.74,0.4v0.8l-0.74,0.4 -0.74,-0.4z" fill="#666669"/>
  <path d="m39.441,119.329 l0.72,-0.43 0.7,0.41 -0.02,0.82 -0.72,0.43 -0.7,-0.4z" fill="#d0d0d0"/>
  <path d="m91.381,168.469c1.05,-0.81 3.24,0.34 2.51,1.72 -1.08,1.06 -3.16,-0.36 -2.51,-1.72z" fill="#af6d33"/>
  <path d="m124.921,171.119c-0.85,0.78 -1.79,1.32 -2.82,1.63 -1.19,0.03 -1.94,-0.39 -2.27,-1.24 1.55,-1.23 3.33,-0.88 5.09,-0.39z" fill="#d0d0d0"/>
</svg>
