<?xml version="1.0" ?>
<svg xmlns="http://www.w3.org/2000/svg" width="179" height="176.02765" viewBox="0 0 179 176.02765">
  <path d="m71.38,0h10.2C79.67,1.92 77.66,3.75 75.76,5.69 73.13,6.33 71.88,8.3 69.95,9.98 68.6,9.09 67.37,8.01 66.1,7.02 68.25,5.59 68.46,5.81 68.43,3.13 69.93,3.66 71.32,4.41 72.81,4.97 72.23,3.56 71.55,2.2 70.87,0.83Z" fill="#505151"/>
  <path d="m81.58,0h4.14c1.96,1.86 3.4,5.15 6.31,5.04 -0.67,0.61 -1.31,1.25 -1.94,1.9 1.95,0.7 4.01,0.93 5.96,1.64C95.02,5.96 95.37,4.92 92.03,5.04 89.55,2.9 90.15,2.88 91.17,0h0.93c-0.01,0.91 -0.01,1.83 0,2.74 0.54,-0.16 1.94,-2.35 1.81,-0.66 0.13,2.92 1.55,0.47 3.1,0.14 2.89,1.32 3.88,4.58 7.31,4.35 1.33,-0.41 -0.29,1.64 -0.3,2.13 -1.32,1.64 2.43,1.95 1.89,4.14 -1.05,-0.05 -1.93,-0.95 -2.85,-1.44 -4.01,3.03 -1.67,7.67 0.45,11.04 2.7,0.74 3.73,1.43 5.54,3.51 2.02,-1.58 2.21,-4.98 4.97,-2.36l0.81,0.52 -0.12,0.73c-0.67,1.42 1.27,1.97 2.03,2.92 -1.08,0.54 -3.52,-0.23 -1.69,1.47 -0.94,0.86 -1.91,1.68 -2.83,2.55 2.58,0.81 5.05,1.46 7.78,1.08 -0.95,-1.44 -2.39,-1.76 -3.83,-2.52 1.35,-0.33 2.66,-0.57 3.94,-1.13 0.38,-1.15 0.54,-2.37 0.84,-3.54 3.27,1.28 1.97,4.17 5.03,5.48 1.34,2.28 0.48,4.45 3.54,5.26 -0.37,0.9 -0.83,1.76 -1.22,2.65 1.68,-0.2 2.83,-1.21 4.27,-1.97 0.27,2.66 -0.12,5.22 -0.39,7.86 1.48,-1.81 2.58,-3.83 3.68,-5.89 -0.36,3.52 -0.42,6.19 2.12,8.92 1.31,0.14 0.86,-2.8 1.24,-3.69 0.56,0.49 1.11,0.98 1.67,1.47 0.17,-3.13 -0.33,-5.87 1.49,-8.63 -1.12,-2.53 -0.69,-5.44 -4.28,-5.16l-0.85,-0.08c-1.85,-0.44 -3.01,0.89 -4.88,0.1 0.58,-0.97 1.2,-1.92 1.76,-2.91 0.39,-0.56 0.54,-1.25 0.42,-2.06 0.14,-2.28 -0.36,-1.73 -2.25,-2.48 -0.65,-0.61 -1.3,-1.21 -1.96,-1.79l-0.54,-0.68c0.72,-1.04 1.44,-2.09 2.15,-3.14 1.92,-1.78 2.97,-3.76 4.14,-6.05 4.06,1.99 7.21,5.59 11.3,7.7 2.43,1.37 5.2,2.06 7.72,3.27 -0.03,2.28 0.76,4.58 0.59,6.81 -0.86,0.78 -1.79,1.44 -2.7,2.17 -2.01,1.01 0.07,5.15 0.55,6.71 1.56,2.22 2.61,4.63 3.92,6.98 1.98,1.36 4.15,2.4 6.08,3.86 -0.2,2.64 -0.08,4.99 0.26,7.62 -2.04,3.75 -3.01,1.94 -6.56,2.2 -0.68,2.26 -1.05,2.93 0.36,4.91 -1.95,-0.3 -4.04,-0.85 -5.39,-2.38 -0.43,-1.73 0.38,-3.75 0.54,-5.5 -4.09,-0.45 -6.34,0.6 -8.87,-3.29 -2.67,1.39 -2.33,3.67 -0.45,5.61 2.81,2.92 1.32,6.11 0.05,9.33 -0.29,-0.87 -0.59,-1.73 -0.9,-2.59 -2.62,0.33 -4.59,1.35 -5.59,3.93 -2.57,-1.96 -4.32,-4.46 -6,-7.17 0.47,-2.12 -0.54,-3.73 0.44,-5.76 -1.34,-0.5 -2.71,-0.93 -4.04,-1.48 0.34,-1.34 1.91,-2.44 0.51,-3.59 -1.63,1.42 -3.08,2.98 -4.9,4.17 -0.7,-0.46 -1.4,-0.91 -2.1,-1.36 -1.79,-3.36 1.19,-1.04 3.03,-1.26 0.02,-3.15 -5.24,-5.26 -7.84,-5.67 -0.51,2.5 5.42,4.91 1.16,6.02 -3.56,-4.75 -11.7,-5.69 -17.07,-7.46 -1.64,-0.45 -3.3,-0.72 -4.97,-1.02 -4.19,-0.99 -9.27,-1.02 -13.45,0.01 -4.7,0.9 -9.23,2.34 -13.81,3.69 0.28,-2.33 1.52,-3.73 2.92,-5.46 -0.97,-1.74 -2.43,-3.3 -3.66,-4.87 2.24,-1.12 6.4,0.04 5.77,-3.55 -1.31,0.11 -2.61,0.28 -3.92,0.37 1.2,-0.85 2.47,-1.6 3.68,-2.44 -3.9,-0.76 -5.47,-3.7 -8.65,-5.65l0.04,-1.8c0.5,0.36 1.01,0.72 1.52,1.06 1.63,1.94 3.6,-0.8 5.34,-1.39 1.37,-0.8 2.82,-1.42 4.25,-2.11 0.61,-1.9 1.08,-3.83 1.75,-5.71 0.44,-1.17 0.63,-2.35 0.65,-3.59 -1.68,-1.52 -4.48,-2.14 -5.66,-4.07 1.26,-1.48 2.59,-2.89 3.77,-4.44 1.9,-1.94 3.91,-3.77 5.82,-5.69z" fill="#2a2c2e"/>
  <path d="m85.72,0h5.45C90.15,2.88 89.55,2.9 92.03,5.04 89.12,5.15 87.68,1.86 85.72,0Z" fill="#404244"/>
  <path d="m92.1,0h14.92c0,1.25 0.04,2.5 0.1,3.74 0.94,-0.47 1.85,-1 2.79,-1.47 0.25,1.14 -1.45,4 0.71,3.41 1.52,-0.36 2.41,2.52 3.32,3.45 -0.73,1.22 -2.11,2.12 -3.18,3.02 -2.69,-0.24 -0.46,-1.47 -0.06,-2.89 -2.58,0.69 -4.17,-0.83 -6.68,-0.56 0.01,-0.49 1.63,-2.54 0.3,-2.13C100.89,6.8 99.9,3.54 97.01,2.22 95.46,2.55 94.04,5 93.91,2.08 94.04,0.39 92.64,2.58 92.1,2.74 92.09,1.83 92.09,0.91 92.1,0Z" fill="#4b4b4d"/>
  <path d="m107.02,0h0.81c6.86,2.9 15.11,4.54 21.54,8.8 -0.7,0.78 -1.42,1.56 -2.14,2.33 -2.06,0.43 -3.94,0.59 -5.13,2.55l2.06,0.68 -0.21,0.68c-0.36,0.97 -0.72,1.93 -1.07,2.9 -0.89,0 -1.79,0 -2.68,-0.01 -2.21,-1.13 -2.65,-0.84 -2.77,-3.43 -3.14,-1.14 -1.62,-1.03 -0.72,-3.33 -1.98,0.35 -3.95,0.71 -5.95,0.98 1.07,-0.9 2.45,-1.8 3.18,-3.02 -0.91,-0.93 -1.8,-3.81 -3.32,-3.45 -2.16,0.59 -0.46,-2.27 -0.71,-3.41 -0.94,0.47 -1.85,1 -2.79,1.47 -0.06,-1.24 -0.1,-2.49 -0.1,-3.74z" fill="#2a2a2b"/>
  <path d="m70.87,0.83c0.68,1.37 1.36,2.73 1.94,4.14 -1.49,-0.56 -2.88,-1.31 -4.38,-1.84 0.03,2.68 -0.18,2.46 -2.33,3.89 -0.74,0.53 -1.27,1.16 -1.57,1.88 -0.6,1.85 -1.45,3.36 -1.1,5.38 -0.24,1.7 0.45,2.44 1.3,3.79 -4.19,-0.68 -4.36,0.99 -6.57,3.82 1.78,1.58 4.12,1.47 6.03,0.18 1.71,-0.77 1.28,-1.21 1.97,0.82 0.23,1.75 1.94,0.5 2.89,0.22 1.91,0.07 -2.01,-3.4 -0.09,-2.79 3.76,1.09 4.52,-3.94 8.04,-2.53 -0.67,1.88 -1.14,3.81 -1.75,5.71 -1.43,0.69 -2.88,1.31 -4.25,2.11 -0.23,-3.51 -4.32,0.37 -5.34,1.39 -0.51,-0.34 -1.02,-0.7 -1.52,-1.06 -0.78,-2.14 -7.07,-3.3 -5.98,-0.11 1.99,0.2 3.98,0.14 5.98,0.11l-0.04,1.8c-1.59,-0.32 -4.83,-1.67 -5.64,0.47 0.01,2.61 0.71,4.98 1,7.56 1.72,0.26 4.28,0.81 5.25,-1.09 1.39,-1.1 -1.63,-1.6 -2.26,-2 0.29,-0.65 1.85,-1.58 0.91,-2.15 -1.55,-1.35 0,-1.52 0.74,-2.79 3.18,1.95 4.75,4.89 8.65,5.65 -1.21,0.84 -2.48,1.59 -3.68,2.44 1.31,-0.09 2.61,-0.26 3.92,-0.37 0.63,3.59 -3.53,2.43 -5.77,3.55 1.23,1.57 2.69,3.13 3.66,4.87 -1.4,1.73 -2.64,3.13 -2.92,5.46 -0.92,-0.43 -1.81,-0.91 -2.66,-1.45 0.44,-1.06 0.98,-2.09 1.43,-3.15 0.41,-0.9 0.77,-1.81 1.08,-2.74 -2.9,0.26 -5.05,0.46 -4.81,3.99 -0.61,0.38 -1.23,0.74 -1.85,1.1 -2.43,0.02 -4.62,-0.19 -6.29,1.91 1.89,3.14 2.56,1.76 4.81,0.11 0.65,1.22 1.41,2.25 2.34,3.27 -2.33,1.56 -4.46,3.33 -6.96,4.64 -3.8,0.85 -5.68,2.24 -7.27,5.83 -3.15,4.7 -6.91,8.66 -9.09,14 -3.3,0.59 -3.15,2.34 -2.44,5.15 -0.29,1.07 -0.59,2.14 -0.9,3.21l-0.37,-1.97c-0.2,-1.27 -0.46,-2.51 -0.78,-3.74 -0.08,-3.49 -0.75,-6.99 -5.11,-6.48 -3.3,0.59 -2.66,6.14 -5.07,7.01 -2.14,-0.83 -3.15,-2.52 -4.86,-3.94 -1.92,2.65 -2.36,5.52 -3.59,8.46 -2.75,2.25 0.74,-4.43 -1.81,-1.72 -3.43,2.41 -1.3,5.6 0.07,8.47 -3.79,0.58 -4.75,3.17 -5.25,6.64C6.92,96.35 5.85,94.11 5.09,91.98 5.8,89.35 12.3,88.56 10.84,85.14 6.61,84.33 8.47,87.17 6.25,88.99 7.43,84.3 2.9,80.65 5.58,77 5.2,76.36 4.83,75.72 4.45,75.09c1.9,-2.15 4.17,-3.46 7.04,-3.73 2,-2.94 3.89,-6.21 5.52,-9.37 -1.08,-1.13 -2.86,-1.68 -4.26,-2.36 -2.34,0.72 -3.89,1.9 -6.57,1.23C5.21,55.73 7.3,50.91 6.33,45.88 6.15,43.9 8.22,42.42 7.92,40.24 6.64,40.37 5.37,40.6 4.09,40.76c1.95,-2.45 4.15,-4.89 6.74,-6.66 1.29,1.8 2.25,3.81 2.62,6.01 -0.63,1.31 -1.57,2.24 -1.48,3.79 0.8,1.09 1.83,2.04 2.86,2.92 0.77,-0.81 1.48,-1.67 2.08,-2.61 -1.25,-0.73 -2.55,-1.31 -3.83,-1.96 1.53,-0.17 3.07,-0.28 4.59,-0.51 -0.14,-3.15 -1.1,-3.17 2.25,-4.48 -1.27,-0.16 -2.53,-0.33 -3.79,-0.51 0.76,-0.75 1.52,-1.52 2.37,-2.16 1.73,1.56 4,2.31 5.28,-0.18 -1.22,-0.69 -2.46,-1.32 -3.65,-2.05 0.9,-0.22 1.81,-0.44 2.72,-0.65 -1.34,-0.84 -2.72,-0.75 -2.95,-2.62 2.62,-1.98 5.35,-3.23 7.01,-6.24 3.28,-2.18 6.91,-3.39 9.94,-5.97 5.96,-4.83 12.99,-8.55 19.97,-11.68 1.57,0.96 2.99,1.82 4.9,1.85C61.4,5.92 61.04,4.8 60.67,3.68 63.23,1.33 67.61,2 70.87,0.83Z" fill="#2d2f30"/>
  <path d="m85.43,3.48 l1.28,-0.5c-0.51,2.14 -0.33,5.77 -3.56,4.89 -0.2,-1.6 1.37,-3.2 2.28,-4.39z" fill="#464749"/>
  <path d="M60.67,3.68C61.04,4.8 61.4,5.92 61.72,7.05 59.81,7.02 58.39,6.16 56.82,5.2 58.08,4.64 59.37,4.15 60.67,3.68Z" fill="#3f3f3f"/>
  <path d="M92.03,5.04C95.37,4.92 95.02,5.96 96.05,8.58 94.1,7.87 92.04,7.64 90.09,6.94 90.72,6.29 91.36,5.65 92.03,5.04Z" fill="#434546"/>
  <path d="m75.76,5.69c-1.18,1.55 -2.51,2.96 -3.77,4.44 1.18,1.93 3.98,2.55 5.66,4.07 -0.02,1.24 -0.21,2.42 -0.65,3.59 -3.52,-1.41 -4.28,3.62 -8.04,2.53 -1.92,-0.61 2,2.86 0.09,2.79 -0.95,0.28 -2.66,1.53 -2.89,-0.22 -0.69,-2.03 -0.26,-1.59 -1.97,-0.82 0.22,-1.32 0.53,-2.67 0.54,-4 -0.85,-1.35 -1.54,-2.09 -1.3,-3.79 3.17,1.22 3.64,-0.3 5.66,-2.32 -1.26,-2.07 -2.15,-2.7 -4.56,-3.06 0.3,-0.72 0.83,-1.35 1.57,-1.88 1.27,0.99 2.5,2.07 3.85,2.96 1.93,-1.68 3.18,-3.65 5.81,-4.29z" fill="#353638"/>
  <path d="m77.16,7.15c1.97,-0.33 2.68,1.32 3.76,2.6 -2.45,-0.5 -4.49,1.11 -3.76,-2.6z" fill="#3f4043"/>
  <path d="m110.7,9.26c-0.4,1.42 -2.63,2.65 0.06,2.89 -0.6,2.46 -0.89,2.27 1.62,3.25 -0.1,1.84 -0.38,3.63 -0.25,5.48 3.13,0.48 5.89,-0.75 8.07,-2.95 0.89,0.01 1.79,0.01 2.68,0.01 3.24,0.19 6.09,0.15 8.12,-2.74 -2.35,-0.24 -4.7,-0.22 -7.05,-0.16l0.21,-0.68c1.8,-0.84 2.32,-1.39 3.07,-3.23 0.72,-0.77 1.44,-1.55 2.14,-2.33 2.29,1.28 4.44,2.77 6.72,4.08 -1.17,2.29 -2.22,4.27 -4.14,6.05 -2.76,0.15 -7.29,0.22 -8.95,2.86 2.28,0.22 4.52,0.23 6.8,0.28l0.54,0.68c-1.65,0.66 -3.36,1.14 -5.06,1.67 -0.69,2.08 1.62,1.57 2.94,2.1 1.42,-0.44 2.72,-1.36 4.08,-1.98 1.89,0.75 2.39,0.2 2.25,2.48 -3.04,-0.29 -5.4,0.76 -8.36,1.3 0.92,0.93 1.87,1.86 2.9,2.68 1.72,-0.51 3.34,-1.33 5.04,-1.92 -0.56,0.99 -1.18,1.94 -1.76,2.91 1.87,0.79 3.03,-0.54 4.88,-0.1 -0.27,2.66 -2.36,2.96 -2.6,5.83 1.42,0.7 2.85,1.4 4.31,2 1.5,-2.81 0.48,-5.12 -0.86,-7.75 3.59,-0.28 3.16,2.63 4.28,5.16 -1.82,2.76 -1.32,5.5 -1.49,8.63 -0.56,-0.49 -1.11,-0.98 -1.67,-1.47 -0.38,0.89 0.07,3.83 -1.24,3.69 -2.54,-2.73 -2.48,-5.4 -2.12,-8.92 -1.1,2.06 -2.2,4.08 -3.68,5.89 0.27,-2.64 0.66,-5.2 0.39,-7.86 -1.44,0.76 -2.59,1.77 -4.27,1.97 0.39,-0.89 0.85,-1.75 1.22,-2.65 -3.06,-0.81 -2.2,-2.98 -3.54,-5.26 -3.06,-1.31 -1.76,-4.2 -5.03,-5.48 -1.69,-1.07 -4.3,-0.59 -6.24,-0.83l0.12,-0.73c1.71,-0.41 5.64,-0.33 5.05,-2.99 -2.53,-0.46 -4.08,0.98 -5.86,2.47 -2.76,-2.62 -2.95,0.78 -4.97,2.36 -1.81,-2.08 -2.84,-2.77 -5.54,-3.51 -2.12,-3.37 -4.46,-8.01 -0.45,-11.04 0.92,0.49 1.8,1.39 2.85,1.44 0.54,-2.19 -3.21,-2.5 -1.89,-4.14 2.51,-0.27 4.1,1.25 6.68,0.56z" fill="#343536"/>
  <path d="m64.53,8.9c2.41,0.36 3.3,0.99 4.56,3.06 -2.02,2.02 -2.49,3.54 -5.66,2.32 -0.35,-2.02 0.5,-3.53 1.1,-5.38z" fill="#4f5251"/>
  <path d="m116.71,11.17c-0.9,2.3 -2.42,2.19 0.72,3.33 0.12,2.59 0.56,2.3 2.77,3.43 -2.18,2.2 -4.94,3.43 -8.07,2.95 -0.13,-1.85 0.15,-3.64 0.25,-5.48 -2.51,-0.98 -2.22,-0.79 -1.62,-3.25 2,-0.27 3.97,-0.63 5.95,-0.98z" fill="#494a4b"/>
  <path d="m127.23,11.13c-0.75,1.84 -1.27,2.39 -3.07,3.23l-2.06,-0.68c1.19,-1.96 3.07,-2.12 5.13,-2.55z" fill="#4d4d4d"/>
  <path d="m49.18,13.9c2.61,2.44 3.42,1.95 6.69,1.33 0.29,2.01 0.05,3.94 -0.42,5.9 0.03,-2.75 -8.04,-4.03 -7.34,-0.34 2.42,0.28 4.9,0.26 7.34,0.34l-0.18,1.63c-2.24,0.37 -5.67,-0.26 -7.55,0.98 -1.39,0.8 0.37,2.16 1.32,2.08 1.62,-0.17 3.19,-0.58 4.82,-0.7 0.05,0.88 0.05,1.76 -0.01,2.62 -2.42,0.29 -4.78,0.23 -7.12,1 -1.22,-0.86 -1.3,-2.08 -2.9,-0.88 -2.64,0.16 -5.27,0.1 -7.91,0.05 0.97,-0.57 1.96,-1.07 2.94,-1.62 -1.02,-0.4 -3.69,-0.01 -3.85,-1.35 3.86,-0.08 7.34,0.98 10.39,-2 0.64,-1.11 0.99,-2.42 1.25,-3.67 -1.2,-1.04 -2.5,-1.9 -3.61,-3.04 1.84,-0.44 3.59,-0.61 5.46,-0.59 0.16,-0.94 -1.07,-3.52 0.68,-1.74z" fill="#363839"/>
  <path d="m87.22,15.29c4.64,-1.41 8.45,0.99 11.05,4.7 -0.41,3.85 -4.52,2.47 -7.06,1.9 -3.31,1.27 -8.09,0.39 -10.66,-1.95 1.59,-2.66 4.09,-3.3 6.67,-4.65z" fill="#d0d2d3"/>
  <path d="m123.95,15.04c2.35,-0.06 4.7,-0.08 7.05,0.16 -2.03,2.89 -4.88,2.93 -8.12,2.74 0.35,-0.97 0.71,-1.93 1.07,-2.9z" fill="#515153"/>
  <path d="m55.45,21.13c-2.44,-0.08 -4.92,-0.06 -7.34,-0.34 -0.7,-3.69 7.37,-2.41 7.34,0.34z" fill="#57595a"/>
  <path d="m64.73,18.07c-0.01,1.33 -0.32,2.68 -0.54,4 -1.91,1.29 -4.25,1.4 -6.03,-0.18 2.21,-2.83 2.38,-4.5 6.57,-3.82z" fill="#4c4d4f"/>
  <path d="m131.95,18.93c-0.71,1.05 -1.43,2.1 -2.15,3.14 -2.28,-0.05 -4.52,-0.06 -6.8,-0.28 1.66,-2.64 6.19,-2.71 8.95,-2.86z" fill="#515254"/>
  <path d="m80.55,19.94c2.57,2.34 7.35,3.22 10.66,1.95 2.54,0.57 6.65,1.95 7.06,-1.9 0.91,3.32 3.61,5.97 1.94,9.14 -1.3,4.53 -4.95,8.34 -9.97,7.85C89.88,34.8 84.67,32.61 84.53,36.18 78.6,33.22 75.69,25.31 80.55,19.94Z" fill="#bfc1c2"/>
  <path d="m45.4,22.94c-3.05,2.98 -6.53,1.92 -10.39,2 -0.02,-0.92 0.06,-1.82 0.22,-2.7 2.95,-1.63 7.26,-0.38 10.17,0.7z" fill="#4e4f51"/>
  <path d="m119.88,21.12c0.59,2.66 -3.34,2.58 -5.05,2.99l-0.81,-0.52c1.78,-1.49 3.33,-2.93 5.86,-2.47z" fill="#525254"/>
  <path d="m26.91,22.85c-1.66,3.01 -4.39,4.26 -7.01,6.24 0.23,1.87 1.61,1.78 2.95,2.62 -0.91,0.21 -1.82,0.43 -2.72,0.65 1.19,0.73 2.43,1.36 3.65,2.05 -1.28,2.49 -3.55,1.74 -5.28,0.18 -0.85,0.64 -1.61,1.41 -2.37,2.16 1.26,0.18 2.52,0.35 3.79,0.51 -3.35,1.31 -2.39,1.33 -2.25,4.48 -1.52,0.23 -3.06,0.34 -4.59,0.51 1.28,0.65 2.58,1.23 3.83,1.96 -0.6,0.94 -1.31,1.8 -2.08,2.61 -1.03,-0.88 -2.06,-1.83 -2.86,-2.92 -0.09,-1.55 0.85,-2.48 1.48,-3.79 -0.37,-2.2 -1.33,-4.21 -2.62,-6.01 -2.59,1.77 -4.79,4.21 -6.74,6.66 1.28,-0.16 2.55,-0.39 3.83,-0.52 0.3,2.18 -1.77,3.66 -1.59,5.64 0.97,5.03 -1.12,9.85 -0.15,14.98 2.68,0.67 4.23,-0.51 6.57,-1.23 1.4,0.68 3.18,1.23 4.26,2.36 -1.63,3.16 -3.52,6.43 -5.52,9.37 -2.87,0.27 -5.14,1.58 -7.04,3.73 0.38,0.63 0.75,1.27 1.13,1.91 -2.68,3.65 1.85,7.3 0.67,11.99 2.22,-1.82 0.36,-4.66 4.59,-3.85 1.46,3.42 -5.04,4.21 -5.75,6.84 0.76,2.13 1.83,4.37 3.49,5.96 0.5,-3.47 1.46,-6.06 5.25,-6.64 -1.37,-2.87 -3.5,-6.06 -0.07,-8.47 2.55,-2.71 -0.94,3.97 1.81,1.72 1.23,-2.94 1.67,-5.81 3.59,-8.46 1.71,1.42 2.72,3.11 4.86,3.94 2.41,-0.87 1.77,-6.42 5.07,-7.01 4.36,-0.51 5.03,2.99 5.11,6.48 -0.82,0.48 -1.63,0.99 -2.4,1.53 0.76,1.29 1.89,1.64 3.18,2.21l0.37,1.97c-1.07,4.88 -2.24,9.77 -3.71,14.55l-1.13,0.66c0.64,4.51 1.62,9.03 2.65,13.46 0.24,1.22 1.2,2.11 1.95,3.03 2.61,2.62 0.82,4.98 2.07,7.93 2.49,5.25 4.24,10.26 8.58,14.38 0.41,0.47 0.83,0.93 1.24,1.39 -2.34,0.54 -1.58,4.44 -2.29,6.25 -2.32,-0.35 -4.48,-2.27 -6.47,-3.45 -0.35,1.56 -0.45,3.16 -1.2,4.53 -1.46,0.92 -3.3,1.61 -4.96,2.04 -2.25,-1.47 -3.22,-2.98 -6.18,-2.61 2.09,-2.66 6.07,-2.86 7.34,-6.18 0.99,-2.01 3.65,-2.84 5.56,-3.68 -1.38,-2.32 -4.49,-2.4 -6.9,-3.24 -1.59,-0.76 -2.72,3 -3.54,0.39 -1.36,-3.08 0.72,-4.05 1.54,-6.56 -3.29,-0.39 -6.97,2.2 -9.65,-0.11 1.61,-2.21 3.16,-3.01 2.04,-6 1.19,-0.02 2.38,-0.08 3.56,-0.2 0.14,-1.19 0.14,-2.41 0.02,-3.66 -1.79,-0.22 -2.81,-0.15 -4.33,0.88 -1.41,-2.93 2.35,-1.55 4.06,-2.37 0.73,-3.13 2.12,-6.26 2.32,-9.47 -2.76,-0.14 -5.32,-1.02 -7.08,1.68 -0.68,1.74 -5.92,3.42 -5.51,0.43 -1.41,-0.26 -2.84,-0.34 -4.26,-0.54 0.62,-0.96 2.58,-0.63 3.61,-0.93 -2.26,-3.49 -5.52,-5.03 -8.67,-7.57 -0.74,0.32 -1.82,2.01 -2.61,1.4C3.03,100.42 2.87,99.05 2.21,97.98 1.79,101.94 2.16,105.94 1.85,109.93 1.21,109.21 0.6,108.47 0,107.72v-9.46c1.59,-2.6 1.37,-6.1 0,-8.74V88.19C1.25,86.23 1,84.22 1.04,82 0.95,76.36 1.08,70.72 0.92,65.09 0.98,53.43 1.2,41.73 0.81,30.09 0.93,29.12 1.08,28.16 1.26,27.2c4.4,-0.51 8.68,0.22 13.11,-0.71 4.49,-0.38 8.35,-2.18 12.54,-3.64z" fill="#333537"/>
  <path d="m55.27,22.76c-0.02,2.34 -0.17,4.73 -0.51,7.04 -2.35,0.1 -6.45,1.1 -8.03,-1.06 2.34,-0.77 4.7,-0.71 7.12,-1 0.06,-0.86 0.06,-1.74 0.01,-2.62 -1.63,0.12 -3.2,0.53 -4.82,0.7 -0.95,0.08 -2.71,-1.28 -1.32,-2.08 1.88,-1.24 5.31,-0.61 7.55,-0.98z" fill="#545658"/>
  <path d="m130.34,22.75c0.66,0.58 1.31,1.18 1.96,1.79 -1.36,0.62 -2.66,1.54 -4.08,1.98 -1.32,-0.53 -3.63,-0.02 -2.94,-2.1 1.7,-0.53 3.41,-1.01 5.06,-1.67z" fill="#4d4d4f"/>
  <path d="m64.14,25.94c-2,0.03 -3.99,0.09 -5.98,-0.11 -1.09,-3.19 5.2,-2.03 5.98,0.11z" fill="#515355"/>
  <path d="M71,25.61C69.26,26.2 67.29,28.94 65.66,27 66.68,25.98 70.77,22.1 71,25.61Z" fill="#3b3d3e"/>
  <path d="m155.11,23.85c6.61,1.74 12.98,3.63 19.9,3.2 2.79,-0.12 3.02,1.53 2.96,3.88 -0.52,0.6 -1.05,1.2 -1.59,1.78 -0.34,-0.89 -0.69,-1.77 -1.04,-2.65 -0.2,1.25 -0.42,2.5 -0.66,3.74 -3.03,-0.29 -6.42,1.13 -7.38,-2.65 -0.19,1.12 -0.41,2.23 -0.67,3.33 -1.41,0.2 -2.58,0.4 -3.82,1.14l-0.16,-1.46c-2.84,-0.01 -5.64,2.01 -8.35,2.83 0.57,-1.23 1.33,-2.43 1.59,-3.74 -0.96,-0.16 -1.92,-0.3 -2.89,-0.42 0.91,-0.73 1.84,-1.39 2.7,-2.17 0.17,-2.23 -0.62,-4.53 -0.59,-6.81z" fill="#323334"/>
  <path d="m114.71,24.84c1.94,0.24 4.55,-0.24 6.24,0.83 -0.3,1.17 -0.46,2.39 -0.84,3.54 -1.69,-0.04 -3.37,-0.05 -5.06,0.02 -1.83,-1.7 0.61,-0.93 1.69,-1.47 -0.76,-0.95 -2.7,-1.5 -2.03,-2.92z" fill="#505053"/>
  <path d="m134.55,27.02c0.12,0.81 -0.03,1.5 -0.42,2.06 -1.7,0.59 -3.32,1.41 -5.04,1.92 -1.03,-0.82 -1.98,-1.75 -2.9,-2.68 2.96,-0.54 5.32,-1.59 8.36,-1.3z" fill="#48474a"/>
  <path d="m64.1,27.74c-0.74,1.27 -2.29,1.44 -0.74,2.79 0.94,0.57 -0.62,1.5 -0.91,2.15 0.63,0.4 3.65,0.9 2.26,2 -0.97,1.9 -3.53,1.35 -5.25,1.09 -0.29,-2.58 -0.99,-4.95 -1,-7.56 0.81,-2.14 4.05,-0.79 5.64,-0.47z" fill="#4c4e4f"/>
  <path d="m35.92,27.91c2.64,0.05 5.27,0.11 7.91,-0.05 0.21,1.14 0.55,2.17 0.42,3.34 -2.35,-0.15 -4.7,-0.17 -7.05,-0.11 -2.28,0.21 -3.02,-2.11 -1.28,-3.18z" fill="#515355"/>
  <path d="m115.05,29.23c1.69,-0.07 3.37,-0.06 5.06,-0.02 -1.28,0.56 -2.59,0.8 -3.94,1.13 1.44,0.76 2.88,1.08 3.83,2.52 -2.73,0.38 -5.2,-0.27 -7.78,-1.08 0.92,-0.87 1.89,-1.69 2.83,-2.55z" fill="#3d3e40"/>
  <path d="m0,29.51 l0.81,0.58c0.39,11.64 0.17,23.34 0.11,35L0,64.57Z" fill="#1a1919"/>
  <path d="m175.34,30.06c0.35,0.88 0.7,1.76 1.04,2.65 0.54,-0.58 1.07,-1.18 1.59,-1.78 0.08,4.35 0.02,8.72 0.01,13.08 -2.4,-1.55 -4.65,-3.61 -7.44,-1.62 -2.74,0.88 -2.25,2.04 -2.93,4.46 -3.49,-2.14 -5.93,-7.28 -4.8,-11.23 1.24,-0.74 2.41,-0.94 3.82,-1.14 0.26,-1.1 0.48,-2.21 0.67,-3.33 0.96,3.78 4.35,2.36 7.38,2.65 0.24,-1.24 0.46,-2.49 0.66,-3.74z" fill="#2b2d2f"/>
  <path d="m37.2,31.09c2.35,-0.06 4.7,-0.04 7.05,0.11 -0.1,1.77 -0.19,3.55 -0.42,5.31 -1.92,-0.22 -3.83,-0.46 -5.77,-0.45 0.95,0.63 1.92,1.21 2.87,1.85 -1.96,0.1 -3.89,0.15 -5.84,-0.09 -0.33,-2.83 2.72,-4 2.11,-6.73z" fill="#383a3b"/>
  <path d="m48.13,32.17c2.24,-0.28 4.52,-0.27 6.76,0 0.77,2.9 -5.04,2.49 -6.74,2.68 -0.06,-0.9 -0.07,-1.79 -0.02,-2.68z" fill="#4f5153"/>
  <path d="m137.25,31.89 l0.85,0.08c1.34,2.63 2.36,4.94 0.86,7.75 -1.46,-0.6 -2.89,-1.3 -4.31,-2 0.24,-2.87 2.33,-3.17 2.6,-5.83z" fill="#4f5153"/>
  <path d="m153,32.83c0.97,0.12 1.93,0.26 2.89,0.42 -0.26,1.31 -1.02,2.51 -1.59,3.74 2.71,-0.82 5.51,-2.84 8.35,-2.83l0.16,1.46c-1.13,3.95 1.31,9.09 4.8,11.23 0.68,-2.42 0.19,-3.58 2.93,-4.46 2.79,-1.99 5.04,0.07 7.44,1.62 0.05,3.3 0.04,6.6 -0.04,9.9 -0.98,1.32 -1.89,2.61 -3.09,3.74 -0.97,-0.41 -1.9,-0.93 -2.86,-1.37 0.04,1.89 0.59,7.44 3.04,7.57 2.9,0.7 -2.36,-3.77 0.02,-2.84 2.85,-0.3 1.74,1.95 1.93,3.85 -2.64,3.27 -7.3,2.23 -8.73,7.1 0.83,3.72 1.75,7.51 3.27,11.02 -1.78,1.83 -2.05,0 -3.7,-0.87 -1.4,-0.02 -4.05,0.76 -3.72,2.6 0.89,-0.07 1.78,-0.15 2.68,-0.23 -0.87,2.8 -0.25,4.97 -0.14,7.71 -1.5,0.95 -2.89,2.03 -4.11,3.32 2.09,2.24 3.34,4.29 6.12,5.83 0.97,3.93 1.49,6.01 -0.5,9.71 2.36,2.01 4.57,2.73 5.35,6.15 -0.23,2.58 -0.94,5.14 -1.31,7.7 2.19,0.05 1.43,-1.68 2.4,-3.07 1.02,-1.09 2.12,-2.12 3.26,-3.08 0.25,5.78 0.14,11.59 0.13,17.38 -2.34,0.97 -1.65,-0.38 -2.63,-1.97 -0.25,0.9 -0.5,1.8 -0.76,2.7 -1.34,-1.07 -2.3,-2.82 -3.79,-3.62 -2.62,-0.62 -5.3,-1.05 -7.97,-1.37 0.53,-1.52 3.59,-4.01 0.26,-3.98 -0.08,-0.84 -0.17,-1.69 -0.28,-2.54 -1.3,0.36 -2.59,0.8 -3.89,1.16 -1.21,-0.25 -2.43,-0.43 -3.67,-0.43 0.11,1.31 0.33,2.6 0.47,3.9 -1.64,-1.16 -1.96,-2.77 -2.31,-4.63 1.87,-0.73 2.69,-2.34 4.58,-0.79 3.51,-2.97 -3.94,-2.33 -4.02,-5.08 1.86,0.06 3.72,0.21 5.58,0.19 -0.89,-4.31 5.29,-5.47 1.57,-8.83 0.49,-1.16 1.59,-2.01 2.56,-2.77 0.22,1.29 0.43,2.59 0.65,3.88 1.94,-1.29 1.83,-2.47 1.48,-4.62 -1.2,-0.2 -2.4,-0.4 -3.6,-0.58 0.77,-1.66 4.22,0.3 3.62,-2.55 -1.37,0.07 -2.79,0.14 -4.12,0.49 -0.56,1.48 -0.85,3.1 -1.4,4.59 -1.64,0.28 -3.34,0.35 -5,0.41 -0.18,-4.02 -1.02,-7.55 -0.1,-11.64 0.97,0.83 0.83,2.75 1.22,3.92 1.27,-3.05 1.82,-3.78 -0.02,-6.72 2.15,-1.17 4.23,-0.94 4.91,-3.71 0.87,0.51 1.53,1.15 2.51,1.37 0.2,-1.78 0.26,-3.61 0.07,-5.39 -3.89,0.87 -2.24,-1.94 -3.29,-4.39 -1.3,-2.18 -8.25,-1.38 -7.51,-4.95 1.4,0.03 2.4,1.5 3.82,1.71 -1.6,-3.56 -1.92,-4.71 -0.61,-8.57 2.13,0.07 4.43,0.14 6.47,0.82 -0.27,1.55 -4.31,1.7 -5.59,2.26 0.14,1.84 1.28,3.65 2.03,5.31 2.59,-3.53 5.93,-4.54 6.67,-8.82 0.69,-3.09 -0.69,-5.21 -1.72,-7.96 0.21,-1.66 1.62,-1.22 2.84,-1.66 -1.14,-1.16 -2.56,-1.65 -3.2,-3.27 -0.34,-2.63 -0.46,-4.98 -0.26,-7.62 -1.93,-1.46 -4.1,-2.5 -6.08,-3.86 -1.31,-2.35 -2.36,-4.76 -3.92,-6.98 -0.48,-1.56 -2.56,-5.7 -0.55,-6.71z" fill="#37393b"/>
  <path d="m90.24,36.98c-2.05,-0.04 -3.87,0.29 -5.71,-0.8 0.14,-3.57 5.35,-1.38 5.71,0.8z" fill="#aaacad"/>
  <path d="m112.04,34.11c2.08,-0.18 3.64,0 5.47,1.03 -0.95,2.27 -0.17,4.5 -3.02,5.27 0.46,1.07 1.03,2.09 1.49,3.16 -0.9,-0.13 -1.79,-0.26 -2.69,-0.39 0.48,0.92 1.01,1.82 1.48,2.76 -3.11,1.27 -6.4,2.39 -8.56,-0.93 -0.85,-1.63 2.82,0.33 2.61,-1.2 1,-3.22 1.78,-7.07 5.87,-7.09 -0.89,-0.86 -1.82,-1.68 -2.65,-2.61z" fill="#4b4d4e"/>
  <path d="m51.33,36.35c1.45,-0.4 3.11,-0.31 4.6,-0.27 -2.65,1.88 -4.26,3.59 -7.82,2.79 -0.25,-2.38 1.59,-1.81 3.22,-2.52z" fill="#454749"/>
  <path d="m41.02,38.99c3.49,-0.18 0.75,0.55 -0.32,1.68 -1.31,2.07 -1.94,3.51 -4.52,4.11 -2.08,-3.11 1.46,-6.75 4.84,-5.79z" fill="#3a3c3e"/>
  <path d="m55.25,40.5c1.1,-0.06 2.94,-0.5 3.48,0.8 1.15,1.79 -1.3,5.13 -2.98,2.95 -0.56,-1.05 -2.67,-3.37 -0.5,-3.75z" fill="#515355"/>
  <path d="m67.81,42c-0.31,0.93 -0.67,1.84 -1.08,2.74 -1.25,0.4 -2.5,0.79 -3.73,1.25 -0.24,-3.53 1.91,-3.73 4.81,-3.99z" fill="#484b4a"/>
  <path d="m32.05,42.84c3.37,1.85 3.4,5.61 3.97,9.03 -0.8,1.08 -2.59,2.04 -3.84,2.55 -2.34,-0.78 -4.7,-1.65 -6.9,-2.77 -1.53,-2.53 3.3,-4.32 4.8,-5.57 0.72,-1.03 1.27,-2.18 1.97,-3.24z" fill="#383a3c"/>
  <path d="m66.73,44.74c-0.45,1.06 -0.99,2.09 -1.43,3.15 0.85,0.54 1.74,1.02 2.66,1.45 -1.94,1.12 -3.91,2.12 -5.95,3.04 -0.93,-1.02 -1.69,-2.05 -2.34,-3.27 0.48,-0.68 0.98,-1.35 1.48,-2.02 0.62,-0.36 1.24,-0.72 1.85,-1.1 1.23,-0.46 2.48,-0.85 3.73,-1.25z" fill="#272b2e"/>
  <path d="m95.22,45.64c-4.49,0.54 -8.96,0.51 -13.45,0.01 4.18,-1.03 9.26,-1 13.45,-0.01z" fill="#2e3742"/>
  <path d="m81.77,45.65c4.49,0.5 8.96,0.53 13.45,-0.01 1.67,0.3 3.33,0.57 4.97,1.02 -4.28,0.39 -8.38,1.44 -12.35,3.05L86.2,49.8c-0.34,-2.71 -4.06,-1.7 -5.97,-1.72 -0.98,1.13 -1.94,2.14 -3.18,3.01l-1.27,0.7c-3.71,1.42 -7.39,2.35 -10.89,4.28 -1.29,0.65 -2.56,1.33 -3.83,2.03 -1.15,-0.13 -3.49,-1.54 -4.35,-0.36 -1.59,1.15 -1.11,2.81 -1.43,4.52 -2.84,2.79 -5.74,5.57 -8.38,8.54 -1.29,0.34 -2.52,0.44 -3.61,1.28 0.3,1.07 0.64,2.13 1,3.19l-0.72,1.74c-1.03,1.91 -2.13,3.87 -2.91,5.9 -0.34,0.9 -0.65,1.82 -0.92,2.76 -1.16,3 -1.95,6.1 -2.97,9.14 -1.14,2.78 -0.73,6.19 -0.82,9.19 0.09,2.52 -0.27,4.76 0.92,7.09 1.82,4.59 2.77,9.42 4.99,13.88 0.29,0.73 0.6,1.46 0.91,2.17 1.31,3.68 3.81,6.25 6.19,9.49 -1.13,0.79 -2.17,1.68 -3.2,2.59 -4.34,-4.12 -6.09,-9.13 -8.58,-14.38 -1.25,-2.95 0.54,-5.31 -2.07,-7.93 -0.63,-3.49 -2.11,-7.07 -1.82,-10.56 0.09,-2.21 -1.19,-4.44 -1.65,-6.59 1.47,-4.78 2.64,-9.67 3.71,-14.55 0.31,-1.07 0.61,-2.14 0.9,-3.21 0.98,-1.64 1.87,-3.33 2.44,-5.15 2.18,-5.34 5.94,-9.3 9.09,-14 3.87,-1.28 5.18,-2.39 7.27,-5.83 2.5,-1.31 4.63,-3.08 6.96,-4.64 2.04,-0.92 4.01,-1.92 5.95,-3.04 4.58,-1.35 9.11,-2.79 13.81,-3.69z" fill="#43546c"/>
  <path d="m61.15,47.09c-0.5,0.67 -1,1.34 -1.48,2.02 -2.25,1.65 -2.92,3.03 -4.81,-0.11 1.67,-2.1 3.86,-1.89 6.29,-1.91z" fill="#464947"/>
  <path d="m100.19,46.66c5.37,1.77 13.51,2.71 17.07,7.46 0.73,1.09 2.48,0.72 3.65,0.91 0.7,0.45 1.4,0.9 2.1,1.36 1.23,1.3 2.52,2.54 3.93,3.65 -0.85,0.99 -1.66,2.01 -2.4,3.08 -2.61,-1.53 -4.69,-3.72 -7.32,-5.23 -9.08,-5.82 -18.84,-7.4 -29.38,-8.18 3.97,-1.61 8.07,-2.66 12.35,-3.05z" fill="#586b85"/>
  <path d="m80.23,48.08c1.91,0.02 5.63,-0.99 5.97,1.72 -3.05,0.47 -6.06,1.1 -9.15,1.29 1.24,-0.87 2.2,-1.88 3.18,-3.01z" fill="#536a88"/>
  <path d="m116.1,48.1c2.6,0.41 7.86,2.52 7.84,5.67 -1.84,0.22 -4.82,-2.1 -3.03,1.26 -1.17,-0.19 -2.92,0.18 -3.65,-0.91 4.26,-1.11 -1.67,-3.52 -1.16,-6.02z" fill="#454b52"/>
  <path d="m86.2,49.8 l1.64,-0.09c10.54,0.78 20.3,2.36 29.38,8.18 -1.02,0.44 -2.05,0.82 -3.11,1.12 -0.94,-0.89 -1.77,-1.89 -2.7,-2.79 -0.19,3.12 -3.13,3.81 -4.96,1.62 0.13,-1.12 0.36,-2.22 0.5,-3.34 -2.03,1.1 -4.39,0.28 -4.92,3 -3.24,-2.42 -8.04,-2.06 -11.22,0.32l-1.5,0.39c0.14,-0.72 0.26,-1.43 0.36,-2.16 -3.54,0.32 -7.01,0.42 -10.34,1.76l-0.08,-1.66c0.57,-0.64 1.11,-1.31 1.63,-2 -1.61,-0.92 -3.4,-1.61 -5.1,-2.36l1.27,-0.7c3.09,-0.19 6.1,-0.82 9.15,-1.29z" fill="#809fc4"/>
  <path d="m75.78,51.79c1.7,0.75 3.49,1.44 5.1,2.36 -0.52,0.69 -1.06,1.36 -1.63,2 -1.98,-3.56 -5.33,-2.36 -7.38,0.35 -0.9,1.87 -2.73,0.3 -3.87,2.28 3.25,0.3 5.71,0.94 8.12,-1.72 0.45,0.59 0.88,1.19 1.29,1.8 -1.01,1.09 -2.05,2.16 -3.09,3.23 -0.6,-1.86 -0.41,-1.66 -2.23,-1.63 -2.12,0.2 -6.02,0.52 -7.22,2.49 0.55,0.59 1.25,1.04 2.09,1.35 -0.93,0.66 -1.91,1.24 -2.97,1.69 -1.06,-0.16 -1.37,-1.82 -1.64,-2.71 0.97,-1.16 2.11,-2.19 3.02,-3.39 -0.64,-1.44 -0.76,-2.24 -0.48,-3.82 3.5,-1.93 7.18,-2.86 10.89,-4.28z" fill="#a8bfdc"/>
  <path d="m127.91,52.22c1.4,1.15 -0.17,2.25 -0.51,3.59 1.33,0.55 2.7,0.98 4.04,1.48 -0.98,2.03 0.03,3.64 -0.44,5.76 -1.35,-1.02 -2.68,-2.05 -4.06,-3.01 -1.41,-1.11 -2.7,-2.35 -3.93,-3.65 1.82,-1.19 3.27,-2.75 4.9,-4.17z" fill="#323941"/>
  <path d="m79.25,56.15 l0.08,1.66c3.33,-1.34 6.8,-1.44 10.34,-1.76 -0.1,0.73 -0.22,1.44 -0.36,2.16 -1.62,1 -3.22,2.01 -4.97,2.79 -1.89,-2.2 -4.29,-1.62 -6.93,-2.14 -0.41,-0.61 -0.84,-1.21 -1.29,-1.8 -2.41,2.66 -4.87,2.02 -8.12,1.72 1.14,-1.98 2.97,-0.41 3.87,-2.28 2.05,-2.71 5.4,-3.91 7.38,-0.35z" fill="#99b1cd"/>
  <path d="m106.95,54.5c-0.14,1.12 -0.37,2.22 -0.5,3.34 1.83,2.19 4.77,1.5 4.96,-1.62 0.93,0.9 1.76,1.9 2.7,2.79 1.06,-0.3 2.09,-0.68 3.11,-1.12 2.63,1.51 4.71,3.7 7.32,5.23 3.71,2.75 5.04,6.94 8.34,10 1.64,1.83 2.71,3.91 3.89,6.04l0.31,0.85 -0.11,0.67c-0.47,1.88 -0.79,3.8 -1.35,5.65 -1.97,0.76 -3.41,1.62 -5.54,0.63 -3.13,-0.86 -0.58,-3.09 -2.47,-5.75 0.5,-0.34 1.02,-0.66 1.54,-0.97 0.91,-0.41 1.78,-0.87 2.62,-1.38 -0.63,-3.24 -2.57,-5.69 -4.87,-7.93 -3.53,-0.13 -1.71,4.2 -4.16,5.83 -1.84,0.34 -3.77,0.28 -5.64,0.26 -2.07,-1.96 -2.16,-2.88 -5.26,-2.18 -1.35,-4.37 -0.23,-8.14 -3.7,-11.84 0.02,2.71 0.68,5.32 0.5,8.04 -1.57,3.99 -4.7,0.2 -7.53,0.05 -0.27,2.3 0.16,4.1 2.89,3.72 2.33,-0.28 3.01,0.03 4.9,1.36 -0.39,3.27 0.46,4.65 -3.09,6.07l-0.75,-0.57c-1.27,-0.92 -2.39,-2.22 -3.92,-2.53 -2.37,-0.72 -4.77,-1.31 -7.13,-2.06 1.71,-3 -0.53,-2.19 -2.56,-3.42 0.57,-0.86 1.17,-1.68 1.76,-2.52 1.73,-1.61 3.07,-3.49 4.56,-5.31 2.75,-1.58 5.22,-3.54 7.35,-5.9 -0.81,-1.11 -1.95,-1.71 -3.09,-2.43 0.53,-2.72 2.89,-1.9 4.92,-3z" fill="#89a6c8"/>
  <path d="m143.89,53.94c2.53,3.89 4.78,2.84 8.87,3.29 -0.16,1.75 -0.97,3.77 -0.54,5.5 1.35,1.53 3.44,2.08 5.39,2.38 -1.41,-1.98 -1.04,-2.65 -0.36,-4.91 3.55,-0.26 4.52,1.55 6.56,-2.2 0.64,1.62 2.06,2.11 3.2,3.27 -1.22,0.44 -2.63,0 -2.84,1.66 1.03,2.75 2.41,4.87 1.72,7.96 -0.74,4.28 -4.08,5.29 -6.67,8.82 -0.75,-1.66 -1.89,-3.47 -2.03,-5.31 1.28,-0.56 5.32,-0.71 5.59,-2.26 -2.04,-0.68 -4.34,-0.75 -6.47,-0.82 -1.31,3.86 -0.99,5.01 0.61,8.57 -1.42,-0.21 -2.42,-1.68 -3.82,-1.71 -0.74,3.57 6.21,2.77 7.51,4.95 1.05,2.45 -0.6,5.26 3.29,4.39 0.19,1.78 0.13,3.61 -0.07,5.39 -0.98,-0.22 -1.64,-0.86 -2.51,-1.37 -0.68,2.77 -2.76,2.54 -4.91,3.71 1.84,2.94 1.29,3.67 0.02,6.72 -0.39,-1.17 -0.25,-3.09 -1.22,-3.92 -0.92,4.09 -0.08,7.62 0.1,11.64 1.66,-0.06 3.36,-0.13 5,-0.41 0.55,-1.49 0.84,-3.11 1.4,-4.59 1.33,-0.35 2.75,-0.42 4.12,-0.49 0.6,2.85 -2.85,0.89 -3.62,2.55 1.2,0.18 2.4,0.38 3.6,0.58 0.35,2.15 0.46,3.33 -1.48,4.62 -0.22,-1.29 -0.43,-2.59 -0.65,-3.88 -0.97,0.76 -2.07,1.61 -2.56,2.77 3.72,3.36 -2.46,4.52 -1.57,8.83 -1.86,0.02 -3.72,-0.13 -5.58,-0.19 0.08,2.75 7.53,2.11 4.02,5.08 -1.89,-1.55 -2.71,0.06 -4.58,0.79 0.35,1.86 0.67,3.47 2.31,4.63 -0.14,-1.3 -0.36,-2.59 -0.47,-3.9 1.24,0 2.46,0.18 3.67,0.43 -0.82,3.69 -0.45,4.68 1.9,7.61 -0.44,2.33 -3.83,3.15 -2.51,5.54 0.78,3.18 2.88,1.97 5.41,2.53 -0.48,0.55 -0.96,1.1 -1.44,1.65 1.47,0.26 2.94,0.53 4.41,0.67 0.78,-2.54 2.69,-4.75 1.22,-7.32 -0.14,-1.53 -4.94,-1.58 -2.94,-3.15 1.49,-1.13 -1.51,-1.48 -2.14,-2.17 2.67,0.32 5.35,0.75 7.97,1.37 1.49,0.8 2.45,2.55 3.79,3.62 0.26,-0.9 0.51,-1.8 0.76,-2.7 0.98,1.59 0.29,2.94 2.63,1.97 -0.02,3.87 0.22,7.82 -0.17,11.68 -7.37,0.23 -15.52,0.57 -22.51,3.19 0.29,-2.47 -2.02,-2.41 0.23,-4.71 -0.89,-0.51 -2.88,-0.25 -1.91,-1.78 1.85,-2.21 -3.07,-5.62 -1.99,-8 0.69,-1.44 0.12,-3.36 0.1,-4.91 -2.7,0.08 -5.19,-0.62 -7.81,-0.03 -1.99,-0.47 -2.5,-1.79 -3.2,-3.54 2.46,-5.13 4.49,-11.12 5.11,-16.78 1.58,-4.65 0.86,-9.25 4.92,-12.5 3.12,-2.17 2.26,-5.75 6.56,-5.55 2.48,-3.25 -2.61,-0.72 -4.19,-1.31 0.56,-2.13 1.21,-4.22 1.7,-6.37 1.35,-1.06 2.6,-1.09 2.01,-3.18 -3.9,-0.45 -6.74,-0.81 -9.01,-4.36 -0.13,-2.14 1.15,-5.27 -1.86,-5.77 -1.97,-0.18 -2.1,1.85 -1.26,3.19 0.14,1.14 0.29,2.29 0.45,3.43 0.63,1.03 2.06,1.48 3.01,2.21 -0.91,0.49 -1.83,0.98 -2.74,1.45 0.16,2.39 0.9,4.39 -0.14,6.72 -1.67,-3.74 -2.48,-7.78 -4.24,-11.47 -0.56,-1.11 -1.3,-2.05 -2.01,-3.07 -0.58,-1.53 -1.26,-3 -2.03,-4.45 1,-2.58 2.97,-3.6 5.59,-3.93 0.31,0.86 0.61,1.72 0.9,2.59 1.27,-3.22 2.76,-6.41 -0.05,-9.33 -1.88,-1.94 -2.22,-4.22 0.45,-5.61z" fill="#2f3133"/>
  <path d="m177.94,53.91c0.13,12.37 0.04,24.74 0.04,37.11 -0.04,1.67 0.29,2.87 1.02,4.36v0.52c-2.14,5.18 -0.57,12.38 -0.89,18.01 -0.07,1.61 -0.16,3.23 -0.26,4.84 -1.14,0.96 -2.24,1.99 -3.26,3.08 -0.97,1.39 -0.21,3.12 -2.4,3.07 0.37,-2.56 1.08,-5.12 1.31,-7.7 -0.78,-3.42 -2.99,-4.14 -5.35,-6.15 1.99,-3.7 1.47,-5.78 0.5,-9.71 -2.78,-1.54 -4.03,-3.59 -6.12,-5.83 1.22,-1.29 2.61,-2.37 4.11,-3.32 -0.11,-2.74 -0.73,-4.91 0.14,-7.71 -0.9,0.08 -1.79,0.16 -2.68,0.23 -0.33,-1.84 2.32,-2.62 3.72,-2.6 1.65,0.87 1.92,2.7 3.7,0.87 -1.52,-3.51 -2.44,-7.3 -3.27,-11.02 1.43,-4.87 6.09,-3.83 8.73,-7.1 -0.19,-1.9 0.92,-4.15 -1.93,-3.85 -2.38,-0.93 2.88,3.54 -0.02,2.84 -2.45,-0.13 -3,-5.68 -3.04,-7.57 0.96,0.44 1.89,0.96 2.86,1.37 1.2,-1.13 2.11,-2.42 3.09,-3.74z" fill="#333436"/>
  <path d="m64.89,56.07c-0.28,1.58 -0.16,2.38 0.48,3.82 -0.91,1.2 -2.05,2.23 -3.02,3.39 0.27,0.89 0.58,2.55 1.64,2.71 1.06,-0.45 2.04,-1.03 2.97,-1.69 1.72,-1.27 3.41,-2.58 5.13,-3.84 1.82,-0.03 1.63,-0.23 2.23,1.63l-0.33,1.96c-2.83,0.25 -3.8,3.91 -2.05,5.99 1.52,1.82 -0.97,3.7 2.07,4.22 -1.61,3.22 -5.06,-0.79 -6.87,-1.95 -0.17,1.21 -0.33,2.43 -0.49,3.64 -1.82,1.1 -2.94,2.75 -5.3,1.77 -2.42,-2.6 -2.73,-5.61 -7.13,-4.58 -0.22,1.66 -0.27,3.38 -0.35,5.05 -3.43,0.73 -7.21,0.69 -10.3,-1.18l0.72,-1.74c1.09,-1.4 1.9,-2.84 2.61,-4.47 2.64,-2.97 5.54,-5.75 8.38,-8.54 2.06,-1.2 3.9,-2.7 5.78,-4.16 1.27,-0.7 2.54,-1.38 3.83,-2.03z" fill="#9ab6d8"/>
  <path d="m102.03,57.5c1.14,0.72 2.28,1.32 3.09,2.43 -2.13,2.36 -4.6,4.32 -7.35,5.9 0.96,-1.68 2.15,-3.2 3.14,-4.86 -0.46,-1.34 -1.12,-2.79 -2.18,-3.76 -2.58,-0.33 -5.26,0.77 -7.92,0.61 3.18,-2.38 7.98,-2.74 11.22,-0.32z" fill="#acbfd2"/>
  <path d="m55.05,57.02c-2.09,3.44 -3.4,4.55 -7.27,5.83 1.59,-3.59 3.47,-4.98 7.27,-5.83z" fill="#3b424a"/>
  <path d="m61.06,58.1c-1.88,1.46 -3.72,2.96 -5.78,4.16 0.32,-1.71 -0.16,-3.37 1.43,-4.52 0.86,-1.18 3.2,0.23 4.35,0.36z" fill="#556a83"/>
  <path d="m98.73,57.21c1.06,0.97 1.72,2.42 2.18,3.76 -0.99,1.66 -2.18,3.18 -3.14,4.86 -1.49,1.82 -2.83,3.7 -4.56,5.31 -3.14,-0.1 -3.54,3.3 -5.6,5.17 -1.46,-1.03 -2.98,-1.96 -4.44,-2.99 0.91,-0.24 1.83,-0.48 2.75,-0.72 -2.12,-0.98 -4.32,-1.69 -6.57,-2.27 0.09,-1.06 0.29,-2.11 0.39,-3.18 -3.2,-0.53 -5.02,-0.07 -7.73,1.56 0.62,-1.57 1.36,-3.09 1.98,-4.66 1.77,0.41 3.18,-0.49 4.93,0.27 1.98,-0.27 3.86,-2.16 5.42,-3.32 1.75,-0.78 3.35,-1.79 4.97,-2.79l1.5,-0.39c2.66,0.16 5.34,-0.94 7.92,-0.61z" fill="#d3d9de"/>
  <path d="m77.41,58.86c2.64,0.52 5.04,-0.06 6.93,2.14 -1.56,1.16 -3.44,3.05 -5.42,3.32 -1.75,-0.76 -3.16,0.14 -4.93,-0.27l0.33,-1.96c1.04,-1.07 2.08,-2.14 3.09,-3.23z" fill="#c0ccdd"/>
  <path d="m72.09,60.46c-1.72,1.26 -3.41,2.57 -5.13,3.84 -0.84,-0.31 -1.54,-0.76 -2.09,-1.35 1.2,-1.97 5.1,-2.29 7.22,-2.49z" fill="#b8cfec"/>
  <path d="m126.94,60.04c1.38,0.96 2.71,1.99 4.06,3.01 1.68,2.71 3.43,5.21 6,7.17 0.77,1.45 1.45,2.92 2.03,4.45 -1.71,1.42 -1.99,2.3 -2.26,4.49 -1.18,-2.13 -2.25,-4.21 -3.89,-6.04 -3.3,-3.06 -4.63,-7.25 -8.34,-10 0.74,-1.07 1.55,-2.09 2.4,-3.08z" fill="#4f5f77"/>
  <path d="m122.06,63.93c0.15,1.29 0.36,2.58 0.46,3.87 -1.08,0.51 -2.2,0.91 -3.33,1.27 -1.67,-1.95 -3.63,-3.75 -5.04,-5.9 1.61,-1.46 5.74,0.73 7.91,0.76z" fill="#bfcee2"/>
  <path d="m108.14,63c3.47,3.7 2.35,7.47 3.7,11.84 -0.69,0.31 -1.38,0.62 -2.06,0.95l-0.88,0.38c-0.3,-1.71 -0.23,-3.41 -0.26,-5.13 0.18,-2.72 -0.48,-5.33 -0.5,-8.04z" fill="#b0c9e5"/>
  <path d="m73.99,64.05c-0.62,1.57 -1.36,3.09 -1.98,4.66 2.71,-1.63 4.53,-2.09 7.73,-1.56 -0.1,1.07 -0.3,2.12 -0.39,3.18 2.25,0.58 4.45,1.29 6.57,2.27 -0.92,0.24 -1.84,0.48 -2.75,0.72 1.46,1.03 2.98,1.96 4.44,2.99l-0.51,0.66c-0.77,0.7 -1.54,1.4 -2.31,2.1 -1.62,-1.84 -1.27,-2.44 -3.77,-1.15 -0.66,0.26 -1.33,0.53 -1.99,0.81 -0.8,0.06 -1.6,0.14 -2.4,0.23l-0.18,-1.13c0.84,-1.57 1.8,-2.8 1.42,-4.7 -1.66,-0.3 -2.51,0.3 -3.86,1.13 -3.04,-0.52 -0.55,-2.4 -2.07,-4.22 -1.75,-2.08 -0.78,-5.74 2.05,-5.99z" fill="#bdccd9"/>
  <path d="m122.06,63.93c1.59,0.24 2.61,1.11 3.7,2.2 -1.51,1.88 -4.07,5.91 -6.57,2.94 1.13,-0.36 2.25,-0.76 3.33,-1.27 -0.1,-1.29 -0.31,-2.58 -0.46,-3.87z" fill="#a3bad6"/>
  <path d="m0,64.57 l0.92,0.52C1.08,70.72 0.95,76.36 1.04,82 1,84.22 1.25,86.23 0,88.19Z" fill="#030303"/>
  <path d="m46.9,70.8c-0.71,1.63 -1.52,3.07 -2.61,4.47 -0.36,-1.06 -0.7,-2.12 -1,-3.19 1.09,-0.84 2.32,-0.94 3.61,-1.28z" fill="#4f6788"/>
  <path d="m93.21,71.14c-0.59,0.84 -1.19,1.66 -1.76,2.52 2.03,1.23 4.27,0.42 2.56,3.42C91.7,77.01 89.4,76.97 87.1,76.97l0.51,-0.66c2.06,-1.87 2.46,-5.27 5.6,-5.17z" fill="#9cb6c3"/>
  <path d="m101.11,71.09c2.83,0.15 5.96,3.94 7.53,-0.05 0.03,1.72 -0.04,3.42 0.26,5.13 -1.89,-1.33 -2.57,-1.64 -4.9,-1.36 -2.73,0.38 -3.16,-1.42 -2.89,-3.72z" fill="#94b2d3"/>
  <path d="m126.9,70.93c2.3,2.24 4.24,4.69 4.87,7.93 -0.84,0.51 -1.71,0.97 -2.62,1.38 -2.02,-0.66 -3.81,-1.47 -6,-1.12 -0.05,2.03 0.27,4.03 0.3,6.06 -1.1,-1.77 -1.39,-3.7 -1.95,-5.67 -1.55,-0.82 -3.19,-1.26 -4.4,-2.49 1.87,0.02 3.8,0.08 5.64,-0.26 2.45,-1.63 0.63,-5.96 4.16,-5.83z" fill="#bbc7d8"/>
  <path d="m67.14,72.31c1.81,1.16 5.26,5.17 6.87,1.95 1.35,-0.83 2.2,-1.43 3.86,-1.13 0.38,1.9 -0.58,3.13 -1.42,4.7 -2.97,-0.31 -7.89,0.95 -9.8,-1.88 0.16,-1.21 0.32,-2.43 0.49,-3.64z" fill="#9badcc"/>
  <path d="m145.96,72.21c0.6,1.96 2.33,4.16 -1.26,3.19 -0.84,-1.34 -0.71,-3.37 1.26,-3.19z" fill="#5e6260"/>
  <path d="m145.96,72.21c3.01,0.5 1.73,3.63 1.86,5.77 -0.89,0.27 -1.78,0.56 -2.67,0.85 -0.16,-1.14 -0.31,-2.29 -0.45,-3.43 3.59,0.97 1.86,-1.23 1.26,-3.19z" fill="#444847"/>
  <path d="m54.22,73.14c4.4,-1.03 4.71,1.98 7.13,4.58 2.36,0.98 3.48,-0.67 5.3,-1.77 1.91,2.83 6.83,1.57 9.8,1.88l0.18,1.13c-0.17,1.68 -0.07,3.34 0,5.02 -1.66,-1.3 -1.53,-2.95 -1.96,-4.85 -0.73,2.49 -3.15,5 -2.52,7.57 1.93,0.06 3.3,-0.19 4.94,1.01 1.35,-1.11 1.85,-2.58 3.8,-2.65 -0.5,3.43 -0.71,3.99 -3.72,5.41 2.66,1.28 3.1,2.92 5.79,0.66l0.33,1.75c-1,1.03 -2.07,1.99 -3.08,3.01 1.65,0.34 3.18,0.63 4.86,0.27 0.71,0.3 1.42,0.59 2.14,0.89 -0.74,0.73 -1.49,1.45 -2.25,2.16L84.2,98.82C81.28,96.4 79.21,97.83 75.88,98.26 73.04,96.65 71.24,94.2 69.19,91.75 68.11,89.98 65.71,89.21 64.02,88.04 62.51,83.93 59.07,83.73 55.42,82.52 54.8,81.12 54.33,79.65 53.87,78.19 53.95,76.52 54,74.8 54.22,73.14Z" fill="#d2d8dd"/>
  <path d="m117.1,77.02c1.21,1.23 2.85,1.67 4.4,2.49 0.56,1.97 0.85,3.9 1.95,5.67 0.59,2.46 -1.49,1.45 -3.09,2.24 -2.49,2.17 -2.87,5.56 -6.21,6.97 -1.16,-0.46 -1.9,-1.2 -2.21,-2.22 0.04,-1.7 -0.6,-3.44 -0.95,-5.09 -1.18,-3.78 0.85,-8.04 -1.21,-11.29 0.68,-0.33 1.37,-0.64 2.06,-0.95 3.1,-0.7 3.19,0.22 5.26,2.18z" fill="#c6ccd2"/>
  <path d="m139.03,74.67c0.71,1.02 1.45,1.96 2.01,3.07 -2.2,-0.62 -2.49,1.06 -3.96,2.27l-0.31,-0.85c0.27,-2.19 0.55,-3.07 2.26,-4.49z" fill="#39485b"/>
  <path d="m108.9,76.17 l0.88,-0.38c2.06,3.25 0.03,7.51 1.21,11.29 -1.85,-1.48 -3.55,-3.12 -5.18,-4.84 3.55,-1.42 2.7,-2.8 3.09,-6.07z" fill="#9db5c1"/>
  <path d="m38.69,76.85c-0.57,1.82 -1.46,3.51 -2.44,5.15 -0.71,-2.81 -0.86,-4.56 2.44,-5.15z" fill="#323d4b"/>
  <path d="m43.57,77.01c3.09,1.87 6.87,1.91 10.3,1.18 0.46,1.46 0.93,2.93 1.55,4.33 3.65,1.21 7.09,1.41 8.6,5.52 -1.45,-0.79 -2.77,-1.79 -4.22,-2.58 -1.33,0.38 -3.17,1.97 -4.49,1.31 -0.91,-0.96 -1.33,-2.38 -1.94,-3.55 -0.22,0.74 -0.45,1.48 -0.68,2.21C48.9,84.92 45.07,85.21 41.3,84.7l-0.64,-1.79c0.78,-2.03 1.88,-3.99 2.91,-5.9z" fill="#8baccf"/>
  <path d="m84.79,79.07c-0.04,4.71 3.82,1.8 6.63,4.04 -3.04,1.45 -7.66,1.16 -9.63,-1.96 0.16,-1.07 -0.1,-2.15 -0.77,-3.23 2.5,-1.29 2.15,-0.69 3.77,1.15z" fill="#758b85"/>
  <path d="m87.1,76.97c2.3,0 4.6,0.04 6.91,0.11 2.36,0.75 4.76,1.34 7.13,2.06 -2.84,2.3 -5.56,3.42 -9.1,4.26l-0.62,-0.29c-2.81,-2.24 -6.67,0.67 -6.63,-4.04 0.77,-0.7 1.54,-1.4 2.31,-2.1z" fill="#2e564e"/>
  <path d="m141.04,77.74c1.76,3.69 2.57,7.73 4.24,11.47 0.42,5.5 1.9,12.89 -0.26,18 -0.99,0.57 -1.98,1.15 -2.95,1.75 -0.21,-6.01 0.54,-11.55 -1.32,-17.39 -0.89,0.02 -1.78,0.04 -2.67,0.07 0.63,-1.4 2.33,-2.93 1.8,-4.52 -0.74,-2.23 -1.86,-4.35 -2.91,-6.44l0.11,-0.67c1.47,-1.21 1.76,-2.89 3.96,-2.27z" fill="#53627b"/>
  <path d="m79.03,78.73c-0.12,2.15 0.79,2.56 2.76,2.42 1.97,3.12 6.59,3.41 9.63,1.96l0.62,0.29c2.35,1.56 2.54,0.97 4.89,-0.07 0.46,0.81 0.86,1.65 1.21,2.52 -0.78,1.04 -1.5,2.13 -2.28,3.18 -3.04,0.12 -5.95,-0.72 -8.95,-0.76 -1.55,0 -2.94,1.87 -3.95,2.86 -2.69,2.26 -3.13,0.62 -5.79,-0.66 3.01,-1.42 3.22,-1.98 3.72,-5.41 -1.95,0.07 -2.45,1.54 -3.8,2.65 -1.64,-1.2 -3.01,-0.95 -4.94,-1.01 -0.63,-2.57 1.79,-5.08 2.52,-7.57 0.43,1.9 0.3,3.55 1.96,4.85 -0.07,-1.68 -0.17,-3.34 0,-5.02 0.8,-0.09 1.6,-0.17 2.4,-0.23z" fill="#c9d0ce"/>
  <path d="m81.02,77.92c0.67,1.08 0.93,2.16 0.77,3.23 -1.97,0.14 -2.88,-0.27 -2.76,-2.42 0.66,-0.28 1.33,-0.55 1.99,-0.81z" fill="#90a39f"/>
  <path d="m147.82,77.98c2.27,3.55 5.11,3.91 9.01,4.36 0.59,2.09 -0.66,2.12 -2.01,3.18 -0.49,2.15 -1.14,4.24 -1.7,6.37 1.58,0.59 6.67,-1.94 4.19,1.31 -4.3,-0.2 -3.44,3.38 -6.56,5.55 -4.06,3.25 -3.34,7.85 -4.92,12.5 -0.48,-1.35 -0.73,-2.61 -0.81,-4.04 2.16,-5.11 0.68,-12.5 0.26,-18 1.04,-2.33 0.3,-4.33 0.14,-6.72 0.91,-0.47 1.83,-0.96 2.74,-1.45 -0.95,-0.73 -2.38,-1.18 -3.01,-2.21 0.89,-0.29 1.78,-0.58 2.67,-0.85z" fill="#35383d"/>
  <path d="m101.14,79.14c1.53,0.31 2.65,1.61 3.92,2.53 -2.41,1.24 -4.49,2.97 -6.92,4.18 -0.35,-0.87 -0.75,-1.71 -1.21,-2.52 -2.35,1.04 -2.54,1.63 -4.89,0.07 3.54,-0.84 6.26,-1.96 9.1,-4.26z" fill="#92abaa"/>
  <path d="m123.15,79.12c2.19,-0.35 3.98,0.46 6,1.12 -0.52,0.31 -1.04,0.63 -1.54,0.97 1.89,2.66 -0.66,4.89 2.47,5.75 2.13,0.99 3.57,0.13 5.54,-0.63 0.56,-1.85 0.88,-3.77 1.35,-5.65 1.05,2.09 2.17,4.21 2.91,6.44 0.53,1.59 -1.17,3.12 -1.8,4.52 0.89,-0.03 1.78,-0.05 2.67,-0.07 1.86,5.84 1.11,11.38 1.32,17.39l-0.98,1.17c-0.06,-2.46 0.09,-5.03 -0.35,-7.47 -1.8,-0.51 -3.61,-1.19 -5.46,-1.41 -2.45,3.48 -0.1,5.2 1.13,8.48 0.9,-0.82 1.68,-1.72 2.55,-2.57 0.71,1.16 0.92,2.43 1.19,3.75 -3.71,0.07 -7.44,0.23 -11.16,0.05 -2.55,0.03 -3.6,-2.54 -6.22,-2.48 1.15,-1.87 3.63,-2.13 4.16,-4.21 0.4,-0.91 0.81,-1.81 1.24,-2.7 1.91,0.88 3.37,1.84 4.85,-0.34 1.67,-1.59 3.07,-3.35 4.43,-5.21 1.71,-0.45 1.33,-1.11 1.56,-2.6 -1.21,0.17 -2.42,0.4 -3.64,0.56 1.16,-1.73 1.42,-1.77 0.45,-3.79 -1.1,0.76 -2.94,3.8 -1.77,5.04 -1,1.27 -3.02,5.8 -3.43,1.6 -1.45,-2.49 -1.14,2.92 -3.44,1.41 -0.37,-1.78 0.6,-6.88 -2.02,-7.08 -1.39,2.42 -1.57,5.37 -2.99,7.87 -0.92,1.6 -0.73,3.84 -3.01,3.85 -1.33,-0.63 -2.66,-1.24 -3.98,-1.89 -0.07,-1.01 -0.15,-2.02 -0.23,-3.03 -0.06,-1.26 -0.35,-2.4 -0.8,-3.57 3.34,-1.41 3.72,-4.8 6.21,-6.97 1.6,-0.79 3.68,0.22 3.09,-2.24 -0.03,-2.03 -0.35,-4.03 -0.3,-6.06z" fill="#93a9c5"/>
  <path d="m34.2,79.5c0.32,1.23 0.58,2.47 0.78,3.74 -1.29,-0.57 -2.42,-0.92 -3.18,-2.21 0.77,-0.54 1.58,-1.05 2.4,-1.53z" fill="#40424a"/>
  <path d="m105.06,81.67 l0.75,0.57c1.63,1.72 3.33,3.36 5.18,4.84 0.35,1.65 0.99,3.39 0.95,5.09 -0.69,0.87 -1.36,1.7 -1.84,2.71 0.74,1.1 1.55,2.14 2.31,3.23 -1.36,0.44 -2.73,0.81 -4.09,1.22 0.66,1.24 1.44,2.43 2.15,3.64 -0.13,1.13 -0.62,2.07 -1.08,3.09 0.65,1.17 1.51,2.21 2.24,3.32 -1.1,2.36 -3.66,3.08 -5.43,5.01 -1.47,0.01 -2.82,0.18 -4.19,-0.5 -1.49,-2.33 -2.83,-1.75 -5.3,-1.67 -1.56,-1.14 -2.48,-1.66 -2.87,-3.7 1.18,-0.67 2.37,-1.01 3.05,-2.28 -1.76,-0.48 -3.62,-2.38 -4.08,0.58 -2.82,-0.24 -5.29,-0.53 -7.97,-1.59 -1.81,-0.75 -3.43,1.64 -5.2,0.62 -1.06,-0.46 -2.05,-0.17 -3.23,-0.21 -0.19,-2.23 0.27,-4.34 0.68,-6.51 2.37,-0.1 4.74,-0.2 7.11,-0.31l0.76,0.39c1.39,0.73 2.79,1.43 4.19,2.14 2.81,1.69 3.12,-0.55 3.71,-2.75 -1.14,-0.39 -2.31,-0.78 -3.5,-1.03 -0.71,-0.18 -1.43,-0.36 -2.15,-0.52 -0.72,-0.3 -1.43,-0.59 -2.14,-0.89 -0.59,-1.09 -1.19,-2.19 -1.78,-3.28l-0.33,-1.75c1.01,-0.99 2.4,-2.86 3.95,-2.86 2.02,1.58 7.18,2.95 8.95,0.76 0.78,-1.05 1.5,-2.14 2.28,-3.18 2.43,-1.21 4.51,-2.94 6.92,-4.18z" fill="#2c584d"/>
  <path d="m40.66,82.91 l0.64,1.79c3.77,0.51 7.6,0.22 11.39,0.73 0.23,-0.73 0.46,-1.47 0.68,-2.21 0.61,1.17 1.03,2.59 1.94,3.55 1.32,0.66 3.16,-0.93 4.49,-1.31 1.45,0.79 2.77,1.79 4.22,2.58 1.69,1.17 4.09,1.94 5.17,3.71 -1.07,-0.18 -2.65,-1.13 -3.47,-0.02 -1.8,1.67 0.46,3.24 1.25,4.76 -1.71,0.12 -2.81,-1.04 -3.24,1.29 -0.78,1.98 -0.86,4.31 -1.12,6.43 -0.68,-1.62 -1.33,-3.25 -2.05,-4.85 -2.29,-0.9 -4.39,-0.42 -6.27,1.08 -0.91,-1.98 -2.49,-2.84 -1.22,-5.04 -1.47,-2.13 1.78,-4.39 2.75,-6.17 -4.91,0.1 -8.84,-2.42 -13.65,-2.86 -0.17,1.84 -0.18,3.7 -0.35,5.55 -1.27,-1.45 -0.87,-4.43 -2.08,-6.25 0.27,-0.94 0.58,-1.86 0.92,-2.76z" fill="#81a5c9"/>
  <path d="m29.29,86.34c2.7,-1.3 1.3,2.15 1.59,3.63 -1.06,-0.84 -4.28,-2.69 -1.59,-3.63z" fill="#4b4f50"/>
  <path d="m39.74,85.67c1.21,1.82 0.81,4.8 2.08,6.25 0.17,-1.85 0.18,-3.71 0.35,-5.55 4.81,0.44 8.74,2.96 13.65,2.86 -0.97,1.78 -4.22,4.04 -2.75,6.17 -1.27,2.2 0.31,3.06 1.22,5.04 1.88,-1.5 3.98,-1.98 6.27,-1.08 0.72,1.6 1.37,3.23 2.05,4.85 0.38,1.3 0.78,2.6 1.3,3.86 0.62,1.53 1.05,3.1 1.42,4.7 -4.23,0.01 -2.38,2.7 -4.3,5.4 -0.32,-3.72 -1.52,-5.87 -5.57,-6.2 0.17,1.62 0.41,3.23 0.52,4.85 -1,-1 -1.89,-2.04 -3,-2.94 -1.91,0.83 -1.43,2.14 -1.74,3.82 -1.1,2 -2.44,3.91 -3.72,5.8 -1.86,0.56 -3.79,0.89 -5.66,1.47 -2.22,-4.46 -3.17,-9.29 -4.99,-13.88 0.17,-5.43 0.27,-10.85 -0.1,-16.28 1.02,-3.04 1.81,-6.14 2.97,-9.14z" fill="#7c9ec7"/>
  <path d="m86.91,88.27c3,0.04 5.91,0.88 8.95,0.76 -1.77,2.19 -6.93,0.82 -8.95,-0.76z" fill="#8aa59c"/>
  <path d="m0,89.52c1.37,2.64 1.59,6.14 0,8.74z" fill="#080808"/>
  <path d="m135.82,90.19c0.97,2.02 0.71,2.06 -0.45,3.79 1.22,-0.16 2.43,-0.39 3.64,-0.56 -0.23,1.49 0.15,2.15 -1.56,2.6 -1.07,-0.47 -2.21,-0.73 -3.4,-0.79 -1.17,-1.24 0.67,-4.28 1.77,-5.04z" fill="#a3b7d1"/>
  <path d="m69.19,91.75c2.05,2.45 3.85,4.9 6.69,6.51l1.21,0.87c-0.41,2.17 -0.87,4.28 -0.68,6.51 1.18,0.04 2.17,-0.25 3.23,0.21 -0.27,1.35 -0.85,1.97 0.64,2.8 1.35,0.74 3.08,-1.95 4.62,-1.47 2.51,0.81 5.17,2.37 7.8,2.66l0.58,-2.07 0.56,0.75c0.39,2.04 1.31,2.56 2.87,3.7 0.8,1.27 1.9,2.04 3.13,2.85 0.16,2.29 -0.14,4.46 -1.3,6.47 -0.91,1.2 -2.14,1.74 -2.3,3.34 0.24,4.44 -4.87,3.78 -7.96,4.2 -1.6,-1.65 -3.24,-1.35 -5.29,-0.91L81.2,127.9c-3.38,-1.89 -6.6,-3.92 -9.84,-6.03l-0.51,-0.57c0.52,-1.41 0.94,-2.82 1.23,-4.3 1.36,-0.52 2.39,0.1 3.72,0.32 1.68,-0.16 3.36,-0.63 5.03,-0.88 3.29,2.91 2.81,6.78 7.94,7.25 0.24,-0.81 0.46,-1.63 0.67,-2.46 1.08,-3.24 0.2,-3.32 -2.52,-4.75 -3.8,-2.17 -7.72,-2.31 -11.78,-3.72 -1.51,-0.47 -3.05,-0.71 -4.58,-1.07 0.03,-0.87 0.07,-1.73 0.1,-2.6 -0.95,0.04 -1.6,0.62 -1.96,1.76 -0.75,1.17 -1.58,2.28 -2.47,3.35l-0.9,-1.43c-0.37,-1.6 -0.8,-3.17 -1.42,-4.7 0.1,-3.44 0.12,-6.86 -0.18,-10.29 0.43,-2.33 1.53,-1.17 3.24,-1.29 -0.79,-1.52 -3.05,-3.09 -1.25,-4.76 0.82,-1.11 2.4,-0.16 3.47,0.02z" fill="#325e55"/>
  <path d="m125.16,91.16c2.62,0.2 1.65,5.3 2.02,7.08 -0.41,0.54 -0.82,1.07 -1.23,1.6 -0.01,-0.89 -0.04,-1.77 -0.09,-2.66 -1.28,0.52 -2.5,1.16 -3.69,1.85 1.42,-2.5 1.6,-5.45 2.99,-7.87z" fill="#b2c2d9"/>
  <path d="m111.94,92.17c0.31,1.02 1.05,1.76 2.21,2.22 0.45,1.17 0.74,2.31 0.8,3.57 -0.85,0.05 -1.7,0.1 -2.54,0.15 -0.76,-1.09 -1.57,-2.13 -2.31,-3.23 0.48,-1.01 1.15,-1.84 1.84,-2.71z" fill="#738d8c"/>
  <path d="m83.29,92.88c0.59,1.09 1.19,2.19 1.78,3.28 -1.68,0.36 -3.21,0.07 -4.86,-0.27 1.01,-1.02 2.08,-1.98 3.08,-3.01z" fill="#bfc7c6"/>
  <path d="m36.77,94.81c0.37,5.43 0.27,10.85 0.1,16.28 -1.19,-2.33 -0.83,-4.57 -0.92,-7.09 0.09,-3 -0.32,-6.41 0.82,-9.19z" fill="#476180"/>
  <path d="m134.05,95.23c1.19,0.06 2.33,0.32 3.4,0.79 -1.36,1.86 -2.76,3.62 -4.43,5.21 -4.11,-0.22 -2.96,-1.25 -2.4,-4.4 0.41,4.2 2.43,-0.33 3.43,-1.6z" fill="#b5c8de"/>
  <path d="m130.62,96.83c-0.56,3.15 -1.71,4.18 2.4,4.4 -1.48,2.18 -2.94,1.22 -4.85,0.34 -0.43,0.89 -0.84,1.79 -1.24,2.7 -1.68,-1.92 -2.64,-1.91 -0.98,-4.43 0.41,-0.53 0.82,-1.06 1.23,-1.6 2.3,1.51 1.99,-3.9 3.44,-1.41z" fill="#a5b8c7"/>
  <path d="m179,95.9v18.54l-0.89,-0.53c0.32,-5.63 -1.25,-12.83 0.89,-18.01z" fill="#111315"/>
  <path d="m84.2,98.82c-2.37,0.11 -4.74,0.21 -7.11,0.31l-1.21,-0.87c3.33,-0.43 5.4,-1.86 8.32,0.56z" fill="#b5c9c4"/>
  <path d="m87.21,97.05c0.72,0.16 1.44,0.34 2.15,0.52 0.16,1.37 0.4,2.48 -0.21,3.78 -1.4,-0.71 -2.8,-1.41 -4.19,-2.14 0.76,-0.71 1.51,-1.43 2.25,-2.16z" fill="#a8c1bb"/>
  <path d="m92.86,98.6c-0.59,2.2 -0.9,4.44 -3.71,2.75 0.61,-1.3 0.37,-2.41 0.21,-3.78 1.19,0.25 2.36,0.64 3.5,1.03z" fill="#85a59c"/>
  <path d="m125.86,97.18c0.05,0.89 0.08,1.77 0.09,2.66 -1.66,2.52 -0.7,2.51 0.98,4.43 -0.53,2.08 -3.01,2.34 -4.16,4.21 -0.89,1.5 0.09,3.93 0.06,5.63 -1.9,0.76 -3.62,1.77 -5.36,2.84 0.1,-0.96 0.18,-1.92 0.25,-2.88 -2.14,-0.05 -3.47,2.38 -4.67,3.85 -0.99,1.31 -2.01,2.6 -3.01,3.9 -0.96,1.15 -1.87,2.31 -3.02,3.28 -3.36,0.52 -7.08,-0.52 -10.17,0.9l-0.61,-1.12c0.16,-1.6 1.39,-2.14 2.3,-3.34 1.16,-2.01 1.46,-4.18 1.3,-6.47 0.71,-0.4 1.44,-0.8 2.17,-1.18 0,1.29 0.04,2.58 0.1,3.86 1.64,-0.94 2.87,-1.92 4.09,-3.36 1.77,-1.93 4.33,-2.65 5.43,-5.01l0.46,-0.58c1.13,-1.29 1.69,-2.82 2.46,-4.33 1.41,-0.78 3.06,-1.17 4.61,-1.59 2.28,-0.01 2.09,-2.25 3.01,-3.85 1.19,-0.69 2.41,-1.33 3.69,-1.85z" fill="#cad2d4"/>
  <path d="m2.21,97.98c0.66,1.07 0.82,2.44 1.19,3.66 0.79,0.61 1.87,-1.08 2.61,-1.4 3.15,2.54 6.41,4.08 8.67,7.57 -1.03,0.3 -2.99,-0.03 -3.61,0.93 1.42,0.2 2.85,0.28 4.26,0.54 -0.41,2.99 4.83,1.31 5.51,-0.43 1.76,-2.7 4.32,-1.82 7.08,-1.68 -0.2,3.21 -1.59,6.34 -2.32,9.47 -1.71,0.82 -5.47,-0.56 -4.06,2.37 0.24,1 0.49,1.99 0.75,2.98 1.12,2.99 -0.43,3.79 -2.04,6 2.68,2.31 6.36,-0.28 9.65,0.11 -0.82,2.51 -2.9,3.48 -1.54,6.56 0.82,2.61 1.95,-1.15 3.54,-0.39 2.41,0.84 5.52,0.92 6.9,3.24 -1.91,0.84 -4.57,1.67 -5.56,3.68 -1.27,3.32 -5.25,3.52 -7.34,6.18 2.96,-0.37 3.93,1.14 6.18,2.61 1.66,-0.43 3.5,-1.12 4.96,-2.04 0.75,-1.37 0.85,-2.97 1.2,-4.53 1.99,1.18 4.15,3.1 6.47,3.45 0.71,-1.81 -0.05,-5.71 2.29,-6.25 5.44,5.11 10.06,11.22 17.97,12.5 4.3,0.75 6.59,4.5 10.99,5.23 2.43,0.86 4.8,0.66 7.33,0.62l-0.37,0.94c-1.53,0.07 -3.11,0.11 -4.63,0.33 -0.46,3.4 -0.82,6.78 -1.57,10.13 -3.81,-0.22 -6.11,1.6 -9.45,2.7 0.44,-0.93 0.93,-1.83 1.36,-2.76 -1.3,-0.31 -2.7,-0.48 -3.95,-0.97 -1.11,-3.23 -1.62,-6.69 -3.14,-9.86 -1.75,-1.22 -3.64,-2.29 -5.53,-3.28 -0.2,2.25 0.69,3.74 1.6,5.66 -0.75,1.19 -1.68,2.15 -2.56,3.24 1.01,0.68 2.08,1.26 3.09,1.94 -0.73,0.86 -1.5,1.69 -2.31,2.48 -5.4,-1.69 -9.78,-4.67 -14.1,-8.23 -6.55,-5.26 -14.01,-8.64 -21.89,-11.33 1.74,-0.56 3.32,-0.42 5.12,-0.3 -0.28,-2.28 -2.94,-2.73 -3.36,-4.9 -0.41,-2.24 -0.58,-4.53 -0.95,-6.77 -1.55,2.67 -1.26,5.11 -1.11,8.02 -2.84,-0.19 -3.04,-4.22 -4.31,-6.22 -2.06,-0.86 -4.18,-1.53 -6.21,-2.45 0.33,3.65 0.61,7.23 1.96,10.67 -2.88,-0.05 -5.87,0.22 -8.7,-0.24 -2.32,-1.65 -0.99,-6.92 -1.12,-9.49 2.63,-1.8 3.79,-4.71 6.75,-6.21 -0.87,-1.1 -1.79,-2.03 -2.5,-3.24 0.31,-1.96 0.94,-3.89 1.31,-5.84 -0.35,-2 -3.55,-2.76 -1.57,-4.79 0.98,-2.16 4.73,-2.27 3.69,-4.89 -2.89,-0.28 -5.18,-0.4 -7.7,-1.98 -0.12,0.91 -0.22,1.83 -0.3,2.75L0,113.52v-5.8c0.6,0.75 1.21,1.49 1.85,2.21 0.31,-3.99 -0.06,-7.99 0.36,-11.95z" fill="#2d2f31"/>
  <path d="m63.73,97.78c0.3,3.43 0.28,6.85 0.18,10.29 -0.52,-1.26 -0.92,-2.56 -1.3,-3.86 0.26,-2.12 0.34,-4.45 1.12,-6.43z" fill="#557e8f"/>
  <path d="m112.41,98.11c0.84,-0.05 1.69,-0.1 2.54,-0.15 0.08,1.01 0.16,2.02 0.23,3.03 -1.26,0.45 -2.34,0.98 -3.41,1.8l-1.3,0.18c-0.71,-1.21 -1.49,-2.4 -2.15,-3.64 1.36,-0.41 2.73,-0.78 4.09,-1.22z" fill="#9ab1af"/>
  <path d="m30.51,100.42 l1.13,-0.66c0.46,2.15 1.74,4.38 1.65,6.59 -0.29,3.49 1.19,7.07 1.82,10.56 -0.75,-0.92 -1.71,-1.81 -1.95,-3.03 -1.03,-4.43 -2.01,-8.95 -2.65,-13.46z" fill="#363f4f"/>
  <path d="m115.18,100.99c1.32,0.65 2.65,1.26 3.98,1.89 -1.55,0.42 -3.2,0.81 -4.61,1.59 -0.77,1.51 -1.33,3.04 -2.46,4.33 -0.06,-2.01 -0.18,-4.01 -0.32,-6.01 1.07,-0.82 2.15,-1.35 3.41,-1.8z" fill="#bcc6ca"/>
  <path d="m135.28,101.25c1.85,0.22 3.66,0.9 5.46,1.41 0.44,2.44 0.29,5.01 0.35,7.47l-0.06,0.92 -0.88,-0.14c-0.27,-1.32 -0.48,-2.59 -1.19,-3.75 -0.87,0.85 -1.65,1.75 -2.55,2.57 -1.23,-3.28 -3.58,-5 -1.13,-8.48z" fill="#9cb0ce"/>
  <path d="m110.47,102.97 l1.3,-0.18c0.14,2 0.26,4 0.32,6.01l-0.46,0.58c-0.73,-1.11 -1.59,-2.15 -2.24,-3.32 0.46,-1.02 0.95,-1.96 1.08,-3.09z" fill="#759088"/>
  <path d="m84.84,105.23c2.68,1.06 5.15,1.35 7.97,1.59l0.47,0.95 -0.58,2.07c-2.63,-0.29 -5.29,-1.85 -7.8,-2.66 -1.54,-0.48 -3.27,2.21 -4.62,1.47 -1.49,-0.83 -0.91,-1.45 -0.64,-2.8 1.77,1.02 3.39,-1.37 5.2,-0.62z" fill="#90b3aa"/>
  <path d="m96.89,106.24c-0.68,1.27 -1.87,1.61 -3.05,2.28l-0.56,-0.75 -0.47,-0.95c0.46,-2.96 2.32,-1.06 4.08,-0.58z" fill="#75988e"/>
  <path d="m145.02,107.21c0.08,1.43 0.33,2.69 0.81,4.04 -0.62,5.66 -2.65,11.65 -5.11,16.78 -1.08,1.83 -2,3.77 -3.17,5.54 -1.74,1.8 -3.54,2.37 -3.81,5.18 -2.55,2.97 -5.26,5.72 -8.41,8.06 -0.21,-0.86 -0.41,-1.71 -0.62,-2.57 -3.98,4.02 -8.28,8.76 -13.48,11.13 -1.14,-0.87 -2.26,-1.76 -3.41,-2.61 1.64,-0.32 2.94,-0.1 4.1,-1.54 0.98,-0.72 2.01,-1.35 3.04,-1.99 2.06,-1.22 4.08,-2.49 5.98,-3.95 6.64,-5.09 12.38,-11.08 15.37,-19.05 0.7,-1.35 1.38,-2.7 2,-4.08 0.3,-0.64 0.59,-1.28 0.88,-1.92 4.08,0 3.02,-3.11 1.8,-5.7 0.01,-1.16 0.02,-2.32 0.04,-3.48l0.06,-0.92 0.98,-1.17c0.97,-0.6 1.96,-1.18 2.95,-1.75z" fill="#546072"/>
  <path d="m128.99,110.96c3.72,0.18 7.45,0.02 11.16,-0.05l0.88,0.14c-0.02,1.16 -0.03,2.32 -0.04,3.48 -0.74,1.86 -1.26,3.78 -1.8,5.7 -0.29,0.64 -0.58,1.28 -0.88,1.92 -0.17,-1.05 -0.37,-2.1 -0.59,-3.13 -1.67,1.2 -2.14,2.93 -2.88,4.75l-0.62,0.3c-0.14,-3.83 -2.36,-0.47 -3.07,1 -0.39,0.9 -0.77,1.8 -1.16,2.7l-1,0.08c0.03,-1.67 1.64,-4.47 0.14,-5.7 -1.42,-1.82 -2.84,-3.64 -4.27,-5.45 2.14,-1.08 3.91,-0.16 6.13,0.04 -1.76,-2.54 -5.39,-2.39 -8.16,-2.63 0.03,-1.7 -0.95,-4.13 -0.06,-5.63 2.62,-0.06 3.67,2.51 6.22,2.48z" fill="#859fc0"/>
  <path d="m70.66,109.09c-0.03,0.87 -0.07,1.73 -0.1,2.6 1.53,0.36 3.07,0.6 4.58,1.07 -2.1,0.13 -4.14,0.38 -6.13,1.12 -0.12,-1.01 -0.22,-2.02 -0.31,-3.03 0.36,-1.14 1.01,-1.72 1.96,-1.76z" fill="#7c998e"/>
  <path d="m1.14,111.32c2.52,1.58 4.81,1.7 7.7,1.98 1.04,2.62 -2.71,2.73 -3.69,4.89 -1.98,2.03 1.22,2.79 1.57,4.79 -0.37,1.95 -1,3.88 -1.31,5.84 0.71,1.21 1.63,2.14 2.5,3.24 -2.96,1.5 -4.12,4.41 -6.75,6.21L0.91,136.13C1,128.79 1.14,121.41 0.84,114.07c0.08,-0.92 0.18,-1.84 0.3,-2.75z" fill="#353638"/>
  <path d="m68.7,110.85c0.09,1.01 0.19,2.02 0.31,3.03 -0.07,2.34 1.44,2.17 3.07,3.12 -0.29,1.48 -0.71,2.89 -1.23,4.3 -2.28,-1.96 -3.2,-4.55 -4.62,-7.1 0.89,-1.07 1.72,-2.18 2.47,-3.35z" fill="#436568"/>
  <path d="m55.46,111.97c4.05,0.33 5.25,2.48 5.57,6.2 -1.34,2.52 -0.38,1.43 1.67,1.82 0.72,0.58 1.42,1.17 2.11,1.79 -0.94,0.73 -1.91,1.39 -2.88,2.07 -3.42,0.1 -6.45,-2.39 -9.22,-0.49 -1,1.47 -0.78,4.15 -2.98,4.2 -2.7,1.27 -4.08,-0.84 -6.96,-0.42 -0.31,-0.71 -0.62,-1.44 -0.91,-2.17 1.87,-0.58 3.8,-0.91 5.66,-1.47 1.28,-1.89 2.62,-3.8 3.72,-5.8 0.31,-1.68 -0.17,-2.99 1.74,-3.82 1.11,0.9 2,1.94 3,2.94 -0.11,-1.62 -0.35,-3.23 -0.52,-4.85z" fill="#7594bc"/>
  <path d="m96.71,112.22c2.47,-0.08 3.81,-0.66 5.3,1.67 -0.73,0.38 -1.46,0.78 -2.17,1.18 -1.23,-0.81 -2.33,-1.58 -3.13,-2.85z" fill="#67978a"/>
  <path d="m65.33,112.77c-0.68,2.49 -1.86,4.77 -2.63,7.22 -2.05,-0.39 -3.01,0.7 -1.67,-1.82 1.92,-2.7 0.07,-5.39 4.3,-5.4z" fill="#90add2"/>
  <path d="m65.33,112.77 l0.9,1.43c1.42,2.55 2.34,5.14 4.62,7.1l0.51,0.57c-2.49,1.23 -2.39,0.94 -4.47,-0.57 0.37,1.33 0.87,2.61 1.28,3.92 -0.55,1.75 -0.99,3.39 -1.2,5.22 -4.08,-0.44 -2.52,-3.9 -5.04,-6.59 0.97,-0.68 1.94,-1.34 2.88,-2.07 -0.69,-0.62 -1.39,-1.21 -2.11,-1.79 0.77,-2.45 1.95,-4.73 2.63,-7.22z" fill="#829bbd"/>
  <path d="m75.14,112.76c4.06,1.41 7.98,1.55 11.78,3.72 -0.61,1.69 1.81,3.34 2.52,4.75 -0.21,0.83 -0.43,1.65 -0.67,2.46 -5.13,-0.47 -4.65,-4.34 -7.94,-7.25 -1.67,0.25 -3.35,0.72 -5.03,0.88 -1.33,-0.22 -2.36,-0.84 -3.72,-0.32 -1.63,-0.95 -3.14,-0.78 -3.07,-3.12 1.99,-0.74 4.03,-0.99 6.13,-1.12z" fill="#adc1bc"/>
  <path d="m0,113.52 l0.84,0.55c0.3,7.34 0.16,14.72 0.07,22.06L0,135.55Z" fill="#141414"/>
  <path d="m102.01,113.89c1.37,0.68 2.72,0.51 4.19,0.5 -1.22,1.44 -2.45,2.42 -4.09,3.36 -0.06,-1.28 -0.1,-2.57 -0.1,-3.86z" fill="#81928c"/>
  <path d="m117.72,114.07c-0.07,0.96 -0.15,1.92 -0.25,2.88 1.74,-1.07 3.46,-2.08 5.36,-2.84 2.77,0.24 6.4,0.09 8.16,2.63 -2.22,-0.2 -3.99,-1.12 -6.13,-0.04 -2.11,0.75 -2.54,1.4 -4.51,0 -1.89,3.13 -4.25,1 -7.3,1.22 1.2,-1.47 2.53,-3.9 4.67,-3.85z" fill="#acbdd6"/>
  <path d="m140.99,114.53c1.22,2.59 2.28,5.7 -1.8,5.7 0.54,-1.92 1.06,-3.84 1.8,-5.7z" fill="#57698b"/>
  <path d="m120.35,116.7c1.97,1.4 2.4,0.75 4.51,0 1.43,1.81 2.85,3.63 4.27,5.45 -0.71,1.97 -1.15,3.81 -3.04,5 -1.23,-1.71 -1.7,-3.41 -3.94,-4.03 -1.15,1.61 -1.7,3.69 -2.02,5.62 2.99,0.03 5.9,-0.48 8.86,-0.89l1,-0.08c4.15,2.09 -0.87,4.61 -2.64,6.23 -0.95,-3.15 -2.1,-1.08 -4.09,-0.54 -1.38,-0.75 -2.71,-1.6 -4.06,-2.41l-0.75,-1.2c-0.68,-2.67 -1.32,-2.44 -3.58,-3.47 -1.49,-1.69 -3.04,-3.18 -4.83,-4.56 1,-1.3 2.02,-2.59 3.01,-3.9 3.05,-0.22 5.41,1.91 7.3,-1.22z" fill="#7f97be"/>
  <path d="m86.92,116.48c2.72,1.43 3.6,1.51 2.52,4.75 -0.71,-1.41 -3.13,-3.06 -2.52,-4.75z" fill="#79958f"/>
  <path d="m25.87,118.13c0.12,1.25 0.12,2.47 -0.02,3.66 -1.18,0.12 -2.37,0.18 -3.56,0.2 -0.26,-0.99 -0.51,-1.98 -0.75,-2.98 1.52,-1.03 2.54,-1.1 4.33,-0.88z" fill="#4f4f51"/>
  <path d="m137.72,119.02c0.22,1.03 0.42,2.08 0.59,3.13 -0.62,1.38 -1.3,2.73 -2,4.08 -0.49,-0.82 -0.98,-1.64 -1.47,-2.46 0.74,-1.82 1.21,-3.55 2.88,-4.75z" fill="#a1b2d5"/>
  <path d="m66.89,121.3c2.08,1.51 1.98,1.8 4.47,0.57 0.03,1.23 -0.02,2.47 0.08,3.7 3.24,1.53 6.06,2.76 9.76,2.33l1.79,0.27c0.58,0.66 1.19,1.29 1.84,1.9 -0.15,2.04 -0.63,3.99 -1.01,5.99 -0.56,-0.92 -1.11,-1.85 -1.64,-2.79 0.3,-1.07 1.57,-2.84 -0.13,-3.33 -3.6,-1.44 -7.44,-0.67 -11.05,-2.65 -0.88,4.08 5.49,3.21 7.99,3.99 -0.73,0.56 -1.46,1.13 -2.18,1.71 -3.27,-0.88 -6.59,-1.61 -9.84,-2.55 0.21,-1.83 0.65,-3.47 1.2,-5.22 -0.41,-1.31 -0.91,-2.59 -1.28,-3.92z" fill="#abc0db"/>
  <path d="m61.93,123.85c2.52,2.69 0.96,6.15 5.04,6.59 3.25,0.94 6.57,1.67 9.84,2.55 1.84,3.48 0.36,6.21 0.42,9.81 -0.84,1.68 -1.95,2.9 -1.84,4.88 1.4,0.5 2.83,0.94 4.24,1.38 2.28,3.63 7.76,-0.58 11.32,-0.21 0.75,0.33 1.51,0.68 2.26,1.02 0.45,1.66 0.72,3.34 0.92,5.05 -3.72,0.05 -7.44,0.07 -11.16,0.27 -1.57,-2.82 -5.91,-2.71 -8.48,-4.64 -0.39,-3.66 -2.61,-5.67 -4.54,-8.56 -2.84,-1.17 -5.98,-1.43 -8.85,-2.66 -1.76,1.46 -0.42,3.58 -0.34,5.47 -1.3,-0.13 -2.6,-0.38 -3.9,-0.59 -2.72,-2.43 -5.18,-5.14 -7.9,-7.58 -2.38,-3.24 -4.88,-5.81 -6.19,-9.49 2.88,-0.42 4.26,1.69 6.96,0.42 2.2,-0.05 1.98,-2.73 2.98,-4.2 2.77,-1.9 5.8,0.59 9.22,0.49z" fill="#6d89b6"/>
  <path d="m71.36,121.87c3.24,2.11 6.46,4.14 9.84,6.03 -3.7,0.43 -6.52,-0.8 -9.76,-2.33 -0.1,-1.23 -0.05,-2.47 -0.08,-3.7z" fill="#7894a9"/>
  <path d="m110.04,121.82c1.79,1.38 3.34,2.87 4.83,4.56 2.26,1.03 2.9,0.8 3.58,3.47 -0.61,1.47 -0.21,2.8 -2.1,3.11 -4.1,-1.42 -8.78,-2.13 -13.13,-1.94 0.61,0.71 1.2,1.42 1.8,2.14 -0.81,0.8 -1.79,1.27 -2.83,1.7 -0.71,-1.2 -1.25,-2.47 -1.88,-3.72 -0.2,0.9 -0.41,1.79 -0.63,2.69 -0.91,-0.84 -1.72,-1.76 -2.61,-2.62 -0.9,2.3 -0.6,4.55 -3.01,5.97 -1.65,-2.8 -1.36,-3.39 -4.97,-3.14 2.87,1.32 2.86,2.87 3.78,5.59 -1.06,0.42 -1.7,1.12 -1.92,2.12 -0.4,1.08 -0.79,2.17 -1.17,3.26 -1.45,0.04 -3.8,1.96 -3.7,-0.59 1.21,-1.18 2.91,-0.86 0.85,-2.46 0.27,-1.63 0.64,-3.23 0.87,-4.86 -0.99,0.25 -1.97,0.54 -2.94,0.88 -0.34,-0.65 -0.69,-1.28 -1.04,-1.92 0.38,-2 0.86,-3.95 1.01,-5.99 1.13,-0.43 2.29,-0.67 3.45,-0.99 3.09,-0.42 8.2,0.24 7.96,-4.2l0.61,1.12c0.13,0.95 0.27,1.91 0.43,2.85 2.05,-0.29 3.64,-1.89 5.5,-0.69 1.73,1.14 3.44,-0.14 5.15,-0.72 -0.89,-0.24 -1.79,-0.48 -2.69,-0.72 0.59,-0.55 1.18,-1.09 1.78,-1.62 1.15,-0.97 2.06,-2.13 3.02,-3.28z" fill="#748fb8"/>
  <path d="m129.13,122.15c1.5,1.23 -0.11,4.03 -0.14,5.7 -2.96,0.41 -5.87,0.92 -8.86,0.89 0.32,-1.93 0.87,-4.01 2.02,-5.62 2.24,0.62 2.71,2.32 3.94,4.03 1.89,-1.19 2.33,-3.03 3.04,-5z" fill="#adc0db"/>
  <path d="m134.22,124.07c-0.16,0.89 -0.34,1.77 -0.55,2.64 -0.88,0.94 -1.83,-1.16 -2.52,-1.64 0.71,-1.47 2.93,-4.83 3.07,-1z" fill="#9db1ca"/>
  <path d="m134.22,124.07 l0.62,-0.3c0.49,0.82 0.98,1.64 1.47,2.46 -2.99,7.97 -8.73,13.96 -15.37,19.05 -1.08,-0.43 -1.84,-1.19 -2.29,-2.29 2.77,-3.06 5.99,-5.79 8.7,-8.99 1.77,-1.62 6.79,-4.14 2.64,-6.23 0.39,-0.9 0.77,-1.8 1.16,-2.7 0.69,0.48 1.64,2.58 2.52,1.64 0.21,-0.87 0.39,-1.75 0.55,-2.64z" fill="#b2c2d4"/>
  <path d="m107.02,125.1c-0.6,0.53 -1.19,1.07 -1.78,1.62 0.9,0.24 1.8,0.48 2.69,0.72 -1.71,0.58 -3.42,1.86 -5.15,0.72 -1.86,-1.2 -3.45,0.4 -5.5,0.69 -0.16,-0.94 -0.3,-1.9 -0.43,-2.85 3.09,-1.42 6.81,-0.38 10.17,-0.9z" fill="#9db1c3"/>
  <path d="m162.81,125.35c0.11,0.85 0.2,1.7 0.28,2.54 -1.78,-0.26 -4.23,0.33 -2.52,2.48 1.7,1.43 2.61,-1.11 2.52,-2.48 3.33,-0.03 0.27,2.46 -0.26,3.98 -1.03,0.35 -1.7,1.1 -2.01,2.25 -2.35,-2.93 -2.72,-3.92 -1.9,-7.61 1.3,-0.36 2.59,-0.8 3.89,-1.16z" fill="#484a4c"/>
  <path d="m14.3,127.46c1.62,-0.99 0.35,4.71 -2.15,3.39 -0.36,-1.72 0.95,-2.51 2.15,-3.39z" fill="#494b4d"/>
  <path d="m71,127.29c3.61,1.98 7.45,1.21 11.05,2.65 1.7,0.49 0.43,2.26 0.13,3.33 -1,-0.66 -2,-1.72 -3.19,-1.99 -2.5,-0.78 -8.87,0.09 -7.99,-3.99z" fill="#8497b3"/>
  <path d="m82.99,128.17c2.05,-0.44 3.69,-0.74 5.29,0.91 -1.16,0.32 -2.32,0.56 -3.45,0.99 -0.65,-0.61 -1.26,-1.24 -1.84,-1.9z" fill="#5a7f90"/>
  <path d="m140.72,128.03c0.7,1.75 1.21,3.07 3.2,3.54l1.77,0.68c-1.51,1.84 -2.64,3.66 -3.76,5.76 -3.45,1.02 -5.09,4.13 -8.19,0.74 0.27,-2.81 2.07,-3.38 3.81,-5.18 1.17,-1.77 2.09,-3.71 3.17,-5.54z" fill="#33393f"/>
  <path d="m163.09,127.89c0.09,1.37 -0.82,3.91 -2.52,2.48 -1.71,-2.15 0.74,-2.74 2.52,-2.48z" fill="#626465"/>
  <path d="m118.45,129.85 l0.75,1.2c-0.36,1.77 0.15,3.48 -1.62,4.52 -2.17,1.45 -3.23,3.59 -4.68,5.66 0.01,-3.88 0.87,-5.51 3.45,-8.27 1.89,-0.31 1.49,-1.64 2.1,-3.11z" fill="#99b5d1"/>
  <path d="m78.99,131.28c1.19,0.27 2.19,1.33 3.19,1.99 0.53,0.94 1.08,1.87 1.64,2.79 0.35,0.64 0.7,1.27 1.04,1.92 0.31,1.98 0.33,2.81 2.07,3.98 2.06,1.6 0.36,1.28 -0.85,2.46 -2.19,1.77 -4.11,1.85 -6.84,1.5 -0.97,-0.59 -1.29,-2.22 -2.01,-3.12 -0.06,-3.6 1.42,-6.33 -0.42,-9.81 0.72,-0.58 1.45,-1.15 2.18,-1.71z" fill="#c8d1dc"/>
  <path d="m97.07,131.21c0.89,0.86 1.7,1.78 2.61,2.62 0.22,-0.9 0.43,-1.79 0.63,-2.69 0.63,1.25 1.17,2.52 1.88,3.72 1.04,-0.43 2.02,-0.9 2.83,-1.7 -0.6,-0.72 -1.19,-1.43 -1.8,-2.14 4.35,-0.19 9.03,0.52 13.13,1.94 -2.58,2.76 -3.44,4.39 -3.45,8.27 -1.17,-0.6 -2.31,-0.7 -2.79,-2.07 0.57,-0.91 1.47,-1.77 1.77,-2.8 -1.32,-0.07 -2.64,-0.08 -3.96,-0.13 -3.82,-0.06 -7.97,1.71 -11.03,3.94 -1.33,-0.2 -2.67,-0.38 -4.02,-0.54 -0.92,-2.72 -0.91,-4.27 -3.78,-5.59 3.61,-0.25 3.32,0.34 4.97,3.14 2.41,-1.42 2.11,-3.67 3.01,-5.97z" fill="#6d87ad"/>
  <path d="m119.2,131.05c1.35,0.81 2.68,1.66 4.06,2.41 1.99,-0.54 3.14,-2.61 4.09,0.54 -2.71,3.2 -5.93,5.93 -8.7,8.99 -0.49,0.87 -3.34,4.99 -3.16,1.75 0.4,-1.2 -2.31,0.05 -2.84,-0.07 -0.05,-0.96 -0.09,-1.92 -0.11,-2.88l0.36,-0.56c1.45,-2.07 2.51,-4.21 4.68,-5.66 1.77,-1.04 1.26,-2.75 1.62,-4.52z" fill="#6c86ad"/>
  <path d="m151.73,131.6c0.02,1.55 0.59,3.47 -0.1,4.91 -1.08,2.38 3.84,5.79 1.99,8 -0.97,1.53 1.02,1.27 1.91,1.78 -2.25,2.3 0.06,2.24 -0.23,4.71 -3.57,1.35 -6.8,3.27 -10.12,5.11 -2.54,-1.78 -1.47,-1.6 -0.51,-3.91 -1.06,0.15 -2.13,0.38 -3.2,0.46 -0.21,-2.44 -3.82,-4.6 0.14,-5.13 1.32,-3.32 0.49,-6.11 0.32,-9.52 1.12,-2.1 2.25,-3.92 3.76,-5.76l-1.77,-0.68c2.62,-0.59 5.11,0.11 7.81,0.03z" fill="#28292a"/>
  <path d="m162.83,131.87c0.63,0.69 3.63,1.04 2.14,2.17 -2,1.57 2.8,1.62 2.94,3.15 1.47,2.57 -0.44,4.78 -1.22,7.32 -1.47,-0.14 -2.94,-0.41 -4.41,-0.67 0.48,-0.55 0.96,-1.1 1.44,-1.65 -2.53,-0.56 -4.63,0.65 -5.41,-2.53 -1.32,-2.39 2.07,-3.21 2.51,-5.54 0.31,-1.15 0.98,-1.9 2.01,-2.25z" fill="#353738"/>
  <path d="m107.92,136.23c0.2,1.92 2.35,3.53 -0.84,3.37 -0.24,1.81 1.02,2.86 1.89,4.31 -1.45,1.03 -2.96,1.95 -4.32,3.1 -0.84,-0.96 -1.66,-1.95 -2.53,-2.89 -0.03,1.24 -0.04,2.49 -0.03,3.73 -1.36,0.11 -2.73,0.24 -4.08,0.41 1.02,1.54 2.47,1.67 4.12,2.2l1.06,0.8c-0.34,0.91 -0.68,1.82 -1.03,2.72l-0.69,0.13c-2.05,-1.18 -3.8,0.01 -6.06,-0.34 -0.7,-1.65 -0.13,-3.4 -2.2,-3.9 -0.75,-0.34 -1.51,-0.69 -2.26,-1.02 -1.94,-1.24 -1.29,-1.82 -1.17,-3.84 0.38,-1.09 0.77,-2.18 1.17,-3.26 1.9,-0.42 4.42,-0.32 5.94,-1.58 3.06,-2.23 7.21,-4 11.03,-3.94z" fill="#d0d4da"/>
  <path d="m107.92,136.23c1.32,0.05 2.64,0.06 3.96,0.13 -0.3,1.03 -1.2,1.89 -1.77,2.8 0.48,1.37 1.62,1.47 2.79,2.07l-0.36,0.56c-1.32,0.54 -2.44,1.26 -3.57,2.12 -0.87,-1.45 -2.13,-2.5 -1.89,-4.31 3.19,0.16 1.04,-1.45 0.84,-3.37z" fill="#9fb0c3"/>
  <path d="m9.02,137.33c2.03,0.92 4.15,1.59 6.21,2.45 1.27,2 1.47,6.03 4.31,6.22 -0.15,-2.91 -0.44,-5.35 1.11,-8.02 0.37,2.24 0.54,4.53 0.95,6.77 0.42,2.17 3.08,2.62 3.36,4.9 -1.8,-0.12 -3.38,-0.26 -5.12,0.3 -2.86,-1.01 -5.92,-1.19 -8.86,-1.95 -1.35,-3.44 -1.63,-7.02 -1.96,-10.67z" fill="#353536"/>
  <path d="m48.96,136.63c2.72,2.44 5.18,5.15 7.9,7.58 3.95,3.59 9.03,6.03 14.01,7.84 -1.42,2.91 0.92,1.5 2.82,2.13 -3.12,2.69 1.85,1.22 2.27,4.16 -4.4,-0.73 -6.69,-4.48 -10.99,-5.23 -7.91,-1.28 -12.53,-7.39 -17.97,-12.5 -0.41,-0.46 -0.83,-0.92 -1.24,-1.39 1.03,-0.91 2.07,-1.8 3.2,-2.59z" fill="#3b4a65"/>
  <path d="m87.8,137.1c-0.23,1.63 -0.6,3.23 -0.87,4.86 -1.74,-1.17 -1.76,-2 -2.07,-3.98 0.97,-0.34 1.95,-0.63 2.94,-0.88z" fill="#94a4c7"/>
  <path d="m141.93,138.01c0.17,3.41 1,6.2 -0.32,9.52 -3.96,0.53 -0.35,2.69 -0.14,5.13 1.07,-0.08 2.14,-0.31 3.2,-0.46 -0.96,2.31 -2.03,2.13 0.51,3.91 -3.48,1.9 -6.18,4.66 -9.86,6.04 -0.97,-1.13 -2.01,-1.48 -3.12,-1.04 -1.98,1.24 -0.43,2.07 1.07,2.46 -3.06,2.95 -7.53,4.48 -11.22,6.56 -0.09,-1.18 -0.75,-2.08 0.03,-3.11 1.46,-1.94 -0.03,-3.28 -0.47,-5.27 0.1,-1.39 0.86,-2.72 1.13,-4.1 -1.45,-0.7 -2.9,-1.35 -4.46,-1.74 0.48,0.68 0.95,1.37 1.44,2.05 -1.29,0.06 -4.09,-1.26 -4.97,-0.24 -0.82,2 -0.18,4.87 -0.19,6.99 -0.4,2.36 -2.73,4.85 -5.23,4.87 -2.42,-0.25 -1.53,4.3 -4,3.13 -4.53,-1.69 -5.33,-5.2 -5.56,-9.61 -0.42,-3.24 -2.41,-2.99 -4.95,-3.93 5.92,0.41 11.09,-1.5 16.41,-3.8 5.2,-2.37 9.5,-7.11 13.48,-11.13 0.21,0.86 0.41,1.71 0.62,2.57 3.15,-2.34 5.86,-5.09 8.41,-8.06 3.1,3.39 4.74,0.28 8.19,-0.74z" fill="#2f3133"/>
  <path d="m61.1,139.33c2.87,1.23 6.01,1.49 8.85,2.66 1.93,2.89 4.15,4.9 4.54,8.56 2.57,1.93 6.91,1.82 8.48,4.64 -4.13,-0.86 -8.11,-1.75 -12.1,-3.14 -4.98,-1.81 -10.06,-4.25 -14.01,-7.84 1.3,0.21 2.6,0.46 3.9,0.59 -0.08,-1.89 -1.42,-4.01 0.34,-5.47z" fill="#627eac"/>
  <path d="m92.87,139.63c1.35,0.16 2.69,0.34 4.02,0.54 -1.52,1.26 -4.04,1.16 -5.94,1.58 0.22,-1 0.86,-1.7 1.92,-2.12z" fill="#a4b1c9"/>
  <path d="m112.54,141.79c0.02,0.96 0.06,1.92 0.11,2.88 -0.66,0.58 -1.32,1.16 -1.96,1.77 -3.44,2.11 -0.35,2.81 1.23,4.78 -1.16,1.44 -2.46,1.22 -4.1,1.54l-0.84,0.13c-0.39,-0.92 -0.77,-1.85 -1.14,-2.78 -0.39,-1.03 -0.79,-2.07 -1.19,-3.1 1.36,-1.15 2.87,-2.07 4.32,-3.1 1.13,-0.86 2.25,-1.58 3.57,-2.12z" fill="#6c7c99"/>
  <path d="m134.15,142.09c1.83,-0.76 4.18,2.92 1.84,2.81 -2.91,0.36 -1.66,-0.76 -1.84,-2.81z" fill="#494c4d"/>
  <path d="m77.23,142.8c0.72,0.9 1.04,2.53 2.01,3.12 2.73,0.35 4.65,0.27 6.84,-1.5 -0.1,2.55 2.25,0.63 3.7,0.59 -0.12,2.02 -0.77,2.6 1.17,3.84 -3.56,-0.37 -9.04,3.84 -11.32,0.21 1.66,-0.53 7.43,1.17 6.19,-1.96 -2.35,-0.27 -4.16,0.97 -6.19,1.96 -1.41,-0.44 -2.84,-0.88 -4.24,-1.38 -0.11,-1.98 1,-3.2 1.84,-4.88z" fill="#96abc4"/>
  <path d="m118.65,142.99c0.45,1.1 1.21,1.86 2.29,2.29 -1.9,1.46 -3.92,2.73 -5.98,3.95 -1.46,-0.88 -2.83,-1.88 -4.27,-2.79 0.64,-0.61 1.3,-1.19 1.96,-1.77 0.53,0.12 3.24,-1.13 2.84,0.07 -0.18,3.24 2.67,-0.88 3.16,-1.75z" fill="#9fadc8"/>
  <path d="m102.12,144.12c0.87,0.94 1.69,1.93 2.53,2.89 0.4,1.03 0.8,2.07 1.19,3.1 -0.88,0.39 -1.76,0.77 -2.65,1.15l-1.06,-0.8c0.02,-0.87 0.01,-1.74 -0.04,-2.61 -0.01,-1.24 0,-2.49 0.03,-3.73z" fill="#9ca6b7"/>
  <path d="m85.82,147.1c1.24,3.13 -4.53,1.43 -6.19,1.96 2.03,-0.99 3.84,-2.23 6.19,-1.96z" fill="#b4c5d8"/>
  <path d="m110.69,146.44c1.44,0.91 2.81,1.91 4.27,2.79 -1.03,0.64 -2.06,1.27 -3.04,1.99 -1.58,-1.97 -4.67,-2.67 -1.23,-4.78z" fill="#909ab9"/>
  <path d="m98.01,148.26c1.35,-0.17 2.72,-0.3 4.08,-0.41 0.05,0.87 0.06,1.74 0.04,2.61 -1.65,-0.53 -3.1,-0.66 -4.12,-2.2z" fill="#787d8a"/>
  <path d="m93.21,149.87c2.07,0.5 1.5,2.25 2.2,3.9 2.26,0.35 4.01,-0.84 6.06,0.34 -1.39,0.46 -2.8,0.84 -4.22,1.2 -1.04,-0.13 -2.08,-0.26 -3.12,-0.39 -0.2,-1.71 -0.47,-3.39 -0.92,-5.05z" fill="#a8b4c0"/>
  <path d="m105.84,150.11c0.37,0.93 0.75,1.86 1.14,2.78 -1.6,0.42 -3.19,0.84 -4.82,1.09 0.35,-0.9 0.69,-1.81 1.03,-2.72 0.89,-0.38 1.77,-0.76 2.65,-1.15z" fill="#adbdcd"/>
  <path d="m70.87,152.05c3.99,1.39 7.97,2.28 12.1,3.14 3.17,1.4 6.41,0.13 9.49,1.9 1.43,-0.12 2.18,-0.37 3.5,0.42 0.47,-0.71 0.89,-1.45 1.29,-2.2 1.42,-0.36 2.83,-0.74 4.22,-1.2l0.69,-0.13c1.63,-0.25 3.22,-0.67 4.82,-1.09l0.84,-0.13c1.15,0.85 2.27,1.74 3.41,2.61 -5.32,2.3 -10.49,4.21 -16.41,3.8 -1.19,-0.01 -2.39,0.01 -3.6,0.06 -2.64,-0.17 -5.28,-0.25 -7.93,-0.27 -0.6,-3.76 -5.09,-0.88 -7.33,-0.62 -0.42,-2.94 -5.39,-1.47 -2.27,-4.16 -1.9,-0.63 -4.24,0.78 -2.82,-2.13z" fill="#47556e"/>
  <path d="m82.97,155.19c3.72,-0.2 7.44,-0.22 11.16,-0.27 1.04,0.13 2.08,0.26 3.12,0.39 -0.4,0.75 -0.82,1.49 -1.29,2.2 -1.32,-0.79 -2.07,-0.54 -3.5,-0.42 -3.08,-1.77 -6.32,-0.5 -9.49,-1.9z" fill="#4f6282"/>
  <path d="m56.01,156.19c1.89,0.99 3.78,2.06 5.53,3.28 1.52,3.17 2.03,6.63 3.14,9.86 1.25,0.49 2.65,0.66 3.95,0.97 -0.43,0.93 -0.92,1.83 -1.36,2.76 3.34,-1.1 5.64,-2.92 9.45,-2.7 0.75,-3.35 1.11,-6.73 1.57,-10.13 1.52,-0.22 3.1,-0.26 4.63,-0.33 2.87,0.1 5.56,0.41 8.3,-0.67 1.21,-0.05 2.41,-0.07 3.6,-0.06 2.54,0.94 4.53,0.69 4.95,3.93 0.23,4.41 1.03,7.92 5.56,9.61 2.47,1.17 1.58,-3.38 4,-3.13 2.5,-0.02 4.83,-2.51 5.23,-4.87 0.01,-2.12 -0.63,-4.99 0.19,-6.99 0.88,-1.02 3.68,0.3 4.97,0.24 -0.49,-0.68 -0.96,-1.37 -1.44,-2.05 1.56,0.39 3.01,1.04 4.46,1.74 -0.27,1.38 -1.03,2.71 -1.13,4.1 0.44,1.99 1.93,3.33 0.47,5.27 -0.78,1.03 -0.12,1.93 -0.03,3.11 -2.97,1.97 -6.29,2.49 -9.72,3.15 -4.26,0.69 -7.82,2.78 -12.31,2.73 -10.06,-0.12 -19.37,0.6 -29.16,-1.69 -5.25,-0.46 -10.69,-1.66 -15.03,-4.81 0.81,-0.79 1.58,-1.62 2.31,-2.48 -1.01,-0.68 -2.08,-1.26 -3.09,-1.94 0.88,-1.09 1.81,-2.05 2.56,-3.24 -0.91,-1.92 -1.8,-3.41 -1.6,-5.66z" fill="#252627"/>
  <path d="m83.29,158.96c-2.53,0.04 -4.9,0.24 -7.33,-0.62 2.24,-0.26 6.73,-3.14 7.33,0.62z" fill="#3a475c"/>
  <path d="m83.29,158.96c2.65,0.02 5.29,0.1 7.93,0.27 -2.74,1.08 -5.43,0.77 -8.3,0.67z" fill="#3e4750"/>
  <path d="m132.2,161.11c1.11,-0.44 2.15,-0.09 3.12,1.04 -0.67,0.49 -1.35,0.97 -2.05,1.42 -1.5,-0.39 -3.05,-1.22 -1.07,-2.46z" fill="#484848"/>
  <path d="m70.25,165.3c1.31,-1.04 3.47,0.81 2.14,2.15 -1.73,1.58 -3.37,-0.45 -2.14,-2.15z" fill="#454749"/>
</svg>
