<?xml version="1.0" ?>
<svg xmlns="http://www.w3.org/2000/svg" width="178.75449" height="177.8457" viewBox="0 0 178.75449 177.8457">
  <path d="m77.988,0h22.15l0.83,0.03c10.87,0.81 21.65,4.73 30.96,10.33 5.23,3.05 9.51,7.2 14.9,10.01 9.75,5.45 20.74,7.84 31.86,7.88 -0.02,8.08 0.01,16.16 -0.02,24.25 -59.26,-0.18 -118.65,-0.06 -177.93,-0.02 -0.12,18.59 -0.21,37.18 -0.01,55.76 0.83,0.31 1.65,0.61 2.48,0.9 -0.91,-0.21 -1.82,-0.42 -2.73,-0.64 0.08,-17.5 0.04,-35 0.04,-52.5 -0.62,-9.27 -0.54,-18.53 -0.04,-27.81C14.558,28.32 28.558,24.13 39.728,15.44 50.608,6.95 64.208,1.16 77.988,0Z" fill="#b6dac5"/>
  <path d="m81.358,18.67c5.44,-0.19 10.87,-0.19 16.32,-0.02 0,5.39 -0.01,10.78 0.01,16.16 -5.46,0.02 -10.91,0 -16.37,0 0.06,-5.38 -0.04,-10.76 0.04,-16.14z" fill="#0f3d3f"/>
  <path d="m87.458,22.09c4.37,-2.08 8.56,2.54 6.73,6.77 -1.25,3.08 -5.2,3.57 -7.79,2.05 -2.85,-2.39 -2.57,-7.31 1.06,-8.82z" fill="#b6dac5"/>
  <path d="M0.738,52.48C60.018,52.44 119.408,52.32 178.668,52.5c0.06,19.43 -0.07,38.87 0.08,58.3 -8.33,-0.6 -16.48,-1.75 -24.45,-4.34 -1.43,0.77 -2.86,1.55 -4.3,2.32 -0.49,-1.89 -0.95,-3.78 -1.32,-5.7 -4.37,-5.31 -11.4,-8.17 -14.4,-14.12 -3.57,-5.76 -1.91,-14.05 -3.16,-20.75 -11.63,-0.09 -23.21,0.47 -34.83,-0.27 -7.09,-0.26 -13.92,-1.6 -20.97,-1.41 -5.34,0.11 -10.76,-0.34 -16.07,0.17 -3.78,1.02 -7.02,2.89 -11.08,2.96 -2.13,6.75 0.5,14.37 -1.36,20.91 -3.23,3.13 -8.26,4.47 -12.48,5.62 -4.95,1.25 -9.32,5.06 -13.92,7.45 -3.47,1.94 -7.11,3.57 -10.87,4.85 -2.12,0.66 -4.1,1.29 -6.33,0.65 -0.83,-0.29 -1.65,-0.59 -2.48,-0.9 -0.2,-18.58 -0.11,-37.17 0.01,-55.76z" fill="#25927d"/>
  <path d="m59.248,66.7c5.31,-0.51 10.73,-0.06 16.07,-0.17 -0.68,0.87 -1.34,1.75 -1.99,2.64 2.82,3.8 4.6,7.14 4.92,11.97 -2.62,-0.55 -5.11,-1.29 -7.63,-2.24 -0.46,-2.28 -0.94,-4.55 -1.43,-6.82 -0.58,0.41 -1.16,0.81 -1.74,1.22 -0.68,6.28 2.26,11.03 5.42,16.13 0.57,0.7 1.34,2.03 2.36,1.99 3.78,0.24 7.72,-0.24 11.41,-1.04 3.28,-0.49 5.4,-4.4 7.62,-6.62 -0.07,1.61 -0.05,3.27 -0.33,4.86 -0.71,0.78 -1.58,1.42 -2.39,2.09 4.48,4.59 10.42,9.19 16.79,10.58 1.84,-0.99 3.17,-3.06 4.52,-4.62 0.78,0.1 1.56,0.19 2.35,0.28 -0.24,1.63 0.49,2.37 2.18,2.24 -0.97,3.36 -4.05,7.14 -7.17,8.71 -3.78,1.66 -7.26,-1.38 -10.89,-1.34 -1.55,1.14 -2.91,3.85 -5.01,3.6 -4.58,-0.42 -7.82,-3.04 -12.51,-1.16 2.49,3.63 6.28,4.45 9.59,7.02 -0.31,2.09 -2.08,1.91 -3.76,2.25 -2.01,0.06 -4.11,-0.96 -6,-1.54 -0.03,-1.27 -0.07,-2.54 -0.11,-3.82 -0.45,0 -0.89,-0.01 -1.34,-0.02 -0.07,2.22 -0.09,4.35 -0.94,6.44 -3.08,-2.07 -6.33,-1.9 -9.88,-2.16 1.22,-1.97 2.81,-4.03 3.42,-6.28 0.5,-2.82 -0.16,-5.99 -0.6,-8.81 -1.98,1.84 -4.22,3.76 -5.69,6.04 -1.8,2.41 0.79,7.4 -1.97,9.04 -2.13,1.15 -5.34,-0.72 -7.66,-0.36 -3.07,0.95 -6.35,3.48 -9.59,3.48 -1.9,-0.23 -3.21,-2.38 -5.07,-2.49 -3.14,-0.03 -6.3,0.42 -9.44,0.56 4.44,-2.81 8.74,-4.27 10.74,-9.62 -2.76,1.74 -5.19,4.08 -8.07,5.58 -3.09,1.3 -6.62,1.73 -9.94,1.93 -2.02,0.37 -3.7,-2.24 -5.14,-3.37 2.67,-2.16 5.37,-4.28 8.03,-6.46 -2.62,-1.2 -5.17,-2.09 -7.97,-2.77 4.6,-2.39 8.97,-6.2 13.92,-7.45 4.22,-1.15 9.25,-2.49 12.48,-5.62 1.86,-6.54 -0.77,-14.16 1.36,-20.91 4.06,-0.07 7.3,-1.94 11.08,-2.96z" fill="#115452"/>
  <path d="m75.318,66.53c7.05,-0.19 13.88,1.15 20.97,1.41 11.62,0.74 23.2,0.18 34.83,0.27 1.25,6.7 -0.41,14.99 3.16,20.75 3,5.95 10.03,8.81 14.4,14.12 0.37,1.92 0.83,3.81 1.32,5.7 1.44,-0.77 2.87,-1.55 4.3,-2.32 7.97,2.59 16.12,3.74 24.45,4.34 0.03,4.58 -0.06,9.17 -0.05,13.75 -59.5,0.12 -119.02,0.03 -178.52,0.1 0.38,-5.39 0.18,-10.76 0.3,-16.15 0.91,0.22 1.82,0.43 2.73,0.64 2.23,0.64 4.21,0.01 6.33,-0.65 3.76,-1.28 7.4,-2.91 10.87,-4.85 2.8,0.68 5.35,1.57 7.97,2.77 -2.66,2.18 -5.36,4.3 -8.03,6.46 1.44,1.13 3.12,3.74 5.14,3.37 3.32,-0.2 6.85,-0.63 9.94,-1.93 2.88,-1.5 5.31,-3.84 8.07,-5.58 -2,5.35 -6.3,6.81 -10.74,9.62 3.14,-0.14 6.3,-0.59 9.44,-0.56 1.86,0.11 3.17,2.26 5.07,2.49 3.24,0 6.52,-2.53 9.59,-3.48 2.32,-0.36 5.53,1.51 7.66,0.36 2.76,-1.64 0.17,-6.63 1.97,-9.04 1.47,-2.28 3.71,-4.2 5.69,-6.04 0.44,2.82 1.1,5.99 0.6,8.81 -0.61,2.25 -2.2,4.31 -3.42,6.28 3.55,0.26 6.8,0.09 9.88,2.16 0.85,-2.09 0.87,-4.22 0.94,-6.44 0.45,0.01 0.89,0.02 1.34,0.02 0.04,1.28 0.08,2.55 0.11,3.82 1.89,0.58 3.99,1.6 6,1.54 1.68,-0.34 3.45,-0.16 3.76,-2.25 -3.31,-2.57 -7.1,-3.39 -9.59,-7.02 4.69,-1.88 7.93,0.74 12.51,1.16 2.1,0.25 3.46,-2.46 5.01,-3.6 3.63,-0.04 7.11,3 10.89,1.34 3.12,-1.57 6.2,-5.35 7.17,-8.71 0.41,-1.3 -0.31,-2.04 -2.18,-2.24 -0.79,-0.09 -1.57,-0.18 -2.35,-0.28 -1.35,1.56 -2.68,3.63 -4.52,4.62 -6.37,-1.39 -12.31,-5.99 -16.79,-10.58 0.81,-0.67 1.68,-1.31 2.39,-2.09 0.28,-1.59 0.26,-3.25 0.33,-4.86 -2.22,2.22 -4.34,6.13 -7.62,6.62 -3.69,0.8 -7.63,1.28 -11.41,1.04 -1.02,0.04 -1.79,-1.29 -2.36,-1.99 -3.16,-5.1 -6.1,-9.85 -5.42,-16.13 0.58,-0.41 1.16,-0.81 1.74,-1.22 0.49,2.27 0.97,4.54 1.43,6.82 2.52,0.95 5.01,1.69 7.63,2.24 -0.32,-4.83 -2.1,-8.17 -4.92,-11.97 0.65,-0.89 1.31,-1.77 1.99,-2.64z" fill="#0f3d3f"/>
  <path d="m67.768,93.99c1.51,-1.04 2.48,1.41 0.71,1.76 -0.96,-0.28 -1.2,-0.87 -0.71,-1.76z" fill="#25927d"/>
  <path d="m115.198,96.95c1.87,0.2 2.59,0.94 2.18,2.24 -1.69,0.13 -2.42,-0.61 -2.18,-2.24z" fill="#25927d"/>
  <path d="m120.488,104.28c1.18,-1.15 3.5,-0.09 2.5,1.58 -1.18,1.17 -3.5,0.1 -2.5,-1.58z" fill="#115452"/>
  <path d="m85.158,109.31c5.48,1.5 10.73,2.7 15.28,6.34 -1.61,0.45 -2.87,1.45 -4.53,0.55 -3.86,-1.76 -7.4,-4.32 -10.75,-6.89z" fill="#115452"/>
  <path d="M0.178,124.65C59.678,124.58 119.198,124.67 178.698,124.55c0.05,8.21 -0.08,16.42 0.03,24.64 -4.78,0.34 -9.69,0.06 -14.43,0.74 -5.6,1.83 -11.53,3.51 -16.66,6.43 -8.71,4.75 -14.65,11.74 -24.55,14.39 -1.27,0.81 -2.49,1.61 -3.87,2.24 -13.03,5.02 -26.31,5.4 -40.08,4.43 -14.22,-1.17 -27.65,-6.73 -38.98,-15.33 -11.21,-8.71 -25.22,-13.55 -39.47,-12.73 -0.98,-4.14 -0.61,-8.16 -0.66,-12.36 -0.02,-4.12 -0.09,-8.23 0.15,-12.35z" fill="#b33c30"/>
  <path d="m81.908,142.84c4.96,-0.43 10,-0.09 14.97,-0.21 0.02,0.87 0.04,1.74 0.05,2.61 -1.36,0.99 -2.93,1.91 -4.05,3.18 -0.38,1.66 -0.59,4.01 0.37,5.5 1.1,0.91 2.36,1.66 3.57,2.42 0.08,0.76 0.16,1.52 0.24,2.28 -5.19,0.14 -10.37,0.14 -15.56,0.06 0.1,-0.7 0.2,-1.39 0.3,-2.09 1.46,-1.28 4.4,-2.37 4.2,-4.62 0.04,-1.22 0.13,-2.93 -0.62,-3.97 -1.15,-1.07 -2.51,-1.95 -3.76,-2.9 0.06,-0.76 0.16,-1.52 0.29,-2.26z" fill="#0f3d3f"/>
</svg>
