<?xml version="1.0" ?>
<svg xmlns="http://www.w3.org/2000/svg" width="177.82007" height="177.61583" viewBox="0 0 177.82007 177.61583">
  <path d="m78.535,0.423c13.53,-0.95 26.73,-0.61 39.55,4.3 -1.26,2.96 -3.81,3.36 -6.48,4.55 1.73,0.47 3.38,1.06 4.98,1.87 -2.99,0.94 -6.04,1.63 -9.06,2.43 -0.91,2.03 -2.21,2.32 -4.18,3.08 -3.79,-1.28 -8.01,-1.56 -11.99,-1.37 -0.95,0.36 -1.89,0.74 -2.83,1.12 -1.64,-1.53 -3.19,-3.06 -5.23,-4.05 0.85,1.46 2.67,2.05 1.76,3.9 -0.97,0.53 -2.05,0.83 -3.24,0.9 -4.09,-3.15 -9.27,-1.96 -14.07,-3.5 -1.08,-0.4 -2.17,-0.79 -3.25,-1.19 2.91,4.05 10.22,1.9 14.07,5.28 -1.44,1.14 -2.58,0.34 -4.13,0.05 -1.88,-0.61 -3.76,-0.52 -5.71,-0.45l1.64,3.05c-1.24,1.04 -2.54,1.54 -4.1,1.91 -3.99,1.01 -7.61,3.62 -10.94,5.95l-0.58,0.5c-2.27,1.95 -4.37,4.09 -6.09,6.54 -1.14,1.75 -1.87,3.66 -2.58,5.61 -2.65,7.14 -2.79,15.58 -1.97,23.08l0.49,1.9 0.48,1.15c0.47,1.16 0.97,2.31 1.49,3.44 0.57,0.9 1.17,1.77 1.75,2.66l0.25,0.74 -0.07,0.93c0.66,0.47 1.32,0.94 1.97,1.44 -0.91,2.95 -2.82,5.07 -1.64,8.17 -1.65,1.06 -3.24,2.2 -4.81,3.38 0.36,0.68 0.73,1.36 1.09,2.04 -0.82,0.61 -1.39,1.74 -2.52,1.04 -3.04,-1.32 -6.12,-1.45 -9.34,-1.95 -0.28,1.71 -0.55,3.42 -0.81,5.12 -2.51,-3.95 -4.58,-8.15 -7.16,-12.05 -2.27,3.67 -3.9,7.66 -6.28,11.28 -1.24,2.41 -3.45,3.95 -1.26,6.61 -0.56,1.38 -1.17,2.73 -1.82,4.08 1.87,1.84 2.89,2.56 2.44,5.44 -2.85,1.27 -5.8,2.3 -8.66,3.56 0.1,1.35 0.2,2.69 0.31,4.03 -1.86,-2.51 -4.56,-3.78 -6.73,-5.89 -1.65,-2.96 0.15,-7.45 -1.42,-10.43 -0.47,12.35 -0.08,24.78 -0.17,37.15 -0.19,3.84 0.92,7.81 -1.65,11 0.02,-40.05 -0.13,-80.13 0.07,-120.18 6.15,-0.14 12.16,-0.51 18.12,-2.13 5.08,-1.55 9.94,-3.65 14.61,-6.17 4.61,-2.72 8.55,-6.37 13.16,-9.12 9.86,-5.98 21.03,-9.78 32.54,-10.8z" fill="#c64221"/>
  <path d="m118.085,4.723c3.67,1.33 7.26,3.01 10.74,4.79 5.05,2.9 9.42,6.86 14.44,9.84 5.35,3.61 11.29,5.68 17.42,7.51 5.66,1.27 11.3,1.52 17.07,1.86 0.14,39 0,78.1 0.06,117.12 -0.12,1.75 0.25,3.63 -2.21,3.42 -5.29,-0.17 -9.8,0.5 -14.89,1.82 -1.08,-0.21 -2.16,-0.43 -3.23,-0.67 2.9,-1.6 5.66,-2.65 9.04,-2.53 3.21,0.14 5.99,-0.86 8.93,-1.9 0.05,-7.18 0.78,-14.24 -1.23,-21 -4.45,-0.52 -9.53,0.69 -13.51,-1.29 -2.24,-1.11 -4.5,-0.88 -6.92,-0.87 0.56,-5.88 0.39,-11.51 -2.74,-16.73 -0.55,-0.5 -1.2,-0.91 -1.94,-1.23 -1.19,-1.61 -2.26,-3.2 -3.95,-4.34 -3.01,-2.85 -6.53,-2.69 -10.4,-2.34 -1.19,0.43 -2.12,1.58 -3.08,2.36 -2.22,-0.93 -4.61,-2.11 -5.13,-4.7 -0.76,-2.11 0.07,-3.8 0.62,-5.82 0.26,-0.79 0.53,-1.58 0.81,-2.36 0.8,-1.8 1.07,-3 0.51,-4.95l0.29,-1.47c-0.14,-4.22 -4.25,-7 -8.24,-6.62 -8.52,0.39 -15.79,6.75 -23.98,7.43 -2.09,0.2 -4.15,0.18 -6.25,0.1 -0.05,-17.04 -0.21,-34.15 0.19,-51.2l2.19,0.39c2.51,0.24 3.07,0.22 3.26,-2.49 2.77,0.54 5.2,1.5 8,0.5 2.12,-0.59 3.47,-2.76 4.87,-4.34 0.83,-0.66 1.67,-1.31 2.52,-1.94 1.08,0.21 2.16,0.43 3.24,0.64 -3.4,-2.96 -6.9,-5.63 -11.24,-7.06 1.97,-0.76 3.27,-1.05 4.18,-3.08 3.02,-0.8 6.07,-1.49 9.06,-2.43 -1.6,-0.81 -3.25,-1.4 -4.98,-1.87 2.67,-1.19 5.22,-1.59 6.48,-4.55z" fill="#c03b1d"/>
  <path d="m64.495,12.463c1.08,0.4 2.17,0.79 3.25,1.19 4.8,1.54 9.98,0.35 14.07,3.5 -0.77,1.06 -1.51,2.14 -2.23,3.23 -0.61,-0.02 -1.23,-0.03 -1.85,-0.04 -0.59,1.71 0.3,3.72 -2.18,3.58 -1.13,-0.93 -2.14,-2.06 -3.16,-3.12 0.5,2.05 1.15,3.91 2.06,5.82 -2.17,0.47 -4.21,1.27 -6.21,2.22 -1.61,-2.31 -2.89,-3.54 -1.98,-6.54 1.56,-0.37 2.86,-0.87 4.1,-1.91l-1.64,-3.05c1.95,-0.07 3.83,-0.16 5.71,0.45 1.55,0.29 2.69,1.09 4.13,-0.05 -3.85,-3.38 -11.16,-1.23 -14.07,-5.28z" fill="#e2dcd8"/>
  <path d="m83.295,12.353c2.04,0.99 3.59,2.52 5.23,4.05 0.94,-0.38 1.88,-0.76 2.83,-1.12l0.5,1.64c-0.58,0.52 -1.15,1.05 -1.71,1.57 -2.97,2.84 -3.55,5.77 -2.72,9.69 -2.34,0.09 -3.86,-1.32 -5.94,-2.04 -2.34,-0.14 -4.72,0.19 -7.03,0.48 -0.91,-1.91 -1.56,-3.77 -2.06,-5.82 1.02,1.06 2.03,2.19 3.16,3.12 2.48,0.14 1.59,-1.87 2.18,-3.58 0.62,0.01 1.24,0.02 1.85,0.04 0.72,-1.09 1.46,-2.17 2.23,-3.23 1.19,-0.07 2.27,-0.37 3.24,-0.9 0.91,-1.85 -0.91,-2.44 -1.76,-3.9z" fill="#ccc1bf"/>
  <path d="m91.355,15.283c3.98,-0.19 8.2,0.09 11.99,1.37 4.34,1.43 7.84,4.1 11.24,7.06 -1.08,-0.21 -2.16,-0.43 -3.24,-0.64 -0.85,0.63 -1.69,1.28 -2.52,1.94l0.72,-2.52c-1.26,-0.73 -2.56,-1.6 -4,-1.84 -1.58,0.35 -3.11,0.97 -4.62,1.54 0.75,1.35 1.53,2.68 2.29,4.01 0.9,0.09 1.8,0.12 2.72,0.09 -1.71,0.61 -3.16,1.36 -4.65,2.39 -1.86,-0.72 -3.43,-1.84 -5.07,-2.97 -0.4,-1.2 -0.83,-2.4 -1.25,-3.61 -1.34,-0.05 -2.68,-0.11 -4.03,-0.13 0.11,1.6 0.25,3.21 0.38,4.82l0.3,3.32c-1.39,-1.31 -2.17,-2.03 -4.19,-1.93 -0.83,-3.92 -0.25,-6.85 2.72,-9.69 1.76,0.4 3.52,0.79 5.28,1.21 1.71,-0.48 3.41,-0.98 5.11,-1.51l-0.55,-0.93c-2.48,-0.84 -5.55,-0.53 -8.13,-0.34z" fill="#e7ddda"/>
  <path d="m91.855,16.923c2.58,-0.19 5.65,-0.5 8.13,0.34l0.55,0.93c-1.7,0.53 -3.4,1.03 -5.11,1.51 -1.76,-0.42 -3.52,-0.81 -5.28,-1.21 0.56,-0.52 1.13,-1.05 1.71,-1.57z" fill="#b88f82"/>
  <path d="m85.935,20.263c1.74,0.17 -0.62,4.83 -2.09,3.42 -0.88,-1.27 0.91,-3.09 2.09,-3.42z" fill="#dddee0"/>
  <path d="m105.545,20.653c1.44,0.24 2.74,1.11 4,1.84l-0.72,2.52c-1.4,1.58 -2.75,3.75 -4.87,4.34 -2.8,1 -5.23,0.04 -8,-0.5 -0.38,-0.75 -0.77,-1.51 -1.16,-2.26l-0.06,-0.99 1.48,0.11c1.64,1.13 3.21,2.25 5.07,2.97 1.49,-1.03 2.94,-1.78 4.65,-2.39 -0.92,0.03 -1.82,0 -2.72,-0.09 -0.76,-1.33 -1.54,-2.66 -2.29,-4.01 1.51,-0.57 3.04,-1.19 4.62,-1.54z" fill="#bf3c26"/>
  <path d="m90.935,21.973c1.35,0.02 2.69,0.08 4.03,0.13 0.42,1.21 0.85,2.41 1.25,3.61l-1.48,-0.11 0.06,0.99 -0.02,1.83c-1.17,-0.51 -2.32,-1.05 -3.46,-1.63 -0.13,-1.61 -0.27,-3.22 -0.38,-4.82z" fill="#bab7b9"/>
  <path d="m66.265,22.303c-0.91,3 0.37,4.23 1.98,6.54 -1.98,1.16 -3.88,2.47 -5.68,3.89l0.92,-1.53c-2.4,-0.17 -4.8,-0.32 -7.21,-0.37 -0.31,-0.86 -0.63,-1.72 -0.95,-2.58 3.33,-2.33 6.95,-4.94 10.94,-5.95z" fill="#cdc7c5"/>
  <path d="m74.455,26.623c2.31,-0.29 4.69,-0.62 7.03,-0.48 2.08,0.72 3.6,2.13 5.94,2.04 2.02,-0.1 2.8,0.62 4.19,1.93l1.08,1.23 -2.19,-0.39c-0.4,17.05 -0.24,34.16 -0.19,51.2 -3.86,-0.41 -7.46,-1.44 -11.19,-2.44 -3.21,-1.14 -6.3,-2.59 -9.56,-3.61 -2.5,-1.02 -4.61,-2.53 -6.85,-4.02 -4.5,-2.38 -6.04,-6.19 -8.36,-10.4 -0.47,-4.08 -0.53,-8.22 -0.34,-12.33 0.65,-3.15 1.38,-6.2 2.73,-9.14 1.17,-2.43 2.59,-4.57 4.63,-6.35l1.19,-1.13c1.8,-1.42 3.7,-2.73 5.68,-3.89 2,-0.95 4.04,-1.75 6.21,-2.22z" fill="#f1873b"/>
  <path d="m94.795,26.593c0.39,0.75 0.78,1.51 1.16,2.26 -0.19,2.71 -0.75,2.73 -3.26,2.49l-1.08,-1.23 -0.3,-3.32c1.14,0.58 2.29,1.12 3.46,1.63z" fill="#bd6754"/>
  <path d="m54.745,28.753c-0.55,0.84 -1.09,1.67 -1.62,2.52 2.82,1.6 4.98,2.36 8.25,2.59 -2.04,1.78 -3.46,3.92 -4.63,6.35 -1.52,0.16 -2.82,0.51 -4.24,1.07 -1.18,-2.07 -2.43,-4.08 -3.85,-5.99 1.72,-2.45 3.82,-4.59 6.09,-6.54z" fill="#c8c5be"/>
  <path d="m54.745,28.753 l0.58,-0.5c0.32,0.86 0.64,1.72 0.95,2.58 2.41,0.05 4.81,0.2 7.21,0.37l-0.92,1.53 -1.19,1.13c-3.27,-0.23 -5.43,-0.99 -8.25,-2.59 0.53,-0.85 1.07,-1.68 1.62,-2.52z" fill="#e6e3db"/>
  <path d="m48.655,35.293c1.42,1.91 2.67,3.92 3.85,5.99 1.42,-0.56 2.72,-0.91 4.24,-1.07 -1.35,2.94 -2.08,5.99 -2.73,9.14 -1.32,-1.98 -1.95,-4.17 -2.52,-6.45 -0.93,0.97 -1.87,1.95 -2.81,2.92 -0.93,-1.61 -1.79,-3.25 -2.61,-4.92 0.71,-1.95 1.44,-3.86 2.58,-5.61z" fill="#e3d8d5"/>
  <path d="m142.415,38.423c1.43,-0.13 2.85,-0.27 4.28,-0.41 1.47,1.8 4.06,2.87 2.59,5.58 -1.03,3.99 -7.3,3.75 -8.48,0 -0.76,-2.15 0.54,-3.48 1.61,-5.17z" fill="#d8c4be"/>
  <path d="m46.075,40.903c0.82,1.67 1.68,3.31 2.61,4.92 0.94,-0.97 1.88,-1.95 2.81,-2.92 0.57,2.28 1.2,4.47 2.52,6.45 -0.19,4.11 -0.13,8.25 0.34,12.33 -1.79,-2.49 -0.82,-5.02 -0.74,-7.88 -1.02,-0.73 -2.02,-1.47 -3.03,-2.21 0.25,-1.78 0.52,-3.55 0.83,-5.32 -1.79,0.63 -2.91,0.94 -4.78,0.42v0.01c0.86,2.61 2.46,4.59 3.92,6.94 -0.71,0.78 -1.42,1.55 -2.13,2.33 0.48,1.45 0.93,2.96 1.57,4.35 0.91,1.85 3.24,3 3.95,4.91 -1.81,1.71 0.12,3.46 1.07,5.07 1.66,2.46 4.84,2.64 7.47,3.33l0.23,-1.55c2.24,1.49 4.35,3 6.85,4.02l-1.16,1.66c0.62,0.76 1.24,1.51 1.87,2.25 -1.64,-0.17 -3.27,-0.33 -4.92,-0.45 2.31,2.69 4.19,1.23 7.21,1.16 3.06,0.49 5.88,1.72 9.02,1.84 2.63,0.22 5.16,0.57 7.74,1.1 -0.46,2.88 -1.11,5.65 -2.34,8.3 2.5,-1.25 4.88,-1.57 6.02,-4.45 0.27,0.23 0.53,0.46 0.79,0.68 0.38,-0.19 0.76,-0.38 1.15,-0.57 0.53,0.24 1.06,0.49 1.6,0.74 1.36,-1.57 2.51,-3.16 3.46,-5.02 3.26,-1.4 6.42,-2.41 9.86,-3.3 1.43,-0.28 2.01,-1.25 2.89,-2.28 4.24,-1.35 7.91,-1.49 12.19,-0.13 0.66,0.88 0.18,2.79 0.27,3.91 1.19,-0.1 2.38,-0.2 3.57,-0.3l-0.29,1.47c-1.78,1.51 -1.43,3.05 -0.51,4.95 -0.28,0.78 -0.55,1.57 -0.81,2.36 -1.55,-2.42 -3.14,-4.47 -5.58,-6.06 -0.93,0.25 -1.87,0.5 -2.81,0.75 0.45,-0.98 0.91,-1.96 1.37,-2.94 -5.49,-0.62 -10.31,-1.48 -15.09,2.08 -3.11,1.56 -2.39,3.93 -1.76,6.76 -6.42,2.51 -14.02,2.29 -20.8,1.97 -1.67,-2.28 -2.51,-4.75 -3.42,-7.38 -1.64,-1.39 -3.68,-2.44 -5.64,-3.32l-1.3,0.94c2.12,1.58 4.3,2.99 6.62,4.27 -1.16,0.96 -2.32,1.92 -3.46,2.91 -0.56,-0.45 -1.12,-0.9 -1.68,-1.35 -0.52,0.5 -1.04,1 -1.56,1.51 -0.88,-1.84 -2.31,-2.68 -3.99,-3.68 -0.57,-1.06 -1.08,-2.14 -1.53,-3.25 -1.29,0.47 -2.59,0.94 -3.88,1.4 0.16,-1.14 0.32,-2.29 0.49,-3.44 -1.4,0.08 -2.79,0.17 -4.18,0.25 -0.32,-1.08 -0.65,-2.16 -0.97,-3.24 -1.04,0.18 -2.08,0.35 -3.12,0.53 -0.02,-0.95 -0.05,-1.9 -0.09,-2.85 -1.54,-0.61 -2.62,0.12 -4.06,0.62l-0.27,-0.26c-0.65,-0.5 -1.31,-0.97 -1.97,-1.44l0.07,-0.93c0.6,0.26 1.22,0.48 1.86,0.64 0.51,-0.96 1.25,-2.09 0.52,-3.14 -1.21,-0.98 -2.2,0.84 -2.63,1.76 -0.58,-0.89 -1.18,-1.76 -1.75,-2.66 1.68,-1.02 3.08,-1.06 3.01,-3.39 -1.5,0.01 -3,-0.01 -4.5,-0.05l-0.48,-1.15c0.95,0.12 1.63,-0.28 2.04,-1.18 0.33,-2.09 -1.59,-2.49 -2.53,-0.72 -0.82,-7.5 -0.68,-15.94 1.97,-23.08z" fill="#c4c2c4"/>
  <path d="m46.635,46.703v-0.01c1.87,0.52 2.99,0.21 4.78,-0.42 -0.31,1.77 -0.58,3.54 -0.83,5.32 1.01,0.74 2.01,1.48 3.03,2.21 -0.08,2.86 -1.05,5.39 0.74,7.88 2.32,4.21 3.86,8.02 8.36,10.4l-0.23,1.55c-2.63,-0.69 -5.81,-0.87 -7.47,-3.33 -0.95,-1.61 -2.88,-3.36 -1.07,-5.07 -0.71,-1.91 -3.04,-3.06 -3.95,-4.91 -0.64,-1.39 -1.09,-2.9 -1.57,-4.35 0.71,-0.78 1.42,-1.55 2.13,-2.33 -1.46,-2.35 -3.06,-4.33 -3.92,-6.94z" fill="#e6dcd6"/>
  <path d="m158.175,50.203c1.85,1.57 1.11,3.56 1.15,5.69 -2.59,-1.82 -4.42,-3.76 -6.25,-6.33 1.93,-0.68 3.47,-0.75 5.1,0.64z" fill="#d7c0b2"/>
  <path d="m137.715,49.503c1.48,1.9 2.87,3.7 1.83,6.24 -1.34,1.69 -3.75,3.09 -5.9,2.06 -3.05,-1.14 -3.6,-5.01 -1.53,-7.36 1.41,-2.12 3.47,-0.92 5.6,-0.94z" fill="#e2aea2"/>
  <path d="m153.075,49.563c1.83,2.57 3.66,4.51 6.25,6.33 -0.68,0.63 -1.35,1.25 -2.03,1.88 -1.91,-1.26 -6.15,-0.71 -6.28,-3.38 -0.68,-2.21 0.58,-3.43 2.06,-4.83z" fill="#e6ccc2"/>
  <path d="m135.585,50.253c1.02,1.12 1.92,2.32 2.76,3.58 -0.79,0.88 -1.5,1.78 -2.16,2.76 -2.35,-0.7 -3.17,-2.19 -3.36,-4.56 0.91,-0.61 1.83,-1.2 2.76,-1.78z" fill="#b4c6c5"/>
  <path d="m46.635,64.703c-0.41,0.9 -1.09,1.3 -2.04,1.18l-0.49,-1.9c0.94,-1.77 2.86,-1.37 2.53,0.72z" fill="#f2d5cf"/>
  <path d="m45.075,67.033c1.5,0.04 3,0.06 4.5,0.05 0.07,2.33 -1.33,2.37 -3.01,3.39 -0.52,-1.13 -1.02,-2.28 -1.49,-3.44z" fill="#e4d6cd"/>
  <path d="m50.945,71.373c0.73,1.05 -0.01,2.18 -0.52,3.14 -0.64,-0.16 -1.26,-0.38 -1.86,-0.64l-0.25,-0.74c0.43,-0.92 1.42,-2.74 2.63,-1.76z" fill="#f3dbce"/>
  <path d="m60.155,74.823c1.92,0.07 3.61,-0.11 5.27,1.02 -0.3,0.66 -0.6,1.31 -0.9,1.96 -1.65,-0.79 -3.08,-1.65 -4.37,-2.98z" fill="#e0dcde"/>
  <path d="m120.545,74.623c3.99,-0.38 8.1,2.4 8.24,6.62 -1.19,0.1 -2.38,0.2 -3.57,0.3 -0.09,-1.12 0.39,-3.03 -0.27,-3.91 -4.28,-1.36 -7.95,-1.22 -12.19,0.13 -0.88,1.03 -1.46,2 -2.89,2.28 -3.44,0.89 -6.6,1.9 -9.86,3.3 -3.77,-0.38 -7.03,1.32 -10.68,0.32 -2.58,-0.53 -5.11,-0.88 -7.74,-1.1 -0.91,-0.85 -1.73,-1.8 -2.46,-2.85 3.73,1 7.33,2.03 11.19,2.44 2.1,0.08 4.16,0.1 6.25,-0.1 8.19,-0.68 15.46,-7.04 23.98,-7.43z" fill="#e5bdb2"/>
  <path d="m54.795,75.883c0.04,0.95 0.07,1.9 0.09,2.85 1.04,-0.18 2.08,-0.35 3.12,-0.53 0.32,1.08 0.65,2.16 0.97,3.24 1.39,-0.08 2.78,-0.17 4.18,-0.25 -0.17,1.15 -0.33,2.3 -0.49,3.44 1.29,-0.46 2.59,-0.93 3.88,-1.4 0.45,1.11 0.96,2.19 1.53,3.25 1.68,1 3.11,1.84 3.99,3.68 -4.94,-1.46 -10.49,-4.19 -14.69,-7.17 -2.33,-2.06 -4.67,-4.05 -6.64,-6.49 1.44,-0.5 2.52,-1.23 4.06,-0.62z" fill="#e7ded9"/>
  <path d="m50.465,76.243 l0.27,0.26c1.97,2.44 4.31,4.43 6.64,6.49 1.49,2.24 6.38,3 6.08,5.84 -0.82,1.23 -2,1.89 -3.16,2.75 -6.64,4.69 -11.73,11.32 -14.02,19.16 -0.79,5.17 -0.44,10.59 -0.3,15.8 -2.46,-0.28 -4.95,-0.46 -7.16,-1.66l-1.14,-0.59c-2.21,-1.33 -4.92,-0.99 -7.35,-0.61 -3.62,0.9 -6.2,3.64 -8.75,6.15 1.24,-0.78 2.54,-1.68 3.9,-2.21 2.5,-0.3 4.69,0.48 7.05,1.14 -1.17,2.44 -1.49,4.6 -1.56,7.29 -0.82,1.19 -1.65,2.38 -2.45,3.59 2.56,-2.5 4.37,-5.66 7.04,-8.02 1.09,-0.16 2.21,-0.02 3.36,0.42 0.92,0.47 1.82,0.96 2.72,1.47 0.52,0.38 1.04,0.77 1.54,1.18 0.78,0.65 1.54,1.32 2.28,2 1.29,1.54 2.47,3.2 3.68,4.8 3.96,4.57 8.59,8.69 13.55,12.15 1.27,0.89 2.96,1.22 4.39,1.84 1.46,0.84 2.66,1.95 4.25,2.6 6.4,3.05 14.26,3.37 21.22,2.88 0.65,-0.64 1.3,-1.28 1.95,-1.92 2.24,0.14 4.7,0.79 6.73,-0.48 3.5,-1.89 5.53,-4.55 9.94,-3.91l1.13,0.56c3.49,2.03 7.15,2.07 11.06,2.28 4.85,0.93 7.29,-4.7 7.45,-8.65 0.82,-4.58 -2.65,-7.55 -2.11,-12.04 4.41,-1.66 9.16,1.04 13.8,-1.07 5.89,-1.91 8.77,-7.73 11.3,-12.91 2.42,-0.01 4.68,-0.24 6.92,0.87 3.98,1.98 9.06,0.77 13.51,1.29 2.01,6.76 1.28,13.82 1.23,21 -2.94,1.04 -5.72,2.04 -8.93,1.9 -3.38,-0.12 -6.14,0.93 -9.04,2.53 1.07,0.24 2.15,0.46 3.23,0.67 -8.6,1.98 -16.5,6.06 -23.41,11.5 -8.79,6.86 -19.49,11.39 -30.37,13.67 -6.38,1.78 -13.75,1.19 -20.39,1.33 -13.93,0.43 -28.13,-3.36 -39.96,-10.76 -6.33,-3.59 -11.11,-8.43 -17.58,-11.39 -5.69,-2.89 -12.21,-4.5 -18.45,-5.72 -3.44,-0.67 -7.15,0 -10.52,-0.89 2.57,-3.19 1.46,-7.16 1.65,-11 0.09,-12.37 -0.3,-24.8 0.17,-37.15 1.57,2.98 -0.23,7.47 1.42,10.43 2.17,2.11 4.87,3.38 6.73,5.89 -0.11,-1.34 -0.21,-2.68 -0.31,-4.03 2.86,-1.26 5.81,-2.29 8.66,-3.56 0.45,-2.88 -0.57,-3.6 -2.44,-5.44 0.65,-1.35 1.26,-2.7 1.82,-4.08 1.61,2.28 2.8,5.07 4.78,7.02l1.48,-3.07 0.14,1.93c-0.37,0.67 -0.76,1.33 -1.15,1.99 0.48,1.78 1.24,3.46 2.08,5.1 2.2,-2.68 3.84,-5.95 5.59,-8.97 1.07,-2.06 2.57,-4.03 3.32,-6.23 0.05,-1.25 -0.99,-2.52 -1.54,-3.61 0.26,-1.7 0.53,-3.41 0.81,-5.12 3.22,0.5 6.3,0.63 9.34,1.95 1.13,0.7 1.7,-0.43 2.52,-1.04 -0.36,-0.68 -0.73,-1.36 -1.09,-2.04 1.57,-1.18 3.16,-2.32 4.81,-3.38 -1.18,-3.1 0.73,-5.22 1.64,-8.17z" fill="#c23e1e"/>
  <path d="m69.565,76.103c3.26,1.02 6.35,2.47 9.56,3.61 0.73,1.05 1.55,2 2.46,2.85 -3.14,-0.12 -5.96,-1.35 -9.02,-1.84 -3.02,0.07 -4.9,1.53 -7.21,-1.16 1.65,0.12 3.28,0.28 4.92,0.45 -0.63,-0.74 -1.25,-1.49 -1.87,-2.25z" fill="#e4d5cb"/>
  <path d="m120.155,81.773c-0.46,0.98 -0.92,1.96 -1.37,2.94 0.94,-0.25 1.88,-0.5 2.81,-0.75 2.44,1.59 4.03,3.64 5.58,6.06 -0.55,2.02 -1.38,3.71 -0.62,5.82 0.52,2.59 2.91,3.77 5.13,4.7 0.96,-0.78 1.89,-1.93 3.08,-2.36 3.87,-0.35 7.39,-0.51 10.4,2.34 -2.34,0.33 -3.21,-0.11 -5.08,-1.29 -1.99,-1.43 -3.55,0.05 -5.39,0.87 1.71,1.04 3.92,1.77 4.86,3.66 1.26,2.44 3,4.8 2.54,7.67 -0.24,1.64 0.46,2.9 1.06,4.36 -0.84,0.94 -1.67,1.9 -2.48,2.88 1.21,0.16 2.42,0.32 3.63,0.49 -0.45,0.72 -0.89,1.45 -1.34,2.18 -0.69,0.02 -1.38,0.05 -2.07,0.07 -0.28,-0.52 -0.56,-1.03 -0.84,-1.55 0.3,-2.98 0.79,-5.63 -1.09,-8.23 -1.62,-1.67 -2.88,-3.23 -5.46,-3.21 0.54,-0.42 1.07,-0.86 1.57,-1.31 -1.51,-1.85 -3.62,-3.05 -5.9,-1.63 -3.11,1.84 -6.22,1.54 -9.69,1.65 -2.14,-1.94 -2.81,-3.55 -3.23,-6.37 1.63,-0.16 3.34,-0.23 4.95,-0.61 0.63,-0.67 0.94,-1.7 1.25,-2.55 -0.74,-0.6 -1.49,-1.21 -2.23,-1.82 1.61,-0.61 3.21,-1.22 4.81,-1.85 0.14,-1.06 0.33,-2.11 0.55,-3.17 -3.07,0.53 -5.79,1.85 -8.57,3.17l0.74,-2.26c0.21,-1.43 0.4,-2.94 0.11,-4.37 -1.03,-0.75 -2.11,-1.42 -3.24,-2.03 -1.45,0.68 -2.92,1.34 -4.32,2.08 -2.27,1.46 -4.42,2.47 -7,3.26 -0.63,-2.83 -1.35,-5.2 1.76,-6.76 4.78,-3.56 9.6,-2.7 15.09,-2.08z" fill="#d8d5d5"/>
  <path d="m25.275,81.993c2.58,3.9 4.65,8.1 7.16,12.05 0.55,1.09 1.59,2.36 1.54,3.61 -0.75,2.2 -2.25,4.17 -3.32,6.23 0.34,-1.61 0.54,-3.23 0.74,-4.86 -1.44,-1.06 -2.84,-1.86 -4.51,-2.51 0.17,1.19 0.35,2.39 0.52,3.59 -3.21,-1.04 -5.89,-2.95 -9.25,-3.55l0.04,1.35c2.98,2.59 6.8,3.49 9.38,6.7 -1.14,0.39 -2.29,0.78 -3.44,1.16l-0.14,-1.93 -1.48,3.07c-1.98,-1.95 -3.17,-4.74 -4.78,-7.02 -2.19,-2.66 0.02,-4.2 1.26,-6.61 2.38,-3.62 4.01,-7.61 6.28,-11.28z" fill="#eddbd9"/>
  <path d="m73.445,81.883c1.96,0.88 4,1.93 5.64,3.32 0.91,2.63 1.75,5.1 3.42,7.38 -2.77,-0.3 -5.08,-0.62 -7.2,-2.58 1.14,-0.99 2.3,-1.95 3.46,-2.91 -2.32,-1.28 -4.5,-2.69 -6.62,-4.27z" fill="#dbdadc"/>
  <path d="m57.375,82.993c4.2,2.98 9.75,5.71 14.69,7.17 0.52,-0.51 1.04,-1.01 1.56,-1.51 0.56,0.45 1.12,0.9 1.68,1.35 2.12,1.96 4.43,2.28 7.2,2.58 6.78,0.32 14.38,0.54 20.8,-1.97 2.58,-0.79 4.73,-1.8 7,-3.26 2.57,1.31 5.53,2.19 7.45,4.32l-0.74,2.26c-0.73,2.24 -0.88,4.49 -0.76,6.83 0.42,2.82 1.09,4.43 3.23,6.37 3.41,2.77 6.93,1.97 10.8,0.8 0.63,0.56 1.26,1.12 1.9,1.67 -0.16,3.73 0.04,7.45 -0.02,11.17 -0.08,1.67 -0.18,3.34 -0.26,5.02 -3.46,0.19 -7.85,-1.26 -10.92,0.53 -2.5,1.2 -3.61,3.81 -4.1,6.4 0.37,5.13 4.03,7.94 1.91,13.45 -3.14,2.61 -5.65,0.79 -9.19,0.74 -0.45,-2.7 -2.94,-3.12 -5.13,-3.98 -2.76,-0.14 -5.79,1.55 -8.2,2.77 -0.79,0.41 -1.58,0.81 -2.37,1.19 -1.5,0.68 -3.01,1.32 -4.54,1.91 -3.26,0.9 -6.6,1.13 -9.97,1.1l-0.84,-0.09c-1.65,-0.2 -3.3,-0.44 -4.94,-0.74 -1.46,-0.66 -2.93,-1.29 -4.38,-1.97 -2.22,-1.11 -4.31,-2.4 -6.36,-3.78 -2.06,-1.62 -4.09,-3.23 -5.99,-5.03l-0.78,-0.77 -1.35,-1.42c-2.97,-3.17 -5.58,-6.6 -8.78,-9.56 -0.14,-5.21 -0.49,-10.63 0.3,-15.8 2.29,-7.84 7.38,-14.47 14.02,-19.16 1.16,-0.86 2.34,-1.52 3.16,-2.75 0.3,-2.84 -4.59,-3.6 -6.08,-5.84z" fill="#2b2c2e"/>
  <path d="m128.495,82.713c0.56,1.95 0.29,3.15 -0.51,4.95 -0.92,-1.9 -1.27,-3.44 0.51,-4.95z" fill="#edb8b2"/>
  <path d="m89.325,83.663c3.65,1 6.91,-0.7 10.68,-0.32 -0.95,1.86 -2.1,3.45 -3.46,5.02 -0.54,-0.25 -1.07,-0.5 -1.6,-0.74 -0.39,0.19 -0.77,0.38 -1.15,0.57 -0.26,-0.22 -0.52,-0.45 -0.79,-0.68 -1.14,2.88 -3.52,3.2 -6.02,4.45 1.23,-2.65 1.88,-5.42 2.34,-8.3z" fill="#dddcdf"/>
  <path d="m25.335,86.123c2.22,2.89 3.25,7.13 6.39,8.99 -3.77,0.53 -7.51,0.35 -11.3,0.34 1.02,-3.56 3.19,-6.08 4.91,-9.33z" fill="#bd4b22"/>
  <path d="m114.625,85.273c1.13,0.61 2.21,1.28 3.24,2.03 0.29,1.43 0.1,2.94 -0.11,4.37 -1.92,-2.13 -4.88,-3.01 -7.45,-4.32 1.4,-0.74 2.87,-1.4 4.32,-2.08z" fill="#a16158"/>
  <path d="m125.585,90.763c-0.22,1.06 -0.41,2.11 -0.55,3.17 -1.6,0.63 -3.2,1.24 -4.81,1.85 0.74,0.61 1.49,1.22 2.23,1.82 -0.31,0.85 -0.62,1.88 -1.25,2.55 -1.61,0.38 -3.32,0.45 -4.95,0.61 -0.12,-2.34 0.03,-4.59 0.76,-6.83 2.78,-1.32 5.5,-2.64 8.57,-3.17z" fill="#bbb9c1"/>
  <path d="m18.155,96.553c3.36,0.6 6.04,2.51 9.25,3.55 -0.17,-1.2 -0.35,-2.4 -0.52,-3.59 1.67,0.65 3.07,1.45 4.51,2.51 -0.2,1.63 -0.4,3.25 -0.74,4.86 -1.75,3.02 -3.39,6.29 -5.59,8.97 -0.84,-1.64 -1.6,-3.32 -2.08,-5.1 0.39,-0.66 0.78,-1.32 1.15,-1.99 1.15,-0.38 2.3,-0.77 3.44,-1.16 -2.58,-3.21 -6.4,-4.11 -9.38,-6.7z" fill="#d0c2be"/>
  <path d="m140.085,99.233c1.87,1.18 2.74,1.62 5.08,1.29 1.69,1.14 2.76,2.73 3.95,4.34 2.39,5.74 3.95,11.44 2.97,17.72 -1.69,5.97 -6.24,10.65 -12.09,12.68 -3.3,1.86 -8.25,-2.68 -11.32,-0.44 -2.98,1.6 -1.13,5.17 -0.32,7.54 -1.84,0.27 -3.81,0.63 -5.67,0.5 -1.3,-1.07 -1.67,-2.53 -2.38,-4 2.06,-0.12 4.11,-0.23 6.16,-0.33 -0.06,-0.95 -0.11,-1.89 -0.15,-2.84 0.24,-2.02 1.29,-3.47 2.46,-5.05 1.79,0.65 2.97,0.45 4.8,-0.04 -0.61,-1.58 -0.99,-3.21 -1.48,-4.83 1.82,-0.27 4.09,-0.56 5.47,-1.92 1,-1.18 1.76,-2.62 2.49,-3.99 0.28,0.52 0.56,1.03 0.84,1.55 0.69,-0.02 1.38,-0.05 2.07,-0.07 0.45,-0.73 0.89,-1.46 1.34,-2.18 -1.21,-0.17 -2.42,-0.33 -3.63,-0.49 0.81,-0.98 1.64,-1.94 2.48,-2.88 -0.6,-1.46 -1.3,-2.72 -1.06,-4.36 0.46,-2.87 -1.28,-5.23 -2.54,-7.67 -0.94,-1.89 -3.15,-2.62 -4.86,-3.66 1.84,-0.82 3.4,-2.3 5.39,-0.87z" fill="#cfc9c8"/>
  <path d="m128.725,100.973c0.73,-0.68 1.52,-0.68 2.37,-0.01 1.21,2.02 -3.64,2.71 -2.37,0.01z" fill="#906261"/>
  <path d="m129.175,105.483c2.28,-1.42 4.39,-0.22 5.9,1.63 -0.5,0.45 -1.03,0.89 -1.57,1.31 -0.45,0.37 -0.9,0.77 -1.32,1.18 -0.64,-0.55 -1.27,-1.11 -1.9,-1.67 -3.87,1.17 -7.39,1.97 -10.8,-0.8 3.47,-0.11 6.58,0.19 9.69,-1.65z" fill="#e7d7d2"/>
  <path d="m149.115,104.863c0.74,0.32 1.39,0.73 1.94,1.23 3.13,5.22 3.3,10.85 2.74,16.73 -2.53,5.18 -5.41,11 -11.3,12.91 -4.64,2.11 -9.39,-0.59 -13.8,1.07 -0.54,4.49 2.93,7.46 2.11,12.04 -0.16,3.95 -2.6,9.58 -7.45,8.65 3.09,-1.28 4.86,-3.19 5.77,-6.42l0.22,-2.91c-0.44,-0.23 -0.88,-0.46 -1.33,-0.69 0.95,-0.88 1.35,-1.86 1.19,-2.94 -0.28,-0.73 -0.56,-1.45 -0.85,-2.17 -0.81,-2.37 -2.66,-5.94 0.32,-7.54 3.07,-2.24 8.02,2.3 11.32,0.44 5.85,-2.03 10.4,-6.71 12.09,-12.68 0.98,-6.28 -0.58,-11.98 -2.97,-17.72z" fill="#ae5443"/>
  <path d="m133.505,108.423c2.58,-0.02 3.84,1.54 5.46,3.21 -0.1,2.9 0.16,6.19 -0.75,8.96 -0.53,1.59 -2.07,2.2 -3.38,3.03 -0.88,-0.95 -1.78,-1.9 -2.67,-2.85 0.06,-3.72 -0.14,-7.44 0.02,-11.17 0.42,-0.41 0.87,-0.81 1.32,-1.18z" fill="#bc3e1d"/>
  <path d="m138.965,111.633c1.88,2.6 1.39,5.25 1.09,8.23 -0.73,1.37 -1.49,2.81 -2.49,3.99 -1.38,1.36 -3.65,1.65 -5.47,1.92l-0.19,0.02c0.08,-1.68 0.18,-3.35 0.26,-5.02 0.89,0.95 1.79,1.9 2.67,2.85 1.31,-0.83 2.85,-1.44 3.38,-3.03 0.91,-2.77 0.65,-6.06 0.75,-8.96z" fill="#a24d3d"/>
  <path d="m37.675,124.293c-0.55,1.55 -0.93,3.12 -1.23,4.73 2.77,-0.69 2.79,-1.61 2.37,-4.14 2.21,1.2 4.7,1.38 7.16,1.66 3.2,2.96 5.81,6.39 8.78,9.56 -2.97,0.87 -4,3.03 -5.62,5.39 -1.21,-1.6 -2.39,-3.26 -3.68,-4.8 0.31,-1.58 0.63,-3.17 0.96,-4.75 -0.86,0 -1.72,0 -2.58,0.03 -0.23,0.9 -0.45,1.81 -0.66,2.72 -0.5,-0.41 -1.02,-0.8 -1.54,-1.18 0.42,-1.84 0.74,-3.68 0.88,-5.56 -2.07,1.04 -2.67,1.97 -3.6,4.09 -1.15,-0.44 -2.27,-0.58 -3.36,-0.42 -2.67,2.36 -4.48,5.52 -7.04,8.02 0.8,-1.21 1.63,-2.4 2.45,-3.59 0.07,-2.69 0.39,-4.85 1.56,-7.29 -2.36,-0.66 -4.55,-1.44 -7.05,-1.14 -1.36,0.53 -2.66,1.43 -3.9,2.21 2.55,-2.51 5.13,-5.25 8.75,-6.15 2.43,-0.38 5.14,-0.72 7.35,0.61z" fill="#d0c7c3"/>
  <path d="m37.675,124.293 l1.14,0.59c0.42,2.53 0.4,3.45 -2.37,4.14 0.3,-1.61 0.68,-3.18 1.23,-4.73z" fill="#e9dcd0"/>
  <path d="m120.985,126.323c3.07,-1.79 7.46,-0.34 10.92,-0.53l0.19,-0.02c0.49,1.62 0.87,3.25 1.48,4.83 -1.83,0.49 -3.01,0.69 -4.8,0.04 -1.17,1.58 -2.22,3.03 -2.46,5.05l-1.07,0.21c-0.89,-0.93 -1.71,-2.3 -2.92,-2.84 -1.15,0.21 -2.29,0.47 -3.42,0.8 -0.67,-0.39 -1.34,-0.77 -2.02,-1.14 0.49,-2.59 1.6,-5.2 4.1,-6.4z" fill="#c6c7c9"/>
  <path d="m42.515,127.953c-0.14,1.88 -0.46,3.72 -0.88,5.56 -0.9,-0.51 -1.8,-1 -2.72,-1.47 0.93,-2.12 1.53,-3.05 3.6,-4.09z" fill="#e5d8d7"/>
  <path d="m43.835,131.973c0.86,-0.03 1.72,-0.03 2.58,-0.03 -0.33,1.58 -0.65,3.17 -0.96,4.75 -0.74,-0.68 -1.5,-1.35 -2.28,-2 0.21,-0.91 0.43,-1.82 0.66,-2.72z" fill="#e6dbdc"/>
  <path d="m116.885,132.723c0.68,0.37 1.35,0.75 2.02,1.14 0.86,0.84 1.54,2.53 2.76,2.82 1.2,-0.19 2.4,-0.45 3.58,-0.78l1.07,-0.21c0.04,0.95 0.09,1.89 0.15,2.84 -2.05,0.1 -4.1,0.21 -6.16,0.33 0.71,1.47 1.08,2.93 2.38,4 1.86,0.13 3.83,-0.23 5.67,-0.5 0.29,0.72 0.57,1.44 0.85,2.17 -2.14,-0.2 -7.24,-2 -6.65,1.99 1.81,0.38 3.64,0.63 5.46,0.95 0.45,0.23 0.89,0.46 1.33,0.69 -2.47,0.61 -4.83,0.78 -6.92,2.35 2.23,0.26 4.46,0.42 6.7,0.56 -0.91,3.23 -2.68,5.14 -5.77,6.42 -3.91,-0.21 -7.57,-0.25 -11.06,-2.28 1.05,-1.46 2.13,-2.88 3.28,-4.27 1.52,0.59 3.05,1.15 4.59,1.69 -0.19,-2.22 -0.7,-4.34 -1.37,-6.46 2.12,-5.51 -1.54,-8.32 -1.91,-13.45z" fill="#c9bcb6"/>
  <path d="m122.325,133.063c1.21,0.54 2.03,1.91 2.92,2.84 -1.18,0.33 -2.38,0.59 -3.58,0.78 -1.22,-0.29 -1.9,-1.98 -2.76,-2.82 1.13,-0.33 2.27,-0.59 3.42,-0.8z" fill="#dddad9"/>
  <path d="m54.755,136.103 l1.35,1.42c-1.27,1.73 -2.52,3.48 -3.77,5.23 1.44,1.84 2.92,3.65 4.42,5.44 0.86,-1.02 1.41,-2.03 1.89,-3.26 -1.28,-1.22 -2.31,-2.63 -3.48,-3.96 0.57,-0.89 1.14,-1.79 1.72,-2.68 1.9,1.8 3.93,3.41 5.99,5.03 1.08,2.22 2.21,4.57 2.66,7.02 -1.05,0.28 -2.1,0.57 -3.15,0.86 1.94,1.21 3.56,2.61 5.96,2.65 1.13,-2.28 1.11,-4.3 0.89,-6.75 1.45,0.68 2.92,1.31 4.38,1.97 0.7,0.53 1.39,1.07 2.08,1.62 -0.35,1.32 -0.69,2.64 -1.04,3.95 1.21,-0.01 2.42,0 3.63,0.05 0.06,-1.63 0.15,-3.26 0.27,-4.88l0.84,0.09c2.06,0.27 4.12,0.63 6.16,1.01 -0.66,1.39 -1.42,1.45 -2.75,1.9 -0.04,0.85 -0.08,1.69 -0.12,2.53 1.83,-0.73 3.49,-1 5.47,-1.07 0.44,-1.81 0.87,-3.63 1.21,-5.47 1.53,-0.59 3.04,-1.23 4.54,-1.91 0.21,2.11 0.19,4.07 -0.1,6.18 1.27,0.07 2.44,-0.04 3.54,0.74 -1.16,0.96 -2.17,1.88 -3.68,2.22 -4.57,1.25 -9.46,2.62 -14.19,1.89 -2.74,-0.38 -5.42,-0.11 -8.15,0.16 -1.59,-0.65 -2.79,-1.76 -4.25,-2.6 -1.43,-0.62 -3.12,-0.95 -4.39,-1.84 -4.96,-3.46 -9.59,-7.58 -13.55,-12.15 1.62,-2.36 2.65,-4.52 5.62,-5.39z" fill="#dbdcdc"/>
  <path d="m56.105,137.523 l0.78,0.77c-0.58,0.89 -1.15,1.79 -1.72,2.68 1.17,1.33 2.2,2.74 3.48,3.96 -0.48,1.23 -1.03,2.24 -1.89,3.26 -1.5,-1.79 -2.98,-3.6 -4.42,-5.44 1.25,-1.75 2.5,-3.5 3.77,-5.23z" fill="#cac1c1"/>
  <path d="m104.475,142.933c2.19,0.86 4.68,1.28 5.13,3.98 3.54,0.05 6.05,1.87 9.19,-0.74 0.67,2.12 1.18,4.24 1.37,6.46 -1.54,-0.54 -3.07,-1.1 -4.59,-1.69 -1.15,1.39 -2.23,2.81 -3.28,4.27l-1.13,-0.56c0.05,-1.65 0.2,-3.3 0.32,-4.95 -2.85,1.01 -5.44,2.12 -8.55,1.68 -0.98,1.85 -1.09,2.98 -3.39,3.34 0.64,-1.17 1.31,-2.33 1.97,-3.49 -0.9,0.09 -1.79,0.18 -2.68,0.28 -0.85,-1.94 -1.7,-3.88 -2.56,-5.81 2.41,-1.22 5.44,-2.91 8.2,-2.77z" fill="#d7d5d7"/>
  <path d="m62.875,143.323c2.05,1.38 4.14,2.67 6.36,3.78 0.22,2.45 0.24,4.47 -0.89,6.75 -2.4,-0.04 -4.02,-1.44 -5.96,-2.65 1.05,-0.29 2.1,-0.58 3.15,-0.86 -0.45,-2.45 -1.58,-4.8 -2.66,-7.02z" fill="#c2bdc6"/>
  <path d="m129.205,144.533c0.16,1.08 -0.24,2.06 -1.19,2.94 -1.82,-0.32 -3.65,-0.57 -5.46,-0.95 -0.59,-3.99 4.51,-2.19 6.65,-1.99z" fill="#ddd6df"/>
  <path d="m96.275,145.703c0.86,1.93 1.71,3.87 2.56,5.81 0.89,-0.1 1.78,-0.19 2.68,-0.28 -0.66,1.16 -1.33,2.32 -1.97,3.49 2.3,-0.36 2.41,-1.49 3.39,-3.34 3.11,0.44 5.7,-0.67 8.55,-1.68 -0.12,1.65 -0.27,3.3 -0.32,4.95 -4.41,-0.64 -6.44,2.02 -9.94,3.91 -2.03,1.27 -4.49,0.62 -6.73,0.48 -0.65,0.64 -1.3,1.28 -1.95,1.92 -6.96,0.49 -14.82,0.17 -21.22,-2.88 2.73,-0.27 5.41,-0.54 8.15,-0.16 4.73,0.73 9.62,-0.64 14.19,-1.89 1.51,-0.34 2.52,-1.26 3.68,-2.22 -1.1,-0.78 -2.27,-0.67 -3.54,-0.74 0.29,-2.11 0.31,-4.07 0.1,-6.18 0.79,-0.38 1.58,-0.78 2.37,-1.19z" fill="#c7c0b9"/>
  <path d="m73.615,149.073c1.64,0.3 3.29,0.54 4.94,0.74 -0.12,1.62 -0.21,3.25 -0.27,4.88 -1.21,-0.05 -2.42,-0.06 -3.63,-0.05 0.35,-1.31 0.69,-2.63 1.04,-3.95 -0.69,-0.55 -1.38,-1.09 -2.08,-1.62z" fill="#b7b6b9"/>
  <path d="m89.365,148.803c-0.34,1.84 -0.77,3.66 -1.21,5.47 -1.98,0.07 -3.64,0.34 -5.47,1.07 0.04,-0.84 0.08,-1.68 0.12,-2.53 1.33,-0.45 2.09,-0.51 2.75,-1.9 -2.04,-0.38 -4.1,-0.74 -6.16,-1.01 3.37,0.03 6.71,-0.2 9.97,-1.1z" fill="#bababa"/>
  <path d="m129.345,148.163 l-0.22,2.91c-2.24,-0.14 -4.47,-0.3 -6.7,-0.56 2.09,-1.57 4.45,-1.74 6.92,-2.35z" fill="#e3dddb"/>
  <path d="m123.545,152.253c1.14,-0.13 2.01,0.16 2.63,0.88 -0.02,2.05 -5.49,0.49 -2.63,-0.88z" fill="#e2e5e2"/>
</svg>
