<?xml version="1.0" ?>
<svg xmlns="http://www.w3.org/2000/svg" width="179" height="179.10765" viewBox="0 0 179 179.10765">
  <path d="m127.19,8.556c-2.63,2.65 -6.92,7.56 -7.07,11.29 3.88,1.31 9.45,-8.14 7.07,-11.29 5.37,3.4 12.13,6.64 16.6,11.05 -0.41,2.33 1.11,3.47 2.31,5.23 18.03,23.07 18.83,56.71 2.84,81.1 -7.4,11.38 -18.09,19.95 -30.23,25.91 -0.69,0.34 -1.39,0.68 -2.08,1.03 -16.03,-2.57 -32.91,-2.88 -48.94,-0.2 -0.84,0.21 -1.69,0.42 -2.54,0.63 -1.38,-0.39 -2.73,-0.84 -4.07,-1.34 -12.19,-6.56 -24.67,-15.36 -31.18,-27.94 -15.32,-24.99 -13.39,-58.9 5.86,-81.32 1.1,-1.41 1.72,-2.27 1.46,-4.12C61.31,-2.004 99.24,-5.694 127.19,8.556Z" fill="#2d3740"/>
  <path d="m127.19,8.556c2.38,3.15 -3.19,12.6 -7.07,11.29 0.15,-3.73 4.44,-8.64 7.07,-11.29z" fill="#465059"/>
  <path d="m99.24,14.666c-6.16,0.46 -12.32,0.46 -18.48,0 5.08,-1.13 13.4,-1.13 18.48,0z" fill="#9ea9a5"/>
  <path d="m80.76,14.666c6.16,0.46 12.32,0.46 18.48,0 23.65,4.58 41.07,23.12 43.99,47.08 -0.16,3.05 -0.25,6.08 -0.14,9.13 -0.33,7.87 -2.91,15.06 -6.41,22.03 -0.27,0.58 -0.54,1.16 -0.81,1.74 -0.75,1.13 -1.53,2.24 -2.31,3.35 -0.89,1.18 -1.73,2.39 -2.59,3.59l-1.25,1.29c-1.27,1.21 -2.51,2.45 -3.71,3.73l-1.26,1.27c-1.23,1 -2.49,1.98 -3.74,2.97l-1.38,1.07c-1.2,0.64 -2.41,1.24 -3.57,1.93l-1.51,0.93c-0.63,0.37 -1.26,0.75 -1.88,1.12 -2.47,0.86 -4.96,1.62 -7.45,2.4 0.62,-5.54 3.94,-5.47 8.54,-6.01 0.19,-1.29 0.25,-2.61 0.37,-3.91 2.31,2.7 5.92,-0.85 8.4,-1.91 3.06,-3.45 5.23,-7.6 8.59,-10.89 8.76,-10.29 11.05,-26.99 7.23,-39.77 -0.93,-4.12 -2.8,-7.7 -2.96,-11.97 -2.48,-1.53 -3.43,-4.61 -5.37,-6.89 -9.37,-12.03 -22.49,-17.85 -37.23,-20.29 -14.79,-0.25 -32.48,6.5 -40.92,19.12 -13.39,14.83 -15.33,38.35 -5.2,55.56 1.31,2.11 -0.12,3.71 -0.58,5.87 -11.95,-16.96 -12.42,-41.66 -0.67,-58.85 8,-12.62 20.73,-20.85 35.34,-23.69z" fill="#cfd9d0"/>
  <path d="m92.79,16.656c14.74,2.44 27.86,8.26 37.23,20.29 1.94,2.28 2.89,5.36 5.37,6.89 0.16,4.27 2.03,7.85 2.96,11.97 -0.34,4.74 -0.76,1.01 -3.2,2.59 -0.81,-4.31 -1.82,-10.41 -5.77,-12.88 -2.91,3.85 -3.26,4.63 -8.25,3.91 -0.39,-4.51 -0.38,-2.96 2.89,-1.75 1.09,-3.26 -0.43,-3.51 3.76,-4.06 -2.96,-5.36 -6.79,-6.08 -12.19,-7.82 0.1,-2.86 0.35,-5.65 0.01,-8.51 -3.3,-1.56 -8.63,0.93 -9.7,-3.14 -0.8,-4.57 -9.75,-4.16 -13.14,-2.88 -5.58,-4.11 -17.8,1.62 -16.91,9.65 -0.02,4 -5.74,3.43 -7.92,4.96 -2.03,4.12 -5.82,5.6 -4.89,9.99 0.62,3.2 6.86,4.03 5.35,7.45 -1.13,3.65 1.48,5.11 3.8,7.29 1.51,-2.37 10.28,-3 9.62,0.07 -5.42,0.22 -7.5,1.12 -11.35,4.82 -1.62,1.34 1.15,2.52 2.15,3.03 -0.34,5.68 -4.79,9.96 -10.66,7.65 -6.15,0.42 1.94,2.39 3.56,2.17 1.24,5.12 3.93,7.9 9.15,8.63 -1.33,4.72 -1.58,7.01 -5.39,10.31 -4.25,4.54 8.41,3.2 5.92,7.09 -4.43,-2.81 -11.55,-0.59 -12.49,-6.15 -2.17,-3.22 -7.08,-3.94 -10.28,-1.92 -2.62,-2.47 -2.21,-3.39 -1.15,-6.55 -0.78,-2.4 -1.08,-4.08 -0.92,-6.64 -1.12,-3.16 -5.06,3.12 -4.38,-1.13 -1.06,-6.71 3.68,-7.05 4.55,-12.48 2.77,-0.95 3.04,-0.91 4,-3.75 2.15,-0.94 4.85,-1.35 6.72,-2.79 -2.51,-4.14 -13.06,-2.81 -14.29,-10.02 -1.12,-4.27 5.75,-4.46 2.91,-7.79 -1.9,-2.87 2.96,-5.74 2.01,-9.38 8.44,-12.62 26.13,-19.37 40.92,-19.12z" fill="#bdc7c0"/>
  <path d="m37.22,18.586c0.26,1.85 -0.36,2.71 -1.46,4.12 -19.25,22.42 -21.18,56.33 -5.86,81.32 6.51,12.58 18.99,21.38 31.18,27.94 -1.89,0.71 -3.77,1.47 -5.67,2.14 -9.02,-3.85 -16.19,-11.6 -23.45,-18.11 -8.56,-10.11 -12.62,-24.11 -16.41,-36.64 -2.05,-15.67 0.74,-33.49 8.44,-47.4 0.44,-2.57 6.58,-6.27 1.98,-7.35 4.03,-1.54 7.92,-3.2 11.25,-6.02z" fill="#a47667"/>
  <path d="m92.76,21.266c3.39,-1.28 12.34,-1.69 13.14,2.88 1.07,4.07 6.4,1.58 9.7,3.14 0.34,2.86 0.09,5.65 -0.01,8.51 5.4,1.74 9.23,2.46 12.19,7.82 -4.19,0.55 -2.67,0.8 -3.76,4.06 -3.27,-1.21 -3.28,-2.76 -2.89,1.75 4.99,0.72 5.34,-0.06 8.25,-3.91 3.95,2.47 4.96,8.57 5.77,12.88 2.44,-1.58 2.86,2.15 3.2,-2.59 3.82,12.78 1.53,29.48 -7.23,39.77 -4.63,-2.25 -2.79,5.69 -7.46,2.02 -2.72,0.81 -4.53,7.54 -8.3,8.53 0.51,-1.35 1.09,-2.66 1.59,-4.02 -3.69,2.33 -7.34,3.79 -5.66,8.73 -5.02,2.83 -10.16,1.85 -15.29,4.13 -9.09,2.81 -17.29,-2.15 -23.11,-8.81 -2.21,-1.95 2.41,0.39 2.3,-1.78 2.49,-3.89 -10.17,-2.55 -5.92,-7.09 3.81,-3.3 4.06,-5.59 5.39,-10.31 -5.22,-0.73 -7.91,-3.51 -9.15,-8.63 -1.62,0.22 -9.71,-1.75 -3.56,-2.17 5.87,2.31 10.32,-1.97 10.66,-7.65 -1,-0.51 -3.77,-1.69 -2.15,-3.03 3.85,-3.7 5.93,-4.6 11.35,-4.82 0.66,-3.07 -8.11,-2.44 -9.62,-0.07 -2.32,-2.18 -4.93,-3.64 -3.8,-7.29 1.51,-3.42 -4.73,-4.25 -5.35,-7.45 -0.93,-4.39 2.86,-5.87 4.89,-9.99 2.18,-1.53 7.9,-0.96 7.92,-4.96 -0.89,-8.03 11.33,-13.76 16.91,-9.65z" fill="#c7cfc9"/>
  <path d="m143.79,19.606c3.04,1.83 6.23,3.34 9.3,5.11 5.65,13.49 12.25,25.06 11.94,40.25 -0.17,14.03 -2.6,29.66 -10.51,41.57 -7.25,10.73 -17.74,21.77 -29.72,26.98 -2.05,-0.5 -4.09,-1.01 -6.09,-1.67 12.14,-5.96 22.83,-14.53 30.23,-25.91 15.99,-24.39 15.19,-58.03 -2.84,-81.1 -1.2,-1.76 -2.72,-2.9 -2.31,-5.23z" fill="#a07062"/>
  <path d="m40.94,22.406c3.27,-0.92 8.81,1.97 8.99,5.44 -3.73,0.79 -7.79,-1.93 -8.99,-5.44z" fill="#46525d"/>
  <path d="m25.97,24.606c4.6,1.08 -1.54,4.78 -1.98,7.35 -7.7,13.91 -10.49,31.73 -8.44,47.4 3.79,12.53 7.85,26.53 16.41,36.64 7.26,6.51 14.43,14.26 23.45,18.11 -7.63,3.87 -16.36,-5.38 -21.26,-10.3 -20.82,-20.26 -28.73,-51.43 -20.41,-79.15 2.17,-6.07 4.54,-12.01 7.07,-17.95 1.71,-0.71 3.43,-1.43 5.16,-2.1z" fill="#b9a072"/>
  <path d="m153.09,24.716c2.02,0.57 3.92,1.27 5.82,2.17 13.13,23.77 14.08,54.01 1.11,78.09 -7.2,12.28 -15.27,23.17 -28.37,29.6 -2.49,0.98 -4.73,0.42 -6.85,-1.06 11.98,-5.21 22.47,-16.25 29.72,-26.98 7.91,-11.91 10.34,-27.54 10.51,-41.57 0.31,-15.19 -6.29,-26.76 -11.94,-40.25z" fill="#b59a6d"/>
  <path d="m36.32,26.326c2.35,-0.06 9.24,4.86 9.54,7.48 -4.77,1.4 -7.89,-3.07 -10.95,-5.93 0.37,-0.64 0.84,-1.16 1.41,-1.55z" fill="#46545c"/>
  <path d="m20.81,26.706c-2.53,5.94 -4.9,11.88 -7.07,17.95 -8.32,27.72 -0.41,58.89 20.41,79.15 4.9,4.92 13.63,14.17 21.26,10.3 1.9,-0.67 3.78,-1.43 5.67,-2.14 1.34,0.5 2.69,0.95 4.07,1.34 -7.27,2.28 -14.93,3.12 -22.07,5.5 0.34,-1.36 1.07,-1.56 -0.45,-2.42 -24.05,-16.32 -38.02,-44.31 -36.44,-73.38 0.81,-12.6 4.52,-23.4 8.98,-35.01 1.87,-0.48 3.75,-0.9 5.64,-1.29z" fill="#7f878b"/>
  <path d="m158.91,26.886c1.73,0.24 3.46,0.49 5.16,0.89 13.13,25.86 13.04,57.15 -2.03,82.21 -6.1,11.58 -15.14,19.31 -25.07,27.38 -2.85,-1.92 -5.31,-0.06 -8.35,-0.96 -3.98,-0.98 -7.89,-2.16 -11.95,-2.78l-0.04,-0.75c0.69,-0.35 1.39,-0.69 2.08,-1.03 2,0.66 4.04,1.17 6.09,1.67 2.12,1.48 4.36,2.04 6.85,1.06 13.1,-6.43 21.17,-17.32 28.37,-29.6 12.97,-24.08 12.02,-54.32 -1.11,-78.09z" fill="#7a8186"/>
  <path d="m15.17,27.996c-4.46,11.61 -8.17,22.41 -8.98,35.01 -1.58,29.07 12.39,57.06 36.44,73.38 1.52,0.86 0.79,1.06 0.45,2.42 -5.63,0.8 -10.35,3.36 -15.61,5.24 -3.56,-6.21 -10.31,-10.2 -14.39,-16.12 -4.33,-6.62 -9.18,-12.65 -12.01,-20.14 -0.32,-25.21 0.29,-50.52 -0.3,-75.72 0.14,-0.96 0.32,-1.92 0.52,-2.88 4.67,-0.34 9.27,-0.12 13.88,-1.19z" fill="#404757"/>
  <path d="m164.07,27.776c4.95,1.18 9.86,1.32 14.93,1.3v79.56c-3.68,5.73 -6.57,12.11 -10.66,17.65 -4.4,6.16 -10.61,10.83 -15.55,16.67 -5.23,-2.1 -10.46,-3.86 -15.82,-5.59 9.93,-8.07 18.97,-15.8 25.07,-27.38 15.07,-25.06 15.16,-56.35 2.03,-82.21z" fill="#454b5d"/>
  <path d="m0,31.396 l0.77,0.67c0.59,25.2 -0.02,50.51 0.3,75.72l-1.07,-0.12z" fill="#1b1e28"/>
  <path d="m51.87,35.776c0.95,3.64 -3.91,6.51 -2.01,9.38 2.84,3.33 -4.03,3.52 -2.91,7.79 1.23,7.21 11.78,5.88 14.29,10.02 -1.87,1.44 -4.57,1.85 -6.72,2.79 -0.96,2.84 -1.23,2.8 -4,3.75 -0.87,5.43 -5.61,5.77 -4.55,12.48 -0.68,4.25 3.26,-2.03 4.38,1.13 -0.16,2.56 0.14,4.24 0.92,6.64 -1.06,3.16 -1.47,4.08 1.15,6.55 3.2,-2.02 8.11,-1.3 10.28,1.92 0.94,5.56 8.06,3.34 12.49,6.15 0.11,2.17 -4.51,-0.17 -2.3,1.78 5.82,6.66 14.02,11.62 23.11,8.81 5.13,-2.28 10.27,-1.3 15.29,-4.13 -1.68,-4.94 1.97,-6.4 5.66,-8.73 -0.5,1.36 -1.08,2.67 -1.59,4.02 3.77,-0.99 5.58,-7.72 8.3,-8.53 4.67,3.67 2.83,-4.27 7.46,-2.02 -3.36,3.29 -5.53,7.44 -8.59,10.89 -2.48,1.06 -6.09,4.61 -8.4,1.91 -0.12,1.3 -0.18,2.62 -0.37,3.91 -4.6,0.54 -7.92,0.47 -8.54,6.01 -2.71,1.2 -5.25,1.65 -8.2,1.8 1.32,-0.67 2.69,-1.23 4.09,-1.71 3.59,-0.83 1.65,-3.39 -1.15,-2.47 -10.27,2.23 -21.38,0.64 -31.05,-3.21 -0.6,0.19 -1.19,0.39 -1.79,0.6 -2.12,-4.59 -8.16,-6.02 -11.42,-10.04 -2.2,-2.36 -2.1,-0.74 -4.07,0.72 -0.53,-0.45 -1.06,-0.9 -1.6,-1.35 -0.59,-0.85 -1.18,-1.71 -1.79,-2.54 -0.71,-0.97 -1.45,-1.92 -2.15,-2.89 0.46,-2.16 1.89,-3.76 0.58,-5.87 -10.13,-17.21 -8.19,-40.73 5.2,-55.56z" fill="#b4bfb8"/>
  <path d="m150.35,46.336c1.15,-0.25 2.33,-0.37 3.53,-0.36 -0.03,4.1 -9.25,7.4 -11.63,4.82 0.38,-2.11 6.08,-3.81 8.1,-4.46z" fill="#4a535d"/>
  <path d="m105.26,47.226c-2.05,6.2 5.22,-0.73 0,0z" fill="#808881"/>
  <path d="m26.35,52.286c3.01,-0.36 6.35,0.59 9.33,1.09 3.37,3.83 -3.34,3.63 -5.65,3.56 -2.97,-0.58 -11.69,-2.86 -3.68,-4.65z" fill="#56626a"/>
  <path d="m156.94,54.156c0.01,3.18 -6.59,3.81 -8.89,4.07 -1.34,0.16 -2.65,0.35 -3.99,0.44 -1.26,-5.58 9.74,-4.87 12.88,-4.51z" fill="#4f5961"/>
  <path d="m28.23,59.626c2.37,0.58 9.37,-1.07 7.53,3.04 -3.65,2.05 -10.34,2.16 -13.53,-0.87 -0.24,-2.1 4.58,-2.01 6,-2.17z" fill="#5c6770"/>
  <path d="m145.13,61.176c3.81,-0.35 7.79,-0.49 11.58,0.06 2.68,2.02 -0.96,2.09 -2.36,3.07 -3.22,0.63 -11.25,2.76 -9.22,-3.13z" fill="#4e5a62"/>
  <path d="m143.23,61.746c0.5,1.99 0.75,4.02 1.14,6.03 3.86,0.03 11.63,-1.41 13.53,2.97 -5.16,2.69 -9.29,0.03 -14.81,0.13 -0.11,-3.05 -0.02,-6.08 0.14,-9.13z" fill="#4a565d"/>
  <path d="m24.34,67.316c2.86,-0.19 10.45,-1.76 11.72,1.58 -2.74,2.45 -10.13,2.38 -13.78,1.81 -3.04,-2.45 -0.05,-2.65 2.06,-3.39z" fill="#606a74"/>
  <path d="m25.34,74.316c3.45,-0.65 7.12,-0.48 10.6,-0.14 0.41,4 -9.29,3.92 -11.86,3.71 -3.98,-1.72 -1.66,-2.91 1.26,-3.57z" fill="#5e6871"/>
  <path d="m31.35,80.306c1.13,-0.07 7.29,-1.38 5.13,1.15 -4.45,2.88 -7.96,4.37 -13.42,3.33 -0.1,-2.89 6.14,-3.8 8.29,-4.48z" fill="#58666e"/>
  <path d="m136.68,92.906c4.93,3.26 7.86,1.75 9.36,8.82 -4.46,-1.29 -8.45,-2.22 -10.17,-7.08 0.27,-0.58 0.54,-1.16 0.81,-1.74z" fill="#465158"/>
  <path d="m133.56,97.996c3.75,5 10.36,3.76 11.22,10.94 -7.28,1.06 -8.23,-4.76 -13.81,-7.35 0.86,-1.2 1.7,-2.41 2.59,-3.59z" fill="#4c555b"/>
  <path d="m48.24,100.096c0.61,0.83 1.2,1.69 1.79,2.54 -2.93,3.14 -6.94,9.99 -11.91,9.21 -0.91,-5.53 8.83,-8.25 10.12,-11.75z" fill="#566167"/>
  <path d="m55.7,103.266c3.26,4.02 9.3,5.45 11.42,10.04 0.6,-0.21 1.19,-0.41 1.79,-0.6 9.67,3.85 20.78,5.44 31.05,3.21 0.04,0.98 0.42,1.8 1.15,2.47 -1.4,0.48 -2.77,1.04 -4.09,1.71 -4.76,-0.2 -9.51,-0.26 -14.27,0.21 -7.96,-1.37 -15.62,-4.56 -22.55,-8.66 -0.66,-0.46 -1.32,-0.93 -1.98,-1.39 -2.4,-1.88 -4.52,-4.04 -6.59,-6.27 1.97,-1.46 1.87,-3.08 4.07,-0.72z" fill="#c8d3cb"/>
  <path d="m129.72,102.876c3.1,2.81 7.43,6.58 8.22,10.88 -6.09,0.63 -6.7,-5.02 -11.93,-7.15 1.2,-1.28 2.44,-2.52 3.71,-3.73z" fill="#576065"/>
  <path d="m52.85,107.006c1.29,4.57 -2.6,8.5 -6.16,10.66 -5.88,1.95 -0.67,-6.49 1.57,-7.49 1.42,-1.11 2.7,-3.1 4.59,-3.17z" fill="#5a636a"/>
  <path d="m1.07,107.786c2.83,7.49 7.68,13.52 12.01,20.14 4.08,5.92 10.83,9.91 14.39,16.12 -4.08,1.82 -8.44,3.5 -12.14,6.03 0.18,0.59 0.38,1.17 0.6,1.75 -4.88,-1 -9.77,-1.66 -14.72,-2.15 -0.48,-13.91 -0.14,-27.96 -0.14,-41.89z" fill="#212d39"/>
  <path d="m124.75,107.876c3.33,3.41 6.72,5.93 7.15,11.07 -4.17,-1.14 -7.39,-5.61 -10.89,-8.1 1.25,-0.99 2.51,-1.97 3.74,-2.97z" fill="#546064"/>
  <path d="m179,108.636v41.34c-4,-0.21 -7.82,0.86 -11.79,0.82 -4.17,-3.45 -9.62,-5.39 -14.42,-7.84 4.94,-5.84 11.15,-10.51 15.55,-16.67 4.09,-5.54 6.98,-11.92 10.66,-17.65z" fill="#202c3a"/>
  <path d="m58.22,110.256c0.66,0.46 1.32,0.93 1.98,1.39 -6.19,3.1 -2.2,10.04 -10.07,10.21 -1.14,-6.76 5.04,-7.02 8.09,-11.6z" fill="#4d5961"/>
  <path d="m119.63,111.916c1.76,3.65 5.72,6.93 6.31,10.94 -5.15,1.73 -6.77,-6.11 -9.88,-9.01 1.16,-0.69 2.37,-1.29 3.57,-1.93z" fill="#515962"/>
  <path d="m114.55,114.776c1.82,3.23 4.08,5.63 5.27,9.06 -5.68,5.58 -6.06,-4.3 -7.15,-7.94 0.62,-0.37 1.25,-0.75 1.88,-1.12z" fill="#4b565a"/>
  <path d="m99.96,115.916c2.8,-0.92 4.74,1.64 1.15,2.47 -0.73,-0.67 -1.11,-1.49 -1.15,-2.47z" fill="#626a67"/>
  <path d="m82.75,120.306c4.76,-0.47 9.51,-0.41 14.27,-0.21 -4.36,1.57 -9.78,1.09 -14.27,0.21z" fill="#6b7574"/>
  <path d="m116.63,132.876 l0.04,0.75c0.02,5.28 3.88,7.02 8.1,8.85 -3.91,6.27 -5.8,-2.57 -9.77,2.45 1.63,3.79 4.89,5.4 0.98,9.3 -1.54,-1.41 -1.2,-3.06 -1.55,-4.92 -1.72,-1.52 -3.88,-1.3 -6.04,-1.45 1.8,4.4 4.93,10.58 -2.14,11.13 1.22,2.93 2.69,2.99 -1.4,2.51 1.47,2.26 3.58,3.14 3.17,6.22 -2.12,-0.5 -4.43,-1.2 -6.22,-2.48 -2.3,-4.29 6.91,-8.92 0.32,-11.39 -0.81,-1.88 -2.14,-7.41 -0.29,-9.15 -4.14,-4.43 -7.02,3.91 -11.26,-1.98 -2.64,1.09 -3.09,0.51 -5.54,-0.63 0.13,2.12 1.25,3.72 1.84,5.7 -1.16,0.48 -2.25,-1.75 -3.16,-2.36 -1.77,0.94 -3.47,2.02 -5.25,2.96 1.42,1.62 1.87,2.76 2.38,4.83 1.21,1.39 4.44,-0.36 6.1,0.87 -1.49,3.47 -6.19,2.09 -8.93,4.91 -4.36,2.23 -2.74,0.25 -1.14,-2.26 -5.19,-3.43 -4.35,-5.78 -4.53,-11.33 2.7,-3.18 -6.99,-4.66 -2.7,-0.35 -4.36,0.28 -4.99,-0.96 -5.76,-4.88 1.18,-2.57 2.25,-5.18 3.81,-7.5 16.03,-2.68 32.91,-2.37 48.94,0.2z" fill="#567eac"/>
  <path d="m65.15,133.306c0.85,-0.21 1.7,-0.42 2.54,-0.63 -1.56,2.32 -2.63,4.93 -3.81,7.5 0.77,3.92 1.4,5.16 5.76,4.88 -4.29,-4.31 5.4,-2.83 2.7,0.35 0.18,5.55 -0.66,7.9 4.53,11.33 -1.6,2.51 -3.22,4.49 1.14,2.26 2.74,-2.82 7.44,-1.44 8.93,-4.91 -1.66,-1.23 -4.89,0.52 -6.1,-0.87 -0.51,-2.07 -0.96,-3.21 -2.38,-4.83 1.78,-0.94 3.48,-2.02 5.25,-2.96 0.91,0.61 2,2.84 3.16,2.36 -0.59,-1.98 -1.71,-3.58 -1.84,-5.7 2.45,1.14 2.9,1.72 5.54,0.63 4.24,5.89 7.12,-2.45 11.26,1.98 -1.85,1.74 -0.52,7.27 0.29,9.15 6.59,2.47 -2.62,7.1 -0.32,11.39 1.79,1.28 4.1,1.98 6.22,2.48 0.41,-3.08 -1.7,-3.96 -3.17,-6.22 4.09,0.48 2.62,0.42 1.4,-2.51 7.07,-0.55 3.94,-6.73 2.14,-11.13 2.16,0.15 4.32,-0.07 6.04,1.45 0.35,1.86 0.01,3.51 1.55,4.92 3.91,-3.9 0.65,-5.51 -0.98,-9.3 3.97,-5.02 5.86,3.82 9.77,-2.45 -4.22,-1.83 -8.08,-3.57 -8.1,-8.85 4.06,0.62 7.97,1.8 11.95,2.78 3.04,0.9 5.5,-0.96 8.35,0.96 5.36,1.73 10.59,3.49 15.82,5.59 4.8,2.45 10.25,4.39 14.42,7.84 -15.52,2.11 -25.66,11.11 -38.19,19.2 -20.19,10.39 -46.06,11.92 -67.42,4.46 -17.5,-4.98 -26.94,-19.99 -45.67,-22.63 -0.22,-0.58 -0.42,-1.16 -0.6,-1.75 3.7,-2.53 8.06,-4.21 12.14,-6.03 5.26,-1.88 9.98,-4.44 15.61,-5.24 7.14,-2.38 14.8,-3.22 22.07,-5.5z" fill="#5f87b0"/>
</svg>
