<?xml version="1.0" ?>
<svg xmlns="http://www.w3.org/2000/svg" width="179.45464" height="178.02092" viewBox="0 0 179.45464 178.02092">
  <path d="m-7.882,-9.242c7.99,-0.82 4.13,5.05 5.01,10.25 -0.06,63.15 0.06,126.92 -0.05,189.99 0.63,3.12 -3.08,1.55 -4.96,2.02z" fill="#ffffff"/>
  <path d="m86.268,0.068c-10.49,11 -21.39,21.81 -32.32,32.37 -3.26,3.32 -6.96,6.1 -10.14,9.48 -0.93,0.9 -1.85,1.83 -2.72,2.79 -2.64,3.12 -5.26,6.2 -8.04,9.19 -11.28,10.39 -21.61,21.82 -32.84,32.26 -0.01,-3.73 -0.35,-7.49 -0.14,-11.22 3.35,-9.66 4.96,-19.61 10.4,-28.59 4.44,-9.04 11.07,-15.96 17.59,-23.43 4.72,-2.5 9.29,-5.13 13.48,-8.47 12.96,-8.8 28.86,-15.18 44.73,-14.38z" fill="#3f3f41"/>
  <path d="m86.268,0.068c2.23,-0.03 4.46,-0.04 6.7,-0.01C103.228,11.468 114.948,21.578 125.228,32.968c-7.1,-2.79 -13.3,-6.82 -21.02,-8.16l-0.97,-0.22c-1.33,-0.29 -2.67,-0.5 -4.01,-0.71l-2.15,-0.38c-0.93,-0.17 -1.86,-0.29 -2.78,-0.36 -1.41,-0.08 -2.83,-0.11 -4.24,-0.09l-0.87,-0.01c-1.46,-0.05 -2.91,-0.06 -4.36,-0.02 -1.3,0.06 -2.57,0.26 -3.84,0.53 -2.38,0.52 -4.75,1.12 -7.15,1.56 -7.14,0.85 -13.2,5.97 -19.89,7.33 10.93,-10.56 21.83,-21.37 32.32,-32.37z" fill="#dfd6cd"/>
  <path d="m92.968,0.058c15.66,-0.42 31.82,5.5 44.43,14.66 4.75,3.71 9.59,7.08 15.33,9.1 0.62,3.37 5.04,5.82 7.32,8.19 0.65,1.81 1.37,3.52 2.64,5.01 7.94,9.66 10.67,21.05 15.3,32.29 0.23,5.31 0.12,10.61 0.06,15.93 -11.13,-10.6 -21.69,-21.79 -32.78,-32.43 -6.31,-7.44 -12.43,-13.68 -20.04,-19.84 -10.28,-11.39 -22,-21.5 -32.26,-32.91z" fill="#393b3b"/>
  <path d="m28.058,22.918c-6.52,7.47 -13.15,14.39 -17.59,23.43 -5.44,8.98 -7.05,18.93 -10.4,28.59 0.13,-5.25 -0.07,-10.49 0.2,-15.75 4.06,-11.98 10.81,-21.96 18.01,-32.17 3.14,-1.67 6.45,-2.87 9.78,-4.1z" fill="#cccbc8"/>
  <path d="m84.828,23.018c0.06,1.74 -0.54,5.62 2.23,4.95 2.44,-0.32 1.85,-3.18 2.13,-4.93l0.87,0.01c0.29,2.23 -0.33,3.95 2.06,5.12 2.3,-1.12 1.79,-2.88 2.18,-5.03 0.92,0.07 1.85,0.19 2.78,0.36 -0.44,1.47 -0.65,2.9 -0.59,4.43 3.7,0.49 2.14,-1.46 2.74,-4.05 1.34,0.21 2.68,0.42 4.01,0.71 -3.6,1.24 -1.57,2.55 -0.14,4.61 2.41,-1.35 1.37,-2.11 1.11,-4.39 7.72,1.34 13.92,5.37 21.02,8.16 7.61,6.16 13.73,12.4 20.04,19.84 9.63,18.33 13.26,38.2 6.27,58.18 -3.62,-3.16 -4.85,5.17 -3.79,7.24 -0.62,1.83 -1.56,3.23 -0.77,5.2 -4.03,3.86 -7.51,8.65 -11.84,12.07 -0.87,-1.86 -1.09,-3.29 -0.87,-5.33 2.55,-6.81 -0.82,-12.78 0.51,-19.33 1.59,-8.78 -1.35,-17.18 0.29,-25.81 0.14,-11.34 -0.01,-22.7 0.08,-34.04 0.11,-2.86 -0.83,-5.28 -2.39,-7.62 -16.09,0.19 -31.87,1.69 -47.97,-0.05 -13.36,-1.38 -27.97,1.27 -40.98,-1.4 3.18,-3.38 6.88,-6.16 10.14,-9.48 6.69,-1.36 12.75,-6.48 19.89,-7.33 1.5,4.23 4.67,-0.19 7.52,1.39 2.97,1.67 1.78,-3.02 -0.37,-2.95 1.27,-0.27 2.54,-0.47 3.84,-0.53z" fill="#9c6944"/>
  <path d="m84.828,23.018c1.45,-0.04 2.9,-0.03 4.36,0.02 -0.28,1.75 0.31,4.61 -2.13,4.93 -2.77,0.67 -2.17,-3.21 -2.23,-4.95z" fill="#5b4435"/>
  <path d="m90.058,23.048c1.41,-0.02 2.83,0.01 4.24,0.09 -0.39,2.15 0.12,3.91 -2.18,5.03 -2.39,-1.17 -1.77,-2.89 -2.06,-5.12z" fill="#5f4839"/>
  <path d="m80.988,23.548c2.15,-0.07 3.34,4.62 0.37,2.95 -2.85,-1.58 -6.02,2.84 -7.52,-1.39 2.4,-0.44 4.77,-1.04 7.15,-1.56z" fill="#6c4c39"/>
  <path d="m97.078,23.498 l2.15,0.38c-0.6,2.59 0.96,4.54 -2.74,4.05 -0.06,-1.53 0.15,-2.96 0.59,-4.43z" fill="#5b402c"/>
  <path d="m152.728,23.818c2.08,0.81 4.17,1.56 6.27,2.31 8.49,8.33 14.11,20.23 19.05,30.95l0.24,0.79c-0.15,3.5 -0.14,6.98 -0.04,10.48l-0.26,0.96c-4.63,-11.24 -7.36,-22.63 -15.3,-32.29 7.21,0.16 -0.93,-3.03 -2.64,-5.01 -2.28,-2.37 -6.7,-4.82 -7.32,-8.19z" fill="#ceccc9"/>
  <path d="m103.238,24.588 l0.97,0.22c0.26,2.28 1.3,3.04 -1.11,4.39 -1.43,-2.06 -3.46,-3.37 0.14,-4.61z" fill="#5d3f2e"/>
  <path d="m158.998,26.128c6.22,3.04 12.67,0.73 18.84,3.18 0.68,9.18 0.12,18.55 0.21,27.77 -4.94,-10.72 -10.56,-22.62 -19.05,-30.95z" fill="#3c3c3c"/>
  <path d="m18.278,27.018c-7.2,10.21 -13.95,20.19 -18.01,32.17 -0.15,-10.3 -0.39,-20.7 0.05,-30.98 6.05,-0.32 11.96,-0.05 17.96,-1.19z" fill="#3f3f40"/>
  <path d="m160.048,32.008c1.71,1.98 9.85,5.17 2.64,5.01 -1.27,-1.49 -1.99,-3.2 -2.64,-5.01z" fill="#908f8c"/>
  <path d="m43.808,41.918c13.01,2.67 27.62,0.02 40.98,1.4 16.1,1.74 31.88,0.24 47.97,0.05 1.56,2.34 2.5,4.76 2.39,7.62 -0.09,11.34 0.06,22.7 -0.08,34.04 -1.64,8.63 1.3,17.03 -0.29,25.81 -1.33,6.55 2.04,12.52 -0.51,19.33 -0.16,-5.4 0.48,-10.18 -2.1,-15.17 4.84,-10.57 -0.82,-19.43 1.74,-30.03 0.54,-9.28 0.02,-18.66 0.23,-27.96 -0.22,-4.35 1.06,-8.07 -2.39,-11.45 -3.53,-0.24 -7.04,-0.11 -10.55,0.35 -1.67,-0.3 -3.14,0.15 -4.85,0.21 -7.84,-0.77 -16.1,-0.99 -24,-0.88 -14.42,-0.16 -27.58,-2.48 -42.63,-0.72 -4.57,-0.72 -7.09,8.04 -1.52,6.89 -0.04,0.75 -0.09,1.5 -0.13,2.25 -0.81,0.1 -3.29,-1.22 -2.84,0.4 -0.27,21.28 -0.03,42.66 -0.11,63.95 0.58,4.05 -1.39,11.77 1.29,14.74 4.57,0.23 10.41,1.16 14.64,-0.76 17.09,2.23 42.62,0.43 61.07,1.03 4.68,-0.41 9.02,1.59 12.15,-2.85 -0.22,2.04 0,3.47 0.87,5.33l-0.86,0.62c-12.22,-4.49 -27.24,-0.42 -40.15,-2.14 -15.02,0.98 -29.44,-0.32 -44.38,0.52 -3.62,-0.57 -1.93,2.7 -1.96,4.79 -1.77,-1.12 -3.39,-2.38 -4.75,-3.99 0.89,-0.12 1.77,-0.26 2.65,-0.41 -2.47,-4.58 -1.39,-8.91 -1.57,-13.88 0.03,-23.33 -0.05,-46.67 0.04,-70 -0.49,-3.13 1.45,-6.28 -3.07,-6.3 0.87,-0.96 1.79,-1.89 2.72,-2.79z" fill="#867363"/>
  <path d="m92.348,45.238c-13.14,2.27 -27.43,-0.75 -40.94,1.02 -1.48,0.89 -1.14,3.21 -1.46,4.71l-1.75,0.44c-5.57,1.15 -3.05,-7.61 1.52,-6.89 15.05,-1.76 28.21,0.56 42.63,0.72z" fill="#7a8c96"/>
  <path d="m41.088,44.708c4.52,0.02 2.58,3.17 3.07,6.3 -0.09,23.33 -0.01,46.67 -0.04,70 0.18,4.97 -0.9,9.3 1.57,13.88 -0.88,0.15 -1.76,0.29 -2.65,0.41 -3.76,-4.12 -4.48,-8.12 -9.76,-10.81 0.03,-1.15 0.09,-2.04 -0.6,-3.04 -7.91,-12.78 -10.14,-28.93 -7.88,-43.63 1.3,-8.59 5.14,-15.93 8.25,-23.92 2.78,-2.99 5.4,-6.07 8.04,-9.19z" fill="#9f6b45"/>
  <path d="m92.348,45.238c7.9,-0.11 16.16,0.11 24,0.88 -11.53,2.15 -23.25,0.65 -34.81,3.12 -0.73,-3.43 -2.9,0.73 -5.16,0.13 -7.69,-0.97 -15.73,0.35 -23.48,1.3 -0.99,0.1 -1.97,0.2 -2.95,0.3 0.32,-1.5 -0.02,-3.82 1.46,-4.71 13.51,-1.77 27.8,1.25 40.94,-1.02z" fill="#89a2ae"/>
  <path d="m121.198,45.908c3.28,1.84 6.53,1.67 8.99,4.99 -5.28,0.18 -10.59,-0.07 -15.84,0.37 -3.68,0.21 -14.12,-1.52 -16.09,0.79 -0.15,1.35 -0.25,2.7 -0.3,4.06 -1.98,-5.26 -3.8,-3.32 -4.62,1.05 2.28,-7.26 -8.85,-8.8 -8.35,-2.97 -2.78,1.25 -4.12,-2.07 -5.79,0.8 -0.05,-0.98 -0.12,-1.95 -0.23,-2.93 -1.65,-2.32 -11.71,-0.59 -15.08,-0.78 -3.66,-0.28 -7.33,-0.32 -10.99,-0.62 7.75,-0.95 15.79,-2.27 23.48,-1.3 2.26,0.6 4.43,-3.56 5.16,-0.13 11.56,-2.47 23.28,-0.97 34.81,-3.12 1.71,-0.06 3.18,-0.51 4.85,-0.21z" fill="#a7b3b6"/>
  <path d="m131.748,45.558c3.45,3.38 2.17,7.1 2.39,11.45 -0.21,9.3 0.31,18.68 -0.23,27.96 -2.56,10.6 3.1,19.46 -1.74,30.03 2.58,4.99 1.94,9.77 2.1,15.17 -3.13,4.44 -7.47,2.44 -12.15,2.85 -18.45,-0.6 -43.98,1.2 -61.07,-1.03 -3.95,0.07 -11.62,0.18 -14.64,-2.29 -0.67,-24.19 -0.16,-49.23 -0.16,-73.49 0.41,-0.7 1.01,-1.29 1.8,-1.77 0.68,1.07 1.36,2.13 2.01,3.21 -1.9,2.5 -1.1,4.49 -1,7.36 -1.9,17.77 -0.49,36.08 -0.98,54 0.17,3.26 -0.41,9.46 4.15,9.8 10.86,1.2 24.47,1.45 35.34,1.21 1.49,-0.55 2.89,-1.43 4.26,-2.21 -0.14,0.69 -0.26,1.38 -0.36,2.07 11.15,0.16 23.48,2.27 34.43,-0.16 7.43,-3.55 4.77,-10.05 5.22,-16.71 0.34,-10.6 -0.86,-21.53 0.93,-31.99 0.72,-5.44 -1.64,-10.35 -0.56,-15.82 0.8,-4 -0.01,-7.49 -0.93,-11.37 -0.05,-0.89 0.51,-2.38 -0.37,-2.93 -2.46,-3.32 -5.71,-3.15 -8.99,-4.99 3.51,-0.46 7.02,-0.59 10.55,-0.35z" fill="#839ca8"/>
  <path d="m48.198,51.408 l1.75,-0.44c0.98,-0.1 1.96,-0.2 2.95,-0.3 3.66,0.3 7.33,0.34 10.99,0.62 4.78,1.28 10,0.54 15.08,0.78 0.11,0.98 0.18,1.95 0.23,2.93 -0.25,19.29 0.1,38.72 -0.17,57.99 -1.62,4.93 -5.15,9.98 -8.97,13.53 -1.54,0.24 -3.08,0.51 -4.62,0.8l-0.23,-1.88c8.17,-5.23 7.82,-22.67 6.04,-30.59 -2.18,-1.5 -5.74,-0.6 -8.27,-0.68 -1.57,-0.91 -0.75,-5.25 -0.68,-6.92 3.73,-0.72 9.41,1.21 9.87,-4.26 1.15,-5.57 -7.79,-4.85 -11.08,-4.99 -4.48,0.66 -4.54,-2.95 -7.18,-5.5l0.44,-1.45c4.92,-0.47 11.59,0.88 16.05,-0.77 2.6,-1.83 2.61,-6.77 -0.9,-7.65 -4.75,-1.36 -10.37,-0.31 -15.32,-0.61l-1.75,-0.1c-0.72,-1.46 -1.5,-2.89 -2.37,-4.27 -0.65,-1.08 -1.33,-2.14 -2.01,-3.21l0.02,-0.78c0.04,-0.75 0.09,-1.5 0.13,-2.25z" fill="#795b2a"/>
  <path d="m63.888,51.288c3.37,0.19 13.43,-1.54 15.08,0.78 -5.08,-0.24 -10.3,0.5 -15.08,-0.78z" fill="#8f886e"/>
  <path d="m93.338,57.168c-0.65,11.18 0.24,22.44 -0.48,33.61 -1.68,11.78 -0.29,24.26 -0.73,36.2l-0.3,0.83c-1.37,0.78 -2.77,1.66 -4.26,2.21 -0.69,-0.99 -1.39,-1.98 -2.13,-2.94 -0.3,-2.65 -0.33,-5.19 -0.09,-7.84 1.8,-16.71 0.22,-34.33 0.81,-51.23 0.06,-3.12 0.04,-6.19 -0.75,-9.23 -0.16,-1.52 -0.3,-3.05 -0.42,-4.58 -0.5,-5.83 10.63,-4.29 8.35,2.97z" fill="#7c5c2b"/>
  <path d="m114.348,51.268c-5.06,1.37 -10.81,0.51 -16.09,0.79 1.97,-2.31 12.41,-0.58 16.09,-0.79z" fill="#978c70"/>
  <path d="m114.348,51.268c5.25,-0.44 10.56,-0.19 15.84,-0.37 0.88,0.55 0.32,2.04 0.37,2.93 -1.25,1.56 -2.34,3.14 -3.09,5.01 -1.04,1.16 -2.15,2.25 -3.29,3.3 -5.57,0.3 -12.74,-1.37 -17.82,1.15 -0.48,2.93 -0.86,5.69 2.06,7.42 5.19,0.71 10.58,0.09 15.82,0.41 -0.27,0.57 -0.55,1.14 -0.83,1.7 -1.78,2.6 -2.41,5.64 -6.26,5.18 -4.39,0.46 -11.35,-1.91 -11.08,4.99 0.01,6.55 11.99,3.34 16.08,3.86 1.63,0.41 1.34,0.34 1.42,1.84 -1.56,1.75 -2.89,3.66 -4.41,5.43 -3.5,0.14 -7.99,-0.88 -11.19,0.68 -3.61,2.73 -1.24,11.94 -1.81,16.23 0.56,5.07 2.49,10.35 6.05,14.1 0.57,2.07 0.65,1.58 -1.39,2.51 -1.42,-0.64 -2.86,-1.22 -4.31,-1.76 -3.54,-5.33 -7.92,-8.67 -8.07,-15.66 1.58,-12.81 0.21,-26.19 0.7,-39.12 2.76,-4.7 -2.51,-9.34 -1.18,-14.98 0.05,-1.36 0.15,-2.71 0.3,-4.06 5.28,-0.28 11.03,0.58 16.09,-0.79z" fill="#795b2c"/>
  <path d="m48.068,53.658 l-0.02,0.78c-0.79,0.48 -1.39,1.07 -1.8,1.77 0,24.26 -0.51,49.3 0.16,73.49 3.02,2.47 10.69,2.36 14.64,2.29 -4.23,1.92 -10.07,0.99 -14.64,0.76 -2.68,-2.97 -0.71,-10.69 -1.29,-14.74 0.08,-21.29 -0.16,-42.67 0.11,-63.95 -0.45,-1.62 2.03,-0.3 2.84,-0.4z" fill="#7d888e"/>
  <path d="m84.988,54.198c0.12,1.53 0.26,3.06 0.42,4.58 -0.52,20.09 -0.4,40.36 -0.06,60.46 -0.24,2.65 -0.21,5.19 0.09,7.84 -5.11,0.09 -10.3,0.12 -15.38,-0.56 3.82,-3.55 7.35,-8.6 8.97,-13.53 0.27,-19.27 -0.08,-38.7 0.17,-57.99 1.67,-2.87 3.01,0.45 5.79,-0.8z" fill="#dccdbc"/>
  <path d="m97.958,56.118c-1.33,5.64 3.94,10.28 1.18,14.98 -1.58,2.62 -0.94,5.92 -1.05,8.91 0.25,10.05 -0.38,20.18 0.35,30.21 0.15,6.99 4.53,10.33 8.07,15.66 -4.19,1.82 -8.86,1.02 -13.4,1.07 -0.12,-12.05 0.31,-24.13 -0.25,-36.17 0.72,-11.17 -0.17,-22.43 0.48,-33.61 0.82,-4.37 2.64,-6.31 4.62,-1.05z" fill="#decfbe"/>
  <path d="m145.268,52.808c11.09,10.64 21.65,21.83 32.78,32.43l0.33,0.76c-0.61,2.24 -0.61,3.81 0,6.05l-0.3,0.82c-1.46,1.24 -2.59,2.52 -4.61,2.7 -4.04,0.12 -2.57,4.89 -5.57,7.21 -7.54,6.35 -13.52,14.14 -20.92,20.65 -0.79,-1.97 0.15,-3.37 0.77,-5.2 1.74,-2.26 2.89,-4.54 3.79,-7.24 6.99,-19.98 3.36,-39.85 -6.27,-58.18z" fill="#dad0c6"/>
  <path d="m33.048,53.898c-3.11,7.99 -6.95,15.33 -8.25,23.92 -2.26,14.7 -0.03,30.85 7.88,43.63 0.69,1 0.63,1.89 0.6,3.04 -12.41,-11.44 -20.32,-21.54 -33.09,-32.64 -0.03,-1.89 -0.02,-3.79 0.02,-5.69 11.23,-10.44 21.56,-21.87 32.84,-32.26z" fill="#dcd3c8"/>
  <path d="m130.558,53.828c0.92,3.88 1.73,7.37 0.93,11.37 -1.08,5.47 1.28,10.38 0.56,15.82 -1.79,10.46 -0.59,21.39 -0.93,31.99 -0.45,6.66 2.21,13.16 -5.22,16.71 -10.95,2.43 -23.28,0.32 -34.43,0.16 0.1,-0.69 0.22,-1.38 0.36,-2.07l0.3,-0.83 0.98,-0.03c4.54,-0.05 9.21,0.75 13.4,-1.07 1.45,0.54 2.89,1.12 4.31,1.76 3.01,1.51 7.9,-0.1 11.33,0.35 4.53,0.47 5.24,-3.52 5.88,-7.01 1.13,-13.45 -1.26,-27.51 1,-40.98 -1.05,-7.07 -0.87,-14.09 -1.56,-21.16 0.75,-1.87 1.84,-3.45 3.09,-5.01z" fill="#9fb3bd"/>
  <path d="m50.058,57.648c0.87,1.38 1.65,2.81 2.37,4.27 -3.95,18.77 -1.63,36.22 -2.29,55.11 0.37,3.2 0.74,7.28 3.71,9.19 3.21,1.11 8.26,2.18 11.59,1.1 1.54,-0.29 3.08,-0.56 4.62,-0.8 5.08,0.68 10.27,0.65 15.38,0.56 0.74,0.96 1.44,1.95 2.13,2.94 -10.87,0.24 -24.48,-0.01 -35.34,-1.21 -4.56,-0.34 -3.98,-6.54 -4.15,-9.8 0.49,-17.92 -0.92,-36.23 0.98,-54 -0.1,-2.87 -0.9,-4.86 1,-7.36z" fill="#a1b0b5"/>
  <path d="m178.288,57.868c1.3,3.43 1.2,7.06 -0.04,10.48 -0.1,-3.5 -0.11,-6.98 0.04,-10.48z" fill="#4e4d4c"/>
  <path d="m85.408,58.778c0.79,3.04 0.81,6.11 0.75,9.23 -0.59,16.9 0.99,34.52 -0.81,51.23 -0.34,-20.1 -0.46,-40.37 0.06,-60.46z" fill="#98815f"/>
  <path d="m127.468,58.838c0.69,7.07 0.51,14.09 1.56,21.16 -2.26,13.47 0.13,27.53 -1,40.98 -0.64,3.49 -1.35,7.48 -5.88,7.01 -3.43,-0.45 -8.32,1.16 -11.33,-0.35 2.04,-0.93 1.96,-0.44 1.39,-2.51 3.18,-0.76 6.4,-0.99 9.6,-1.49 2.26,-1.92 3.17,-6.58 2.97,-9.45 -1.6,-8.55 0.25,-17.02 -1.21,-25.5 -0.08,-1.5 0.21,-1.43 -1.42,-1.84 3.99,-0.24 4.17,-13.45 1.26,-14.03 0.28,-0.56 0.56,-1.13 0.83,-1.7 1.53,-2.12 -1.38,-1.39 -1.58,-3.69 -1.16,-2.5 0.15,-3.4 1.52,-5.29 1.14,-1.05 2.25,-2.14 3.29,-3.3z" fill="#c1c6c4"/>
  <path d="m52.428,61.918 l1.75,0.1c2.91,4.42 2.88,4.66 0.17,9.03l-0.44,1.45c-2.07,16.46 0.26,31.12 0.36,47.41 0.09,3.68 8.01,5.11 10.94,5.53l0.23,1.88c-3.33,1.08 -8.38,0.01 -11.59,-1.1 -2.97,-1.91 -3.34,-5.99 -3.71,-9.19 0.66,-18.89 -1.66,-36.34 2.29,-55.11z" fill="#bdc0bd"/>
  <path d="m54.178,62.018c4.95,0.3 10.57,-0.75 15.32,0.61 3.51,0.88 3.5,5.82 0.9,7.65 -4.46,1.65 -11.13,0.3 -16.05,0.77 2.71,-4.37 2.74,-4.61 -0.17,-9.03z" fill="#d8ccbc"/>
  <path d="m124.178,62.138c-1.37,1.89 -2.68,2.79 -1.52,5.29 0.2,2.3 3.11,1.57 1.58,3.69 -5.24,-0.32 -10.63,0.3 -15.82,-0.41 -2.92,-1.73 -2.54,-4.49 -2.06,-7.42 5.08,-2.52 12.25,-0.85 17.82,-1.15z" fill="#ded2c0"/>
  <path d="m99.138,71.098c-0.49,12.93 0.88,26.31 -0.7,39.12 -0.73,-10.03 -0.1,-20.16 -0.35,-30.21 0.11,-2.99 -0.53,-6.29 1.05,-8.91z" fill="#957e56"/>
  <path d="m53.908,72.498c2.64,2.55 2.7,6.16 7.18,5.5 3.29,0.14 12.23,-0.58 11.08,4.99 -0.46,5.47 -6.14,3.54 -9.87,4.26 -0.07,1.67 -0.89,6.01 0.68,6.92 2.19,1.49 5.74,0.6 8.27,0.68 1.78,7.92 2.13,25.36 -6.04,30.59 -2.93,-0.42 -10.85,-1.85 -10.94,-5.53 -0.1,-16.29 -2.43,-30.95 -0.36,-47.41z" fill="#dbcfbf"/>
  <path d="m123.408,72.818c2.91,0.58 2.73,13.79 -1.26,14.03 -4.09,-0.52 -16.07,2.69 -16.08,-3.86 -0.27,-6.9 6.69,-4.53 11.08,-4.99 3.85,0.46 4.48,-2.58 6.26,-5.18z" fill="#e2d4c4"/>
  <path d="m178.378,85.998c1.45,2.34 1.42,3.71 0,6.05 -0.61,-2.24 -0.61,-3.81 0,-6.05z" fill="#57534f"/>
  <path d="m123.568,88.688c1.46,8.48 -0.39,16.95 1.21,25.5 0.2,2.87 -0.71,7.53 -2.97,9.45 -3.2,0.5 -6.42,0.73 -9.6,1.49 -3.56,-3.75 -5.49,-9.03 -6.05,-14.1 0.57,-4.29 -1.8,-13.5 1.81,-16.23 3.34,-0.12 8.3,1.17 11.19,-0.68 1.52,-1.77 2.85,-3.68 4.41,-5.43z" fill="#e0d4c6"/>
  <path d="m92.858,90.778c0.56,12.04 0.13,24.12 0.25,36.17l-0.98,0.03c0.44,-11.94 -0.95,-24.42 0.73,-36.2z" fill="#947e59"/>
  <path d="M0.188,91.848C12.958,102.948 20.868,113.048 33.278,124.488c5.28,2.69 6,6.69 9.76,10.81 1.36,1.61 2.98,2.87 4.75,3.99 1.97,1.86 3.83,3.77 5.94,5.48 10.37,11.47 22.18,21.76 32.54,33.19 -8.65,0.37 -17,-0.87 -25.03,-4.09 -14.09,-3.98 -22.83,-14.82 -36.19,-19.57 3.22,-0.54 1.36,-0.87 0.29,-2.5 -13.56,-13.46 -20.96,-30.56 -25.02,-49 -0.25,-3.65 -0.22,-7.29 -0.13,-10.95z" fill="#3c3c3d"/>
  <path d="m178.078,92.868c-0.07,7.89 2.51,17.55 0.29,26.33 -0.23,-4.08 -0.16,-8.19 -0.52,-12.26 -2.75,4.57 -0.43,9.35 -4.09,13.6 -5.19,11.7 -11.57,22.34 -20.3,31.77 -1.16,1.69 -1.96,1.38 0.62,1.87 -5.67,2.16 -10.02,4.11 -14.75,8.03 -12.95,9.64 -30.07,16.66 -46.36,15.73 10.43,-11.44 21.98,-21.86 32.54,-33.17 3.26,-2.61 5.95,-5.59 8.77,-8.65l0.86,-0.62c4.33,-3.42 7.81,-8.21 11.84,-12.07 7.4,-6.51 13.38,-14.3 20.92,-20.65 3,-2.32 1.53,-7.09 5.57,-7.21 2.02,-0.18 3.15,-1.46 4.61,-2.7z" fill="#3b3c3c"/>
  <path d="m62.978,94.168c2.53,0.08 6.09,-0.82 8.27,0.68 -2.53,-0.08 -6.08,0.81 -8.27,-0.68z" fill="#ae9a76"/>
  <path d="m119.158,94.118c-2.89,1.85 -7.85,0.56 -11.19,0.68 3.2,-1.56 7.69,-0.54 11.19,-0.68z" fill="#b49e7d"/>
  <path d="m0.318,102.798c4.06,18.44 11.46,35.54 25.02,49 1.07,1.63 2.93,1.96 -0.29,2.5 -1.67,-0.69 -3.28,-1.5 -4.89,-2.33 -9.11,-9.72 -14.94,-20.93 -19.87,-33.16 -0.31,-5.34 -0.22,-10.67 0.03,-16.01z" fill="#cdcbc8"/>
  <path d="m177.848,106.938c0.36,4.07 0.29,8.18 0.52,12.26l-0.43,1.64c-4.76,10.84 -10.22,21.05 -17.86,30.18 -2.01,1.04 -3.97,2.15 -6,3.16 -2.58,-0.49 -1.78,-0.18 -0.62,-1.87 8.73,-9.43 15.11,-20.07 20.3,-31.77 3.66,-4.25 1.34,-9.03 4.09,-13.6z" fill="#cdcdca"/>
  <path d="m151.538,110.988c-0.9,2.7 -2.05,4.98 -3.79,7.24 -1.06,-2.07 0.17,-10.4 3.79,-7.24z" fill="#594839"/>
  <path d="m0.288,118.808c4.93,12.23 10.76,23.44 19.87,33.16 -6.55,-1.94 -13.13,-1.94 -19.86,-2.57 -0.39,-10.15 -0.22,-20.42 -0.01,-30.59z" fill="#3c3c3b"/>
  <path d="m177.938,120.838c0.19,9.25 0.44,18.63 -0.04,27.87 -6,0.44 -11.83,1.95 -17.82,2.31 7.64,-9.13 13.1,-19.34 17.86,-30.18z" fill="#3c3b3a"/>
  <path d="m49.748,134.498c14.94,-0.84 29.36,0.46 44.38,-0.52 12.91,1.72 27.93,-2.35 40.15,2.14 -2.82,3.06 -5.51,6.04 -8.77,8.65 -9.3,4.11 -17.86,7.98 -28.15,9.58 -5.24,-0.49 -10.24,-0.49 -15.48,0 -10.29,-1.6 -18.85,-5.48 -28.15,-9.58 -2.11,-1.71 -3.97,-3.62 -5.94,-5.48 0.03,-2.09 -1.66,-5.36 1.96,-4.79z" fill="#9c6744"/>
  <path d="m81.878,154.348c4.86,1.05 10.62,1.05 15.48,0 10.29,-1.6 18.85,-5.47 28.15,-9.58 -10.56,11.31 -22.11,21.73 -32.54,33.17 -2.23,0.04 -4.46,0.05 -6.7,0.02 -10.36,-11.43 -22.17,-21.72 -32.54,-33.19 9.3,4.1 17.86,7.98 28.15,9.58z" fill="#dbd1c7"/>
  <path d="m81.878,154.348c5.24,-0.49 10.24,-0.49 15.48,0 -4.86,1.05 -10.62,1.05 -15.48,0z" fill="#c7a891"/>
</svg>
