<?xml version="1.0" ?>
<svg xmlns="http://www.w3.org/2000/svg" width="179" height="179.27489" viewBox="0 0 179 179.27489">
  <path d="m135.98,14.184c12.07,9.95 27.23,15.92 43.02,14.96v0.69c-22.68,26.23 -45.06,60.86 -67.99,86.52 -5.02,-5.57 -11.06,-4.81 -13.07,-11.09 -0.81,-1.33 -7.08,-3.37 -3.48,-4.51 6.7,-1.95 11.8,-5.95 14.86,-12.26 3.47,-5.6 -6.82,-2.55 -9.57,-3.36 0.44,-6.15 0.53,-16.72 4.86,-21.24 14.89,-2.34 28.91,-12.31 37.95,-24.16 1.67,-2.99 8.39,-9.39 0.17,-7.25 -6.7,5.29 -12.18,-3.79 -20.72,0.62 -21.75,-2.13 -44.15,-0.38 -66.04,-0.94 -8.02,-0.32 -15.87,0.82 -23.89,0.26 6.26,15.85 26.35,29.39 43.12,31.76 2.81,6.51 3.8,13.88 3.87,20.92 -3.62,0.05 -7.27,-0.08 -10.88,0.17 2.44,8.17 8.97,13.56 17.01,15.85 -5.14,6.01 -12.55,9.33 -17.35,15.21C45.58,88.374 23.55,59.104 1.73,30.694c-0.59,0.37 -1.17,0.77 -1.73,1.19v-2.72c14.92,0.28 29.44,-4.7 41.29,-13.7 26.6,-20.43 67.4,-20.37 94.69,-1.28z" fill="#383837"/>
  <path d="m1.73,30.694c21.82,28.41 43.85,57.68 66.12,85.64 -2.36,4.27 -6.44,8.37 -9.92,11.78 -10.43,-4.86 -22.8,-0.66 -29.12,-9.76 -2.21,-2.68 -4.29,-4.71 -7.92,-5.14 1.37,2.11 3.75,2.88 5.3,4.91 -2.82,5.66 -9.95,-2.3 -14.07,-1.95 -2.34,8.26 10.99,10.19 16.52,10.33 7.84,3.1 15.28,8.4 23.75,10.33 2.33,1.48 3.85,-3.93 4.98,-1.12 2.03,4.93 5.6,-0.53 8.42,-1.6 -1.49,13.37 -4.62,26.59 -6.52,39.93 -14.53,-4.71 -23.44,-16.82 -38.37,-20.8 -6.54,-2.27 -14.02,-2.53 -20.9,-3.36V31.884c0.56,-0.42 1.14,-0.82 1.73,-1.19z" fill="#505046"/>
  <path d="M179,29.834V150.134c-16.14,-0.06 -30.31,5.07 -42.84,15.14 -5.06,3.37 -10.5,6.37 -16.14,8.65 -2.37,-13.24 -4.68,-26.48 -6.78,-39.77 9.56,7.31 21.18,0.04 30.24,-4.45 8.93,-5.31 18.55,-1.26 24.12,-10.73 -0.16,-7.48 -10.48,4.23 -13.87,0.44 -2.93,-2.03 4.21,-4.74 5.34,-6.21 -9.32,0.09 -8.28,9.14 -16.43,10.62 -7.31,1.6 -14.39,1.62 -21.56,4.24 -3.67,-3.4 -7.36,-7.46 -10.07,-11.71C133.94,90.694 156.32,56.064 179,29.834Z" fill="#616055"/>
  <path d="m32.08,32.424c8.02,0.56 15.87,-0.58 23.89,-0.26 8.96,8.37 16.68,19.94 19.23,32.02 -16.77,-2.37 -36.86,-15.91 -43.12,-31.76z" fill="#b09160"/>
  <path d="m55.97,32.164c21.89,0.56 44.29,-1.19 66.04,0.94 -7.42,7.98 -16.94,19.47 -17.4,30.79 -4.33,4.52 -4.42,15.09 -4.86,21.24 -6.89,0.04 -13.79,0.05 -20.68,-0.03 -0.07,-7.04 -1.06,-14.41 -3.87,-20.92 -2.55,-12.08 -10.27,-23.65 -19.23,-32.02z" fill="#677ca9"/>
  <path d="m142.73,32.484c8.22,-2.14 1.5,4.26 -0.17,7.25 -9.04,11.85 -23.06,21.82 -37.95,24.16 0.46,-11.32 9.98,-22.81 17.4,-30.79 8.54,-4.41 14.02,4.67 20.72,-0.62z" fill="#b39361"/>
  <path d="m152.4,84.584c11.62,-3.55 16.49,12.09 6.22,17.18 -11.15,3.05 -17.21,-12.43 -6.22,-17.18z" fill="#af8a5d"/>
  <path d="m23.26,85.244c2.61,1.62 3.67,4.94 5.12,7.56 1.29,2.9 3.96,5.88 3.56,9.11 -5.17,0.09 -12.03,1.29 -16.78,-0.81 2.23,-5.4 4.63,-11.14 8.1,-15.86z" fill="#94704e"/>
  <path d="m68.19,85.274c3.61,-0.25 7.26,-0.12 10.88,-0.17 6.89,0.08 13.79,0.07 20.68,0.03 2.75,0.81 13.04,-2.24 9.57,3.36 -3.06,6.31 -8.16,10.31 -14.86,12.26 -3.6,1.14 2.67,3.18 3.48,4.51 2.01,6.28 8.05,5.52 13.07,11.09 2.71,4.25 6.4,8.31 10.07,11.71 7.17,-2.62 14.25,-2.64 21.56,-4.24 8.15,-1.48 7.11,-10.53 16.43,-10.62 -1.13,1.47 -8.27,4.18 -5.34,6.21 3.39,3.79 13.71,-7.92 13.87,-0.44 -5.57,9.47 -15.19,5.42 -24.12,10.73 -9.06,4.49 -20.68,11.76 -30.24,4.45 2.1,13.29 4.41,26.53 6.78,39.77 -17.71,7.11 -43.01,7.12 -60.75,0.12 1.9,-13.34 5.03,-26.56 6.52,-39.93 -2.82,1.07 -6.39,6.53 -8.42,1.6 -1.13,-2.81 -2.65,2.6 -4.98,1.12 -8.47,-1.93 -15.91,-7.23 -23.75,-10.33 -5.53,-0.14 -18.86,-2.07 -16.52,-10.33 4.12,-0.35 11.25,7.61 14.07,1.95 -1.55,-2.03 -3.93,-2.8 -5.3,-4.91 3.63,0.43 5.71,2.46 7.92,5.14 6.32,9.1 18.69,4.9 29.12,9.76 3.48,-3.41 7.56,-7.51 9.92,-11.78 4.8,-5.88 12.21,-9.2 17.35,-15.21C77.16,98.834 70.63,93.444 68.19,85.274Z" fill="#ccc4bb"/>
</svg>
