<?xml version="1.0" ?>
<svg xmlns="http://www.w3.org/2000/svg" width="179.07811" height="178" viewBox="0 0 179.07811 178">
  <path d="m75.17,0h29.98c5.521,1.842 12.697,3.48 17.86,5.77l1.02,0.49 0.96,0.47 1.04,0.53 0.96,0.48 1.04,0.52 0.96,0.48 1.05,0.52 0.95,0.46 1.01,0.47 0.78,0.36c4.432,2.774 8.316,6.746 12.46,8.82l0.79,0.39 1.01,0.5 0.94,0.48 1.05,0.52 0.96,0.48 1.04,0.53 0.95,0.46 1.02,0.49c9.72,4.835 15.835,3.895 25.81,4.98 0.47,18.86 0.06,37.91 0.2,56.8 -0.11,5.57 0.38,11.38 -0.5,16.87 -4.47,5.94 -7.16,12.16 -12.24,17.39 -5.34,5.24 -9.96,10.69 -16.57,14.43 -3.38,1.78 -6.8,5.35 -10.68,5.4 -2.24,0.32 -4.46,0.35 -6.71,0.36 -1.59,0.81 -2.2,3.25 -3.34,4.57 -15.17,4.98 -31.87,5.39 -47.34,1.42 -9.76,-2.15 -19.02,-7.48 -27.61,-12.47 -2.33,-1.19 -3.35,-3.19 -4.64,-5.32 -4.05,-1.14 -6.34,-4 -9.12,-6.9 -8.02,-9.53 -14.79,-19.72 -18.13,-31.86 -2.96,-8.19 -3,-16.41 -4.14,-24.9 -0.05,-1.72 -0.04,-3.66 2.1,-3.88 14.59,-0.42 29.28,0.26 43.87,-0.31 -1.04,-5.95 -6.41,-7.54 -7.76,-13.08 -2.27,-4.21 -4.81,-8.49 -7.44,-12.47 -1.45,-1.9 -3,-1.32 -4.74,-0.22 -7.06,4.9 -13.41,10.67 -20.57,15.45 -1.48,0.99 -2.5,2.2 -4.34,2.47 1.48,-10.7 5.22,-20.34 9.85,-30.02 0.77,-0.42 1.55,-0.85 2.32,-1.28l0.62,-0.34 0.78,-0.44C38.889,17.2 43.566,11.725 49.01,9.21L50.04,8.73 50.99,8.27 52.03,7.74 52.99,7.26 54.03,6.73 54.98,6.27 56,5.78C58.328,5.049 59.711,4.093 61.85,3.46 64.854,2.369 74.504,0.9 75.17,0Z" fill="#ab7543"/>
  <path d="m110.18,1.44 l0.68,0.15z" fill="#2c2e2f"/>
  <path d="M61.85,3.46 L61.14,3.67Z" fill="#2c2e2f"/>
  <path d="M56.84,5.39 L56,5.78Z" fill="#2c2e2f"/>
  <path d="m122.16,5.38 l0.85,0.39z" fill="#2c2e2f"/>
  <path d="M54.98,6.27 L54.03,6.73Z" fill="#2c2e2f"/>
  <path d="m124.03,6.26 l0.96,0.47z" fill="#2c2e2f"/>
  <path d="M52.99,7.26 L52.03,7.74Z" fill="#2c2e2f"/>
  <path d="m126.03,7.26 l0.96,0.48z" fill="#2c2e2f"/>
  <path d="M50.99,8.27 L50.04,8.73Z" fill="#2c2e2f"/>
  <path d="m128.03,8.26 l0.96,0.48z" fill="#2c2e2f"/>
  <path d="M49.01,9.21 L48.18,9.58Z" fill="#2c2e2f"/>
  <path d="m130.04,9.26 l0.95,0.46z" fill="#2c2e2f"/>
  <path d="m132,10.19 l0.78,0.36z" fill="#2c2e2f"/>
  <path d="m145.24,19.37 l0.79,0.39z" fill="#2c2e2f"/>
  <path d="m31.9,20.31 l-0.62,0.34z" fill="#2c2e2f"/>
  <path d="m147.04,20.26 l0.94,0.48z" fill="#2c2e2f"/>
  <path d="m149.03,21.26 l0.96,0.48z" fill="#2c2e2f"/>
  <path d="m28.96,21.93c-4.63,9.68 -8.37,19.32 -9.85,30.02 1.84,-0.27 2.86,-1.48 4.34,-2.47 7.16,-4.78 13.51,-10.55 20.57,-15.45 1.74,-1.1 3.29,-1.68 4.74,0.22 2.63,3.98 5.17,8.26 7.44,12.47 1.35,5.54 6.72,7.13 7.76,13.08 -14.59,0.57 -29.28,-0.11 -43.87,0.31 -2.14,0.22 -2.15,2.16 -2.1,3.88 1.14,8.49 1.18,16.71 4.14,24.9 3.34,12.14 10.11,22.33 18.13,31.86 2.78,2.9 5.07,5.76 9.12,6.9 1.29,2.13 2.31,4.13 4.64,5.32 8.59,4.99 17.85,10.32 27.61,12.47 15.47,3.97 32.17,3.56 47.34,-1.42 1.14,-1.32 1.75,-3.76 3.34,-4.57 2.25,-0.01 4.47,-0.04 6.71,-0.36 3.88,-0.05 7.3,-3.62 10.68,-5.4 6.61,-3.74 11.23,-9.19 16.57,-14.43 5.08,-5.23 7.77,-11.45 12.24,-17.39 0.51,2.35 0.51,4.15 -0.07,6.49 -1.02,3.91 0.93,7.54 0.6,11.64 -0.19,9.58 0.26,19.24 -0.23,28.8 -10.97,-0.28 -21.09,2.53 -31,7.05 -8.16,5.47 -16.37,11.33 -25.17,15.72 -4.63,1.1 -8.92,4.57 -13.67,4.37 0.8,-2.34 -1.73,-2.23 -0.9,0.04 -3.5,1.12 -7.23,0.68 -10.61,2.02H81.28c-2.01,-0.98 -4.08,-0.94 -6.24,-1.19 -12.05,-1.96 -23.22,-6.72 -33.22,-13.65 -5.16,-4.28 -11.19,-8.44 -17.7,-10.3 -2.17,-0.68 -4.16,-1.73 -6.26,-2.58C12.28,149.84 6.81,148.98 1.21,148.77 0.57,143.22 1.63,137.14 0.45,131.64 0.16,130.11 0.03,128.56 0,127.01 0.02,95.46 0.01,63.54 0,31.98 0.09,30.27 -0.12,28.34 2.09,28.15 11.46,27.7 20.6,26.5 28.96,21.93Z" fill="#2c2e2f"/>
  <path d="m151.03,22.27 l0.95,0.46z" fill="#2c2e2f"/>
  <path d="m153,23.22 l0.83,0.38z" fill="#2c2e2f"/>
  <path d="m85.84,24.2c1.55,1.61 2.49,3.49 3.65,5.38 1.85,3.16 4.81,6.59 5.47,10.22 -9.24,0.38 -18.65,0.26 -27.89,0.08 -2.35,-0.17 -0.28,-1.68 0.54,-2.3 5.93,-4.59 11.9,-9.37 18.23,-13.38z" fill="#2c2e2f"/>
  <path d="m20.12,32.25c-1.36,3.4 3.27,0.28 0,0z" fill="#ab7543"/>
  <path d="m111.81,40.22c2.92,3.24 5.29,6.86 7.29,10.73 5.97,9.62 12.35,19.09 18.08,28.86 3.04,5.23 7.16,10.08 9.64,15.99 -4.41,0.07 -8.53,1.27 -12.83,0.4 -3.97,-0.37 -8,-0.23 -11.99,-0.19 -5.52,0.09 -10.52,1.47 -16.02,0.18 -9.91,-0.15 -19.18,-1.3 -29,0.67 -4.83,0.92 -8.86,-1.73 -13.61,-0.44 -5.41,1.26 -10.3,0.24 -15.67,0.11 -2.83,0.1 -5.65,0.3 -8.5,0.12 -0.41,-1.21 -0.13,-2.08 0.86,-2.61 13.85,-9.89 28.05,-21.17 41.76,-31.16 1.56,-1.02 3.83,-0.74 5.48,-1.63 2.62,-5.05 6.91,-8.35 11.65,-11.35 4.61,-2.86 8.33,-6.77 12.86,-9.68z" fill="#2c2e2f"/>
  <path d="m156.35,43.44c4.01,4.38 8.04,8.26 9.61,14.36 -9.19,0.36 -18.72,0.32 -27.92,0.01 2.15,-3.18 5.19,-4.41 8.11,-6.7 2.95,-2.16 5.54,-5.43 9.32,-5.78 0.3,-0.62 0.6,-1.25 0.88,-1.89z" fill="#2c2e2f"/>
  <path d="m9.28,56.27c0.49,0.49 0.49,0.49 0,0z" fill="#ab7543"/>
  <path d="m10.28,61.27c0.49,0.49 0.49,0.49 0,0z" fill="#ab7543"/>
  <path d="m8.28,75.27c0.49,0.49 0.49,0.49 0,0z" fill="#ab7543"/>
  <path d="m26.28,107.27c0.49,0.49 0.49,0.49 0,0z" fill="#ab7543"/>
  <path d="m115.05,110.94c4.89,7.07 9.72,14.36 13.81,21.92 -12.56,0.11 -25.32,0.54 -37.85,-0.29 -1.64,0.05 -3.27,0.26 -4.91,0.31 9.31,-7.79 19.27,-14.65 28.95,-21.94z" fill="#2c2e2f"/>
  <path d="m10.28,117.27c0.49,0.49 0.49,0.49 0,0z" fill="#ab7543"/>
  <path d="m159.12,129.25c-1.36,3.4 3.27,0.28 0,0z" fill="#ab7543"/>
  <path d="m24.12,130.25c-1.36,3.4 3.27,0.28 0,0z" fill="#ab7543"/>
  <path d="m14.26,131.11c0.27,3.27 3.4,-1.35 0,0z" fill="#ab7543"/>
  <path d="m13.28,133.27c0.49,0.49 0.49,0.49 0,0z" fill="#ab7543"/>
  <path d="m26.28,138.27c0.49,0.49 0.49,0.49 0,0z" fill="#ab7543"/>
  <path d="m158.28,138.27c0.61,0.61 0.61,0.61 0,0z" fill="#ab7543"/>
  <path d="m5.26,141.11c0.27,3.27 3.4,-1.35 0,0z" fill="#ab7543"/>
  <path d="m141.12,141.25c-1.36,3.4 3.27,0.28 0,0z" fill="#ab7543"/>
  <path d="m139.28,143.27c0.49,0.49 0.49,0.49 0,0z" fill="#ab7543"/>
  <path d="m174.28,145.27c0.49,0.49 0.49,0.49 0,0z" fill="#ab7543"/>
  <path d="m22.28,149.27c0.49,0.49 0.49,0.49 0,0z" fill="#ab7543"/>
  <path d="m71.28,155.27c0.49,0.49 0.49,0.49 0,0z" fill="#ab7543"/>
  <path d="m63.28,171.27c0.49,0.49 0.49,0.49 0,0z" fill="#ab7543"/>
  <path d="m108.97,175.94 l-0.9,0.04c-0.83,-2.27 1.7,-2.38 0.9,-0.04z" fill="#ab7543"/>
</svg>
