<?xml version="1.0" ?>
<svg xmlns="http://www.w3.org/2000/svg" width="177" height="177.29909" viewBox="0 0 177 177.29909">
  <path d="m71.7,0h7.76C81.11,7.73 82,15.6 83.59,23.35 84.91,29.42 84.94,36 87.41,41.56 90.33,27.83 92.18,13.81 94.76,0h8.86c3.09,0.56 6.14,1.3 9.15,2.19 -2.74,4.02 -4.01,8.54 -4.99,13.26 -0.42,0.36 -0.85,0.72 -1.27,1.08 -3.59,2.93 -5.67,5.95 -7.18,10.33 -0.29,0.96 -0.51,1.95 -0.65,2.96 -0.5,4.22 -0.04,8.64 -0.3,12.94l-1.04,1.04c-3.14,2.31 -5.44,5.17 -7.54,8.42 -0.9,-0.29 -1.8,-0.55 -2.71,-0.79 -0.91,0.26 -1.82,0.54 -2.72,0.84 -2.07,-2.58 -4.73,-8.08 -8.32,-8.36 -0.72,3.52 1.06,7.27 2.34,10.49 -2.73,1.04 -5.43,2.14 -8.15,3.2C63,43.2 55.69,28.82 48.29,14.5c0.8,-0.59 1.6,-1.19 2.4,-1.78 -1.59,-0.84 -3.16,-1.71 -4.68,-2.67l0.46,-0.99c2.89,-1.68 5.85,-2.97 8.83,-4.43 0.19,0.84 0.39,1.68 0.6,2.51 2.65,3.76 6.34,5.86 10.31,7.95C65.49,10.5 64.47,6.16 61.39,2.51 64.77,1.44 68.22,0.65 71.7,0Z" fill="#fdfee7"/>
  <path d="m79.46,0h15.3C92.18,13.81 90.33,27.83 87.41,41.56 84.94,36 84.91,29.42 83.59,23.35 82,15.6 81.11,7.73 79.46,0Z" fill="#a8c4cb"/>
  <path d="m112.77,2.19c2.35,0.79 5.1,1.27 6.69,3.32 -2.76,4.75 -7.03,7 -11.38,10.02 -0.03,5.15 0.55,10.68 -0.89,15.59 0.14,-4.88 -0.14,-9.74 -0.68,-14.59 0.42,-0.36 0.85,-0.72 1.27,-1.08 0.98,-4.72 2.25,-9.24 4.99,-13.26z" fill="#5f7e60"/>
  <path d="m61.39,2.51c3.08,3.65 4.1,7.99 4.82,12.58C62.24,13 58.55,10.9 55.9,7.14c0.13,-0.99 0.25,-1.99 0.38,-2.99 1.7,-0.56 3.4,-1.12 5.11,-1.64z" fill="#b89056"/>
  <path d="m119.98,4.79c3.08,1.17 5.94,2.69 8.68,4.52 -8.35,16.02 -16.44,32.19 -24.59,48.31 -2.71,-1.02 -5.4,-2.07 -8.09,-3.12 0.98,-2.38 1.92,-4.72 2.21,-7.3 0.21,-1.31 0.4,-2.62 0.6,-3.93 4.31,-2.91 6.76,-7.33 8.4,-12.15 1.44,-4.91 0.86,-10.44 0.89,-15.59 4.35,-3.02 8.62,-5.27 11.38,-10.02z" fill="#fcfee8"/>
  <path d="m46.47,9.06 l-0.46,0.99c1.52,0.96 3.09,1.83 4.68,2.67 -0.8,0.59 -1.6,1.19 -2.4,1.78 7.4,14.32 14.71,28.7 21.95,43.1 5.55,2.21 11.14,4.3 16.77,6.31 5.78,-1.87 11.41,-4.09 17.06,-6.29 8.15,-16.12 16.24,-32.29 24.59,-48.31 2.22,1.47 4.27,3.16 6.47,4.66 -3.36,3.28 -5.57,7.17 -8.17,11.01 -7.23,11.18 -14.82,22.19 -21.77,33.53 0.59,5.83 2.22,11.45 2.53,17.33C104.18,70.6 99.28,66.5 93.04,65.01 82.66,61.91 70.76,67.5 65.98,77.1 62.28,84 62.62,92.71 66.18,99.59 61.36,96.31 57.21,92.3 52.69,88.64 39.78,89.32 26.9,89.51 13.99,90.54 9.34,90.91 4.66,91.03 0,91.27v-6.82c17.36,1.03 34.71,2.06 52.09,2.73l1.04,-0.57c4.64,-3.15 8.69,-7.16 13.12,-10.62 0.43,-2.68 0.89,-5.36 1.42,-8.02 0.65,-3.29 1.18,-6.6 1.45,-9.94L68.71,57.31C59.24,42.61 49.62,28 40.17,13.28c2.07,-1.47 4.1,-2.95 6.3,-4.22z" fill="#303034"/>
  <path d="m40.17,13.28c9.45,14.72 19.07,29.33 28.54,44.03 -1.4,3.35 -4.94,4.72 -6.9,7.83 -0.65,0.29 -1.31,0.58 -1.96,0.87 0.89,-0.71 1.76,-1.44 2.62,-2.18 -1.98,-3.68 -5.12,-5.91 -8.29,-8.46 -0.6,-5.73 -3.43,-10.77 -7.73,-14.57 -1.09,-0.93 -2.22,-1.82 -3.35,-2.7 0.87,-1.97 1.71,-3.94 2.47,-5.95 -1.84,1.53 -3.51,3.19 -5.12,4.95 -1.7,-1.37 -3.53,-2.37 -5.42,-3.43 0.13,5.47 2.24,10.31 6.16,14.11 3.57,3.34 8.07,5.37 12.37,7.57 0.22,4.38 1.94,8.16 3.69,12.09 -1.52,1.61 -2.12,2.79 -2.48,5.01C50.3,72.66 46.24,73.28 42.16,75.2 37.19,71.56 32.25,68.49 26.02,67.61 21.73,66.98 18.11,68.8 13.97,69.3 9.28,68.43 4.82,66.94 0,66.71V47.87c9.52,3.54 18.97,7.23 28.53,10.65 6.85,2.51 13.28,5.56 20.39,7.36C45.73,62.73 42.2,60.02 38.71,57.24 29.89,49.74 20.8,42.54 11.95,35.08 8.34,32.16 4.94,27.65 0,27.48v-0.07c8.78,0.43 17.25,-1.6 25.3,-4.97 2.58,4.27 5.32,8.18 9.49,11.05 -0.04,-5.15 -0.46,-9.93 -2.56,-14.7 2.75,-1.7 5.32,-3.62 7.94,-5.51z" fill="#fdfeeb"/>
  <path d="m135.13,13.97 l0.44,0.24c2.4,1.15 4.53,2.67 6.77,4.1 -1.77,4.92 -2.09,9.91 -2.78,15.02 -2.1,2.27 -5.43,3.55 -8.02,5.21 -4.61,2.65 -8.2,7.03 -10.24,11.9 -0.63,1.55 -0.81,2.94 -0.38,4.58 6.09,-1.89 12.35,-5.84 15.77,-11.35 1.95,-3.03 2.38,-6.25 2.98,-9.72 4.26,-3.16 7.16,-7.22 9.94,-11.66 6.98,3.14 14.43,4.84 22.07,5.18 -7.1,6.87 -15.02,12.37 -22.36,18.89 -7.69,6.54 -16.22,12.37 -23.36,19.52 7.68,-2.16 15.01,-5.58 22.52,-8.27 9.28,-3.28 18.48,-6.8 27.76,-10.08 0.62,6.91 -0.48,13.73 0.76,20.53v0.49l-0.23,-1.04c-5.49,-0.08 -10.88,0.36 -16.03,2.38 -3.96,-1.18 -7.54,-2.46 -11.77,-1.98 -6.46,0.53 -12.3,4.26 -17.31,8.13 7.72,3.34 16.64,1.75 23.43,-2.93 1.76,-1.05 3.83,-2.7 5.92,-2.78 2.79,1.14 5.12,2.77 8.02,3.69 2.48,0.8 5.16,0.84 7.76,1.05 0.06,3.25 0.07,6.49 0.08,9.74 -6.97,0.14 -13.91,0.84 -20.87,1.11 -11.39,0.66 -22.79,0.72 -34.16,1.69 -0.41,-2.84 -0.8,-5.68 -1.19,-8.52 1.78,-0.26 3.58,-0.5 5.33,-0.88 1.99,-0.58 3.93,-1.59 5.8,-2.48 -3.68,-2.59 -7.68,-2.65 -11.99,-3 -0.6,-1.88 -1.37,-3.49 -2.85,-4.83 1.45,-3.66 4.05,-7.63 3.18,-11.65 -3.65,1.56 -5.9,4.39 -8.35,7.35 -2.09,-1.82 -4.3,-3.5 -6.58,-5.09 6.95,-11.34 14.54,-22.35 21.77,-33.53 2.6,-3.84 4.81,-7.73 8.17,-11.01z" fill="#fdfeeb"/>
  <path d="m66.38,15.62c2.8,2 5.13,4.23 7.02,7.12 -0.66,3.62 -1.46,7.16 -2.41,10.71 -1.07,-0.07 -2.14,-0.15 -3.2,-0.23 -2.25,-5.35 -1.32,-11.79 -1.41,-17.6z" fill="#b4834a"/>
  <path d="m106.51,16.53c0.54,4.85 0.82,9.71 0.68,14.59 -1.64,4.82 -4.09,9.24 -8.4,12.15 -0.2,1.31 -0.39,2.62 -0.6,3.93 -0.28,-1.13 -0.56,-2.27 -0.85,-3.4l1.04,-1.04c0.26,-4.3 -0.2,-8.72 0.3,-12.94 -0.01,2.35 0.1,4.67 0.2,7.01 1.1,-0.03 2.21,-0.07 3.31,-0.1 0.47,-1.58 0.94,-3.16 1.41,-4.74 -1.41,-1.73 -2.81,-3.45 -4.27,-5.13 1.51,-4.38 3.59,-7.4 7.18,-10.33z" fill="#517752"/>
  <path d="m142.34,18.31c2.36,1.43 4.77,2.81 7.27,3.98 -2.78,4.44 -5.68,8.5 -9.94,11.66 -0.6,3.47 -1.03,6.69 -2.98,9.72 -3.42,5.51 -9.68,9.46 -15.77,11.35 -0.43,-1.64 -0.25,-3.03 0.38,-4.58 2.04,-4.87 5.63,-9.25 10.24,-11.9 2.59,-1.66 5.92,-2.94 8.02,-5.21 0.69,-5.11 1.01,-10.1 2.78,-15.02z" fill="#6e66ad"/>
  <path d="m32.23,18.79c2.1,4.77 2.52,9.55 2.56,14.7 -4.17,-2.87 -6.91,-6.78 -9.49,-11.05 2.37,-1.09 4.68,-2.32 6.93,-3.65z" fill="#c1483f"/>
  <path d="m73.4,22.74c2.84,6.12 3.26,13.53 2.29,20.11 -3.93,-0.79 -6.3,-6.36 -7.9,-9.63 1.06,0.08 2.13,0.16 3.2,0.23 0.95,-3.55 1.75,-7.09 2.41,-10.71z" fill="#bd9460"/>
  <path d="m99.33,26.86c1.46,1.68 2.86,3.4 4.27,5.13 -0.47,1.58 -0.94,3.16 -1.41,4.74 -1.1,0.03 -2.21,0.07 -3.31,0.1 -0.1,-2.34 -0.21,-4.66 -0.2,-7.01 0.14,-1.01 0.36,-2 0.65,-2.96z" fill="#6a916d"/>
  <path d="m0,27.48c4.94,0.17 8.34,4.68 11.95,7.6 8.85,7.46 17.94,14.66 26.76,22.16 3.49,2.78 7.02,5.49 10.21,8.64C41.81,64.08 35.38,61.03 28.53,58.52 18.97,55.1 9.52,51.41 0,47.87Z" fill="#b6ced5"/>
  <path d="m171.68,27.47c1.72,-0.02 3.44,-0.02 5.16,-0.03 0.11,6.68 -0.15,13.32 0.16,20v20.62c-1.24,-6.8 -0.14,-13.62 -0.76,-20.53 -9.28,3.28 -18.48,6.8 -27.76,10.08 -7.51,2.69 -14.84,6.11 -22.52,8.27 7.14,-7.15 15.67,-12.98 23.36,-19.52 7.34,-6.52 15.26,-12.02 22.36,-18.89z" fill="#b4ced5"/>
  <path d="m42.47,29.49c-0.72,1.55 -1.45,3.06 -2.36,4.52 -0.71,-0.41 -1.4,-0.84 -2.08,-1.29 1.32,-1.58 2.48,-2.5 4.44,-3.23z" fill="#7a7667"/>
  <path d="m45.57,32.15c-0.76,2.01 -1.6,3.98 -2.47,5.95 1.13,0.88 2.26,1.77 3.35,2.7 -2.89,-0.53 -4.11,-1.58 -6,-3.7 1.61,-1.76 3.28,-3.42 5.12,-4.95z" fill="#8d6453"/>
  <path d="m35.03,33.67c1.89,1.06 3.72,2.06 5.42,3.43 1.89,2.12 3.11,3.17 6,3.7 4.3,3.8 7.13,8.84 7.73,14.57 3.17,2.55 6.31,4.78 8.29,8.46 -0.86,0.74 -1.73,1.47 -2.62,2.18 -0.87,0.47 -1.74,0.94 -2.6,1.43 -1.75,-3.93 -3.47,-7.71 -3.69,-12.09 -4.3,-2.2 -8.8,-4.23 -12.37,-7.57 -3.92,-3.8 -6.03,-8.64 -6.16,-14.11z" fill="#c44336"/>
  <path d="m49.24,35.73c-0.41,1.46 -0.85,2.91 -1.31,4.36 -0.97,-0.9 -1.94,-1.8 -2.87,-2.75 1.49,-1.16 2.15,-2.13 4.18,-1.61z" fill="#7a7465"/>
  <path d="m50.08,40.54 l0.79,-0.02 0.36,0.75 -0.41,0.76 -0.79,0.02 -0.37,-0.75z" fill="#7a7568"/>
  <path d="m76.05,43.91c3.59,0.28 6.25,5.78 8.32,8.36 -2,0.68 -4,1.39 -5.98,2.13 -1.28,-3.22 -3.06,-6.97 -2.34,-10.49z" fill="#b79258"/>
  <path d="m97.34,43.8c0.29,1.13 0.57,2.27 0.85,3.4 -0.29,2.58 -1.23,4.92 -2.21,7.3 -2.04,-0.8 -4.11,-1.57 -6.18,-2.28 2.1,-3.25 4.4,-6.11 7.54,-8.42z" fill="#6a846a"/>
  <path d="m87.09,51.43c0.91,0.24 1.81,0.5 2.71,0.79 2.07,0.71 4.14,1.48 6.18,2.28 2.69,1.05 5.38,2.1 8.09,3.12 -5.65,2.2 -11.28,4.42 -17.06,6.29 -5.63,-2.01 -11.22,-4.1 -16.77,-6.31 2.72,-1.06 5.42,-2.16 8.15,-3.2 1.98,-0.74 3.98,-1.45 5.98,-2.13 0.9,-0.3 1.81,-0.58 2.72,-0.84z" fill="#afc7d0"/>
  <path d="m120.12,56.25c0.87,4.02 -1.73,7.99 -3.18,11.65 -1.72,-1.44 -3.48,-2.83 -5.17,-4.3 2.45,-2.96 4.7,-5.79 8.35,-7.35z" fill="#6f6dab"/>
  <path d="m68.71,57.31 l0.41,0.72c-0.27,3.34 -0.8,6.65 -1.45,9.94 -1.35,1.01 -2.71,2.02 -4.07,3.03 -0.62,-1.95 -1.24,-3.89 -1.79,-5.86 1.96,-3.11 5.5,-4.48 6.9,-7.83z" fill="#a5c7c4"/>
  <path d="m105.19,58.51c2.28,1.59 4.49,3.27 6.58,5.09 1.69,1.47 3.45,2.86 5.17,4.3 1.48,1.34 2.25,2.95 2.85,4.83 0.38,1.92 0.69,3.86 1.01,5.8 1.73,-0.1 3.46,-0.18 5.18,-0.32 -1.75,0.38 -3.55,0.62 -5.33,0.88 0.39,2.84 0.78,5.68 1.19,8.52 -4.78,-3.66 -9.09,-7.86 -13.96,-11.41 -0.05,-0.12 -0.11,-0.24 -0.16,-0.36 -0.31,-5.88 -1.94,-11.5 -2.53,-17.33z" fill="#b1c8d0"/>
  <path d="m93.04,65.01c6.24,1.49 11.14,5.59 14.68,10.83 0.05,0.12 0.11,0.24 0.16,0.36 4.02,7.55 4.01,16.05 0.01,23.6 -0.08,0.19 -0.17,0.37 -0.26,0.56 -3.49,5.24 -8.44,9.2 -14.62,10.74 -10.32,2.92 -21.19,-2.22 -26.66,-11.2L66.18,99.59C62.62,92.71 62.28,84 65.98,77.1 70.76,67.5 82.66,61.91 93.04,65.01Z" fill="#f7f7f7"/>
  <path d="m59.85,66.01c0.65,-0.29 1.31,-0.58 1.96,-0.87 0.55,1.97 1.17,3.91 1.79,5.86 1.36,-1.01 2.72,-2.02 4.07,-3.03 -0.53,2.66 -0.99,5.34 -1.42,8.02 -4.43,3.46 -8.48,7.47 -13.12,10.62 0.07,-2.68 0.09,-5.28 0.6,-7.92 0.63,-0.98 1.26,-1.96 1.9,-2.93 -0.29,-1.1 -0.58,-2.2 -0.86,-3.31 0.36,-2.22 0.96,-3.4 2.48,-5.01 0.86,-0.49 1.73,-0.96 2.6,-1.43z" fill="#b3c9d3"/>
  <path d="m0,66.71c4.82,0.23 9.28,1.72 13.97,2.59 4.14,-0.5 7.76,-2.32 12.05,-1.69 6.23,0.88 11.17,3.95 16.14,7.59 4.08,-1.92 8.14,-2.54 12.61,-2.75 0.28,1.11 0.57,2.21 0.86,3.31 -0.64,0.97 -1.27,1.95 -1.9,2.93 -3.98,-0.15 -7.22,-1.14 -10.79,-2.8 -5.23,1.45 -10.35,2.24 -15.68,0.72 -5,-1.12 -8.52,-4.9 -13.23,-6.37C9.21,71.51 5.15,74.21 0,74.59Z" fill="#a5c9f0"/>
  <path d="m148.97,67.91c4.23,-0.48 7.81,0.8 11.77,1.98 5.15,-2.02 10.54,-2.46 16.03,-2.38 -0.02,2.52 -0.02,5.04 0.02,7.56 -2.6,-0.21 -5.28,-0.25 -7.76,-1.05 -2.9,-0.92 -5.23,-2.55 -8.02,-3.69 -2.09,0.08 -4.16,1.73 -5.92,2.78 -6.79,4.68 -15.71,6.27 -23.43,2.93 5.01,-3.87 10.85,-7.6 17.31,-8.13z" fill="#bc945a"/>
  <path d="m176.77,67.51 l0.23,1.04v23.18c-8.33,-0.35 -16.7,-0.66 -25.01,-1.37 -10.05,-0.85 -20.13,-0.96 -30.2,-1.67 -4.63,3.7 -9.07,7.68 -13.9,11.11 4,-7.55 4.01,-16.05 -0.01,-23.6 4.87,3.55 9.18,7.75 13.96,11.41 11.37,-0.97 22.77,-1.03 34.16,-1.69 6.96,-0.27 13.9,-0.97 20.87,-1.11 -0.01,-3.25 -0.02,-6.49 -0.08,-9.74 -0.04,-2.52 -0.04,-5.04 -0.02,-7.56z" fill="#2a282c"/>
  <path d="m14.03,70.24c4.71,1.47 8.23,5.25 13.23,6.37 5.33,1.52 10.45,0.73 15.68,-0.72 3.57,1.66 6.81,2.65 10.79,2.8 -0.51,2.64 -0.53,5.24 -0.6,7.92l-1.04,0.57C34.71,86.51 17.36,85.48 0,84.45v-9.86c5.15,-0.38 9.21,-3.08 14.03,-4.35z" fill="#fdfeeb"/>
  <path d="m119.79,72.73c4.31,0.35 8.31,0.41 11.99,3 -1.87,0.89 -3.81,1.9 -5.8,2.48 -1.72,0.14 -3.45,0.22 -5.18,0.32 -0.32,-1.94 -0.63,-3.88 -1.01,-5.8z" fill="#b58b51"/>
  <path d="m100.16,76.98c2.13,0.01 4.24,0.13 6.35,0.34 -1.49,0.82 -2.51,2.07 -4.36,1.56 -0.71,-0.57 -1.37,-1.2 -1.99,-1.9z" fill="#707375"/>
  <path d="m52.69,88.64c0.26,2.76 0.53,5.52 0.89,8.27 -1.08,0.18 -2.16,0.37 -3.24,0.57 -2.84,0.7 -5.48,1.78 -8.2,2.84 -0.81,-0.57 -1.64,-1.13 -2.46,-1.67 -1.2,-0.73 -2.19,-1.54 -3.65,-1.6 -3.59,-0.24 -7.35,-0.37 -10.91,0.24 -2.96,1.85 -5.64,3.82 -8.98,4.99 -1.71,0.56 -2.22,1.53 -3.02,3.03C11.24,104.49 9.37,103.6 7.44,102.88 5.01,102.03 2.5,101.56 0,100.97v-9.7c4.66,-0.24 9.34,-0.36 13.99,-0.73 12.91,-1.03 25.79,-1.22 38.7,-1.9z" fill="#fdfee9"/>
  <path d="m52.69,88.64c4.52,3.66 8.67,7.67 13.49,10.95l0.17,0.31c0.73,5.93 2.23,11.71 2.69,17.66 -2.22,-1.65 -4.27,-3.41 -6.21,-5.39 -1.57,-1.65 -3.44,-2.82 -5.42,-3.92 -1.12,-1.32 -2.1,-2.73 -3.06,-4.16 -1.15,-0.29 -2.31,-0.59 -3.47,-0.83 1.24,-0.04 2.48,-0.08 3.72,-0.14 -0.35,-2.07 -0.72,-4.13 -1.02,-6.21 -0.36,-2.75 -0.63,-5.51 -0.89,-8.27z" fill="#acc6cf"/>
  <path d="m121.79,88.69c-0.45,2.85 -0.87,5.69 -1.15,8.56 -0.17,2.11 -0.3,4.22 -0.41,6.33 -1.15,1.62 -2.15,3.35 -3.35,4.95 -1.64,1.39 -3.36,2.69 -5.06,4 -2.22,1.71 -4.51,3.33 -6.83,4.9 0.65,-5.73 2.02,-11.33 2.64,-17.07 0.09,-0.19 0.18,-0.37 0.26,-0.56 4.83,-3.43 9.27,-7.41 13.9,-11.11z" fill="#abc6ce"/>
  <path d="m121.79,88.69c10.07,0.71 20.15,0.82 30.2,1.67 8.31,0.71 16.68,1.02 25.01,1.37v9.59c-6.31,-0.35 -10.99,2.24 -16.2,5.3 5.51,1.9 10.35,2.77 16.2,2.87v19.54c-17.38,-5.29 -34.01,-13 -51.21,-18.72 2.23,2.82 5.07,4.82 7.77,7.13 11.79,10.46 24.54,19.83 36.27,30.36 -1.02,0.44 -2.04,0.88 -3.06,1.29 -4.89,0.83 -9.62,1.99 -14.33,3.54 0.12,-1.46 0.23,-2.91 0.35,-4.37 -0.33,0.39 -0.66,0.78 -0.99,1.16 -0.55,2.61 0.59,4.08 -2.82,4.52 -2.06,-3.26 -3.93,-6.43 -6.74,-9.12 -0.94,-0.72 -1.9,-1.42 -2.86,-2.11 0.06,5.37 0.82,10.28 2.81,15.28 -2.64,1.59 -4.98,3.51 -7.49,5.28 -4.04,-5.07 -7.23,-10.83 -10.89,-16.19 -5.15,-8.14 -10.47,-16.17 -15.77,-24.2 -1.16,-1.74 -2.19,-3.55 -3.05,-5.45 2.32,-1.57 4.61,-3.19 6.83,-4.9 2.43,3.64 4.78,5.88 8.54,8.14 0.03,-4.46 -1.64,-8.2 -3.48,-12.14 1.2,-1.6 2.2,-3.33 3.35,-4.95 4.41,-0.13 7.55,-0.85 11.49,-2.72 -3.75,-2.26 -6.66,-3.24 -11.08,-3.61 0.28,-2.87 0.7,-5.71 1.15,-8.56z" fill="#fdfee9"/>
  <path d="m25.12,97.29c3.56,-0.61 7.32,-0.48 10.91,-0.24 1.46,0.06 2.45,0.87 3.65,1.6 -2.33,-0.15 -4.66,-0.22 -6.99,-0.19 -7.59,0.05 -12.75,4.01 -18.87,7.84 6.96,2.48 14.05,3.11 20.61,-0.88 2.75,-1.54 5.41,-3.23 8.11,-4.85 2.6,1.47 5.42,2.21 8.34,2.69 1.16,0.24 2.32,0.54 3.47,0.83 0.96,1.43 1.94,2.84 3.06,4.16 -1.52,3.75 -4.78,7.62 -2.82,11.77 3.23,-2.22 5.81,-4.79 8.24,-7.85 1.94,1.98 3.99,3.74 6.21,5.39 -1.84,3.91 -4.41,7.13 -6.77,10.73 -7.49,11.47 -14.96,22.94 -22.5,34.37 -2.64,-1.87 -5.29,-3.85 -8.03,-5.54 2.2,-4.8 2.86,-8.81 2.63,-14.12 -4.84,2.34 -6.65,6.62 -9.82,10.61 -5.58,-2.55 -11.35,-3.73 -17.36,-4.74 -1.42,-0.28 -2.82,-0.6 -4.23,-0.91 12.06,-9.91 24.24,-19.7 36.17,-29.78 3.34,-2.68 6.77,-5.22 9.87,-8.18 -8.18,2.68 -16.29,5.6 -24.34,8.68 -5.11,1.99 -10.33,3.54 -15.29,5.93l-1.98,0.15 -0.04,0.04c-0.4,0.4 -0.81,0.81 -1.21,1.22 -2.07,0.51 -4.11,1.02 -6.14,1.67v-18.92c2.52,-0.23 5.04,-0.45 7.55,-0.74 1.6,-0.3 3.17,-0.7 4.69,-1.26l0.88,-1.46c0.8,-1.5 1.31,-2.47 3.02,-3.03 3.34,-1.17 6.02,-3.14 8.98,-4.99z" fill="#fdfee8"/>
  <path d="m50.34,97.48c1.08,-0.2 2.16,-0.39 3.24,-0.57 0.3,2.08 0.67,4.14 1.02,6.21 -1.24,0.06 -2.48,0.1 -3.72,0.14 -2.92,-0.48 -5.74,-1.22 -8.34,-2.69l-0.4,-0.25c2.72,-1.06 5.36,-2.14 8.2,-2.84z" fill="#665fa6"/>
  <path d="m120.64,97.25c4.42,0.37 7.33,1.35 11.08,3.61 -3.94,1.87 -7.08,2.59 -11.49,2.72 0.11,-2.11 0.24,-4.22 0.41,-6.33z" fill="#dfd56e"/>
  <path d="m32.69,98.46c0.58,2.32 1.16,4.64 1.74,6.96 -6.56,3.99 -13.65,3.36 -20.61,0.88 6.12,-3.83 11.28,-7.79 18.87,-7.84z" fill="#6560aa"/>
  <path d="m32.69,98.46c2.33,-0.03 4.66,0.04 6.99,0.19 0.82,0.54 1.65,1.1 2.46,1.67l0.4,0.25c-2.7,1.62 -5.36,3.31 -8.11,4.85 -0.58,-2.32 -1.16,-4.64 -1.74,-6.96z" fill="#807ab3"/>
  <path d="m144.03,98.88c5.64,0.74 11.08,4.45 15.89,7.33 -3.5,1.71 -6.95,2.99 -10.93,2.43 -6.96,-0.71 -11.82,-4.46 -17.26,-8.41 4.14,-1 7.98,-2.04 12.3,-1.35z" fill="#e1d867"/>
  <path d="m66.35,99.9c5.47,8.98 16.34,14.12 26.66,11.2 6.18,-1.54 11.13,-5.5 14.62,-10.74 -0.62,5.74 -1.99,11.34 -2.64,17.07 0.86,1.9 1.89,3.71 3.05,5.45 5.3,8.03 10.62,16.06 15.77,24.2 -1.77,-0.04 -3.53,-0.08 -5.3,-0.11 -4.77,-9.56 -9.74,-19.04 -14.42,-28.65 -5.98,-1.41 -11.24,-4.53 -17.05,-6.1 -5.74,1.69 -11.28,4.17 -16.92,6.19 -7.94,16.17 -16.09,32.27 -24.46,48.22 -2.02,-1.26 -3.95,-2.6 -5.89,-3.97 7.54,-11.43 15.01,-22.9 22.5,-34.37 2.36,-3.6 4.93,-6.82 6.77,-10.73 -0.46,-5.95 -1.96,-11.73 -2.69,-17.66z" fill="#28292c"/>
  <path d="m0,100.97c2.5,0.59 5.01,1.06 7.44,1.91 0.01,1.72 0.06,3.43 0.11,5.15 -2.51,0.29 -5.03,0.51 -7.55,0.74z" fill="#6760ab"/>
  <path d="m177,101.32v8.17c-5.85,-0.1 -10.69,-0.97 -16.2,-2.87 5.21,-3.06 9.89,-5.65 16.2,-5.3z" fill="#e1d871"/>
  <path d="m7.44,102.88c1.93,0.72 3.8,1.61 5.68,2.43l-0.88,1.46c-1.52,0.56 -3.09,0.96 -4.69,1.26 -0.05,-1.72 -0.1,-3.43 -0.11,-5.15z" fill="#9691b3"/>
  <path d="m57.41,108.25c1.98,1.1 3.85,2.27 5.42,3.92 -2.43,3.06 -5.01,5.63 -8.24,7.85 -1.96,-4.15 1.3,-8.02 2.82,-11.77z" fill="#dbd769"/>
  <path d="m116.88,108.53c1.84,3.94 3.51,7.68 3.48,12.14 -3.76,-2.26 -6.11,-4.5 -8.54,-8.14 1.7,-1.31 3.42,-2.61 5.06,-4z" fill="#527355"/>
  <path d="m49,110c-3.1,2.96 -6.53,5.5 -9.87,8.18 -11.93,10.08 -24.11,19.87 -36.17,29.78 1.41,0.31 2.81,0.63 4.23,0.91C4.79,148.75 2.4,148.71 0,148.62v-20.93c2.03,-0.65 4.07,-1.16 6.14,-1.67 -0.91,0.96 -1.77,1.96 -2.55,3.02 0.45,0.63 1.17,0.89 2.17,0.77 1.37,-1.56 2.45,-3.47 3.61,-5.2 4.96,-2.39 10.18,-3.94 15.29,-5.93 8.05,-3.08 16.16,-6 24.34,-8.68z" fill="#afc8d1"/>
  <path d="m125.79,110.31c17.2,5.72 33.83,13.43 51.21,18.72v19.51c-3.42,0.11 -6.83,0.26 -10.23,0.55 1.02,-0.41 2.04,-0.85 3.06,-1.29 -11.73,-10.53 -24.48,-19.9 -36.27,-30.36 -2.7,-2.31 -5.54,-4.31 -7.77,-7.13z" fill="#b0cad1"/>
  <path d="m87.04,112.22c5.81,1.57 11.07,4.69 17.05,6.1 -2.66,1.2 -5.38,2.24 -8.12,3.22 -2.02,0.73 -4,1.59 -6.03,2.29 -2.16,0.41 -4.32,0.78 -6.49,1.09 -0.52,-1.1 -1.03,-2.22 -1.59,-3.3 -1.38,0.34 -2.75,0.74 -4.12,1.12l0.03,-1.36c-2.53,-1.04 -5.1,-1.96 -7.65,-2.97 5.64,-2.02 11.18,-4.5 16.92,-6.19z" fill="#a5c0c9"/>
  <path d="m70.12,118.41c2.55,1.01 5.12,1.93 7.65,2.97l-0.03,1.36c-0.98,3.24 -1.77,6.27 -1.63,9.69 3.7,-1.64 5.33,-4.19 7.34,-7.51 2.17,-0.31 4.33,-0.68 6.49,-1.09 2.32,4 4.67,6.74 8.52,9.34 -0.04,3.98 -0.25,8.04 0.06,12.02 0.78,6.48 3.96,11.82 9.58,15.23 0.34,-8.67 0.61,-16.46 -5.12,-23.58 -1.4,-1.56 -2.88,-2.97 -4.38,-4.43 -0.22,-4.1 -0.94,-7.15 -2.63,-10.87 2.74,-0.98 5.46,-2.02 8.12,-3.22 4.68,9.61 9.65,19.09 14.42,28.65 3.34,6.71 6.73,13.4 10.24,20.03 -2.83,1.7 -5.78,3.13 -8.69,4.68l-0.89,-1.64c-2.25,-4.07 -7.19,-6.86 -11.12,-9.13 0.68,4.73 2.25,9.02 4.54,13.19 -5.78,1.75 -11.54,2.82 -17.59,3.12 -1.99,-9.71 -3.44,-19.5 -5.14,-29.26 -0.8,-4.85 -1.19,-9.54 -2.8,-14.22L87,133.47 86.93,133.09c-2.52,14.69 -4.99,29.42 -7.53,44.1 -5.91,-0.37 -11.63,-1.56 -17.32,-3.2 1.54,-3.59 2.76,-7.23 3.84,-10.98 1.05,-4.55 5.63,-6.06 7.66,-10.37 3.07,-6.37 2.91,-12.96 2,-19.81 -4.91,3.51 -8.14,8.6 -9.01,14.59 -0.46,4.19 0.17,8.51 -0.27,12.68 -1.9,2.1 -4.74,3.44 -6.93,5.26 -2.05,1.64 -3.4,3.77 -4.9,5.88 -3.01,-1.41 -5.97,-2.89 -8.81,-4.61 8.37,-15.95 16.52,-32.05 24.46,-48.22z" fill="#fcfde8"/>
  <path d="m53.61,120.63c0.28,5.24 -2.43,9.47 -5.7,13.28 -3.95,3.37 -8.72,5.96 -13.49,7.98 0.46,-2.28 0.83,-4.49 1.76,-6.65 2.54,-7.1 10.92,-11.69 17.43,-14.61z" fill="#e5db6f"/>
  <path d="m81.86,121.62c0.56,1.08 1.07,2.2 1.59,3.3 -2.01,3.32 -3.64,5.87 -7.34,7.51 -0.14,-3.42 0.65,-6.45 1.63,-9.69 1.37,-0.38 2.74,-0.78 4.12,-1.12z" fill="#94bef1"/>
  <path d="m119.72,120.39c4.81,2.29 10.37,4.88 14.05,8.82 3.57,3.76 5.14,8.45 5.82,13.5 -3.43,-1.98 -6.92,-3.91 -10.22,-6.12 -5.42,-3.75 -8.75,-9.7 -9.65,-16.2z" fill="#648866"/>
  <path d="m95.97,121.54c1.69,3.72 2.41,6.77 2.63,10.87 1.5,1.46 2.98,2.87 4.38,4.43 -0.85,0.24 -1.7,0.49 -2.54,0.77 -0.88,2.46 -1.49,5 -1.92,7.58 -0.31,-3.98 -0.1,-8.04 -0.06,-12.02 -3.85,-2.6 -6.2,-5.34 -8.52,-9.34 2.03,-0.7 4.01,-1.56 6.03,-2.29z" fill="#b13d33"/>
  <path d="m7.35,124.8 l0.04,-0.04 1.98,-0.15c-1.16,1.73 -2.24,3.64 -3.61,5.2 -1,0.12 -1.72,-0.14 -2.17,-0.77 0.78,-1.06 1.64,-2.06 2.55,-3.02 0.4,-0.41 0.81,-0.82 1.21,-1.22z" fill="#526466"/>
  <path d="m171.16,131.18c0.91,-0.6 3.11,0.51 2.64,1.69 -0.94,0.65 -3.08,-0.49 -2.64,-1.69z" fill="#7b949b"/>
  <path d="m75.58,132.83c0.91,6.85 1.07,13.44 -2,19.81 -2.03,4.31 -6.61,5.82 -7.66,10.37 -1.08,3.75 -2.3,7.39 -3.84,10.98 -2.56,-0.83 -5.12,-1.71 -7.61,-2.75 1.5,-2.11 2.85,-4.24 4.9,-5.88 2.19,-1.82 5.03,-3.16 6.93,-5.26 0.44,-4.17 -0.19,-8.49 0.27,-12.68 0.87,-5.99 4.1,-11.08 9.01,-14.59z" fill="#a3c9f1"/>
  <path d="m86.93,133.09 l0.07,0.38 0.06,0.27c1.61,4.68 2,9.37 2.8,14.22 1.7,9.76 3.15,19.55 5.14,29.26 -5.18,0.11 -10.41,0.11 -15.6,-0.03 2.54,-14.68 5.01,-29.41 7.53,-44.1z" fill="#adc7ce"/>
  <path d="m100.44,137.61c0.84,-0.28 1.69,-0.53 2.54,-0.77 5.73,7.12 5.46,14.91 5.12,23.58 -5.62,-3.41 -8.8,-8.75 -9.58,-15.23 0.43,-2.58 1.04,-5.12 1.92,-7.58z" fill="#c64837"/>
  <path d="m34.37,143c0.23,5.31 -0.43,9.32 -2.63,14.12 -2.31,-1.32 -4.76,-2.45 -7.19,-3.51 3.17,-3.99 4.98,-8.27 9.82,-10.61z" fill="#ddd65e"/>
  <path d="m139.38,142.71c0.96,0.69 1.92,1.39 2.86,2.11 2.81,2.69 4.68,5.86 6.74,9.12 -2.23,1.44 -4.44,2.8 -6.79,4.05 -1.99,-5 -2.75,-9.91 -2.81,-15.28z" fill="#587c5b"/>
  <path d="m123.81,147.08c3.66,5.36 6.85,11.12 10.89,16.19 -1.93,1.31 -3.96,2.5 -5.95,3.73 -3.51,-6.63 -6.9,-13.32 -10.24,-20.03 1.77,0.03 3.53,0.07 5.3,0.11z" fill="#323031"/>
  <path d="m108.05,160.91c3.93,2.27 8.87,5.06 11.12,9.13l0.23,1.87c-2.24,0.8 -4.52,1.51 -6.81,2.19 -2.29,-4.17 -3.86,-8.46 -4.54,-13.19z" fill="#bc4133"/>
</svg>
