<?xml version="1.0" ?>
<svg xmlns="http://www.w3.org/2000/svg" width="178.35068" height="177.7701" viewBox="0 0 178.35068 177.7701">
  <path d="m78.87,0.536c16.14,-1.52 32.24,-0.02 46.92,7.26 0.49,2.63 0.93,5.59 2.24,7.95 1.23,2.06 3.2,3.87 4.88,5.57 -1.89,-0.33 -3.57,-0.82 -5.49,-0.8 -4.72,5.76 -8.13,12.97 -10.77,19.92 -0.7,-0.47 -1.41,-0.94 -2.11,-1.4 -2.12,4.01 -3.76,8.03 -4.96,12.42 17.75,0.43 35.56,0.18 53.32,0.1 -2,-8.43 -3.93,-16.39 -3.44,-25.14 6.1,1.75 12.3,2.08 18.6,2.31 0.49,8.71 0.21,17.48 0.22,26.2 -4.72,0.04 -9.43,0.02 -14.15,0.01 -2.71,0.01 -5.43,0.01 -8.14,0.01 -0.87,0 -1.74,0 -2.61,0 -9.96,0.03 -19.92,0 -29.88,-0.06 -1.77,0 -3.55,0.01 -5.33,0.02 -2.5,0.02 -5,0.04 -7.49,0.03 -7.28,0.02 -14.55,0.01 -21.82,-0.04 -6.93,-0.03 -13.86,-0.05 -20.79,0.02 -2.69,0.04 -5.38,0.07 -8.07,0.09 -1.63,0.01 -3.27,0.01 -4.9,0.01 -10.15,-0.09 -20.29,-0.14 -30.44,-0.08l-1.8,0.03c-2.69,0.04 -5.37,0.02 -8.06,0 -4.71,-0.03 -9.43,-0.03 -14.15,-0.05 -0.3,-8.71 0.72,-17.64 -0.65,-26.24 6.51,0.04 12.99,-0.51 19.29,-2.21 0.52,8.78 -1.99,16.61 -3.51,25.13 9.36,0.21 18.71,-0.25 28.06,-0.01 8.38,0.12 16.77,0.13 25.15,0.01 -0.87,-3.31 -1.73,-6.61 -2.57,-9.93 -1.41,0.41 -2.83,0.82 -4.25,1.23 0.93,-1 1.86,-1.99 2.78,-2.99 -2.45,-2.85 -5.04,-5.67 -7.21,-8.74 -2.37,-3.38 -3.76,-7.49 -6.28,-10.74 -1.98,-0.04 -4,0.47 -5.94,0.81 2,-2.14 4.6,-4.25 5.92,-6.87 0.86,-2.02 1.2,-4.3 1.66,-6.43 8.04,-4.12 16.79,-6.5 25.77,-7.4z" fill="#ddd9d5"/>
  <path d="m53.1,7.936c-0.46,2.13 -0.8,4.41 -1.66,6.43 -1.32,2.62 -3.92,4.73 -5.92,6.87 1.94,-0.34 3.96,-0.85 5.94,-0.81 2.52,3.25 3.91,7.36 6.28,10.74 2.17,3.07 4.76,5.89 7.21,8.74 -0.92,1 -1.85,1.99 -2.78,2.99 1.42,-0.41 2.84,-0.82 4.25,-1.23 0.84,3.32 1.7,6.62 2.57,9.93 -8.38,0.12 -16.77,0.11 -25.15,-0.01 -9.35,-0.24 -18.7,0.22 -28.06,0.01 1.52,-8.52 4.03,-16.35 3.51,-25.13 3.05,-0.89 6.03,-2.05 8.91,-3.37 8.97,-4.07 15.93,-10.93 24.9,-15.16z" fill="#913427"/>
  <path d="m125.79,7.796c8.82,3.71 15.09,10.84 23.6,14.9 -0.7,1.19 -0.88,3.1 0.61,3.76 1.84,0.05 1.46,-2.15 0.77,-3.19 2.85,1.16 5.74,2.28 8.69,3.15 -0.49,8.75 1.44,16.71 3.44,25.14 -17.76,0.08 -35.57,0.33 -53.32,-0.1 1.2,-4.39 2.84,-8.41 4.96,-12.42 0.7,0.46 1.41,0.93 2.11,1.4 2.64,-6.95 6.05,-14.16 10.77,-19.92 1.92,-0.02 3.6,0.47 5.49,0.8 -1.68,-1.7 -3.65,-3.51 -4.88,-5.57 -1.31,-2.36 -1.75,-5.32 -2.24,-7.95z" fill="#913427"/>
  <path d="m45.03,15.086c1.74,-0.55 2.19,1.69 0.79,2.44 -1.72,0.54 -2.19,-1.7 -0.79,-2.44z" fill="#b0aca9"/>
  <path d="m149.39,22.696 l1.38,0.57c0.69,1.04 1.07,3.24 -0.77,3.19 -1.49,-0.66 -1.31,-2.57 -0.61,-3.76z" fill="#ddd9d5"/>
  <path d="m36.42,38.916c1.02,-1.51 2.91,0.26 1.35,1.3 -1.02,0.13 -1.47,-0.3 -1.35,-1.3z" fill="#b0aca9"/>
  <path d="m56.48,39.066c1.07,-1.07 2.61,0.17 1.85,1.45 -1.07,1.06 -2.61,-0.17 -1.85,-1.45z" fill="#b0aca9"/>
  <path d="m0.65,54.916c4.72,0.02 9.44,0.02 14.15,0.05 -0.88,4.65 -3.47,10.59 -1.13,15.04 1.96,4.33 3.95,8.6 5.56,13.08 3.03,-9.4 0.36,-18.87 3.63,-28.12l1.8,-0.03c0.93,7.31 2.23,14.47 2.15,21.87 -0.03,13.28 -0.71,25.76 2.35,38.83 1.08,0.11 2.16,0.21 3.23,0.32 1.13,-9.3 3.58,-18.32 4.24,-27.7 1.49,-9.5 -0.64,-17.41 4.02,-26.08 3.92,10.36 4.01,20.55 5.43,31.36 0.63,5.04 0.49,10.14 1.16,15.17 0.47,3.63 2.1,6.6 3.77,9.79 2.13,-11.36 4.01,-23.17 3.26,-34.75 -0.46,-9.61 0.22,-19.14 0.83,-28.73 1.63,0 3.27,0 4.9,-0.01 1.33,8.66 -1.07,16.58 -1.28,25.19 3.69,-3.49 8.05,-7.37 10.16,-12.05 1.1,-4.11 -0.3,-9.06 -0.81,-13.23 6.93,-0.07 13.86,-0.05 20.79,-0.02 -0.05,9.39 -0.05,18.77 -0.27,28.16 -7.56,-0.19 -14.88,-0.65 -22.48,-0.12 1.87,8.03 4.62,15.86 6.86,23.79 5.44,17.39 10.31,34.93 15.56,52.38 0.59,5.93 0.32,11.98 0.31,17.94 -4.09,0.15 -8.1,0.32 -12.19,0.11 -12.38,-1.48 -24.38,-6.3 -34.43,-13.68 -5.15,-3.79 -10.31,-7.36 -16.31,-9.71 -7.99,-3.38 -16.45,-4.49 -25.06,-4.51 -0.35,-8.82 -0.19,-17.62 -0.19,-26.45 -0.05,-22.63 -0.02,-45.26 -0.01,-67.89z" fill="#b0aca9"/>
  <path d="m14.8,54.966c2.69,0.02 5.37,0.04 8.06,0 -3.27,9.25 -0.6,18.72 -3.63,28.12 -1.61,-4.48 -3.6,-8.75 -5.56,-13.08 -2.34,-4.45 0.25,-10.39 1.13,-15.04z" fill="#913427"/>
  <path d="m24.66,54.936c10.15,-0.06 20.29,-0.01 30.44,0.08 -0.61,9.59 -1.29,19.12 -0.83,28.73 0.75,11.58 -1.13,23.39 -3.26,34.75 -1.67,-3.19 -3.3,-6.16 -3.77,-9.79 -0.67,-5.03 -0.53,-10.13 -1.16,-15.17 -1.42,-10.81 -1.51,-21 -5.43,-31.36 -4.66,8.67 -2.53,16.58 -4.02,26.08 -0.66,9.38 -3.11,18.4 -4.24,27.7 -1.07,-0.11 -2.15,-0.21 -3.23,-0.32 -3.06,-13.07 -2.38,-25.55 -2.35,-38.83 0.08,-7.4 -1.22,-14.56 -2.15,-21.87z" fill="#913427"/>
  <path d="m60,55.006c2.69,-0.02 5.38,-0.05 8.07,-0.09 0.51,4.17 1.91,9.12 0.81,13.23 -2.11,4.68 -6.47,8.56 -10.16,12.05 0.21,-8.61 2.61,-16.53 1.28,-25.19z" fill="#913427"/>
  <path d="m88.86,54.896c7.27,0.05 14.54,0.06 21.82,0.04 -0.55,4.07 -2.18,9.22 -0.78,13.17 2.82,5.29 6.81,9.93 9.87,15.11 0.68,-9.61 -2.37,-18.68 -1.6,-28.31 1.78,-0.01 3.56,-0.02 5.33,-0.02 0.18,9.69 1.48,19.22 1.05,28.94 -0.63,11.41 0.78,23.22 2.1,34.6 2.01,-2.83 4.23,-5.38 4.72,-8.93 0.94,-6.77 0.65,-13.68 1.55,-20.47 1.24,-9.18 1.49,-17.76 5.14,-26.44 1.55,3.26 2.87,6.47 2.9,10.15 0.22,6.44 0.67,12.76 1.5,19.16 0.79,8.31 2.91,16.38 3.76,24.69 2.57,-4.72 5.12,-8.98 5.24,-14.54 0.13,-8.74 0.22,-17.51 0.33,-26.25 0.15,-6.99 1.48,-13.85 1.59,-20.85 0.87,0 1.74,0 2.61,0 1.28,4.86 1.96,9.6 1.68,14.65 -0.29,4.58 0.63,8.91 2.05,13.23 1.6,-4.65 3.61,-9.12 5.38,-13.7 1.96,-4.79 0.17,-9.44 -0.97,-14.19 4.72,0.01 9.43,0.03 14.15,-0.01 -0.08,21.3 0.05,42.59 -0.02,63.88 -0.02,10.18 0.28,20.3 -0.23,30.48 -8.64,0.07 -17.1,1.08 -25.09,4.54 -5.97,2.39 -11.13,5.97 -16.28,9.75 -10.96,8.04 -24.27,12.94 -37.83,13.94 -7.38,0.38 -14.83,0.39 -22.18,-0.36 4.09,0.21 8.1,0.04 12.19,-0.11 0.01,-5.96 0.28,-12.01 -0.31,-17.94 1.95,-3.6 3.44,-7.26 4.54,-11.2 3.82,-13.7 8.05,-27.28 11.91,-40.96 2.07,-8.11 4.8,-16 7.22,-24.01 -7.89,-0.44 -15.73,0.11 -23.61,0.12 0.22,-9.39 0.22,-18.77 0.27,-28.16z" fill="#8f8b87"/>
  <path d="m110.68,54.936c2.49,0.01 4.99,-0.01 7.49,-0.03 -0.77,9.63 2.28,18.7 1.6,28.31 -3.06,-5.18 -7.05,-9.82 -9.87,-15.11 -1.4,-3.95 0.23,-9.1 0.78,-13.17z" fill="#913427"/>
  <path d="m123.5,54.886c9.96,0.06 19.92,0.09 29.88,0.06 -0.11,7 -1.44,13.86 -1.59,20.85 -0.11,8.74 -0.2,17.51 -0.33,26.25 -0.12,5.56 -2.67,9.82 -5.24,14.54 -0.85,-8.31 -2.97,-16.38 -3.76,-24.69 -0.83,-6.4 -1.28,-12.72 -1.5,-19.16 -0.03,-3.68 -1.35,-6.89 -2.9,-10.15 -3.65,8.68 -3.9,17.26 -5.14,26.44 -0.9,6.79 -0.61,13.7 -1.55,20.47 -0.49,3.55 -2.71,6.1 -4.72,8.93 -1.32,-11.38 -2.73,-23.19 -2.1,-34.6 0.43,-9.72 -0.87,-19.25 -1.05,-28.94z" fill="#913427"/>
  <path d="m155.99,54.946c2.71,0 5.43,0 8.14,-0.01 1.14,4.75 2.93,9.4 0.97,14.19 -1.77,4.58 -3.78,9.05 -5.38,13.7 -1.42,-4.32 -2.34,-8.65 -2.05,-13.23 0.28,-5.05 -0.4,-9.79 -1.68,-14.65z" fill="#913427"/>
  <path d="m66.11,82.936c7.6,-0.53 14.92,-0.07 22.48,0.12 7.88,-0.01 15.72,-0.56 23.61,-0.12 -2.42,8.01 -5.15,15.9 -7.22,24.01 -3.86,13.68 -8.09,27.26 -11.91,40.96 -1.1,3.94 -2.59,7.6 -4.54,11.2 -5.25,-17.45 -10.12,-34.99 -15.56,-52.38 -2.24,-7.93 -4.99,-15.76 -6.86,-23.79z" fill="#292a2c"/>
</svg>
