<?xml version="1.0" ?>
<svg xmlns="http://www.w3.org/2000/svg" width="178.16568" height="178.02115" viewBox="0 0 178.16568 178.02115">
  <path d="m78.782,0.442c16.23,-1.39 32.44,0.32 47.15,7.66 6.09,2.9 11.21,7.02 16.69,10.85 0.22,5.06 -0.94,9.1 -4.64,12.65 -3.59,3.76 -10.52,2.24 -14.49,5.49 -2.11,1.23 -3.07,4.29 -4.11,6.38 -0.61,4.84 0.02,8.97 -3.77,12.72 -3.65,2.84 -9.24,2.4 -13.42,3.58 -1.32,0.22 -1.75,1.17 -2.5,2.11l-2.16,0.85 -1.1,-1.3c0.07,-3.25 0.32,-6.32 -0.86,-9.43 -0.43,1.24 -0.92,2.44 -1.47,3.62 -4.67,0.17 -8.93,0.95 -13.05,-1.6 -0.43,2.86 0.4,6.17 -0.84,8.77l-1.11,-0.72c-5.17,-4.79 -11.58,-1.9 -17.19,-5.97 -2.88,-2.46 -3.01,-6.39 -3.4,-9.87 -0.43,-4.37 -2.14,-8.39 -6.38,-10.24 -3.06,-0.95 -5.68,-2.42 -8.95,-2.23 -2.56,-0.66 -5,-3.41 -6.48,-5.55 -1.03,-2.55 -1.62,-5.43 -2.23,-8.1 6.67,-5.71 14.54,-10.97 22.75,-14.27 6.93,-2.97 14.16,-4.27 21.56,-5.4z" fill="#b79464"/>
  <path d="m142.622,18.952c4.34,2.67 9,5.15 13.87,6.72 6.86,2.51 13.91,2.9 21.15,3.09 0.93,5.77 0.32,11.85 0.41,17.69 -8.45,0.41 -16.87,0.12 -25.32,0.17 -11.01,-0.03 -22.18,0.6 -33.14,-0.49 -0.43,-0.73 -0.5,-1.61 -0.21,-2.66 1.04,-2.09 2,-5.15 4.11,-6.38 3.97,-3.25 10.9,-1.73 14.49,-5.49 3.7,-3.55 4.86,-7.59 4.64,-12.65z" fill="#51453d"/>
  <path d="m34.472,20.112c0.61,2.67 1.2,5.55 2.23,8.1 1.48,2.14 3.92,4.89 6.48,5.55 3.27,-0.19 5.89,1.28 8.95,2.23 4.24,1.85 5.95,5.87 6.38,10.24 -1.23,-0.1 -2.46,-0.18 -3.69,-0.23 -5.73,-0.41 -11.35,0.06 -17.09,0.05 -7.03,0.15 -13.98,-0.75 -21.01,-0.19 -5.91,0.45 -11.01,-0.64 -16.69,1.26 -0.08,-6.16 0.01,-12.32 0.07,-18.48 3.55,-0.05 7.06,-0.03 10.58,-0.53 8.6,-0.93 16.12,-4.32 23.79,-8z" fill="#51453d"/>
  <path d="m111.882,28.202c2.8,-0.87 0.79,3.16 -0.79,2.02 -0.27,-0.73 -0.01,-1.4 0.79,-2.02z" fill="#6a716a"/>
  <path d="m106.822,29.222c1.76,-1.17 2.32,1.28 0.53,1.64 -0.99,-0.17 -1.17,-0.71 -0.53,-1.64z" fill="#575c56"/>
  <path d="m119.382,43.472c-0.29,1.05 -0.22,1.93 0.21,2.66 2.25,1.69 4.53,2.8 5.74,5.53 4.13,8.66 8.93,16.91 13.77,25.18 2.75,4.79 6.11,9.11 8.39,14.17 0.45,-0.89 0.85,-1.8 1.25,-2.71 -0.55,5.96 -1.23,11.91 -1.8,17.87 3.25,-0.06 6.49,-0.09 9.73,-0.04 0.25,1.28 0.54,2.59 0.66,3.88 -0.81,0.42 -1.64,0.81 -2.48,1.17 -1.86,0.4 -3.75,0.54 -5.63,0.83 -3.65,0.91 -7.5,-0.9 -11.28,-1.35 -4.57,-1.77 -9.06,-3.46 -13.8,-4.76 -4.16,-3.97 -6.22,-10.1 -7.5,-15.57 -0.73,-2.68 -0.44,-5.09 -2.09,-7.4 -2.23,0.15 -4.34,-0.85 -6.49,-0.34 -1.44,0.47 -2.32,-0.41 -3.52,-1.05 -1.93,-6.44 -2.67,-13.31 -4.85,-19.66 0.75,-0.94 1.18,-1.89 2.5,-2.11 4.18,-1.18 9.77,-0.74 13.42,-3.58 3.79,-3.75 3.16,-7.88 3.77,-12.72z" fill="#6a716a"/>
  <path d="m37.732,46.052c5.74,0.01 11.36,-0.46 17.09,-0.05 -3.58,5.25 -5.43,11.52 -9.12,16.63 -0.56,-0.29 -1.13,-0.59 -1.7,-0.89 -3.55,-0.15 -7.12,-0.11 -10.67,-0.04 -0.06,-1.07 -0.11,-2.14 -0.15,-3.22 -0.65,0.01 -1.3,0.02 -1.94,0.04 -0.05,1.59 -0.06,3.19 -0.05,4.78 -2.77,-1.98 -8.03,-3.24 -10.93,-0.97 2.1,1.51 4.62,0.17 7.01,1.22 2.28,0.62 3.88,1.76 4.24,4.25 -3.65,-2.55 -6.14,-2.61 -10.48,-2.36l0.06,1.72c1.57,0.04 3.15,-0.07 4.73,0.01 1.84,0.86 3.52,2.1 5.2,3.25 0.23,1.65 0.08,3.37 0.06,5.04l-0.58,0.48c-3.43,0.14 -6.87,-0.08 -10.31,-0.04 1.01,-1.85 2.56,-2.41 4.27,-3.44 -3.32,0.08 -6.59,0.08 -9.9,-0.18 1.5,0.96 3.05,1.78 4.36,3 0.28,1.69 0.02,2.83 -0.69,4.35 -1.1,0.68 -2.61,1.08 -3.33,2.17 3.2,0.29 6.48,0.15 9.68,-0.07 -1.36,-1.4 -3.42,-1.46 -4.52,-3.02 3.51,-0.75 7.21,-0.63 10.75,-0.25 0.63,3.3 0.26,6.82 0.28,10.17 -1.5,1.09 -1.58,1.42 -1.76,3.27 -1.89,3.71 -4.24,7.42 -5.59,11.36 -0.59,0.98 1.01,2.48 0.02,3.08 -2.9,1.47 -4.36,3.31 -5.84,6.13 -4.02,7.9 -8.96,15.26 -12.87,23.23 -1.32,2.71 -2.81,4.89 -4.94,7.04 -0.23,-31.85 0.08,-63.76 -0.08,-95.62 5.68,-1.9 10.78,-0.81 16.69,-1.26 7.03,-0.56 13.98,0.34 21.01,0.19z" fill="#575c56"/>
  <path d="m54.822,46.002c1.23,0.05 2.46,0.13 3.69,0.23 0.39,3.48 0.52,7.41 3.4,9.87 5.61,4.07 12.02,1.18 17.19,5.97l-1.68,0.66c-1.55,6.34 -2.8,12.72 -4.51,19.02 -3.34,0.62 -7.57,-0.63 -10.34,1.49 -0.99,3.59 -1.6,7.23 -2.13,10.91 -1.99,4.09 -3.88,8.12 -6.81,11.66 -4.79,-2.21 -8.94,-6.02 -12.63,-9.74 -2.72,-2.4 -1.08,-6.05 -4.34,-7.67 -1.68,-0.91 -2.21,-2.53 -3.4,-3.94 -0.07,-0.79 -0.1,-1.58 -0.09,-2.39 2.79,-0.69 5.89,-0.02 8.76,-0.36 0.11,-1.09 0.23,-2.18 0.35,-3.27 2.97,-0.62 6.19,0.4 9.11,-0.23l0.4,-1.75c-3.51,-0.24 -7.33,-0.63 -10.79,0.15 -0.45,0.91 -0.83,1.85 -1.14,2.84 -1.38,0.05 -2.77,0.08 -4.16,0.09 2.83,-3.01 4.42,-6.55 6.37,-10.13 0.89,-0.08 1.61,-0.34 2.13,-0.77l-0.03,-1.79c0,-1.02 -0.03,-2.04 -0.1,-3.05l-0.07,-2.06c0.57,0.3 1.14,0.6 1.7,0.89 3.69,-5.11 5.54,-11.38 9.12,-16.63z" fill="#6a716a"/>
  <path d="m119.592,46.132c10.96,1.09 22.13,0.46 33.14,0.49 8.45,-0.05 16.87,0.24 25.32,-0.17 -0.65,8.61 0.12,17.17 -0.27,25.88 0.11,23.8 -0.2,48.53 0.16,72.16 -3.36,-4.17 -5.69,-8.67 -7.83,-13.55 -2.78,-4.9 -5.53,-9.84 -8.53,-14.6 1.89,-0.21 3.78,-0.37 5.66,-0.64 -2.27,-2.03 -6.63,-1.43 -9.35,-2.03 -0.97,-1.22 -1.38,-2.14 -3.04,-2.49 0.84,-0.36 1.67,-0.75 2.48,-1.17 -0.12,-1.29 -0.41,-2.6 -0.66,-3.88 1.41,-0.08 3.38,0.33 4.61,-0.42 -0.89,-8.63 -1.92,-17.18 -3.06,-25.78 -2.75,-0.02 -5.5,-0.07 -8.25,0.01 -0.6,2.74 -0.8,5.58 -1.23,8.36 -0.4,0.91 -0.8,1.82 -1.25,2.71 -2.28,-5.06 -5.64,-9.38 -8.39,-14.17 -4.84,-8.27 -9.64,-16.52 -13.77,-25.18 -1.21,-2.73 -3.49,-3.84 -5.74,-5.53z" fill="#575c56"/>
  <path d="m94.272,51.122c-0.08,1.16 -0.22,2.32 -0.42,3.48 -3.57,0.14 -7.49,0.46 -10.97,-0.42 0.01,-1.16 0.15,-2.29 0.4,-3.39 2.66,-2.91 8.73,-3.19 10.99,0.33z" fill="#51453d"/>
  <path d="m95.572,52.002c1.18,3.11 0.93,6.18 0.86,9.43l1.1,1.3c-5.36,4.57 -11.82,4.08 -17.32,0.06 1.24,-2.6 0.41,-5.91 0.84,-8.77 4.12,2.55 8.38,1.77 13.05,1.6 0.55,-1.18 1.04,-2.38 1.47,-3.62z" fill="#51453d"/>
  <path d="m31.242,58.522c0.64,-0.02 1.29,-0.03 1.94,-0.04 0.04,1.08 0.09,2.15 0.15,3.22 3.55,-0.07 7.12,-0.11 10.67,0.04l0.07,2.06c-3.53,0.14 -7.4,-0.36 -10.84,0.2l-0.03,2.74c3.66,0.08 7.31,-0.01 10.97,0.11l0.03,1.79c-0.52,0.43 -1.24,0.69 -2.13,0.77 -2.96,0.03 -5.91,0 -8.87,0.03 0.05,3.5 0.1,7 0,10.5l2.5,-0.4c1.39,-0.01 2.78,-0.04 4.16,-0.09 0.31,-0.99 0.69,-1.93 1.14,-2.84 3.46,-0.78 7.28,-0.39 10.79,-0.15l-0.4,1.75c-2.92,0.63 -6.14,-0.39 -9.11,0.23 -0.12,1.09 -0.24,2.18 -0.35,3.27 -2.87,0.34 -5.97,-0.33 -8.76,0.36 -0.01,0.81 0.02,1.6 0.09,2.39 0.08,1.13 0.13,2.27 0.14,3.4l-2.31,0.77c-0.02,-3.35 0.35,-6.87 -0.28,-10.17 -3.54,-0.38 -7.24,-0.5 -10.75,0.25 1.1,1.56 3.16,1.62 4.52,3.02 -3.2,0.22 -6.48,0.36 -9.68,0.07 0.72,-1.09 2.23,-1.49 3.33,-2.17 0.71,-1.52 0.97,-2.66 0.69,-4.35 -1.31,-1.22 -2.86,-2.04 -4.36,-3 3.31,0.26 6.58,0.26 9.9,0.18 -1.71,1.03 -3.26,1.59 -4.27,3.44 3.44,-0.04 6.88,0.18 10.31,0.04l0.58,-0.48c0.02,-1.67 0.17,-3.39 -0.06,-5.04 -1.68,-1.15 -3.36,-2.39 -5.2,-3.25 -1.58,-0.08 -3.16,0.03 -4.73,-0.01l-0.06,-1.72c4.34,-0.25 6.83,-0.19 10.48,2.36 -0.36,-2.49 -1.96,-3.63 -4.24,-4.25 -2.39,-1.05 -4.91,0.29 -7.01,-1.22 2.9,-2.27 8.16,-1.01 10.93,0.97 -0.01,-1.59 0,-3.19 0.05,-4.78z" fill="#dfd0bd"/>
  <path d="m77.422,62.732 l1.68,-0.66 1.11,0.72c5.5,4.02 11.96,4.51 17.32,-0.06l2.16,-0.85c2.18,6.35 2.92,13.22 4.85,19.66 1.2,0.64 2.08,1.52 3.52,1.05 2.15,-0.51 4.26,0.49 6.49,0.34 1.65,2.31 1.36,4.72 2.09,7.4 1.28,5.47 3.34,11.6 7.5,15.57 4.74,1.3 9.23,2.99 13.8,4.76 3.78,0.45 7.63,2.26 11.28,1.35 1.88,-0.29 3.77,-0.43 5.63,-0.83 1.66,0.35 2.07,1.27 3.04,2.49 2.72,0.6 7.08,0 9.35,2.03 -1.88,0.27 -3.77,0.43 -5.66,0.64 -6.14,1.03 -12.27,0.92 -18.5,0.54 -6.5,-0.81 -12.9,-0.07 -19.39,-0.3 -0.8,-0.01 -1.54,-0.34 -2.23,-0.98 -4.73,-4.69 -8.21,-10.22 -12.41,-15.27 3.21,14.32 6.78,28.89 10.1,43.21 0.57,5.01 2.98,9.53 7.79,11.58 6.02,3.07 11.68,1.15 18.21,1.93 -4.67,3.62 -8.93,7.57 -14.12,10.48 -8.92,4.35 -18.65,8.55 -28.5,10.08 -1.63,-9.64 -1.55,-19.56 -2.66,-29.27 -1.77,-15.69 -2.17,-31.2 -4.3,-47.01 -0.39,-5.55 -0.54,-11.08 -1.49,-16.59 -0.46,-1.99 -1.92,-3.22 -3.66,-4.11 -2.87,-0.5 -6.23,1.15 -7.15,3.93 -1.26,10.29 -1.34,20.74 -2.69,31.03 -0.49,4.8 -0.28,9.59 -1.21,14.36 -1.34,8.17 -0.67,16.41 -2.12,24.55 -1.16,7.59 -1.07,15.16 -1.39,22.8 -8.19,-1.3 -16.08,-3.83 -23.5,-7.54 -4.29,-1.46 -7.43,-4.36 -11.12,-6.8 -2.94,-1.46 -5.55,-2.82 -7.04,-5.94 5.7,-0.47 10.46,0.79 15.68,-1.57 3.79,-1.45 6.08,-4.84 8.02,-8.22 0.83,-6.79 2.87,-13.44 4.4,-20.11 2.04,-8.97 4.34,-17.89 6.25,-26.89 -4.14,5.05 -7.75,10.92 -12.49,15.41 -1.85,1.2 -5.72,1.63 -6.85,-0.77 -2.76,-3.41 -4.41,-7.45 -7.61,-10.43 -2,-2.24 -3.72,-4.71 -5.81,-6.89l-2.46,0.8c-0.74,0.09 -1.48,0.16 -2.22,0.2 -1.07,-2.23 -1.51,-4.19 -1.78,-6.65 0.18,-1.85 0.26,-2.18 1.76,-3.27l2.31,-0.77c-0.01,-1.13 -0.06,-2.27 -0.14,-3.4 1.19,1.41 1.72,3.03 3.4,3.94 3.26,1.62 1.62,5.27 4.34,7.67 3.69,3.72 7.84,7.53 12.63,9.74 2.93,-3.54 4.82,-7.57 6.81,-11.66 0.53,-3.68 1.14,-7.32 2.13,-10.91 2.77,-2.12 7,-0.87 10.34,-1.49 1.71,-6.3 2.96,-12.68 4.51,-19.02z" fill="#262828"/>
  <path d="m44.072,63.802c0.07,1.01 0.1,2.03 0.1,3.05 -3.66,-0.12 -7.31,-0.03 -10.97,-0.11l0.03,-2.74c3.44,-0.56 7.31,-0.06 10.84,-0.2z" fill="#575c56"/>
  <path d="m33.202,69.442c2.96,-0.03 5.91,0 8.87,-0.03 -1.95,3.58 -3.54,7.12 -6.37,10.13l-2.5,0.4c0.1,-3.5 0.05,-7 0,-10.5z" fill="#575c56"/>
  <path d="m90.422,80.632c1.74,0.89 3.2,2.12 3.66,4.11 0.95,5.51 1.1,11.04 1.49,16.59 2.13,15.81 2.53,31.32 4.3,47.01 1.11,9.71 1.03,19.63 2.66,29.27 -6.56,0.65 -13.24,0.32 -19.83,0.36 -2.32,0.07 -4.54,-0.45 -6.84,-0.67 0.32,-7.64 0.23,-15.21 1.39,-22.8 1.45,-8.14 0.78,-16.38 2.12,-24.55 0.93,-4.77 0.72,-9.56 1.21,-14.36 1.35,-10.29 1.43,-20.74 2.69,-31.03 0.92,-2.78 4.28,-4.43 7.15,-3.93z" fill="#51453d"/>
  <path d="m149.972,79.942c2.75,-0.08 5.5,-0.03 8.25,-0.01 1.14,8.6 2.17,17.15 3.06,25.78 -1.23,0.75 -3.2,0.34 -4.61,0.42 -3.24,-0.05 -6.48,-0.02 -9.73,0.04 0.57,-5.96 1.25,-11.91 1.8,-17.87 0.43,-2.78 0.63,-5.62 1.23,-8.36z" fill="#dfd0bd"/>
  <path d="m29.332,91.902c0.27,2.46 0.71,4.42 1.78,6.65 0,2.8 0.3,5.8 -0.28,8.53 -2.53,0.43 -5.34,-0.28 -7.76,0.28l-0.22,2.19c2.67,0.25 5.32,0 7.99,0.13 1.15,4.09 -1.27,8.72 -3.83,11.84 -1.85,5.46 1.56,10.83 6.24,13.45 0.18,-12.2 0.24,-24.43 0.08,-36.62l2.46,-0.8c2.09,2.18 3.81,4.65 5.81,6.89 3.2,2.98 4.85,7.02 7.61,10.43 1.13,2.4 5,1.97 6.85,0.77 4.74,-4.49 8.35,-10.36 12.49,-15.41 -1.91,9 -4.21,17.92 -6.25,26.89 -1.53,6.67 -3.57,13.32 -4.4,20.11 -1.94,3.38 -4.23,6.77 -8.02,8.22 -5.22,2.36 -9.98,1.1 -15.68,1.57 -1.59,0.05 -2.91,-0.06 -4.32,-0.85 -9.24,-4.54 -19.22,-6.72 -29.5,-6.58 -0.7,-2.1 -0.18,-4.63 -0.27,-6.85 2.13,-2.15 3.62,-4.33 4.94,-7.04 3.91,-7.97 8.85,-15.33 12.87,-23.23 1.48,-2.82 2.94,-4.66 5.84,-6.13 0.99,-0.6 -0.61,-2.1 -0.02,-3.08 1.35,-3.94 3.7,-7.65 5.59,-11.36z" fill="#6a716a"/>
  <path d="m31.112,98.552c0.74,-0.04 1.48,-0.11 2.22,-0.2 0.16,12.19 0.1,24.42 -0.08,36.62 -4.68,-2.62 -8.09,-7.99 -6.24,-13.45 2.56,-3.12 4.98,-7.75 3.83,-11.84 -2.67,-0.13 -5.32,0.12 -7.99,-0.13l0.22,-2.19c2.42,-0.56 5.23,0.15 7.76,-0.28 0.58,-2.73 0.28,-5.73 0.28,-8.53z" fill="#dfd0bd"/>
  <path d="m109.052,100.332c4.2,5.05 7.68,10.58 12.41,15.27 0.69,0.64 1.43,0.97 2.23,0.98 6.49,0.23 12.89,-0.51 19.39,0.3 6.23,0.38 12.36,0.49 18.5,-0.54 3,4.76 5.75,9.7 8.53,14.6 2.14,4.88 4.47,9.38 7.83,13.55 0.21,1.62 0.23,3.28 0.17,4.9 -2.04,0.51 -4.32,0.29 -6.43,0.38 -5.43,0.13 -10.96,1.74 -16.18,3.27 -3.47,1.02 -6.77,3.68 -10.35,4.01 -6.53,-0.78 -12.19,1.14 -18.21,-1.93 -4.81,-2.05 -7.22,-6.57 -7.79,-11.58 -3.32,-14.32 -6.89,-28.89 -10.1,-43.21z" fill="#6a716a"/>
</svg>
