<?xml version="1.0" ?>
<svg xmlns="http://www.w3.org/2000/svg" width="177.09515" height="177.10867" viewBox="0 0 177.09515 177.10867">
  <path d="M101.22,0.349C102.3,6.129 102.18,12.059 100.65,17.749c-0.9,3.25 -2.68,5.92 -3.93,8.99 -1.35,3.43 -0.55,7.87 2.52,10.13 5.04,4 13,4.47 18.53,7.42 1.75,0.69 1.87,2.99 2.55,4.57 0.98,0.33 1.95,0.69 2.92,1.04 3.02,6.2 5.01,12.58 6.71,19.24 2.65,10.1 7.92,18.52 12.06,27.98 2.97,6.66 5.68,13.33 7.61,20.38 1.78,6.43 3.28,12.56 6.54,18.47 2.59,4.63 5.58,9.01 7.9,13.8 -2.98,0.61 -5.88,1.5 -8.81,2.3 -1.09,-1.16 -2.17,-3.97 -4.02,-3.71 -1.13,0.83 -2.11,1.77 -3.18,2.7 -1.46,1.17 -3.12,1.84 -4.85,2.5 1.22,-4.56 3.19,-8.62 4,-13.27 0.31,-5.3 -0.58,-10.4 -3.49,-14.9 -5.04,-7.78 -11.21,-14.24 -15.15,-22.84 -3.26,-6.41 -4.92,-13.42 -8.43,-19.68 -0.67,12.99 -0.22,26.08 -0.28,39.09 -0.09,8.72 -0.12,17.43 -0.08,26.15 0.07,7.83 -0.33,15.49 0.42,23.3 -6.78,3.59 -14.24,4.62 -21.76,5.7H79.37c-7.43,-0.99 -14.4,-1.89 -21.25,-5.13 -0.84,-30 0.29,-60.08 -0.38,-90.08 -4.62,9.05 -6.75,18.8 -12.51,27.42 -4.14,6.96 -10.49,13.03 -13.57,20.44 -1.69,4.03 -1.83,8.31 -1.15,12.58 1.38,4.06 3.32,7.86 4.42,12.03 -1.78,-0.62 -3.44,-1.28 -4.85,-2.58 -1.28,-1.26 -2.59,-2.69 -4.08,-3.69 -1.86,0.43 -2.5,2.62 -3.52,4.06 -2.89,-0.87 -5.8,-1.66 -8.74,-2.35 2.45,-6.27 6.89,-11.26 9.53,-17.42 2.2,-4.93 3.44,-10 4.85,-15.18 2.05,-7.69 5.3,-15.16 8.54,-22.45 2.81,-6.33 6.25,-11.98 8.61,-18.41 3.39,-8.88 4.33,-17.65 9.04,-26.09 1.72,-2.56 3.79,-5.78 6.63,-7.16 4.18,-1.67 8.97,-1.51 13.1,-3.95 3.31,-2.03 6.17,-4.92 6.26,-9.05 0.13,-4.06 -3.36,-7.95 -4.38,-11.91 -1.48,-5.49 -1.17,-11.69 -1.27,-17.35 8.75,-1.21 17.76,-0.86 26.57,-0.49z" fill="#d9d3cc"/>
  <path d="m101.22,0.349c5.48,1.13 10.84,3.01 16.23,4.52 9.48,3.35 18.14,9.64 26.31,15.39 3.95,2.28 8.44,3.63 12.62,5.44 6.64,2.77 13.34,3.15 20.4,3.79 0.6,5.54 -0.05,10.94 -0.35,16.46 -13.79,0.88 -27.81,-0.35 -41.61,0.74 -4.1,0.27 -7.84,1.63 -11.58,3.21 -0.97,-0.35 -1.94,-0.71 -2.92,-1.04 -0.68,-1.58 -0.8,-3.88 -2.55,-4.57 -5.53,-2.95 -13.49,-3.42 -18.53,-7.42 -3.07,-2.26 -3.87,-6.7 -2.52,-10.13 1.25,-3.07 3.03,-5.74 3.93,-8.99 1.53,-5.69 1.65,-11.62 0.57,-17.4z" fill="#212223"/>
  <path d="M74.65,0.839C74.75,6.499 74.44,12.699 75.92,18.189c1.02,3.96 4.51,7.85 4.38,11.91 -0.09,4.13 -2.95,7.02 -6.26,9.05 -4.13,2.44 -8.92,2.28 -13.1,3.95 -2.84,1.38 -4.91,4.6 -6.63,7.16 -5.21,-4.44 -10.91,-3.69 -17.27,-3.97 -11.81,-0.03 -23.66,-0.07 -35.46,0.27l-1.58,0.07v-17.41c6.03,-0.46 11.76,-0.82 17.59,-2.61 3.95,-1.22 7.81,-2.79 11.64,-4.36 7.63,-3.1 13.87,-8.76 20.59,-13.34 3.83,-2.57 7.93,-3.48 12.26,-4.87 4.13,-1.32 8.27,-2.53 12.57,-3.2z" fill="#212223"/>
  <path d="m1.58,46.559c11.8,-0.34 23.65,-0.3 35.46,-0.27 6.36,0.28 12.06,-0.47 17.27,3.97 -4.71,8.44 -5.65,17.21 -9.04,26.09 -2.36,6.43 -5.8,12.08 -8.61,18.41 -3.24,7.29 -6.49,14.76 -8.54,22.45 -1.41,5.18 -2.65,10.25 -4.85,15.18 -2.64,6.16 -7.08,11.15 -9.53,17.42 -4.59,-0.9 -9.09,-0.97 -13.74,-1.09v-102.09z" fill="#454740"/>
  <path d="m176.43,45.949c0.59,4.78 0.79,9.35 0.59,14.16 -0.02,22.99 0.02,46 -0.02,69 -0.07,6.55 0.38,12.99 -0.36,19.52 -4.19,0.41 -8.41,0.6 -12.58,1.14 -2.32,-4.79 -5.31,-9.17 -7.9,-13.8 -3.26,-5.91 -4.76,-12.04 -6.54,-18.47 -1.93,-7.05 -4.64,-13.72 -7.61,-20.38 -4.14,-9.46 -9.41,-17.88 -12.06,-27.98 -1.7,-6.66 -3.69,-13.04 -6.71,-19.24 3.74,-1.58 7.48,-2.94 11.58,-3.21 13.8,-1.09 27.82,0.14 41.61,-0.74z" fill="#454740"/>
  <path d="m81.45,53.559c6.51,-1.88 13.87,-1.08 19.75,2.32 9.83,5.57 15.08,18.09 11.55,28.92 -2.52,9.04 -10.21,15.83 -19.34,17.68 -12.47,2.51 -25.64,-5.51 -28.92,-17.86 -3.87,-13.03 3.87,-27.33 16.96,-31.06z" fill="#212223"/>
  <path d="m157.53,72.959c-0.06,4.18 -0.89,8.2 -2.14,12.17 -0.22,-3.19 -0.62,-6.62 -0.02,-9.78 0.2,-1.02 1.47,-1.66 2.16,-2.39z" fill="#212223"/>
  <path d="m57.74,81.899c0.67,30 -0.46,60.08 0.38,90.08l-1.3,-0.67c0.51,-4.74 0.79,-9.43 0.64,-14.2 -0.22,-11.24 0.27,-22.5 -0.26,-33.72 -1.94,1.91 -3.76,4.25 -6.06,5.72 -4.2,1.72 -10.14,0.81 -14.34,3.79 -3.51,2.3 -4.8,5.71 -6.29,9.44 -0.68,-4.27 -0.54,-8.55 1.15,-12.58 3.08,-7.41 9.43,-13.48 13.57,-20.44 5.76,-8.62 7.89,-18.37 12.51,-27.42z" fill="#454740"/>
  <path d="m120.13,82.869c3.51,6.26 5.17,13.27 8.43,19.68 3.94,8.6 10.11,15.06 15.15,22.84 2.91,4.5 3.8,9.6 3.49,14.9 -1.92,-2.62 -3.89,-5.93 -6.65,-7.71 -3.92,-2.21 -9.28,-1.78 -13.35,-3.68 -2.87,-1.58 -5.16,-4.56 -7.35,-6.94 0.06,-13.01 -0.39,-26.1 0.28,-39.09z" fill="#454740"/>
  <path d="m119.85,121.959c2.19,2.38 4.48,5.36 7.35,6.94 4.07,1.9 9.43,1.47 13.35,3.68 2.76,1.78 4.73,5.09 6.65,7.71 -0.81,4.65 -2.78,8.71 -4,13.27 1.73,-0.66 3.39,-1.33 4.85,-2.5 0.39,0.89 0.79,1.78 1.18,2.67 -4.45,2.6 -8.63,5.72 -12.84,8.7 -4.96,3.54 -10.79,6.17 -16.2,8.98 -0.75,-7.81 -0.35,-15.47 -0.42,-23.3 -0.04,-8.72 -0.01,-17.43 0.08,-26.15z" fill="#212223"/>
  <path d="m57.2,123.389c0.53,11.22 0.04,22.48 0.26,33.72 0.15,4.77 -0.13,9.46 -0.64,14.2 -3.74,-1.91 -7.65,-3.67 -11.2,-5.88 -3.26,-2.03 -6.01,-4.62 -9.25,-6.66 -3,-1.87 -6.17,-3.48 -9.38,-4.96 1.03,-0.68 2.06,-1.35 3.09,-2.02 1.41,1.3 3.07,1.96 4.85,2.58 -1.1,-4.17 -3.04,-7.97 -4.42,-12.03 1.49,-3.73 2.78,-7.14 6.29,-9.44 4.2,-2.98 10.14,-2.07 14.34,-3.79 2.3,-1.47 4.12,-3.81 6.06,-5.72z" fill="#212223"/>
  <path d="m26,148.099c1.49,1 2.8,2.43 4.08,3.69 -1.03,0.67 -2.06,1.34 -3.09,2.02 -1.48,-0.61 -2.99,-1.15 -4.51,-1.65 1.02,-1.44 1.66,-3.63 3.52,-4.06z" fill="#454740"/>
  <path d="m151.23,148.359c1.85,-0.26 2.93,2.55 4.02,3.71 -2.01,0.54 -4.04,1.03 -6.02,1.66 -0.39,-0.89 -0.79,-1.78 -1.18,-2.67 1.07,-0.93 2.05,-1.87 3.18,-2.7z" fill="#454740"/>
  <path d="m92.05,155.329h0.83l0.41,0.72 -0.41,0.71h-0.83l-0.41,-0.71z" fill="#454740"/>
  <path d="m96.38,168.199c0.74,0.38 1.46,0.78 2.18,1.21 -0.35,1.22 -0.75,2.41 -1.16,3.62 -0.37,-1.61 -0.74,-3.2 -1.02,-4.83z" fill="#212223"/>
</svg>
