<?xml version="1.0" ?>
<svg xmlns="http://www.w3.org/2000/svg" width="178.82" height="178.1107" viewBox="0 0 178.82 178.1107">
  <path d="M95.811,0.001C91.155,0.025 86.435,0.355 82,0.07 62,-0.04 47.56,9.971 31.96,21.041 23.2,25.831 12.91,28.411 2.93,28.431 0.69,27.971 0.87,30.84 0,32.27v2.291C2.15,42.261 0.48,51.111 1,59.111 0.37,71.291 2.29,84.62 0,96.47V125.011c6,0.2 11.99,0.02 17.99,0.16h1.92c7.35,-0.1 14.74,-0.1 22.1,0h1.98c1.99,-0.05 3.979,-0.07 5.979,-0.11 8.33,-36.15 16.149,-72.66 24.209,-108.88 1.25,-2.1 9.141,-0.79 11.741,-0.92 2.41,0.3 4.58,0.391 7.02,0.091 1.42,-0.55 2.79,-0.951 4.34,-0.741l0.52,0.021c1.74,0.03 3.479,0.14 5.209,0.41L103.5,16.261c8.97,35.7 16.18,72.55 24.53,108.52 16.58,0.63 33.209,0.21 49.929,0.33 -0.06,-31.75 0.321,-63.99 -0.189,-95.67C163.961,27.47 151.57,25.811 140.14,17.001 130.85,9.721 120.811,4.391 109.241,1.771 105.061,0.261 100.467,-0.022 95.811,0.001ZM105.579,10.459c-0.189,0.25 -0.426,0.483 -0.683,0.708 0.257,-0.224 0.493,-0.458 0.683,-0.708z" fill="#333333" stroke-width="0.999997"/>
  <path d="m92.94,15.351c1.81,1.41 3.28,1.54 4.34,-0.74l0.52,0.02c1.48,2.23 3.38,1.73 5.7,1.63 8.97,35.7 16.18,72.55 24.53,108.52 -4.66,0.47 -9.29,0.38 -13.96,0.31 -5.87,-9.52 -6.41,-20.15 -10.61,-30.37 -5,-13.74 -8.51,-28.69 -14.42,-41.93 -3.09,5.23 -4.14,11.44 -6.46,17.19 -3.3,11.4 -7.86,22.47 -10.89,33.91 -2.4,6.99 -5.14,13.98 -6.8,21.19 -4.97,0.06 -9.95,0.04 -14.92,-0.02 8.33,-36.15 16.15,-72.66 24.21,-108.88 4.14,-0.16 7.84,0.44 11.74,-0.92 2.41,0.3 4.58,0.39 7.02,0.09z" fill="#cdcecd"/>
  <path d="m97.28,14.611c-1.06,2.28 -2.53,2.15 -4.34,0.74 1.42,-0.55 2.79,-0.95 4.34,-0.74z" fill="#777778"/>
  <path d="m97.8,14.631c1.74,0.03 3.48,0.14 5.21,0.41l0.49,1.22c-2.32,0.1 -4.22,0.6 -5.7,-1.63z" fill="#5e5e60"/>
  <path d="m85.92,15.261c-3.9,1.36 -7.6,0.76 -11.74,0.92 1.25,-2.1 9.14,-0.79 11.74,-0.92z" fill="#636566"/>
  <path d="m0,34.561c2.15,7.7 0.48,16.55 1,24.55 -0.63,12.18 1.29,25.51 -1,37.36z" fill="#0c0c0d"/>
  <path d="m89.04,52.791c5.91,13.24 9.42,28.19 14.42,41.93 4.2,10.22 4.74,20.85 10.61,30.37l-0.85,0.02c-16.11,-0.02 -32.22,0.04 -48.33,-0.03 1.66,-7.21 4.4,-14.2 6.8,-21.19 4.78,3.29 7.65,-5.66 7.91,-9.16 4.12,-2.56 8.41,-3.73 13.01,-5.08 1.73,-0.47 1.18,-2.13 1.31,-3.5 -1.91,0.36 -3.54,1.33 -5.39,1.85 -1.05,-4.6 -0.73,-8.79 -0.81,-13.41 -3.54,-1.07 -4.4,-0.51 -5.14,-4.61 2.32,-5.75 3.37,-11.96 6.46,-17.19z" fill="#7a967e"/>
  <path d="m82.58,69.981c0.74,4.1 1.6,3.54 5.14,4.61 0.08,4.62 -0.24,8.81 0.81,13.41 1.85,-0.52 3.48,-1.49 5.39,-1.85 -0.13,1.37 0.42,3.03 -1.31,3.5 -4.6,1.35 -8.89,2.52 -13.01,5.08 -0.26,3.5 -3.13,12.45 -7.91,9.16 3.03,-11.44 7.59,-22.51 10.89,-33.91z" fill="#859e89"/>
  <path d="m177.96,125.111c0.21,7.99 -0.48,15.84 0.86,23.78 -5.59,0.17 -10.89,0.58 -16.41,1.4 -3.8,-6.99 -2.03,-13.66 -2.41,-21.2 -0.42,-1.63 0.86,-3.59 -1.72,-2.64 -2.05,4.85 -0.27,9.25 -3.25,13.68 -10,15.08 -37.71,10.01 -41.97,-7.21 0.02,-2.61 0.23,-5.21 0.16,-7.81l0.85,-0.02c4.67,0.07 9.3,0.16 13.96,-0.31 16.58,0.63 33.21,0.21 49.93,0.33z" fill="#7d7c7d"/>
  <path d="m0,125.011c6,0.2 11.99,0.02 17.99,0.16 0.43,8.6 -1.28,18.07 1.91,25.93 -5.65,-1.67 -11,-2.11 -16.85,-2.1 -2.36,0.18 -2.08,-1.72 -3.05,-3.3z" fill="#6a6a6a"/>
  <path d="m17.99,125.171h1.92c0.83,9.74 1.36,18.54 12.18,21.89 13.65,5.56 29.6,0.16 32.83,-15.19l0.07,0.96c-0.76,7.91 1.59,15.47 0.82,23.26 -5.88,-3.12 -10.99,-5.66 -17.94,-4.93 -9.04,-0.03 -18.09,-0.24 -27.12,0.18l-0.85,-0.24c-3.19,-7.86 -1.48,-17.33 -1.91,-25.93z" fill="#969696"/>
  <path d="m19.91,125.171c7.35,-0.1 14.74,-0.1 22.1,0 0.07,5.24 -0.26,10.54 0.18,15.77h1.62c0.44,-5.23 0.11,-10.53 0.18,-15.77 1.99,-0.05 3.98,-0.07 5.98,-0.11 4.97,0.06 9.95,0.08 14.92,0.02 0.05,2.26 0.05,4.53 0.03,6.79 -3.23,15.35 -19.18,20.75 -32.83,15.19 -10.82,-3.35 -11.35,-12.15 -12.18,-21.89z" fill="#777777"/>
  <path d="m42.01,125.171h1.98c-0.07,5.24 0.26,10.54 -0.18,15.77h-1.62c-0.44,-5.23 -0.11,-10.53 -0.18,-15.77z" fill="#98989a"/>
  <path d="m64.89,125.081c16.11,0.07 32.22,0.01 48.33,0.03 0.07,2.6 -0.14,5.2 -0.16,7.81l-0.04,0.96c-1.59,3.3 -3.65,6.25 -5.95,9.09 -12.55,13.7 -36.78,7.35 -42.08,-10.14l-0.07,-0.96c0.02,-2.26 0.02,-4.53 -0.03,-6.79z" fill="#7d3327"/>
  <path d="m134.23,126.151c3.89,-0.22 1.32,4.62 1.84,6.95 -0.61,1.66 1.22,9.2 -1.87,7.84 -0.38,-4.75 -0.37,-10.05 0.03,-14.79z" fill="#989898"/>
  <path d="m158.28,126.451c2.58,-0.95 1.3,1.01 1.72,2.64 0.38,7.54 -1.39,14.21 2.41,21.2 -1.07,0.37 -2.14,0.72 -3.21,1.06 -10.06,-0.47 -20.15,-0.16 -30.22,-0.25 -6.07,-0.06 -9.79,3.29 -14.83,5.86 -0.15,-7.73 -1.19,-15.33 -1.13,-23.08l0.04,-0.96c4.26,17.22 31.97,22.29 41.97,7.21 2.98,-4.43 1.2,-8.83 3.25,-13.68z" fill="#969696"/>
  <path d="m64.99,132.831c5.3,17.49 29.53,23.84 42.08,10.14 2.24,3.11 -5.45,4.93 -3.98,9.13 0.56,1.5 4.07,7.8 -0.1,4.98 -3.23,-1.12 -6.69,4.35 -10.76,2.92 -1.15,-3.28 2.04,-10.59 -3.73,-8.69 -0.33,2.11 -0.05,5.05 -1.21,6.84 -2.27,0.53 -4.19,1.47 -6.3,2.41 -3.54,0.05 -7.45,-2.05 -7.03,3.53 -0.87,3.49 6.57,3.05 4.01,6.02 -2.06,5.01 -8.27,-6.27 -10.39,-1.56 -0.59,3.35 -4.27,3.23 -1.95,5.91 -3.69,-1.18 -7.33,-2.51 -10.86,-4.12 -2.87,-3.26 -0.24,-5.26 -4.59,-7.44 -3.45,-1.16 4.65,-4.04 1.46,-5.4 -2.51,-2.63 -5.36,-2.29 -8.68,-2.79 2.29,-1.51 12.02,-0.97 4.91,-3.55 6.95,-0.73 12.06,1.81 17.94,4.93 0.77,-7.79 -1.58,-15.35 -0.82,-23.26z" fill="#7c7978"/>
  <path d="m113.02,133.881c-0.06,7.75 0.98,15.35 1.13,23.08 5.04,-2.57 8.76,-5.92 14.83,-5.86 10.07,0.09 20.16,-0.22 30.22,0.25 -7.48,2.42 -13.95,6.02 -20.23,10.72 -11.87,8.98 -26.87,14.92 -41.83,15.24 -4.34,-0.26 -8.67,-0.32 -13.01,0 -6.13,-0.37 -12.68,-0.73 -18.5,-2.85 -2.32,-2.68 1.36,-2.56 1.95,-5.91 2.12,-4.71 8.33,6.57 10.39,1.56 2.56,-2.97 -4.88,-2.53 -4.01,-6.02 -0.42,-5.58 3.49,-3.48 7.03,-3.53 2.11,-0.94 4.03,-1.88 6.3,-2.41 1.16,-1.79 0.88,-4.73 1.21,-6.84 5.77,-1.9 2.58,5.41 3.73,8.69 4.07,1.43 7.53,-4.04 10.76,-2.92 4.17,2.82 0.66,-3.48 0.1,-4.98 -1.47,-4.2 6.22,-6.02 3.98,-9.13 2.3,-2.84 4.36,-5.79 5.95,-9.09z" fill="#828181"/>
  <path d="m20.75,151.341c9.03,-0.42 18.08,-0.21 27.12,-0.18 7.11,2.58 -2.62,2.04 -4.91,3.55 3.32,0.5 6.17,0.16 8.68,2.79 3.19,1.36 -4.91,4.24 -1.46,5.4 4.35,2.18 1.72,4.18 4.59,7.44 -12.1,-5.51 -20.6,-15.52 -34.02,-19z" fill="#6e6e6e"/>
  <path d="m84.13,177.311c4.34,-0.32 8.67,-0.26 13.01,0l-0.72,0.8H83.41Z" fill="#343434"/>
</svg>
