<?xml version="1.0" ?>
<svg xmlns="http://www.w3.org/2000/svg" width="178.08519" height="177.63481" viewBox="0 0 178.08519 177.63481">
  <path d="m119.13,5.236c14.38,3.76 22.19,16.61 37.06,19.93 8.65,3.99 15.14,2.51 21.43,4.66 0.72,39.13 0.48,80.01 0.11,119.22 -4.19,0.77 -8.5,0.96 -12.73,1.48 -16.54,2.52 -25.82,13.15 -39.82,20.05 -13.04,7.17 -24.64,7.47 -39.18,6.84 -16.42,1.33 -32.8,-5.77 -45.95,-15.09 -11.52,-8.85 -25.47,-13.59 -40.05,-13.06V29.496c13.27,-1.86 25.67,-3.4 37.1,-11.04C59.36,-1.324 91.8,-4.304 119.13,5.236Z" fill="#212325"/>
  <path d="m142.77,58.586c1.4,3.85 5.37,5.69 2.8,9.88 6.19,3.29 4.92,11.96 5.47,17.94 2.45,30.72 -20.13,58.27 -49.96,64.15 -29.91,5.62 -61.62,-12.11 -70.8,-41.45 -11.33,-30.36 5.37,-66.67 35.83,-77.6 27.59,-11.3 63.19,-0.27 76.66,27.08z" fill="#36383d"/>
  <path d="m74.18,51.696c2,-0.68 1.56,1.97 2.3,3.19 19.53,-7.36 41.38,3.57 47.64,23.38 8.17,22.38 -11.95,49.78 -36.12,47.24 -25.89,0.27 -43.71,-29.44 -31.22,-52.31 4.4,-10.65 12.91,-12.49 17.4,-21.5z" fill="#202224"/>
</svg>
