<?xml version="1.0" ?>
<svg xmlns="http://www.w3.org/2000/svg" width="180.04" height="179.18323" viewBox="0 0 180.04 179.18323">
  <path d="m100.21,0.838c-5.13,0.5 -10.26,0.12 -15.39,0.56 -1.34,-0.21 -2.68,-0.43 -4.01,-0.63 5.58,-0.97 13.87,-1.1 19.4,0.07z" fill="#4d756a"/>
  <path d="m80.81,0.768c1.33,0.2 2.67,0.42 4.01,0.63 2.78,1.12 5.53,-0.36 5.18,3.75 -2.38,0.52 -4.65,1.44 -7.03,1.92 -3.69,-0.32 -6.81,-1.6 -10.68,-0.68 -1.54,1.4 -1.38,4.54 -2.6,6.38 -1.18,0.26 -2.36,0.49 -3.56,0.7 0.9,0.45 1.81,0.86 2.71,1.31 -5.87,2.17 -12.84,2.37 -18.03,5.82 -0.41,1.02 -0.72,2.08 -1.18,3.09 -1.9,0.55 -3.62,0.43 -5.05,2.02 -1.41,1.64 -4,1.25 -5.36,2.71 -0.63,2.81 0.32,6.09 0.64,8.94 -0.32,0.58 -0.64,1.15 -0.96,1.72 -0.94,0.7 -1.88,1.4 -2.85,2.07 -3.41,-0.03 -5.13,0.44 -8.12,-1.77 -1.66,3.18 -5.78,5.19 -8.66,2.23 -0.6,1.24 -0.03,2.52 -1.86,2.29 -0.52,-1.92 -0.71,-3.55 -2.23,-4.98 2.7,-4.49 6.54,-8.35 9.64,-12.57l-1.9,-0.49c5.66,-2.03 11.1,-4.12 15.81,-7.99C50.68,8.128 65.41,1.988 80.81,0.768Z" fill="#4d756a"/>
  <path d="m84.82,1.398c5.13,-0.44 10.26,-0.06 15.39,-0.56 10.63,0.74 21.25,4.29 30.39,9.74 9.3,5 15.95,12.48 26.48,15.28l-1.91,0.5c2.3,4.16 6.17,7.33 8.78,11.36 -1.38,2.71 -0.9,5.44 -0.98,8.42 0.15,7.39 -0.22,14.82 0.27,22.19 -0.16,1.7 -0.31,3.39 -0.44,5.09 -1.75,-1.29 -2.51,-3.5 -3.93,-5.19 -2.23,-4.29 -4.16,-8.66 -6.57,-12.88 0.16,-0.63 0.23,-1.27 0.23,-1.91 -1.64,-4.3 -3.77,-8.2 -7.48,-11.06l-1.3,0.55c-0.81,-0.72 -1.63,-1.42 -2.47,-2.1 0.77,-2.03 -0.81,-2.61 -2.08,-3.86 -1.64,-1.26 -3.35,-2.45 -5.09,-3.57 -2.73,-1.54 -3.58,-4.3 -6.75,-5.27 -0.99,-0.47 -2.02,-0.87 -3.07,-1.21 -3.9,-2.37 -7.22,-4.89 -12,-4.67 -1.06,-0.76 -2.17,-1.65 -3.39,-2.1 -2.61,-0.29 -4.06,2.18 -6.76,2.01 -1.5,-1.45 -2.51,-3.06 -4.33,-4.18 -1.76,0.41 -1.58,1.48 -2.21,2.9 -1.15,-3.03 -1.49,-2.65 -4.61,-2.79l-1.03,-0.04c0.25,-4.48 1.06,-8.41 0.04,-12.9 0.35,-4.11 -2.4,-2.63 -5.18,-3.75z" fill="#518485"/>
  <path d="m90,5.148c1.02,4.49 0.21,8.42 -0.04,12.9 -1.01,0.05 -2.03,0.1 -3.05,0.15H85l-1.98,-0.01c-3.14,-0.11 -6.15,0.98 -9.19,1.82l-1.88,0.32c-0.65,0.11 -1.29,0.26 -1.91,0.45 -2.35,0.8 -4.74,1.51 -7.05,2.41 -1.36,0.52 -2.75,1.01 -4.08,1.6 -1.76,0.79 -3.4,2.01 -5.02,3.08 -1.96,0.85 -4.1,1.7 -5.83,2.96l-1.19,1.12c-0.62,0.6 -1.23,1.21 -1.83,1.83 -1.73,1.18 -3.49,2.34 -5.18,3.58 -0.32,-2.85 -1.27,-6.13 -0.64,-8.94 1.36,-1.46 3.95,-1.07 5.36,-2.71 1.43,-1.59 3.15,-1.47 5.05,-2.02 0.46,-1.01 0.77,-2.07 1.18,-3.09 5.19,-3.45 12.16,-3.65 18.03,-5.82 -0.9,-0.45 -1.81,-0.86 -2.71,-1.31 1.2,-0.21 2.38,-0.44 3.56,-0.7 1.22,-1.84 1.06,-4.98 2.6,-6.38 3.87,-0.92 6.99,0.36 10.68,0.68 2.38,-0.48 4.65,-1.4 7.03,-1.92z" fill="#487468"/>
  <path d="m83.02,18.188 l-0.37,1.75c-0.74,2.69 -0.55,5.34 -0.82,8.07 -0.9,1.56 -2.27,2.97 -3.66,4.09 -1.24,-2.24 -2,-4.78 -2.91,-7.16 -0.43,-1.66 -0.93,-3.29 -1.43,-4.93 3.04,-0.84 6.05,-1.93 9.19,-1.82z" fill="#628e85"/>
  <path d="m83.02,18.188 l1.98,0.01c1.56,4.07 0.61,12.17 4.86,14.37 1.69,1.22 2.91,2.16 3.66,4.2 -2.63,2.93 -6.17,5.27 -8.39,8.49 -0.24,1.96 -0.23,3.95 -0.26,5.92 -0.38,-0.6 -0.75,-1.21 -1.11,-1.83 -0.1,-2.53 1.17,-4.79 -1.59,-6.19 -0.04,1.29 -0.03,2.58 0.02,3.87 0.22,3.08 -2.37,5.54 -5.33,4.43 -0.37,-0.98 -0.78,-1.94 -1.24,-2.87 -4.39,-0.58 -8.98,-0.07 -13.29,-0.82 -4.78,-1.99 -8.89,-5.81 -12.77,-9.17 -1.08,-2.12 -1.77,-4.46 -2.69,-6.65l1.19,-1.12c4.07,1.07 3.79,6.77 7.26,8.99 2.57,1.32 5.47,1.49 7.99,3.03 4.71,3.23 11.07,3.56 16.6,3.2 -0.76,-0.48 -1.5,-0.97 -2.24,-1.46 -0.2,-3.59 -3.99,-4.85 -4.53,-8.54 -0.38,-5.34 0.36,-10.48 -1.19,-15.72l1.88,-0.32c0.5,1.64 1,3.27 1.43,4.93 -0.14,2.88 -0.63,6.08 0.03,8.91 1.56,2.55 4.34,4.21 6.15,6.65 1.73,0 3.58,-0.29 5.27,-0.71 1.72,-0.91 2.82,-2.94 4.08,-4.39 -1.45,-0.21 -2.93,-0.32 -4.36,-0.64 -2.03,-5.12 -4.08,-9.06 -3.78,-14.82z" fill="#7baba1"/>
  <path d="m85,18.198h1.91c0.78,5.29 1.71,9.28 4.77,13.75l-1.82,0.62c-4.25,-2.2 -3.3,-10.3 -4.86,-14.37z" fill="#629287"/>
  <path d="m86.91,18.198c1.02,-0.05 2.04,-0.1 3.05,-0.15l1.03,0.04c-0.97,1.25 -2.28,1.62 -1.49,3.41 1.07,5.01 2.62,7.63 7.28,9.93 1.1,5.76 -2.5,10.73 0.06,16.84 1.91,4.33 5.55,5.49 10.06,4.77 -2.07,-2.03 -5.04,-3.74 -6.7,-6.05 -0.27,-5.01 -1.46,-9.81 -1.21,-14.86 0.32,-4.67 -2.29,-9.65 -1.18,-14.15 1.82,1.12 2.83,2.73 4.33,4.18 2.7,0.17 4.15,-2.3 6.76,-2.01 1.22,0.45 2.33,1.34 3.39,2.1 -1.58,2.64 -2.73,4.46 -2.24,7.71 2.39,-1.07 4.53,-3.01 6.97,-3.82 2.94,0.42 4.33,2.78 7.27,0.78 1.05,0.34 2.08,0.74 3.07,1.21l-0.75,1.64c-4.31,0.96 -9.09,-0.14 -13.46,0.59 -1.73,0.66 -2.89,1.84 -4.85,1.66 -0.45,-1.02 0.13,-4.71 -1.22,-4.73 -0.26,4.29 -0.86,7.38 3.72,9.16 4.79,-0.77 8.95,0.2 13.56,1.32 3.5,1.38 7.18,-2.4 9.75,-4.37 1.74,1.12 3.45,2.31 5.09,3.57 1.27,1.25 2.85,1.83 2.08,3.86 -2.85,2.24 -5.55,4.87 -7.97,7.57 0.66,3.51 4.07,4.06 5.05,7.39 -0.79,0.83 -1.6,1.64 -2.44,2.42 -2.12,-1.41 -3.84,-3.08 -4.28,-5.7 -0.76,-1.47 -0.13,-4.58 -2.4,-4.27 1.21,5.82 -0.03,11.51 5.22,15.45 2.97,3.45 6.3,2.21 10.33,2.56 0.59,1.46 1.04,2.96 1.48,4.47 -3.46,2.52 -6.45,4.37 -6.71,9.06 -2.06,0.86 -4.04,1.57 -6.31,1.32 -1.08,-1.28 -1.74,-2.31 -3.37,-3.06 -0.06,-0.74 -0.08,-1.47 -0.06,-2.21 1.53,0.23 3.19,0.22 4.65,0.75 0.98,1.84 0.87,2.82 3.34,2.45 -0.02,-1.48 -0.45,-2.99 -0.31,-4.46 1.91,-1.98 5.88,-3.38 6.58,-6.12 -2.85,0.62 -5.91,2.31 -8.78,1.44 -0.93,-2.01 -0.28,-3.86 -2.94,-4.42 -1.26,1.36 -1.75,2.29 -3.76,2.43 -1.13,-0.63 -2.37,-1.22 -3.37,-2.03 -0.12,-1.42 0.57,-3.18 -0.11,-4.46 -1.07,-1.76 -0.82,-4.92 -2.98,-5.48 1.6,-4.12 3.23,-8.36 5.41,-12.2 2.05,-3.7 5.36,-4.87 8.39,-7.52 -4.33,-0.12 -8.24,4.26 -12.68,4.32 -3.73,-0.21 -7.4,-0.61 -11.09,-1.13 -0.77,0.51 -1.53,1.02 -2.29,1.55 -1.95,-1.16 -3.88,-2.65 -5.59,-4.14 -1.53,-5.52 1.08,-8.72 2.67,-13.59 -4.4,2.37 -5.11,6.42 -5.9,10.94 -0.9,4.85 2.54,9.88 6.27,12.65 4.24,1.89 7.3,-3.37 11.68,-3.6 2.03,0.06 5.09,-1.17 6.84,0.04 -0.44,1.02 -1.33,3.92 -2.8,3.5 -4.29,-0.97 -8.33,2.5 -11.83,4.61 -4.21,2.73 -7.35,9.01 -13.11,6.92 2.62,3.74 6.02,2.08 9.96,3.46 -1.58,1.92 -2.03,3.84 -2.4,6.24l-0.59,0.61c-1.92,-1.49 -3.4,-3.18 -5.82,-3.87 -1.94,-1.17 -4.51,-1.1 -5.02,-3.72 -0.65,-2.9 -2.92,-4.5 -2.71,-7.59 -3.08,-4.08 0.25,-5.97 2.18,-9.47 0.02,-1.85 2.06,-6.18 -0.19,-7.17 -0.75,-2.04 -1.97,-2.98 -3.66,-4.2l1.82,-0.62c-3.06,-4.47 -3.99,-8.46 -4.77,-13.75z" fill="#72a59a"/>
  <path d="m90.99,18.088c3.12,0.14 3.46,-0.24 4.61,2.79 0.63,-1.42 0.45,-2.49 2.21,-2.9 -1.11,4.5 1.5,9.48 1.18,14.15 -0.25,5.05 0.94,9.85 1.21,14.86 1.66,2.31 4.63,4.02 6.7,6.05 -4.51,0.72 -8.15,-0.44 -10.06,-4.77 -2.56,-6.11 1.04,-11.08 -0.06,-16.84 -4.66,-2.3 -6.21,-4.92 -7.28,-9.93 -0.79,-1.79 0.52,-2.16 1.49,-3.41z" fill="#639389"/>
  <path d="m71.95,20.328c1.55,5.24 0.81,10.38 1.19,15.72 0.54,3.69 4.33,4.95 4.53,8.54 0.74,0.49 1.48,0.98 2.24,1.46 -5.53,0.36 -11.89,0.03 -16.6,-3.2 -2.52,-1.54 -5.42,-1.71 -7.99,-3.03 -3.47,-2.22 -3.19,-7.92 -7.26,-8.99 1.73,-1.26 3.87,-2.11 5.83,-2.96 0.33,1.52 0.43,3.08 0.79,4.59 1.56,0.57 3.28,0.71 4.88,1.17 2.52,3.02 3.76,6.81 7.2,8.74 2.69,1.55 6.3,1.92 9.34,2.38 -0.65,-1.82 -2.69,-1.48 -4.03,-2.73 -1.45,-1.4 -3.93,-2.67 -4.25,-4.77 -0.94,-3.38 0.54,-6.07 3.06,-8.26 0.25,-2.59 0.58,-5.91 -0.84,-8.21 0.62,-0.19 1.26,-0.34 1.91,-0.45z" fill="#68978d"/>
  <path d="m82.65,19.938c-0.3,5.76 1.75,9.7 3.78,14.82 1.43,0.32 2.91,0.43 4.36,0.64 -1.26,1.45 -2.36,3.48 -4.08,4.39 -1.69,0.42 -3.54,0.71 -5.27,0.71 -1.81,-2.44 -4.59,-4.1 -6.15,-6.65 -0.66,-2.83 -0.17,-6.03 -0.03,-8.91 0.91,2.38 1.67,4.92 2.91,7.16 1.39,-1.12 2.76,-2.53 3.66,-4.09 0.27,-2.73 0.08,-5.38 0.82,-8.07z" fill="#6a9790"/>
  <path d="m70.04,20.778c1.42,2.3 1.09,5.62 0.84,8.21 -2.52,2.19 -4,4.88 -3.06,8.26 0.32,2.1 2.8,3.37 4.25,4.77 1.34,1.25 3.38,0.91 4.03,2.73 -3.04,-0.46 -6.65,-0.83 -9.34,-2.38 -3.44,-1.93 -4.68,-5.72 -7.2,-8.74 -1.6,-0.46 -3.32,-0.6 -4.88,-1.17 -0.36,-1.51 -0.46,-3.07 -0.79,-4.59 1.62,-1.07 3.26,-2.29 5.02,-3.08 3.78,0.52 0.73,6.86 3.84,9.37 0.39,-3.64 0.24,-7.27 0.24,-10.97 2.31,-0.9 4.7,-1.61 7.05,-2.41z" fill="#7bada2"/>
  <path d="m112.29,22.248c4.78,-0.22 8.1,2.3 12,4.67 -2.94,2 -4.33,-0.36 -7.27,-0.78 -2.44,0.81 -4.58,2.75 -6.97,3.82 -0.49,-3.25 0.66,-5.07 2.24,-7.71z" fill="#62968e"/>
  <path d="m62.99,23.188c0,3.7 0.15,7.33 -0.24,10.97 -3.11,-2.51 -0.06,-8.85 -3.84,-9.37 1.33,-0.59 2.72,-1.08 4.08,-1.6z" fill="#6a9c90"/>
  <path d="m106.96,23.218c-1.59,4.87 -4.2,8.07 -2.67,13.59 1.71,1.49 3.64,2.98 5.59,4.14 0.76,-0.53 1.52,-1.04 2.29,-1.55 3.69,0.52 7.36,0.92 11.09,1.13 4.44,-0.06 8.35,-4.44 12.68,-4.32 -3.03,2.65 -6.34,3.82 -8.39,7.52 -2.18,3.84 -3.81,8.08 -5.41,12.2 -3.2,1.1 -7.9,0.54 -9.93,3.43 -1.06,0.96 -0.66,1.41 -0.46,2.62 -1.22,0.03 -2.45,-0.06 -3.68,-0.24 -3.94,-1.38 -7.34,0.28 -9.96,-3.46 5.76,2.09 8.9,-4.19 13.11,-6.92 3.5,-2.11 7.54,-5.58 11.83,-4.61 1.47,0.42 2.36,-2.48 2.8,-3.5 -1.75,-1.21 -4.81,0.02 -6.84,-0.04 -4.38,0.23 -7.44,5.49 -11.68,3.6 -3.73,-2.77 -7.17,-7.8 -6.27,-12.65 0.79,-4.52 1.5,-8.57 5.9,-10.94z" fill="#649489"/>
  <path d="m22.92,25.858 l1.9,0.49c-3.1,4.22 -6.94,8.08 -9.64,12.57 -0.85,1.32 -1.66,2.66 -2.44,4.03 -5.35,7.3 -8.69,16.87 -11.52,25.38 -0.48,-12.41 -0.1,-24.87 -0.22,-37.3 2.37,-0.72 4.82,-1 7.2,-1.65 4.94,-1.35 9.93,-1.5 14.72,-3.52z" fill="#7aad9e"/>
  <path d="m155.17,26.358 l1.91,-0.5c4.45,1.98 9.22,1.92 13.74,3.49 2.78,1.19 5.42,0.73 8.35,0.64 -0.39,13.05 -0.05,26.13 -0.19,39.18l-0.82,-0.22c-1.89,-11.22 -7.71,-22.04 -14.21,-31.23 -2.61,-4.03 -6.48,-7.2 -8.78,-11.36z" fill="#73a899"/>
  <path d="m107.08,27.288c1.35,0.02 0.77,3.71 1.22,4.73 1.96,0.18 3.12,-1 4.85,-1.66 4.37,-0.73 9.15,0.37 13.46,-0.59l0.75,-1.64c3.17,0.97 4.02,3.73 6.75,5.27 -2.57,1.97 -6.25,5.75 -9.75,4.37 -4.61,-1.12 -8.77,-2.09 -13.56,-1.32 -4.58,-1.78 -3.98,-4.87 -3.72,-9.16z" fill="#64928a"/>
  <path d="m0,28.888 l0.97,0.25 0.03,1.89c0.12,12.43 -0.26,24.89 0.22,37.3l-0.33,1.9 -0.89,-0.52z" fill="#1b2c29"/>
  <path d="m0.97,29.138c2.42,0.03 4.82,0.11 7.23,0.24 -2.38,0.65 -4.83,0.93 -7.2,1.65z" fill="#75948a"/>
  <path d="m170.82,29.348c2.5,0.08 6.27,-0.99 8.35,0.64 -2.93,0.09 -5.57,0.55 -8.35,-0.64z" fill="#6c8c82"/>
  <path d="m179.17,29.988c1.17,1.54 0.75,3.29 0.87,5.14 -0.1,11.67 0.02,23.35 -0.08,35.02l-0.94,-0.02 -0.04,-0.96c0.14,-13.05 -0.2,-26.13 0.19,-39.18z" fill="#182d26"/>
  <path d="m46.87,31.948c0.92,2.19 1.61,4.53 2.69,6.65 3.88,3.36 7.99,7.18 12.77,9.17 4.31,0.75 8.9,0.24 13.29,0.82 0.46,0.93 0.87,1.89 1.24,2.87l-1.66,-0.43c-5.89,-1.71 -12.65,-0.65 -18.53,-2.59 -2.93,-1.46 -6.54,-2.7 -8.86,-5.03 -0.78,-3.33 -0.98,-6.58 -2.77,-9.63 0.6,-0.62 1.21,-1.23 1.83,-1.83z" fill="#68988e"/>
  <path d="m45.04,33.778c1.79,3.05 1.99,6.3 2.77,9.63 2.32,2.33 5.93,3.57 8.86,5.03 5.88,1.94 12.64,0.88 18.53,2.59 -0.08,1.01 -0.18,2.02 -0.3,3.02l-0.72,0.28c-1.04,-0.96 -1.7,-1.97 -3.22,-2.15 -6.41,-1.76 -12.46,-0.74 -18.96,-1.08 -1.76,-0.02 -3.52,-1.31 -5.01,-2.16 -0.58,-0.62 -1.18,-1.22 -1.78,-1.82 -1.83,-2.06 -3.74,-4 -5.48,-6.13 -0.28,-0.64 -0.55,-1.27 -0.83,-1.91 0.32,-0.57 0.64,-1.14 0.96,-1.72 1.69,-1.24 3.45,-2.4 5.18,-3.58z" fill="#7caea3"/>
  <path d="m93.52,36.768c2.25,0.99 0.21,5.32 0.19,7.17 -1.93,3.5 -5.26,5.39 -2.18,9.47 -1.95,-0.58 -5.31,-0.69 -6.66,-2.23 0.03,-1.97 0.02,-3.96 0.26,-5.92 2.22,-3.22 5.76,-5.56 8.39,-8.49z" fill="#65948c"/>
  <path d="m163.95,37.718c6.5,9.19 12.32,20.01 14.21,31.23 -1.52,-0.44 -3.66,0.15 -4.2,-1.77 -1.03,-1.76 -0.03,-3.65 -0.79,-5.37 -1.03,-1.96 -5.21,-1.76 -7.13,-3.38 -1.59,2.95 -1.78,6.7 -2.8,9.9 -0.49,-7.37 -0.12,-14.8 -0.27,-22.19 0.08,-2.98 -0.4,-5.71 0.98,-8.42z" fill="#4e6468"/>
  <path d="m15.18,38.918c1.52,1.43 1.71,3.06 2.23,4.98 1.83,0.23 1.26,-1.05 1.86,-2.29 2.88,2.96 7,0.95 8.66,-2.23 2.99,2.21 4.71,1.74 8.12,1.77 -1.27,1.7 -2.77,2.93 -2.94,5.2l-0.2,0.91c-1.94,2.9 -3.89,5.8 -5.6,8.86l-1.2,-0.69c-1.45,2.88 -3.84,6.34 -3.63,9.65 -0.4,2.46 -1.2,4.8 -2.04,7.14l-1.24,-0.77c-1.15,3.35 -1.66,6.38 -0.62,9.86 -0.09,0.69 -0.19,1.38 -0.3,2.07l-1.14,-1.37c-0.01,-3.59 -0.66,-7.15 -0.57,-10.72 1.15,-7.55 -0.4,-14.75 1.08,-22.27 -0.05,-2.41 -1.51,-4.9 -1.91,-7.35 -1,0.42 -1.99,0.88 -3,1.28 0.78,-1.37 1.59,-2.71 2.44,-4.03z" fill="#4b7167"/>
  <path d="m38.9,39.078c0.28,0.64 0.55,1.27 0.83,1.91 -2.7,1.21 -4.46,3.35 -6.62,5.36 0.17,-2.27 1.67,-3.5 2.94,-5.2 0.97,-0.67 1.91,-1.37 2.85,-2.07z" fill="#6a9287"/>
  <path d="m15.74,41.668c0.4,2.45 1.86,4.94 1.91,7.35 -1.48,7.52 0.07,14.72 -1.08,22.27 -3.1,-3.17 -0.54,-8.82 -2.03,-12.61 -2.97,-1.01 -1.58,-1.96 -1.78,-4.5 -1.75,1.09 -2.38,2.54 -1.15,4.38 2.06,2.33 1.47,5.62 1.26,8.49 -0.98,4.34 -4.16,5.52 -7.2,8.23 -0.71,0.52 -2.83,-2.29 -2.51,-0.12 -1.36,5.51 -0.49,10.13 -0.03,15.64 2.17,-2.19 4.72,-1.9 7.55,-1.39 1.43,4.02 1.61,8.29 4.06,11.75 0.29,-3.01 0.22,-6.03 0.52,-9.04 0.58,1.37 1.05,2.79 1.56,4.18 0.11,0.95 0.21,1.9 0.31,2.84 0.1,5.53 0.87,10.47 4.16,15.1 -1.46,2.37 -4.01,0.42 -4.48,2.84 -0.82,-0.59 -1.63,-1.17 -2.48,-1.71 -0.31,1.21 -0.34,2.72 -1.04,3.76 -0.46,-0.9 0.17,-5.15 -1.2,-4.78 -1.14,6.6 2.61,11.05 3.44,17.59 -0.53,1.47 -1.36,2.87 -2.21,4.18 -0.41,-0.94 0.14,-4.91 -1.15,-4.77 -0.23,2.01 -0.34,4.03 -0.53,6.05 -4.28,-5.72 -6.05,-12.15 -8.78,-18.57 -0.44,-1.97 -0.97,-3.92 -1.65,-5.83l-0.27,-0.85C1,98.178 1.11,84.198 0.89,70.228l0.33,-1.9c2.83,-8.51 6.17,-18.08 11.52,-25.38 1.01,-0.4 2,-0.86 3,-1.28z" fill="#4d5c60"/>
  <path d="m39.73,40.988c1.74,2.13 3.65,4.07 5.48,6.13 -4.03,0.77 -8.25,0.74 -12.3,0.14l0.2,-0.91c2.16,-2.01 3.92,-4.15 6.62,-5.36z" fill="#314a45"/>
  <path d="m141.28,40.828c0.84,0.68 1.66,1.38 2.47,2.1 3.15,3.97 6.29,7.86 8.55,12.42 2.41,4.22 4.34,8.59 6.57,12.88 0.58,4.58 2.15,8.9 2.42,13.55 -1.42,3.24 -3.89,3.13 -6.55,4.85 -1.18,0.02 -2.4,-0.45 -3.54,-0.75 0.03,-1.9 0.51,-3.79 0.68,-5.69 -0.77,0.65 -1.51,1.33 -2.23,2.04 -0.58,-2.38 -0.99,-4.79 -1.66,-7.15 -0.39,-1.53 -1.05,-2.93 -1.72,-4.36 -0.44,-1.51 -0.89,-3.01 -1.48,-4.47 -1.77,-3.66 -4.09,-7.14 -6.43,-10.46 -0.98,-3.33 -4.39,-3.88 -5.05,-7.39 2.42,-2.7 5.12,-5.33 7.97,-7.57z" fill="#435b57"/>
  <path d="m145.05,42.378c3.71,2.86 5.84,6.76 7.48,11.06 0,0.64 -0.07,1.28 -0.23,1.91 -2.26,-4.56 -5.4,-8.45 -8.55,-12.42z" fill="#658f8d"/>
  <path d="m82.17,43.158c2.76,1.4 1.49,3.66 1.59,6.19 -0.52,-0.77 -1.04,-1.55 -1.57,-2.32 -0.05,-1.29 -0.06,-2.58 -0.02,-3.87z" fill="#59887f"/>
  <path d="m32.91,47.258c4.05,0.6 8.27,0.63 12.3,-0.14 0.6,0.6 1.2,1.2 1.78,1.82 -0.38,0.6 -0.76,1.21 -1.13,1.82 -0.76,0.78 -1.5,1.58 -2.22,2.38 -1.02,1.11 -1.82,2.35 -2.65,3.6 -1.08,1.53 -2.2,3.04 -3.24,4.61 -1.68,2.72 -2.96,5.71 -4.09,8.69 -0.64,1.62 -1.2,3.27 -1.74,4.93l-0.31,0.9 -0.54,1.4c-1.2,-0.48 -2.4,-0.99 -3.63,-1.4 -0.99,2.13 -3.4,2.42 -4.45,4.22 0.18,1.39 3.64,1.3 4.86,1.69 0.74,-1.11 1.3,-2.38 1.95,-3.57 0.19,1.71 0.35,3.43 0.5,5.14 -0.1,1.21 -0.17,2.42 -0.19,3.63 -0.1,2.67 -0.17,5.3 -0.04,7.96 0.04,1.42 0.14,2.83 0.43,4.22 1.07,6.37 2.33,12.45 5.7,18.07 -0.13,1.58 -1.3,6.12 0.79,6.71 4.72,0.75 5.31,4.64 8.76,7.28 2.18,2.34 4.43,4.6 6.59,6.95 -1.18,3.22 -3.49,4.72 -6.23,6.44 -1.74,0.24 -3.52,-0.88 -5.21,-1.37 -1.17,-0.97 -2.32,-1.96 -3.51,-2.92 -1.61,-1.95 -3.34,-3.69 -5.38,-5.19 -0.81,-2.24 -2.09,-4.18 -3.38,-6.17 -0.78,-1.57 -1.55,-3.15 -2.35,-4.72 -0.7,-1.47 -1.54,-2.85 -2.5,-4.18 -0.63,-2.04 -1.34,-4.01 -2.49,-5.82 -1.27,-5.08 -2.22,-10.09 -3.2,-15.22 -0.13,-5.2 -0.27,-10.45 0.19,-15.64 0.11,-0.69 0.21,-1.38 0.3,-2.07 0.44,-3.07 1.1,-6.08 1.86,-9.09 0.84,-2.34 1.64,-4.68 2.04,-7.14 1.3,-0.52 3.42,-0.01 3.86,-1.59 0.96,-2.19 0.62,-5.01 0.97,-7.37 1.71,-3.06 3.66,-5.96 5.6,-8.86z" fill="#2e403d"/>
  <path d="m82.19,47.028c0.53,0.77 1.05,1.55 1.57,2.32 0.36,0.62 0.73,1.23 1.11,1.83 1.35,1.54 4.71,1.65 6.66,2.23 -0.21,3.09 2.06,4.69 2.71,7.59 0.51,2.62 3.08,2.55 5.02,3.72 0.73,3.19 0.85,4.25 3.94,5.78l-0.59,1.36c-1.94,-0.81 -3.68,-2.06 -5.42,-3.22 -2.42,-4.05 -4.93,0.82 -7.08,2.34 -0.8,-0.63 -1.58,-1.28 -2.35,-1.94 0.49,-1.29 1.12,-2.52 1.66,-3.8 -0.84,-3.04 -2.48,-5.92 -3.8,-8.79 -1.37,-0.53 -3.09,-0.29 -4.53,-0.16 -0.17,2.86 1.98,4.85 1.83,7.75 -2.27,-0.78 -4.4,-1.72 -6.78,-2.16 -2.07,-0.21 -1.75,-1.96 -2.58,-3.47 -2.59,0.77 -3.62,3.66 -6.25,3.85 0.89,-1.38 1.79,-2.73 2.59,-4.16 1.53,-1.27 5.25,-1.69 5,-4.05 0.12,-1 0.22,-2.01 0.3,-3.02l1.66,0.43c2.96,1.11 5.55,-1.35 5.33,-4.43z" fill="#242e39"/>
  <path d="m129.24,48.238c2.27,-0.31 1.64,2.8 2.4,4.27 0.44,2.62 2.16,4.29 4.28,5.7 0.84,-0.78 1.65,-1.59 2.44,-2.42 2.34,3.32 4.66,6.8 6.43,10.46 -4.03,-0.35 -7.36,0.89 -10.33,-2.56 -5.25,-3.94 -4.01,-9.63 -5.22,-15.45z" fill="#618f85"/>
  <path d="m46.99,48.938c1.49,0.85 3.25,2.14 5.01,2.16 6.5,0.34 12.55,-0.68 18.96,1.08 1.52,0.18 2.18,1.19 3.22,2.15 -2.21,1.03 -3.7,1.06 -4.28,3.77 -3.91,-1.82 -4.03,0.85 -6.58,3.06l-0.79,-1.25c-4.09,-1.91 -8.61,-2.97 -12.85,-4.5 -1.8,-0.68 -2.65,-3.22 -3.82,-4.65 0.37,-0.61 0.75,-1.22 1.13,-1.82z" fill="#6c9791"/>
  <path d="m45.86,50.758c1.17,1.43 2.02,3.97 3.82,4.65 4.24,1.53 8.76,2.59 12.85,4.5l0.79,1.25c-0.18,1.7 -0.3,3.41 -0.42,5.12l-0.28,1.81c-0.7,0.03 -1.41,0.05 -2.11,0.08 -1.5,-4.52 -5.54,-0.2 -6.86,1.96l-1.7,0.23c-1.25,-2.75 -2.72,-5.17 -5.31,-6.85 -2.95,-1.24 -5.86,-1.28 -8.89,-2.16 1.04,-1.57 2.16,-3.08 3.24,-4.61 3.65,2.24 5.81,5.64 10.21,6.89 1.21,-0.29 2.38,-0.72 3.55,-1.14 1,-2.02 -1.58,-3.02 -3.04,-3.58 -3.45,-0.27 -6.88,-2.42 -8.07,-5.77 0.72,-0.8 1.46,-1.6 2.22,-2.38z" fill="#7aa69f"/>
  <path d="m43.64,53.138c1.19,3.35 4.62,5.5 8.07,5.77 1.46,0.56 4.04,1.56 3.04,3.58 -1.17,0.42 -2.34,0.85 -3.55,1.14 -4.4,-1.25 -6.56,-4.65 -10.21,-6.89 0.83,-1.25 1.63,-2.49 2.65,-3.6z" fill="#69948c"/>
  <path d="m12.76,54.178c0.2,2.54 -1.19,3.49 1.78,4.5 1.49,3.79 -1.07,9.44 2.03,12.61 -0.09,3.57 0.56,7.13 0.57,10.72 -0.18,4.76 -0.09,9.53 -0.32,14.29 -0.51,-1.39 -0.98,-2.81 -1.56,-4.18 -0.3,3.01 -0.23,6.03 -0.52,9.04 -2.45,-3.46 -2.63,-7.73 -4.06,-11.75 -2.83,-0.51 -5.38,-0.8 -7.55,1.39 -0.46,-5.51 -1.33,-10.13 0.03,-15.64 -0.32,-2.17 1.8,0.64 2.51,0.12 3.04,-2.71 6.22,-3.89 7.2,-8.23 0.21,-2.87 0.8,-6.16 -1.26,-8.49 -1.23,-1.84 -0.6,-3.29 1.15,-4.38z" fill="#515f65"/>
  <path d="m74.18,54.328 l0.72,-0.28c0.25,2.36 -3.47,2.78 -5,4.05 0.58,-2.71 2.07,-2.74 4.28,-3.77z" fill="#5b7978"/>
  <path d="m26.11,55.428 l1.2,0.69c-0.35,2.36 -0.01,5.18 -0.97,7.37 -0.44,1.58 -2.56,1.07 -3.86,1.59 -0.21,-3.31 2.18,-6.77 3.63,-9.65z" fill="#749c8f"/>
  <path d="m81.09,56.288c1.44,-0.13 3.16,-0.37 4.53,0.16 1.32,2.87 2.96,5.75 3.8,8.79 -0.54,1.28 -1.17,2.51 -1.66,3.8 -2.07,-1.23 -0.77,-2.79 -0.99,-4.79 -1.77,-0.2 -2.59,0.89 -3.99,1.69 -1.74,0.36 -3.7,-0.39 -5.48,-0.49 -1.12,1.51 -1.7,3.05 -3.5,3.9 -0.83,0.51 -1.64,1.02 -2.49,1.48 -0.44,-1.57 -0.3,-3.32 -1.53,-4.42 -2.46,0.33 -4.47,0.98 -6.88,-0.13 0.12,-1.71 0.24,-3.42 0.42,-5.12 2.55,-2.21 2.67,-4.88 6.58,-3.06 -0.8,1.43 -1.7,2.78 -2.59,4.16 2.63,-0.19 3.66,-3.08 6.25,-3.85 0.83,1.51 0.51,3.26 2.58,3.47 2.38,0.44 4.51,1.38 6.78,2.16 0.15,-2.9 -2,-4.89 -1.83,-7.75z" fill="#37404c"/>
  <path d="m122.14,55.928c-1.71,6.37 -7.47,0.17 -9.46,5.99l-0.93,0.06c-0.2,-1.21 -0.6,-1.66 0.46,-2.62 2.03,-2.89 6.73,-2.33 9.93,-3.43z" fill="#72a599"/>
  <path d="m122.14,55.928c2.16,0.56 1.91,3.72 2.98,5.48 -2.03,1.35 -3.9,1.8 -6.31,2.04 -2.33,-1.45 -3.32,-2.01 -6.13,-1.53 1.99,-5.82 7.75,0.38 9.46,-5.99z" fill="#658e89"/>
  <path d="m166.04,58.428c1.92,1.62 6.1,1.42 7.13,3.38 -0.86,0.89 -1.73,1.76 -2.56,2.69 0.7,1.79 1.43,3.39 1.46,5.37 -0.71,-0.49 -1.41,-0.97 -2.11,-1.46 -0.27,5.35 3.72,7.87 4.8,12.86 -0.19,4.24 0.57,8.44 0.06,12.64 -2.21,0.26 -4.43,0.21 -6.65,0.46 -0.14,1.75 1.22,4.3 -0.29,5.56 -1.32,-0.48 -2.6,-1.13 -3.86,-1.76 0.24,-1.09 1.05,-2.01 1.61,-3 -0.82,-0.44 -1.66,-0.85 -2.52,-1.23 -0.32,-6.83 0.16,-13.7 -0.31,-20.52 0.13,-1.7 0.28,-3.39 0.44,-5.09 1.02,-3.2 1.21,-6.95 2.8,-9.9z" fill="#56656a"/>
  <path d="m37.75,61.348c3.03,0.88 5.94,0.92 8.89,2.16 2.59,1.68 4.06,4.1 5.31,6.85l0.37,0.79c-0.65,2.2 -0.44,4.43 -3.44,3.41l0.84,-1.26c-3.13,-1.89 -5.45,-0.47 -8.7,-0.19 -2.54,-0.28 -5.02,-2.06 -7.36,-3.07 1.13,-2.98 2.41,-5.97 4.09,-8.69z" fill="#6a948d"/>
  <path d="m118.81,63.448c0.31,4.12 3.03,3.71 5.34,6.14 -1.34,-0.09 -2.67,-0.24 -4.01,-0.25 -0.69,2.34 1.79,3.09 2.96,4.77 -0.92,1.14 -3.08,1.08 -4.38,1.75 -1.06,1.96 -0.46,5.68 -3.64,5.29 -2.02,-0.98 -4.75,-3.38 -4.05,-5.92 0.55,-2.36 3.4,-3.91 4.91,-5.78 -1.06,-0.43 -4.83,0.08 -4.88,-1.26 1.48,-1.71 3.47,-2.22 2.81,-4.93 -4.24,-0.12 -5.98,1.39 -8.2,4.72 0.37,-2.4 0.82,-4.32 2.4,-6.24 1.23,0.18 2.46,0.27 3.68,0.24l0.93,-0.06c2.81,-0.48 3.8,0.08 6.13,1.53z" fill="#333e4a"/>
  <path d="m125.12,61.408c0.68,1.28 -0.01,3.04 0.11,4.46 1,0.81 2.24,1.4 3.37,2.03 1.27,0.83 2.63,1.18 4.08,1.56 -0.94,0.87 -1.92,1.68 -2.8,2.62 -3.16,2.48 -2.42,4.19 -2.5,7.73 -2.64,1.76 -5.04,3.42 -8.36,3.45 -2.59,-0.08 -4.31,3.17 -6.41,4.46 -4.18,3.21 -8.52,2.95 -13.45,3.64 0.55,1.29 1.09,2.56 2.09,3.56 2.86,0.28 5.84,-2.99 8.75,-2.83 4.03,-0.19 7.77,3.4 10.25,6.22 0.02,0.89 0.05,1.77 0.09,2.66 -1.06,0.81 -2.14,1.59 -3.23,2.36 -5.64,-1.76 -8.87,-3.64 -13.75,-6 -0.36,3.63 -1.08,4.95 -3.56,7.51 -0.63,-0.49 -1.24,-1 -1.84,-1.53l-1.15,-1.43c-0.01,-1.7 -0.38,-3.11 -1.04,-4.66 -1.61,0.92 -1.97,3.32 -2.87,4.89 -0.53,-0.58 -1.09,-1.14 -1.67,-1.68 -1.95,2.32 -3.12,3.49 -6.04,4.55 -0.89,0.74 -1.73,1.52 -2.52,2.33 -2.01,1.26 1.11,1.51 1.91,2.33 1.27,0.5 1.35,2.02 1.77,3.14 -1.19,0.96 -2.35,2 -3.6,2.89 -3.19,-1.09 -3.74,-1.66 -6.84,0.15 0.21,-1.36 0.93,-2.35 1.63,-3.49 -0.81,-0.21 -1.62,-0.42 -2.43,-0.63 1.49,-1.12 4.97,-1.25 4.81,-3.44 -2.75,-0.07 -5.31,2.02 -7.16,-0.86 -2.19,-1.7 2.94,-4.19 0.24,-5.31 -2.18,-1.8 -4.35,1.51 -6.28,2.44 -3.66,-0.11 -6.77,-0.24 -9.8,-2.54 2.69,-1.22 1.23,-4.93 4.02,-4.9 1.44,1.25 2.13,3.38 3.29,4.91 2.69,-1.61 3.78,-5.92 5.94,-7.59 3.43,0.79 6.07,-0.56 9.08,-2.03 0.62,-2.12 1.69,-7.84 -2.18,-7.24 -2.88,1.15 -3.99,4.04 -3.65,7 -1.07,-0.45 -3.02,-0.82 -3.43,-1.99 1.23,-2.52 3.14,-5.57 5.38,-7.23 1.5,-0.49 5.33,-2.3 2.75,-3.89 -1.44,-0.67 -2.95,-1.12 -4.35,-1.86 1.66,-1.26 3.71,-2.17 5.13,-3.66 -2.4,-1.38 -4.92,-0.73 -5.1,-4.16 1.8,-0.85 2.38,-2.39 3.5,-3.9 1.78,0.1 3.74,0.85 5.48,0.49 1.4,-0.8 2.22,-1.89 3.99,-1.69 0.22,2 -1.08,3.56 0.99,4.79 0.77,0.66 1.55,1.31 2.35,1.94 1.43,1.54 2.1,3.55 3.52,5.07 1.11,-2.56 1.85,-5.15 3.56,-7.41 1.74,1.16 3.48,2.41 5.42,3.22l0.59,-1.36c0.63,-0.63 1.25,-1.27 1.88,-1.91l0.59,-0.61c2.22,-3.33 3.96,-4.84 8.2,-4.72 0.66,2.71 -1.33,3.22 -2.81,4.93 0.05,1.34 3.82,0.83 4.88,1.26 -1.51,1.87 -4.36,3.42 -4.91,5.78 -0.7,2.54 2.03,4.94 4.05,5.92 3.18,0.39 2.58,-3.33 3.64,-5.29 1.3,-0.67 3.46,-0.61 4.38,-1.75 -1.17,-1.68 -3.65,-2.43 -2.96,-4.77 1.34,0.01 2.67,0.16 4.01,0.25 -2.31,-2.43 -5.03,-2.02 -5.34,-6.14 2.41,-0.24 4.28,-0.69 6.31,-2.04z" fill="#222734"/>
  <path d="m173.17,61.808c0.76,1.72 -0.24,3.61 0.79,5.37 0.54,1.92 2.68,1.33 4.2,1.77l0.82,0.22 0.04,0.96c-0.03,14.03 -0.04,28.06 0,42.09l-0.02,1 -0.83,-0.2c-3.19,-1.72 -2.73,1.94 -4.29,3.8 -0.93,-0.41 -1.82,-0.91 -2.75,-1.32 -1.58,2.48 -0.38,5.95 2.91,5.26 -0.52,1.64 -2.49,2.51 -3.69,3.71 0,2.5 1.72,5.56 -0.57,7.47 -1.41,1.57 -3.61,3.55 -5.27,1.05 1.17,-4.27 -1.06,-7.92 0.2,-12 1.01,-4.37 2.18,-10.1 0.74,-14.41 -1.7,-2.68 -1.65,-5.34 -1.43,-8.41 1.26,0.63 2.54,1.28 3.86,1.76 1.51,-1.26 0.15,-3.81 0.29,-5.56 2.22,-0.25 4.44,-0.2 6.65,-0.46 0.51,-4.2 -0.25,-8.4 -0.06,-12.64 -1.08,-4.99 -5.07,-7.51 -4.8,-12.86 0.7,0.49 1.4,0.97 2.11,1.46 -0.03,-1.98 -0.76,-3.58 -1.46,-5.37 0.83,-0.93 1.7,-1.8 2.56,-2.69z" fill="#546066"/>
  <path d="m99.26,64.718c2.42,0.69 3.9,2.38 5.82,3.87 -0.63,0.64 -1.25,1.28 -1.88,1.91 -3.09,-1.53 -3.21,-2.59 -3.94,-5.78z" fill="#34464a"/>
  <path d="m132.36,65.468c2.66,0.56 2.01,2.41 2.94,4.42 2.87,0.87 5.93,-0.82 8.78,-1.44 -0.7,2.74 -4.67,4.14 -6.58,6.12 -0.14,1.47 0.29,2.98 0.31,4.46 -2.47,0.37 -2.36,-0.61 -3.34,-2.45 -1.46,-0.53 -3.12,-0.52 -4.65,-0.75 0.01,-1.25 0.03,-2.5 0.06,-3.75 0.88,-0.94 1.86,-1.75 2.8,-2.62 -1.45,-0.38 -2.81,-0.73 -4.08,-1.56 2.01,-0.14 2.5,-1.07 3.76,-2.43z" fill="#639088"/>
  <path d="m60.51,68.168c-1.47,3.93 -3.68,2.22 -6.86,1.96 1.32,-2.16 5.36,-6.48 6.86,-1.96z" fill="#375256"/>
  <path d="m62.9,66.278c2.41,1.11 4.42,0.46 6.88,0.13 1.23,1.1 1.09,2.85 1.53,4.42 0.85,-0.46 1.66,-0.97 2.49,-1.48 0.18,3.43 2.7,2.78 5.1,4.16 -1.42,1.49 -3.47,2.4 -5.13,3.66 1.4,0.74 2.91,1.19 4.35,1.86 -3.19,1.02 -6.01,0.18 -8.8,2.37 0.32,-1.4 0.62,-2.8 0.9,-4.2 4.2,0.39 1.57,-2.23 1.45,-4.78 -2.72,-0.84 -5.31,-0.5 -8.08,-0.53 -0.51,-1.23 -0.9,-2.46 -0.97,-3.8z" fill="#2b3340"/>
  <path d="m97.19,68.638c-1.71,2.26 -2.45,4.85 -3.56,7.41 -1.42,-1.52 -2.09,-3.53 -3.52,-5.07 2.15,-1.52 4.66,-6.39 7.08,-2.34z" fill="#373e4b"/>
  <path d="m60.51,68.168c0.7,-0.03 1.41,-0.05 2.11,-0.08 0.07,1.34 0.46,2.57 0.97,3.8 2.77,0.03 5.36,-0.31 8.08,0.53 0.12,2.55 2.75,5.17 -1.45,4.78 -4.11,-1.65 -7.92,-0.53 -11.35,-3.83 -1.96,-1.01 -4.47,-1.29 -6.55,-2.22l-0.37,-0.79 1.7,-0.23c3.18,0.26 5.39,1.97 6.86,-1.96z" fill="#363f4b"/>
  <path d="m158.87,68.228c1.42,1.69 2.18,3.9 3.93,5.19 0.47,6.82 -0.01,13.69 0.31,20.52 -0.08,2.8 -0.17,5.59 -0.26,8.38 -0.4,-0.78 -0.79,-1.56 -1.17,-2.35 0.32,-5.91 0.97,-12.41 -0.39,-18.19 -0.27,-4.65 -1.84,-8.97 -2.42,-13.55z" fill="#6c8c8a"/>
  <path d="m0,69.708 l0.89,0.52c0.22,13.97 0.11,27.95 0.05,41.92l-0.94,-0.45z" fill="#010101"/>
  <path d="m33.66,70.038c1.2,3.11 3.28,5.03 6.44,6.06 2.66,0.12 5.27,-1.74 7.92,-1.6l0.02,1.28c-0.8,1.09 -3.63,2.2 -2.37,3.73 0.57,2.67 6.19,3.38 3.54,6.45 -1.53,-3.63 -2.81,-1.58 -5.42,-1.24 -3.2,-1.39 -6.89,-3.64 -8.42,-6.92 -1.27,-1.66 -0.78,-3.96 -3.45,-2.83 0.54,-1.66 1.1,-3.31 1.74,-4.93z" fill="#6a928d"/>
  <path d="m33.66,70.038c2.34,1.01 4.82,2.79 7.36,3.07 3.25,-0.28 5.57,-1.7 8.7,0.19l-0.84,1.26 -0.86,-0.06c-2.65,-0.14 -5.26,1.72 -7.92,1.6 -3.16,-1.03 -5.24,-2.95 -6.44,-6.06z" fill="#7faaa4"/>
  <path d="m179.02,70.128 l0.94,0.02c0.07,13.98 0.06,27.98 0.01,41.96l-0.95,0.11c-0.04,-14.03 -0.03,-28.06 0,-42.09z" fill="#151a1c"/>
  <path d="m19.2,71.448 l1.24,0.77c-0.76,3.01 -1.42,6.02 -1.86,9.09 -1.04,-3.48 -0.53,-6.51 0.62,-9.86z" fill="#66867d"/>
  <path d="m52.32,71.148c2.08,0.93 4.59,1.21 6.55,2.22 3.43,3.3 7.24,2.18 11.35,3.83 -0.28,1.4 -0.58,2.8 -0.9,4.2 -2.46,2.61 -5.95,1.78 -9.21,1.59 -4.18,-2.02 -7.98,-5.02 -12.07,-7.21l-0.02,-1.28 0.86,0.06c3,1.02 2.79,-1.21 3.44,-3.41z" fill="#232737"/>
  <path d="m146.27,70.718c0.67,1.43 1.33,2.83 1.72,4.36 -0.63,-0.24 -1.26,-0.47 -1.89,-0.69 0.5,3.49 2.62,6.35 0.75,9.59 -1.93,2.4 -3.78,6.44 -7.52,4.85 -3.54,-0.66 -4,-3.48 -6.53,-5.45 -1.35,-0.93 -2.05,-2.28 -2.92,-3.62v-1.72c1.63,0.75 2.29,1.78 3.37,3.06 2.27,0.25 4.25,-0.46 6.31,-1.32 0.26,-4.69 3.25,-6.54 6.71,-9.06z" fill="#67958d"/>
  <path d="m129.88,72.078c-0.03,1.25 -0.05,2.5 -0.06,3.75 -0.02,0.74 0,1.47 0.06,2.21v1.72c-1.82,1.64 -1.29,2.77 -1.51,4.91 -1.33,2.17 -3.1,3.94 -4.6,5.97 -2.82,1.99 -0.5,6.91 -3.52,7.67 -2.48,-2.82 -6.22,-6.41 -10.25,-6.22 -2.91,-0.16 -5.89,3.11 -8.75,2.83 -1,-1 -1.54,-2.27 -2.09,-3.56 4.93,-0.69 9.27,-0.43 13.45,-3.64 2.1,-1.29 3.82,-4.54 6.41,-4.46 3.32,-0.03 5.72,-1.69 8.36,-3.45 0.08,-3.54 -0.66,-5.25 2.5,-7.73z" fill="#35434d"/>
  <path d="m35.37,77.798c1.53,3.28 5.22,5.53 8.42,6.92 2.61,-0.34 3.89,-2.39 5.42,1.24 -0.7,1.1 -1.39,2.21 -2.09,3.31 -2.63,-1.2 -5.09,-2.38 -8.08,-2.04 1.71,3.96 6.24,3.15 7.44,7.07l-0.11,0.94 -1.12,0.22c-2.85,-2.59 -5.94,-3.33 -7.56,-6.99 -1.99,-4.8 -5.96,-7.06 -6.08,-12.6l0.31,-0.9c2.67,-1.13 2.18,1.17 3.45,2.83z" fill="#78a69f"/>
  <path d="m146.1,74.388c0.63,0.22 1.26,0.45 1.89,0.69 0.67,2.36 1.08,4.77 1.66,7.15 0.23,1.9 0.29,3.78 0.23,5.68 -1.98,1.78 -1.65,4.43 -3.47,6.21 -0.24,-1.23 -0.49,-2.45 -0.74,-3.67 -3.19,0.51 -6.32,0.66 -9.54,0.84 -1.28,1 -2.21,2.41 -3.46,3.46 -1.43,0.15 -2.91,0.14 -4.35,0.04 -1.71,-2.16 -1.27,-3.58 -4.55,-4.15 1.5,-2.03 3.27,-3.8 4.6,-5.97 0.22,-2.14 -0.31,-3.27 1.51,-4.91 0.87,1.34 1.57,2.69 2.92,3.62 2.53,1.97 2.99,4.79 6.53,5.45 3.74,1.59 5.59,-2.45 7.52,-4.85 1.87,-3.24 -0.25,-6.1 -0.75,-9.59z" fill="#72a49a"/>
  <path d="m27.44,75.868c1.23,0.41 2.43,0.92 3.63,1.4 -0.07,2.06 -0.19,4.09 -0.77,6.08 -0.15,-1.71 -0.31,-3.43 -0.5,-5.14 -0.65,1.19 -1.21,2.46 -1.95,3.57 -1.22,-0.39 -4.68,-0.3 -4.86,-1.69 1.05,-1.8 3.46,-2.09 4.45,-4.22z" fill="#374946"/>
  <path d="m31.61,75.868c0.12,5.54 4.09,7.8 6.08,12.6 1.62,3.66 4.71,4.4 7.56,6.99l1.12,-0.22c1.72,0.1 2.97,-0.08 3.6,1.86 -0.93,2.12 -2.27,4.07 -3.33,6.14 -2.81,-0.45 -5.23,-1.6 -7.71,-2.93 -0.65,0.27 -1.27,0.6 -1.88,0.97 2.8,2.22 7.63,6.2 11.33,4.19 2.39,-0.67 2.94,-0.79 3.85,-3.21 0.65,-0.37 1.29,-0.75 1.92,-1.13 0.93,0.27 1.85,0.56 2.77,0.86 -0.5,1.69 -0.2,3.14 0.19,4.81 1.32,-0.48 3.17,-2.1 4.55,-1.42 1.33,2.04 2.12,3.56 4.36,4.77 -5.02,-0.27 -9.97,-1.37 -14.97,-1.88 2.69,5.43 7.8,0.97 11.75,4.06 1.35,0.87 2.66,1.81 4.03,2.63 0.16,-1.29 0.28,-2.58 0.37,-3.87 0.44,0.69 0.85,1.4 1.24,2.12 -0.19,2.91 -4.62,5.61 -3.58,8.19 -3.9,5 -8.55,3.28 -13.97,5.48 -2.89,-0.21 -6.07,-0.88 -8.76,-1.96 3.81,-3.95 4.86,0.44 8.77,0.11 0.36,-2.72 -3.69,-3.64 -4.73,-6.02 -1.54,-3.03 -5.13,-1.59 -5.38,-5.73 0.21,-1.73 -3.2,0.27 -2.72,-1.31 -0.77,-2.71 3.11,-1.82 4.62,-1.52 3.75,1.1 3.1,5.33 7.29,4.7 3.3,0.43 1.82,-2.12 0.24,-3.2 -5.98,-3.64 -11.51,-5.95 -17.08,-10.93 -1,-0.99 -0.93,-3.14 -2.64,-1.86 -0.29,-1.39 -0.39,-2.8 -0.43,-4.22 1.85,0.72 3.45,1.75 5.06,2.88 -0.75,-3.93 -3.83,-6.95 -5.02,-10.84 0.02,-1.21 0.09,-2.42 0.19,-3.63 0.58,-1.99 0.7,-4.02 0.77,-6.08z" fill="#67918b"/>
  <path d="m48.04,75.778c4.09,2.19 7.89,5.19 12.07,7.21 3.26,0.19 6.75,1.02 9.21,-1.59 2.79,-2.19 5.61,-1.35 8.8,-2.37 2.58,1.59 -1.25,3.4 -2.75,3.89 -2.24,1.66 -4.15,4.71 -5.38,7.23 0.41,1.17 2.36,1.54 3.43,1.99 -0.34,-2.96 0.77,-5.85 3.65,-7 3.87,-0.6 2.8,5.12 2.18,7.24 -3.01,1.47 -5.65,2.82 -9.08,2.03 -2.16,1.67 -3.25,5.98 -5.94,7.59 -1.16,-1.53 -1.85,-3.66 -3.29,-4.91 -2.79,-0.03 -1.33,3.68 -4.02,4.9 -0.92,-0.3 -1.84,-0.59 -2.77,-0.86 0.04,-2.17 0.19,-4.36 0.56,-6.5 2.34,-1.45 4.88,-1.88 4.17,-5.33 -3.48,-0.3 -4.18,-0.81 -5.6,2.67 -0.16,-0.83 -0.31,-1.66 -0.47,-2.48 -1.64,1.86 -3.65,2.51 -5.83,3.51 0.05,-1.24 0.09,-2.49 0.14,-3.73 0.7,-1.1 1.39,-2.21 2.09,-3.31 2.65,-3.07 -2.97,-3.78 -3.54,-6.45 -1.26,-1.53 1.57,-2.64 2.37,-3.73z" fill="#37424f"/>
  <path d="m151.88,80.188c-0.17,1.9 -0.65,3.79 -0.68,5.69 1.14,0.3 2.36,0.77 3.54,0.75 2.66,-1.72 5.13,-1.61 6.55,-4.85 1.36,5.78 0.71,12.28 0.39,18.19 -0.85,4.82 -1.89,9.37 -3.27,14.06 -2.54,6.75 -5.61,13.71 -10.12,19.39 -0.92,1.18 -1.52,2.51 -2.13,3.86 -1.93,0.65 -3.81,1.19 -5.67,1.98 0.33,0.58 0.66,1.16 0.99,1.75 -1.79,2.09 -3.85,3.93 -5.53,6.13l-1.06,0.94 -1.8,0.51c-2.02,-1.75 -1.69,-3.87 -2.34,-6.25 -1.24,0.67 -2.36,1.53 -3.59,2.21 -2.29,-0.17 -4.39,-0.64 -6.48,-1.61 4.45,-3.19 8.79,-6.06 12.27,-10.39 3.5,-2.95 6.14,-6.6 8.62,-10.41 3.16,-5.23 6.05,-11.83 6.93,-17.91 0.31,-0.97 0.61,-1.96 0.9,-2.94 1.17,-4.22 0.46,-9.04 0.48,-13.38 0.06,-1.9 0,-3.78 -0.23,-5.68 0.72,-0.71 1.46,-1.39 2.23,-2.04z" fill="#405752"/>
  <path d="m17.14,82.008 l1.14,1.37c-0.46,5.19 -0.32,10.44 -0.19,15.64l-0.96,0.12c-0.1,-0.94 -0.2,-1.89 -0.31,-2.84 0.23,-4.76 0.14,-9.53 0.32,-14.29z" fill="#869f99"/>
  <path d="m108.51,82.288c0.36,0.79 0.71,1.59 1.06,2.39 0.39,0.84 0.77,1.69 1.13,2.55 -1.46,-0.48 -2.45,-1.15 -3.49,-2.28 0.35,-0.93 0.8,-1.8 1.3,-2.66z" fill="#3b3e4d"/>
  <path d="m30.11,86.978c1.19,3.89 4.27,6.91 5.02,10.84 -1.61,-1.13 -3.21,-2.16 -5.06,-2.88 -0.13,-2.66 -0.06,-5.29 0.04,-7.96z" fill="#7ba19a"/>
  <path d="m39.04,87.228c2.99,-0.34 5.45,0.84 8.08,2.04 -0.05,1.24 -0.09,2.49 -0.14,3.73l-0.5,1.3c-1.2,-3.92 -5.73,-3.11 -7.44,-7.07z" fill="#66958f"/>
  <path d="m149.88,87.908c-0.02,4.34 0.69,9.16 -0.48,13.38 -0.11,-3.99 -4.6,-4.41 -7.38,-6.17 -1.88,-0.83 -3.07,-1.64 -4.72,0.14 0.53,2.24 1.26,4.44 2.08,6.59 1.5,0.78 3.29,-1.04 4.69,-1.55 1.82,0.83 3.54,2.09 4.43,3.93 -0.88,6.08 -3.77,12.68 -6.93,17.91 -2.35,-0.43 -6.82,0.24 -7.45,3.09 -0.78,2.49 -2.95,4.81 -1.17,7.32 -3.48,4.33 -7.82,7.2 -12.27,10.39 -7.14,3.68 -14.58,6.37 -22.58,7.4l0.29,-0.83c3.4,-0.71 4.01,-3.48 6.33,-5.65 3.41,-4.12 10.65,-4.31 14.5,-7.5 1.92,-2.08 0.11,-5.57 2.55,-7.43 3.56,-3.19 4.43,-7.37 6.64,-11.38 4.82,-1.53 9.37,-3.39 14.44,-3.75 0.35,-2.54 -0.62,-1.88 -2.33,-2.79 0.07,-1.22 0.22,-2.42 0.23,-3.64 -1.48,-0.74 -2.84,-0.63 -4.42,-0.54 0.45,-0.9 0.95,-1.77 1.41,-2.67 -4.82,2.4 -9.3,2.43 -14.49,3.03 -0.75,-2.22 -1.38,-4.39 -2.91,-6.22 -0.04,-0.89 -0.07,-1.77 -0.09,-2.66 3.02,-0.76 0.7,-5.68 3.52,-7.67 3.28,0.57 2.84,1.99 4.55,4.15 1.44,0.1 2.92,0.11 4.35,-0.04 1.25,-1.05 2.18,-2.46 3.46,-3.46 3.22,-0.18 6.35,-0.33 9.54,-0.84 0.25,1.22 0.5,2.44 0.74,3.67 1.82,-1.78 1.49,-4.43 3.47,-6.21z" fill="#68938b"/>
  <path d="m52.81,89.488c0.16,0.82 0.31,1.65 0.47,2.48 1.42,-3.48 2.12,-2.97 5.6,-2.67 0.71,3.45 -1.83,3.88 -4.17,5.33 -0.37,2.14 -0.52,4.33 -0.56,6.5 -0.63,0.38 -1.27,0.76 -1.92,1.13 -1.81,0.21 -2.94,1.11 -4.31,2.21l-1.28,-1.23c1.06,-2.07 2.4,-4.02 3.33,-6.14 -0.63,-1.94 -1.88,-1.76 -3.6,-1.86l0.11,-0.94 0.5,-1.3c2.18,-1 4.19,-1.65 5.83,-3.51z" fill="#222e38"/>
  <path d="m91.78,97.038c-5.02,1.98 -10.52,3.55 -15.78,4.85 -0.95,-0.02 -3.16,-3.5 -2.84,-4.44 2.59,-0.31 5.47,-1.56 7.83,-0.29 2.01,1.25 5.86,0.31 6.94,-1.79 -2.19,-1.36 -4.67,-1.61 -5.87,-4.05 4.07,-3.41 9.41,1.23 9.72,5.72z" fill="#3f4655"/>
  <path d="m142.02,95.118c2.78,1.76 7.27,2.18 7.38,6.17 -0.29,0.98 -0.59,1.97 -0.9,2.94 -0.89,-1.84 -2.61,-3.1 -4.43,-3.93 -1.4,0.51 -3.19,2.33 -4.69,1.55 -0.82,-2.15 -1.55,-4.35 -2.08,-6.59 1.65,-1.78 2.84,-0.97 4.72,-0.14z" fill="#73a599"/>
  <path d="m163.11,93.938c0.86,0.38 1.7,0.79 2.52,1.23 -0.56,0.99 -1.37,1.91 -1.61,3 -0.22,3.07 -0.27,5.73 1.43,8.41 1.44,4.31 0.27,10.04 -0.74,14.41 -1.26,4.08 0.97,7.73 -0.2,12 1.66,2.5 3.86,0.52 5.27,-1.05 2.29,-1.91 0.57,-4.97 0.57,-7.47 1.2,-1.2 3.17,-2.07 3.69,-3.71 -3.29,0.69 -4.49,-2.78 -2.91,-5.26 0.93,0.41 1.82,0.91 2.75,1.32 1.56,-1.86 1.1,-5.52 4.29,-3.8 -2.14,11.28 -7.46,22.28 -14.31,31.47 -0.57,-1.43 -0.9,-2.78 -0.88,-4.33 -0.07,-12.61 0.21,-25.24 -0.13,-37.84 0.09,-2.79 0.18,-5.58 0.26,-8.38z" fill="#4d6568"/>
  <path d="m95.77,97.218c0.66,1.55 1.03,2.96 1.04,4.66 -0.89,2.35 -1.52,3.76 1,5.24 0.1,-1.26 0.14,-2.53 0.15,-3.81 0.6,0.53 1.21,1.04 1.84,1.53 2.48,-2.56 3.2,-3.88 3.56,-7.51 4.88,2.36 8.11,4.24 13.75,6 1,1.9 0.32,3.32 -0.32,5.2 -4.78,-0.94 -5.49,3.33 -9.66,4.66 -1.75,-1.84 -4.91,-7.04 -7.84,-5.82 -0.76,2.12 -1.09,3.69 -0.56,5.91 1.11,3.96 -4.22,4.39 -3.32,8.67 -0.82,0.03 -1.63,0.04 -2.45,0.02 0.01,-1.2 -0.05,-2.38 -0.2,-3.56 -1.06,-1.42 -2.19,-0.72 -3.69,-0.81 -0.11,-2.02 0.2,-4 0.28,-6 -1.23,-0.8 -3.21,-1.16 -2.01,-3.06 2.3,-1.89 4.34,-3.62 5.56,-6.43 0.9,-1.57 1.26,-3.97 2.87,-4.89z" fill="#3b4755"/>
  <path d="m33.14,101.018c5.57,4.98 11.1,7.29 17.08,10.93 1.58,1.08 3.06,3.63 -0.24,3.2 -4.19,0.63 -3.54,-3.6 -7.29,-4.7 -1.51,-0.3 -5.39,-1.19 -4.62,1.52 -0.48,1.58 2.93,-0.42 2.72,1.31 0.25,4.14 3.84,2.7 5.38,5.73 1.04,2.38 5.09,3.3 4.73,6.02 -3.91,0.33 -4.96,-4.06 -8.77,-0.11 2.69,1.08 5.87,1.75 8.76,1.96 5.42,-2.2 10.07,-0.48 13.97,-5.48 1,-0.07 2,-0.11 3,-0.14 -0.79,1.16 -1.7,2.23 -2.45,3.4 0.99,0.41 1.74,0.97 2.25,1.66 -3.3,-0.12 -5.2,1.68 -7.97,3.09 -4.63,0.69 -9.3,1.15 -13.94,1.81 -3.45,-2.64 -4.04,-6.53 -8.76,-7.28 0.16,-2.38 0.68,-4.62 -0.79,-6.71 -3.37,-5.62 -4.63,-11.7 -5.7,-18.07 1.71,-1.28 1.64,0.87 2.64,1.86z" fill="#73a298"/>
  <path d="m17.13,99.138 l0.96,-0.12c0.98,5.13 1.93,10.14 3.2,15.22 -3.29,-4.63 -4.06,-9.57 -4.16,-15.1z" fill="#667e78"/>
  <path d="m38.93,100.308c2.48,1.33 4.9,2.48 7.71,2.93l1.28,1.23 0.46,1c-3.7,2.01 -8.53,-1.97 -11.33,-4.19 0.61,-0.37 1.23,-0.7 1.88,-0.97z" fill="#72a59c"/>
  <path d="m91.23,100.428c0.58,0.54 1.14,1.1 1.67,1.68 -1.22,2.81 -3.26,4.54 -5.56,6.43 -1.2,1.9 0.78,2.26 2.01,3.06 -0.08,2 -0.39,3.98 -0.28,6 1.5,0.09 2.63,-0.61 3.69,0.81 0.15,1.18 0.21,2.36 0.2,3.56 -0.6,1.32 -1.09,2.68 -1.58,4.04 -1.29,-3.51 -2.74,0.14 -1.66,2.04 -0.55,1.35 -1.06,2.71 -1.59,4.07 -1.98,0.48 -1.99,1.59 -2.31,-1.1 0.08,-1.51 0.23,-3.13 -0.03,-4.62 -1.51,-1.6 -3.47,-2.15 -5.62,-2.1 -1.58,-0.52 -3.7,0.61 -2.89,-1.89 2.5,-1.34 5.12,-0.81 6.55,-3.45 0.92,-1.69 3.73,-4.21 2.52,-6.18 -0.42,-1.12 -0.5,-2.64 -1.77,-3.14 -0.8,-0.82 -3.92,-1.07 -1.91,-2.33 1.79,1.42 6.97,-1.17 2.52,-2.33 2.92,-1.06 4.09,-2.23 6.04,-4.55z" fill="#2a3541"/>
  <path d="m161.68,99.968c0.38,0.79 0.77,1.57 1.17,2.35 0.34,12.6 0.06,25.23 0.13,37.84 -0.02,1.55 0.31,2.9 0.88,4.33 -0.82,1.06 -1.68,2.08 -2.53,3.11 -3.08,0.72 -2.97,-1.16 -2.05,-3.33 2.18,-4.48 -2.09,-8.05 1.07,-11.73 2.54,-3.51 1.47,-6.58 0.81,-10.44 -0.37,-1.95 1.64,-4.66 -0.65,-5.69 -0.48,0.88 -0.97,1.74 -1.49,2.6 -0.05,-1.69 -0.26,-3.32 -0.61,-4.98 1.38,-4.69 2.42,-9.24 3.27,-14.06z" fill="#54807e"/>
  <path d="m73,102.088c2.7,1.12 -2.43,3.61 -0.24,5.31 1.85,2.88 4.41,0.79 7.16,0.86 0.16,2.19 -3.32,2.32 -4.81,3.44 0.81,0.21 1.62,0.42 2.43,0.63 -0.7,1.14 -1.42,2.13 -1.63,3.49 3.1,-1.81 3.65,-1.24 6.84,-0.15 1.25,-0.89 2.41,-1.93 3.6,-2.89 1.21,1.97 -1.6,4.49 -2.52,6.18 -1.43,2.64 -4.05,2.11 -6.55,3.45 -0.81,2.5 1.31,1.37 2.89,1.89 -0.66,0.28 -1.32,0.56 -1.98,0.83 -2.62,0.4 -5.24,0.88 -7.86,1.29 1.68,-2.53 0.37,-5.31 2.15,-8.09 -1.19,-2.33 -2.43,-4.37 -2.9,-7.01 -0.4,0.62 -0.78,1.25 -1.14,1.89 -0.39,-0.72 -0.8,-1.43 -1.24,-2.12l-1.18,-0.94c-2.24,-1.21 -3.03,-2.73 -4.36,-4.77 -1.38,-0.68 -3.23,0.94 -4.55,1.42 -0.39,-1.67 -0.69,-3.12 -0.19,-4.81 3.03,2.3 6.14,2.43 9.8,2.54 1.93,-0.93 4.1,-4.24 6.28,-2.44z" fill="#36434e"/>
  <path d="m120.34,100.968c1.53,1.83 2.16,4 2.91,6.22 -0.49,2.96 -1.5,5.47 -0.46,8.46 -0.85,0.49 -1.72,0.94 -2.62,1.35 -2.32,-3.61 -7.26,-3.44 -11.12,-3.75 1.05,2.58 3.12,4.92 3.91,7.6 -1.76,-0.09 -3.56,-0.12 -5.29,-0.44 -1.22,-1.82 -0.49,-5.09 -0.54,-7.22 4.17,-1.33 4.88,-5.6 9.66,-4.66 0.64,-1.88 1.32,-3.3 0.32,-5.2 1.09,-0.77 2.17,-1.55 3.23,-2.36z" fill="#313f4a"/>
  <path d="m52.23,102.258c-0.91,2.42 -1.46,2.54 -3.85,3.21l-0.46,-1c1.37,-1.1 2.5,-2 4.31,-2.21z" fill="#2b4849"/>
  <path d="m96.81,101.878 l1.15,1.43c-0.01,1.28 -0.05,2.55 -0.15,3.81 -2.52,-1.48 -1.89,-2.89 -1,-5.24z" fill="#4c5b68"/>
  <path d="m137.74,104.158c-0.46,0.9 -0.96,1.77 -1.41,2.67 1.58,-0.09 2.94,-0.2 4.42,0.54 -0.01,1.22 -0.16,2.42 -0.23,3.64 1.71,0.91 2.68,0.25 2.33,2.79 -5.07,0.36 -9.62,2.22 -14.44,3.75 -2.21,4.01 -3.08,8.19 -6.64,11.38 -2.44,1.86 -0.63,5.35 -2.55,7.43 -3.85,3.19 -11.09,3.38 -14.5,7.5 -2.32,2.17 -2.93,4.94 -6.33,5.65 0.22,-1.43 0.42,-2.87 0.49,-4.33 -2.01,1.34 -3.27,3.28 -5,4.9 -2.26,0.21 -4.58,0.08 -6.84,-0.12 3.77,-2.53 7.69,-4.84 11.5,-7.31 2.07,-3.3 3.4,-7.08 5.27,-10.52 3.37,3.79 1.82,-1.37 6.17,-0.63 -0.48,-1.25 -1.11,-2.37 -1.77,-3.53 1.16,-1.11 2.37,-0.24 3.8,-0.18 2.81,0.1 6.07,-2.02 8.51,-3.41 2.97,-3.59 4.61,-8.48 7.8,-11.86 2.54,-0.85 5.24,0.35 5.75,-3.09 -2.27,0.55 -4.54,1.21 -6.69,2.13 -1.72,1.09 -2.79,3.16 -4.59,4.09 -1.04,-2.99 -0.03,-5.5 0.46,-8.46 5.19,-0.6 9.67,-0.63 14.49,-3.03z" fill="#73a69c"/>
  <path d="m85.19,104.978c4.45,1.16 -0.73,3.75 -2.52,2.33 0.79,-0.81 1.63,-1.59 2.52,-2.33z" fill="#4a4e5d"/>
  <path d="m99.29,107.368c2.93,-1.22 6.09,3.98 7.84,5.82 0.05,2.13 -0.68,5.4 0.54,7.22 1.73,0.32 3.53,0.35 5.29,0.44 -0.79,-2.68 -2.86,-5.02 -3.91,-7.6 3.86,0.31 8.8,0.14 11.12,3.75 -3.55,1.75 -0.96,5.26 -3.9,7.39 -0.84,0.89 -2.91,-0.04 -4.06,0.06 -0.11,1.11 -0.17,2.22 -0.2,3.34 -1.43,-0.06 -2.64,-0.93 -3.8,0.18 -1.69,1.33 -3.58,2.09 -4.4,4.16 -1.49,-0.49 -2.95,-1.15 -4.48,-1.5 -1.09,0.94 -2.08,1.95 -3.27,2.76l-0.92,0.05c-1.93,0.2 -3.35,-0.16 -5.14,-0.79l-1.87,-0.53c0.53,-1.36 1.04,-2.72 1.59,-4.07 1.39,0.02 2.79,0.02 4.18,0 -0.78,-0.65 -2.12,-1.08 -2.52,-2.04 0.49,-1.36 0.98,-2.72 1.58,-4.04 0.82,0.02 1.63,0.01 2.45,-0.02 -0.9,-4.28 4.43,-4.71 3.32,-8.67 -0.53,-2.22 -0.2,-3.79 0.56,-5.91z" fill="#252a37"/>
  <path d="m51.05,108.268c5,0.51 9.95,1.61 14.97,1.88l1.18,0.94c-0.09,1.29 -0.21,2.58 -0.37,3.87 -1.37,-0.82 -2.68,-1.76 -4.03,-2.63 -3.95,-3.09 -9.06,1.37 -11.75,-4.06z" fill="#7aa5a3"/>
  <path d="m134.07,109.428c-0.51,3.44 -3.21,2.24 -5.75,3.09 -3.19,3.38 -4.83,8.27 -7.8,11.86 -2.44,1.39 -5.7,3.51 -8.51,3.41 0.03,-1.12 0.09,-2.23 0.2,-3.34 1.15,-0.1 3.22,0.83 4.06,-0.06 2.94,-2.13 0.35,-5.64 3.9,-7.39 0.9,-0.41 1.77,-0.86 2.62,-1.35 1.8,-0.93 2.87,-3 4.59,-4.09 2.15,-0.92 4.42,-1.58 6.69,-2.13z" fill="#66928c"/>
  <path d="m69.58,111.318c0.47,2.64 1.71,4.68 2.9,7.01 -1.78,2.78 -0.47,5.56 -2.15,8.09 -1.59,0.84 -1.62,2.31 -2.67,-0.1 -0.51,-0.69 -1.26,-1.25 -2.25,-1.66 0.75,-1.17 1.66,-2.24 2.45,-3.4 -1,0.03 -2,0.07 -3,0.14 -1.04,-2.58 3.39,-5.28 3.58,-8.19 0.36,-0.64 0.74,-1.27 1.14,-1.89z" fill="#26323b"/>
  <path d="m0,111.698 l0.94,0.45 0.27,0.85c-0.46,12.31 -0.1,24.67 -0.21,36.99H0Z" fill="#192e29"/>
  <path d="m179.02,112.218 l0.95,-0.11c0.09,11.01 -0.03,22.03 0.07,33.04 -0.12,1.85 0.3,3.61 -0.87,5.14 -0.38,-12.35 -0.07,-24.72 -0.17,-37.07z" fill="#192d27"/>
  <path d="m1.21,112.998c0.68,1.91 1.21,3.86 1.65,5.83 -1.29,3.03 -0.81,6.05 -0.88,9.31 0.11,6 -0.12,12.01 0.06,18.01 -0.07,1.47 1.21,2.75 1.98,3.92 -1.01,-0.03 -2.01,-0.05 -3.02,-0.08 0.11,-12.32 -0.25,-24.68 0.21,-36.99z" fill="#7b9e94"/>
  <path d="m178.17,113.018 l0.83,0.2c0.1,12.35 -0.21,24.72 0.17,37.07 -2.86,-0.17 -5.62,-0.36 -8.39,0.53 -4.7,0.48 -9.36,1.35 -13.89,2.72 -0.57,-1.96 3.8,-3.71 4.44,-5.94 0.85,-1.03 1.71,-2.05 2.53,-3.11 6.85,-9.19 12.17,-20.19 14.31,-31.47z" fill="#73a699"/>
  <path d="m12.09,114.348c1.37,-0.37 0.74,3.88 1.2,4.78 0.7,-1.04 0.73,-2.55 1.04,-3.76 0.85,0.54 1.66,1.12 2.48,1.71 0.01,5.75 0.97,11.34 0.28,17.06 0.52,3.64 1.07,6.39 -1.9,9.21 -1.38,-1.9 -2.53,-3.84 -3.55,-5.95 0.19,-2.02 0.3,-4.04 0.53,-6.05 1.29,-0.14 0.74,3.83 1.15,4.77 0.85,-1.31 1.68,-2.71 2.21,-4.18 -0.83,-6.54 -4.58,-10.99 -3.44,-17.59z" fill="#4f6565"/>
  <path d="m21.29,114.238c1.15,1.81 1.86,3.78 2.49,5.82 -1.39,1.4 0.39,5.9 2.5,4.18 0.8,1.57 1.57,3.15 2.35,4.72 -0.87,2.99 1.22,4.59 3.38,6.17 0.47,2.68 2.33,5.71 5.38,5.19 1.19,0.96 2.34,1.95 3.51,2.92 2.03,2.54 4.11,4.48 6.96,6.1 2.28,1.57 4.63,3.02 6.97,4.52 -0.58,0.9 -0.4,1.53 0.54,1.89 6.57,3.78 14.2,6.11 21.68,7.21 3.27,0.58 6.49,1.23 9.83,1.32 0.85,0.39 1.68,0.81 2.49,1.26 0.66,4 1.23,8.45 0.67,12.48 -3.76,0.1 -7.51,0.07 -11.26,0.46 -13.92,-1.69 -26.71,-6.84 -37.93,-15.21 -5.52,-4.39 -12.03,-7.69 -18.74,-9.82l0.34,-1.13c-2.56,-2.91 -5.13,-5.72 -7.26,-8.97 2.97,-2.82 2.42,-5.57 1.9,-9.21 0.69,-5.72 -0.27,-11.31 -0.28,-17.06 0.47,-2.42 3.02,-0.47 4.48,-2.84z" fill="#4c7569"/>
  <path d="m158.41,114.028c0.35,1.66 0.56,3.29 0.61,4.98 -1.41,2.42 -3.21,4.2 -4.18,6.85 -0.86,2.74 -3.13,4.5 -3.83,7.3 -0.43,2.78 -2.85,2.74 -4.85,4.12 0.61,-1.35 1.21,-2.68 2.13,-3.86 4.51,-5.68 7.58,-12.64 10.12,-19.39z" fill="#628d8a"/>
  <path d="m160.51,116.408c2.29,1.03 0.28,3.74 0.65,5.69 0.66,3.86 1.73,6.93 -0.81,10.44 -3.16,3.68 1.11,7.25 -1.07,11.73 -0.92,2.17 -1.03,4.05 2.05,3.33 -0.64,2.23 -5.01,3.98 -4.44,5.94 -2.25,0.91 -4.48,1.85 -6.71,2.82 -0.96,-1.26 -1.76,-1.27 -1.03,-2.9 -3.68,-2.64 -1.25,-4.65 -1.19,-8.25 -0.12,-2.24 -4.53,-1.7 -6.01,-2.26 1.62,-1.77 3.25,-3.42 4.21,-5.67 2,-1.38 4.42,-1.34 4.85,-4.12 0.7,-2.8 2.97,-4.56 3.83,-7.3 0.97,-2.65 2.77,-4.43 4.18,-6.85 0.52,-0.86 1.01,-1.72 1.49,-2.6z" fill="#508687"/>
  <path d="m36.2,117.228c1.47,2.09 0.95,4.33 0.79,6.71 -2.09,-0.59 -0.92,-5.13 -0.79,-6.71z" fill="#51736c"/>
  <path d="m2.86,118.828c2.73,6.42 4.5,12.85 8.78,18.57 1.02,2.11 2.17,4.05 3.55,5.95 2.13,3.25 4.7,6.06 7.26,8.97l-0.34,1.13c-5.72,-2.24 -11.78,-2.68 -18.09,-3.38 -0.77,-1.17 -2.05,-2.45 -1.98,-3.92 -0.18,-6 0.05,-12.01 -0.06,-18.01 0.07,-3.26 -0.41,-6.28 0.88,-9.31z" fill="#75a99b"/>
  <path d="m23.78,120.058c0.96,1.33 1.8,2.71 2.5,4.18 -2.11,1.72 -3.89,-2.78 -2.5,-4.18z" fill="#64857d"/>
  <path d="m141.57,122.138c-2.48,3.81 -5.12,7.46 -8.62,10.41 -1.78,-2.51 0.39,-4.83 1.17,-7.32 0.63,-2.85 5.1,-3.52 7.45,-3.09z" fill="#769d95"/>
  <path d="m80.17,124.298c2.15,-0.05 4.11,0.5 5.62,2.1 0.26,1.49 0.11,3.11 0.03,4.62 -0.37,0.78 -0.75,1.56 -1.12,2.34 -2.83,1.32 -8,1.95 -9.13,5.17 -3.21,-1.88 -4.09,1.05 -6.91,2.26 -2.24,1 -2.68,2.83 -3.74,4.83l-0.66,-0.27c-2.36,-1.18 -4.66,-2.4 -6.72,-4.06 2.57,-1.34 5.1,-2.28 7.47,-3.99 -3.64,-0.54 -6.1,1.41 -9.3,2.79 -0.63,-0.39 -1.27,-0.77 -1.91,-1.15 2.45,-2.58 6.96,-2.95 10.31,-3.41 2.83,0.15 5.81,0.52 7.81,-1.98 -0.93,-0.26 -1.86,-0.53 -2.78,-0.8 2.86,-2.32 6.3,-3.75 9.22,-6.03 -0.04,-0.53 -0.09,-1.06 -0.17,-1.59 0.66,-0.27 1.32,-0.55 1.98,-0.83z" fill="#77a79e"/>
  <path d="m91.38,126.008c0.4,0.96 1.74,1.39 2.52,2.04 -1.39,0.02 -2.79,0.02 -4.18,0 -1.08,-1.9 0.37,-5.55 1.66,-2.04z" fill="#5e6b72"/>
  <path d="m78.19,125.128c0.08,0.53 0.13,1.06 0.17,1.59 -2.92,2.28 -6.36,3.71 -9.22,6.03 0.92,0.27 1.85,0.54 2.78,0.8 -2,2.5 -4.98,2.13 -7.81,1.98 -3.35,0.46 -7.86,0.83 -10.31,3.41 -0.49,-0.25 -0.98,-0.51 -1.46,-0.77 -2.16,-2.35 -4.41,-4.61 -6.59,-6.95 4.64,-0.66 9.31,-1.12 13.94,-1.81 2.77,-1.41 4.67,-3.21 7.97,-3.09 1.05,2.41 1.08,0.94 2.67,0.1 2.62,-0.41 5.24,-0.89 7.86,-1.29z" fill="#6a938d"/>
  <path d="m108.21,127.968c0.66,1.16 1.29,2.28 1.77,3.53 -4.35,-0.74 -2.8,4.42 -6.17,0.63 0.82,-2.07 2.71,-2.83 4.4,-4.16z" fill="#698987"/>
  <path d="m28.63,128.958c1.29,1.99 2.57,3.93 3.38,6.17 -2.16,-1.58 -4.25,-3.18 -3.38,-6.17z" fill="#64857c"/>
  <path d="m99.33,130.628c1.53,0.35 2.99,1.01 4.48,1.5 -1.87,3.44 -3.2,7.22 -5.27,10.52 -3.81,2.47 -7.73,4.78 -11.5,7.31 2.26,0.2 4.58,0.33 6.84,0.12 1.73,-1.62 2.99,-3.56 5,-4.9 -0.07,1.46 -0.27,2.9 -0.49,4.33l-0.29,0.83c-7.99,2.17 -17.54,-0.06 -25.44,-1.96 4.21,-0.35 7.94,-1.59 11.35,-4.11 2.84,-1.47 5.51,-3.18 8.23,-4.87 2.22,-1.41 4.48,-1.76 5.86,-4.21 -0.66,-0.63 -1.34,-1.23 -2.04,-1.8 1.19,-0.81 2.18,-1.82 3.27,-2.76z" fill="#659089"/>
  <path d="m85.82,131.018c0.32,2.69 0.33,1.58 2.31,1.1l1.87,0.53c-2.06,0.94 -3.02,1.85 -5.3,0.71 0.37,-0.78 0.75,-1.56 1.12,-2.34z" fill="#446a65"/>
  <path d="m90,132.648c1.79,0.63 3.21,0.99 5.14,0.79 -1.63,1.33 -3.06,2.83 -4.45,4.4 -2.25,2.56 -5.64,3.35 -7.81,6.07 -3.58,0.79 -7.06,2.64 -10.22,4.47 -2.68,-0.65 -5.25,-1.57 -7.74,-2.76 1.06,-2 1.5,-3.83 3.74,-4.83 2.82,-1.21 3.7,-4.14 6.91,-2.26 1.13,-3.22 6.3,-3.85 9.13,-5.17 2.28,1.14 3.24,0.23 5.3,-0.71z" fill="#66938b"/>
  <path d="m95.14,133.438 l0.92,-0.05c0.7,0.57 1.38,1.17 2.04,1.8 -1.38,2.45 -3.64,2.8 -5.86,4.21 -2.72,1.69 -5.39,3.4 -8.23,4.87l-1.13,-0.36c2.17,-2.72 5.56,-3.51 7.81,-6.07 1.39,-1.57 2.82,-3.07 4.45,-4.4z" fill="#7ba9a2"/>
  <path d="m32.01,135.128c2.04,1.5 3.77,3.24 5.38,5.19 -3.05,0.52 -4.91,-2.51 -5.38,-5.19z" fill="#61867c"/>
  <path d="m65.01,137.298c-2.37,1.71 -4.9,2.65 -7.47,3.99 -0.61,-0.4 -1.22,-0.8 -1.83,-1.2 3.2,-1.38 5.66,-3.33 9.3,-2.79z" fill="#619187"/>
  <path d="m146.16,137.278c-0.96,2.25 -2.59,3.9 -4.21,5.67 -1.94,1.68 -3.39,3.53 -6,4.19 1.68,-2.2 3.74,-4.04 5.53,-6.13 -0.33,-0.59 -0.66,-1.17 -0.99,-1.75 1.86,-0.79 3.74,-1.33 5.67,-1.98z" fill="#6a928d"/>
  <path d="m52.34,138.168c0.48,0.26 0.97,0.52 1.46,0.77 0.64,0.38 1.28,0.76 1.91,1.15 0.61,0.4 1.22,0.8 1.83,1.2 2.06,1.66 4.36,2.88 6.72,4.06 -0.29,0.84 -0.72,1.39 -1.3,1.63 -3,-1.25 -5.25,-2.85 -8.67,-2.31 -2.04,2.6 -3.28,3.55 -6.43,4.67 -2.85,-1.62 -4.93,-3.56 -6.96,-6.1 1.69,0.49 3.47,1.61 5.21,1.37 2.74,-1.72 5.05,-3.22 6.23,-6.44z" fill="#314945"/>
  <path d="m130.75,142.338c0.65,2.38 0.32,4.5 2.34,6.25 -3.72,3.51 -8.87,5.58 -13.11,8.43 -4.79,1.08 -9.21,3.39 -14.02,4.49 -0.25,-0.76 -0.48,-1.52 -0.69,-2.29 -1.33,0.39 -2.34,1.61 -3.36,2.51 -8.42,2.32 -16.36,1.37 -24.82,0.27 -7.72,-1.56 -15.44,-4.18 -22.26,-8.14 -2.34,-1.5 -4.69,-2.95 -6.97,-4.52 3.15,-1.12 4.39,-2.07 6.43,-4.67 3.42,-0.54 5.67,1.06 8.67,2.31 0.58,-0.24 1.01,-0.79 1.3,-1.63l0.66,0.27c2.49,1.19 5.06,2.11 7.74,2.76 7.9,1.9 17.45,4.13 25.44,1.96 8,-1.03 15.44,-3.72 22.58,-7.4 2.09,0.97 4.19,1.44 6.48,1.61 1.23,-0.68 2.35,-1.54 3.59,-2.21z" fill="#3b4f4a"/>
  <path d="m141.95,142.948c1.48,0.56 5.89,0.02 6.01,2.26 -0.06,3.6 -2.49,5.61 1.19,8.25 -0.73,1.63 0.07,1.64 1.03,2.9 -2.25,1.55 -4.51,3.01 -7.06,4.03 0.21,-2.18 0.95,-1.91 2.65,-2.74 -3.27,-2.36 -6.24,-2.34 -7.05,-6.99 -2.17,1.97 -3.22,-0.48 -5.92,0.72 0.71,-1.09 1.4,-2.19 2.09,-3.3l1.06,-0.94c2.61,-0.66 4.06,-2.51 6,-4.19z" fill="#4e7f81"/>
  <path d="m82.88,143.908 l1.13,0.36c-3.41,2.52 -7.14,3.76 -11.35,4.11 3.16,-1.83 6.64,-3.68 10.22,-4.47z" fill="#78a49f"/>
  <path d="m133.09,148.588 l1.8,-0.51c-0.69,1.11 -1.38,2.21 -2.09,3.3 -1.65,1.23 -5.87,1 -3.28,3.59 -3.28,1.12 -6.14,3.45 -9.54,2.05 4.24,-2.85 9.39,-4.92 13.11,-8.43z" fill="#62908c"/>
  <path d="m138.72,150.658c0.81,4.65 3.78,4.63 7.05,6.99 -1.7,0.83 -2.44,0.56 -2.65,2.74 -14.19,12.24 -33.27,19.13 -51.99,18.69l-1.09,-1.06c0.56,-4.03 -0.01,-8.48 -0.67,-12.48 -0.81,-0.45 -1.64,-0.87 -2.49,-1.26 5.37,-0.12 10.59,0.11 15.83,-1.35l-0.8,-1.2c1.02,-0.9 2.03,-2.12 3.36,-2.51 0.21,0.77 0.44,1.53 0.69,2.29 1.84,1.3 4.03,0 5.95,-0.43 2.96,-1.13 6.44,-0.96 8.07,-4.06 3.4,1.4 6.26,-0.93 9.54,-2.05 -2.59,-2.59 1.63,-2.36 3.28,-3.59 2.7,-1.2 3.75,1.25 5.92,-0.72z" fill="#518686"/>
  <path d="m179.17,150.288c-2.07,1.66 -5.91,0.57 -8.39,0.53 2.77,-0.89 5.53,-0.7 8.39,-0.53z" fill="#78a49f"/>
  <path d="m54.83,153.858c6.82,3.96 14.54,6.58 22.26,8.14l-0.04,0.96c-7.48,-1.1 -15.11,-3.43 -21.68,-7.21 -0.94,-0.36 -1.12,-0.99 -0.54,-1.89z" fill="#6a8e84"/>
  <path d="m119.98,157.018c-1.63,3.1 -5.11,2.93 -8.07,4.06 -1.92,0.43 -4.11,1.73 -5.95,0.43 4.81,-1.1 9.23,-3.41 14.02,-4.49z" fill="#6b9796"/>
  <path d="m77.09,161.998c8.46,1.1 16.4,2.05 24.82,-0.27l0.8,1.2c-5.24,1.46 -10.46,1.23 -15.83,1.35 -3.34,-0.09 -6.56,-0.74 -9.83,-1.32z" fill="#769e96"/>
  <path d="m78.78,178.478c3.75,-0.39 7.5,-0.36 11.26,-0.46l1.09,1.06c-4.06,-0.02 -8.46,0.5 -12.35,-0.6z" fill="#435552"/>
</svg>
