<?xml version="1.0" ?>
<svg xmlns="http://www.w3.org/2000/svg" width="179.06595" height="178.66283" viewBox="0 0 179.06595 178.66283">
  <path d="m95.993,0.01c3.83,0.19 8.13,0.13 11.71,1.64 0.4,10.37 -3.31,21.22 -8.87,29.87 -2.58,4.42 -6.24,7.68 -9.67,11.4 -0.48,2.26 -1.75,4.21 -0.95,6.51 1.58,0.61 2.77,0.79 3.53,-1 5.59,-10.56 12.69,-20.81 17.36,-31.77 1.04,-4.59 2.76,-9.27 3.24,-13.97 7.33,2.51 14.4,5.83 21.17,9.57 1.91,2.18 2.18,2.6 5.17,3.17 -2.13,0.98 -2.55,4.16 -4.22,5.71 -6.17,8.61 -14.22,15.95 -22.45,22.55 -2.93,2.79 -6.81,5.38 -8.88,8.88 1.62,1.79 4.28,0.1 5.88,-0.87 6.99,-5.03 13.42,-11.47 19.86,-17.15 4.91,-5.31 7.96,-11.43 11.47,-17.64 2.41,2.08 3.92,4.51 7.21,5.3 3.8,0.96 7.14,2.59 10.66,4.24 2.28,1.04 7.51,-0.29 7.95,3.07 -4.99,4.31 -9.31,8.92 -14.11,13.25 -5.26,5.03 -12,8.76 -18.94,10.9 -4.97,2.18 -10.11,1.08 -14.99,4.09 -1.87,0.99 -1.16,3.35 0.39,4.35 1.89,2.43 4.69,-0.43 6.87,-1.01 3.23,-0.92 6.02,-2.63 9.14,-3.83 4.36,-2.18 8.44,-5.51 12.93,-7.35 4.58,-2.32 9.13,-4.35 12.95,-7.89 3.9,-3.76 7.44,-7.93 10.92,-12.09 0.53,-0.46 1.13,-0.85 1.78,-1.16 2.02,-0.1 3.77,0.56 5.65,1.2 0.42,3.52 0.2,7.16 0.11,10.7 -0.06,1.58 -1.14,3.34 -0.67,4.85 1.16,3.95 1.13,8.31 0.11,12.29 -0.37,1.61 0.52,3.31 0.4,4.99 -1.5,1.64 -4.23,2.46 -6.27,3.29 -13.41,6.21 -30.37,5.6 -44.46,8.25 -1.27,0.1 -1.54,0.83 -0.79,2.18 4.67,0.96 10.3,-0.1 15.07,-0.58 2.07,2.42 3.11,2.42 6.22,2.04 1.63,-1.14 2.85,-2.02 4.93,-2.14 2.06,-2.62 4.64,-2.16 7.59,-2.83 6.07,-1.24 11.3,-3.92 16.71,-6.8 1.48,1.92 0.37,3.3 0.27,5.43 -0.23,3.69 -0.06,7.37 0.52,11.02 -0.19,1.68 -0.65,3.29 -0.68,5 -0.2,2.58 1.34,4.72 1,7.34 -5.17,0.92 -10.62,0.56 -15.85,0.69 -3.88,-1.59 -8.09,-1.43 -12.01,-2.95 -3.97,-1.53 -8.18,-1.18 -12.05,-2.97 -3.14,-1.62 -6.53,-1.26 -9.71,-2.9 0.15,1.42 -0.23,2.5 1.16,3.37 6.38,2.03 12.7,3.9 19.13,5.74 6.58,1.15 12.71,3.34 19.49,3.25 3.04,0.48 6.47,-0.43 9.32,0.28 1.49,3.46 -0.69,6.31 0,9.88 0.28,1.71 -0.78,3.56 -0.23,5.19 1.17,3.62 0.88,7.2 0.72,10.93 -1.21,2.24 -1.4,1.78 -3.56,0.88 -3.23,-1.85 -6.76,-1.33 -10.09,-2.82 -2.23,-0.9 -4.5,-1.17 -6.52,-2.55 -2.71,-1.25 -4.7,-3.44 -7.52,-4.4 -4.24,-3.3 -8.6,-5.92 -12.82,-9.26 -1.49,-1.01 -5.62,-3.08 -4.96,-5.28 1.74,-0.82 3.44,-0.63 2.49,-3.18 -3.18,0.02 -6.34,0.93 -9.42,1.24 1.8,1.13 2.11,3.02 3.82,4.32 7.01,8 15.94,14.61 25.15,19.86 5.74,3.04 12.15,5.83 18.65,6.56 0.9,0.07 1.63,0.36 2.2,0.89 -1.14,1.96 -1.92,4.08 -3.27,5.92 0.19,1.15 1.82,1.69 2.6,2.48 1.15,0.81 1.65,2.34 2.33,3.56 -0.67,2.17 -2.75,4.26 -4.04,6.17 -3.46,0.63 -6.95,0.61 -10.4,1.27 -2.78,0.6 -5.42,1.71 -8.2,2.35 -0.9,-0.75 -1.87,-1.17 -2.91,-1.25 -0.71,-1.18 -1.7,-1.5 -2.87,-2.09 -12.29,-9.34 -21.46,-22.83 -26.99,-37.12 -0.82,-0.7 -1.37,-0.49 -1.66,0.61 -0.83,1.8 1.54,4.33 1.92,6.23 5.91,12.77 13.48,26.71 25.79,34.38 -0.88,1.28 -0.93,2.68 -2.6,3.1 -3.14,0.9 -4.35,3.41 -6.84,5.31 -1.12,0.64 -2.45,0.86 -3.62,1.39 -2.31,2.81 -5.37,4.17 -8.24,6.29 -3.97,-6.48 -8.32,-13.34 -10.42,-20.69 -2.02,-5.22 -2.42,-10.63 -3.67,-16.01 -0.28,-3.51 -1.15,-7.23 -0.7,-10.73 -1.28,-0.52 -1.85,0.53 -2.81,1.17 0.81,16.21 4.78,33.4 13.53,47.23 -5.49,2.85 -11.4,4.87 -17.53,5.78 -2.87,0.35 -5.2,1.42 -7.94,1.09 -1.5,-2.59 -1.11,-6.1 -1.6,-9.02 0.24,-7.46 -0.43,-15.86 1.48,-23.05 1.86,-5.74 4.21,-12.43 4.84,-18.32 -1.24,-0.29 -2.04,0.01 -2.39,0.91 -2.54,7.19 -4.64,13.99 -6.36,21.44 -3.24,9.19 -3.2,18.61 -2.23,28.18 -3.59,0.45 -7,0.49 -10.5,-0.52 -4.27,-0.48 -8.51,-0.56 -12.71,-1.62 -0.17,-8.76 3.16,-16.02 6.57,-23.8 1.83,-4.62 5.27,-8.04 7.73,-12.27 2.33,-2.79 4.23,-5.81 6.66,-8.48l-0.11,-1.03c-2.72,-0.76 -3.62,1.24 -5.2,2.92 -8.16,9.99 -15.08,21.2 -20.06,33.09 -0.73,2.36 -1.2,4.8 -1.98,7.16 -4.38,-1.53 -9.11,-3.3 -12.77,-6.19 -2.39,-1.05 -4.54,-1.61 -6.34,-3.66 -1.5,-1.71 -3.91,-1.69 -5.41,-3.26l0.83,0.39c1.23,-0.61 1.41,-2.9 2.24,-4.05 3.53,-4.56 6.85,-9.04 11.62,-12.42 3.46,-3.42 7.61,-5.67 11.58,-8.37 3.86,-2.26 7.14,-5.06 11.44,-6.51 0.41,-1.39 -2.28,-1.71 -3.08,-2.52 -6.68,4.59 -12.64,8.59 -19.29,13.11 -6.45,4.14 -12.1,9.21 -16.25,15.7 -1.32,0.76 -2.09,0.86 -2.41,2.5 -1.92,-1 -2.81,-2.7 -4.98,-3.14 -1.49,-0.33 -2.69,-1.14 -4.02,-1.83 -2.31,-0.82 -4.84,-0.97 -7.21,-1.64 -3.35,-0.84 -6.4,-2.07 -9.87,-1.87 5.75,-5.04 11.59,-10.14 17.52,-14.99 4.71,-3.09 8.73,-6.09 14.09,-7.7 4.53,-1.13 8.79,-2.6 13.52,-2.67 2.22,-0.16 6.09,-2.43 6.04,-4.93 -0.78,-0.87 -1.55,-1.76 -2.4,-2.56 -1.11,-0.04 -2.34,1.29 -3.33,1.78 -9.5,4.86 -19.92,6.89 -29.45,12.51 -7.19,4.39 -13.44,9.83 -19.6,15.53 -1.05,1.55 -2.36,1.34 -4.05,1.67 -0.33,-1.8 -0.15,-3.51 0.08,-5.31 0.23,-5.85 -0.18,-11.74 0.03,-17.59 3.37,-0.79 5.6,-1.17 7.71,-4.19 0.21,-1.47 0.25,-2.98 -1.15,-3.86 -1.2,-1.42 -3.57,-0.36 -5.28,-0.8 0.02,-1.64 2.25,-1.55 3.4,-2.38 9.71,-2.83 19.86,-5.15 29.98,-5.81 5.12,0.32 10,0.79 14.8,-1.44 -0.05,-1.01 -0.31,-2.02 -0.77,-3.02 -5.84,-0.24 -13.11,1.23 -19.03,1.56 -6.88,0.95 -13.74,0.56 -20.83,2.27 -2.93,0.93 -6.01,1.03 -8.88,2.32 -0.2,-8.94 -0.56,-17.98 0.08,-26.89 9.02,-0.57 17.81,0.88 26.46,3.3 2.02,0.76 3.88,1.69 6.08,1.84 3.34,2.06 8.1,4.36 12.06,3.89 0.17,-0.86 0.08,-1.75 -0.25,-2.67 -14.27,-4.19 -29.3,-10.2 -44.29,-10.99 0.13,-7.68 -0.78,-15.52 -0.12,-23.15 0.23,-1.03 0.72,-1.71 1.46,-2.04 3.67,1.42 7.49,1.4 11.07,3.1 5.26,1.52 10.06,4.06 14.67,6.98 -0.49,0.5 -0.89,1.04 -1.2,1.62 0.32,0.98 0.69,1.92 1.11,2.85 1.64,-0.07 1.94,-1.15 2.69,-2.36l0.63,0.02c3.26,3.09 6.62,6.02 9.7,9.31 2.06,1.54 3.61,3.32 6.38,3.16 0.65,-0.41 0.87,-0.88 0.68,-1.42 -2.86,-2.82 -6.23,-4.91 -8.62,-8.2 -3.62,-3.03 -4.67,-6.95 -8.75,-9.26 -2.03,-1.74 -4.18,-3.12 -6.63,-4.2 -4.24,-0.77 -7.88,-2.58 -11.53,-4.75 -3.8,-1.32 -7.51,-2.61 -11.42,-3.57 -0.41,-5.96 -0.5,-12.04 -0.1,-18 3.8,-0.67 7.73,-0.51 11.55,-1.32 2.53,-0.64 5.51,-0.23 7.79,-1.31 1.03,1.57 2.1,2.05 2.19,4.17 0.59,-0.21 1.18,-0.33 1.76,-0.36 6.18,5.48 13.16,11.06 17.92,17.85 2.83,4.43 4.22,8.87 6.16,13.73 1.14,1.96 2.95,3.49 4.29,5.32 0.72,0.05 1.33,-0.46 1.82,-1.53 -1.57,-4.1 -3.61,-8.2 -5.76,-12.03 -3.7,-7.86 -8.66,-15.04 -14.72,-21.27 -2.96,-2.59 -5.78,-6.22 -9.35,-7.47l-2.14,0.8c1.75,-0.88 3.6,-1.43 5.47,-1.96l-0.33,1.17 0.47,1.07c0.88,0.32 5.01,-3.99 1.62,-3.27 1.78,-1.57 4.55,-1.78 6.36,-3.38 1.86,-1.58 3.64,-3.13 5.84,-4.23 2.31,-1.22 3.96,-3.41 6.35,-4.4 3.74,5.03 6.51,10.79 8.71,16.64 1.33,2.98 1.99,6.18 2.05,9.44 0.19,2.97 -0.94,5.71 -0.7,8.7 -1.83,1.55 -3.35,2.31 -2.54,5.04 1.16,0.13 2.27,0.31 3.32,0.54 0.32,2.16 1.11,5.47 2.45,7.07l1.53,-0.74c0.47,-4.78 -0.33,-9.82 -0.6,-14.61 -1.33,-8.69 -2.23,-16.74 -6.1,-24.84 -1.23,-3.14 -2.9,-6 -4.67,-8.87 2.75,-2.16 6.39,-3.06 9.56,-4.51 5.44,-1.49 10.46,-3.63 16.17,-3.96 2.84,9.61 3.81,20.39 1.37,30.2 -0.98,4.38 -4.4,7.68 -5.28,11.98 -1.65,2.97 -1.16,5.98 -0.98,9.22 0.64,0.81 3.77,-0.34 4,-1.28 1.99,-6.17 3.03,-12.41 4.25,-18.76 1.48,-5.64 1.27,-11.61 2.53,-17.34 0.35,-4.72 0.63,-9.78 -0.86,-14.3 4.66,-0.38 9.37,-0.11 14.05,-0.2z" fill="#202123"/>
  <path d="m76.913,0.49c1.68,-0.1 3.35,-0.1 5.03,-0.28 1.49,4.52 1.21,9.58 0.86,14.3 -1.26,5.73 -1.05,11.7 -2.53,17.34 -1.22,6.35 -2.26,12.59 -4.25,18.76 -0.23,0.94 -3.36,2.09 -4,1.28 -0.18,-3.24 -0.67,-6.25 0.98,-9.22 0.88,-4.3 4.3,-7.6 5.28,-11.98 2.44,-9.81 1.47,-20.59 -1.37,-30.2z" fill="#d1d4d8"/>
  <path d="m107.703,1.65c1.63,-0.09 3.02,0.63 4.64,1.04 -0.48,4.7 -2.2,9.38 -3.24,13.97 -4.67,10.96 -11.77,21.21 -17.36,31.77 -0.76,1.79 -1.95,1.61 -3.53,1 -0.8,-2.3 0.47,-4.25 0.95,-6.51 3.43,-3.72 7.09,-6.98 9.67,-11.4 5.56,-8.65 9.27,-19.5 8.87,-29.87z" fill="#d1d4d8"/>
  <path d="m51.183,8.96c1.77,2.87 3.44,5.73 4.67,8.87 3.87,8.1 4.77,16.15 6.1,24.84 0.27,4.79 1.07,9.83 0.6,14.61l-1.53,0.74c-1.34,-1.6 -2.13,-4.91 -2.45,-7.07 -1.05,-0.23 -2.16,-0.41 -3.32,-0.54 -0.81,-2.73 0.71,-3.49 2.54,-5.04 -0.24,-2.99 0.89,-5.73 0.7,-8.7 -0.06,-3.26 -0.72,-6.46 -2.05,-9.44 -2.2,-5.85 -4.97,-11.61 -8.71,-16.64 1.28,-0.57 1.96,-1.6 3.45,-1.63z" fill="#d1d4d8"/>
  <path d="m138.683,15.43 l1.66,1.48c-3.51,6.21 -6.56,12.33 -11.47,17.64 -6.44,5.68 -12.87,12.12 -19.86,17.15 -1.6,0.97 -4.26,2.66 -5.88,0.87 2.07,-3.5 5.95,-6.09 8.88,-8.88 8.23,-6.6 16.28,-13.94 22.45,-22.55 1.67,-1.55 2.09,-4.73 4.22,-5.71z" fill="#d1d4d8"/>
  <path d="m29.183,22.6c3.39,-0.72 -0.74,3.59 -1.62,3.27l-0.47,-1.07 0.33,-1.17z" fill="#d1d4d8"/>
  <path d="m19.783,26.38 l2.17,-0.79 2.14,-0.8c3.57,1.25 6.39,4.88 9.35,7.47 6.06,6.23 11.02,13.41 14.72,21.27 2.15,3.83 4.19,7.93 5.76,12.03 -0.49,1.07 -1.1,1.58 -1.82,1.53 -1.34,-1.83 -3.15,-3.36 -4.29,-5.32 -1.94,-4.86 -3.33,-9.3 -6.16,-13.73 -4.76,-6.79 -11.74,-12.37 -17.92,-17.85 -0.58,0.03 -1.17,0.15 -1.76,0.36 -0.09,-2.12 -1.16,-2.6 -2.19,-4.17z" fill="#d1d4d8"/>
  <path d="m167.843,28.18c1.82,-0.07 3.48,0.67 5.26,0.6 -0.65,0.31 -1.25,0.7 -1.78,1.16 -3.48,4.16 -7.02,8.33 -10.92,12.09 -3.82,3.54 -8.37,5.57 -12.95,7.89 -4.49,1.84 -8.57,5.17 -12.93,7.35 -3.12,1.2 -5.91,2.91 -9.14,3.83 -2.18,0.58 -4.98,3.44 -6.87,1.01 -1.55,-1 -2.26,-3.36 -0.39,-4.35 4.88,-3.01 10.02,-1.91 14.99,-4.09 6.94,-2.14 13.68,-5.87 18.94,-10.9 4.8,-4.33 9.12,-8.94 14.11,-13.25 0.54,-0.48 1.1,-0.92 1.68,-1.34z" fill="#d1d4d8"/>
  <path d="m114.153,31.88c1.04,-0.04 2.05,0.03 3.04,0.21 0.04,1.08 0.12,2.16 0.24,3.23 -1.33,0.87 -3.72,-2.15 -3.28,-3.44z" fill="#d1d4d8"/>
  <path d="m128.223,39.08c0.39,2.39 0.57,2.52 2.72,3.37 -1.37,1.47 -4,0.28 -5.63,-0.18 0.12,-1.13 1.77,-3.12 2.91,-3.19z" fill="#d1d4d8"/>
  <path d="m0.543,47.01c3.91,0.96 7.62,2.25 11.42,3.57 3.65,2.17 7.29,3.98 11.53,4.75 2.45,1.08 4.6,2.46 6.63,4.2 4.08,2.31 5.13,6.23 8.75,9.26 2.39,3.29 5.76,5.38 8.62,8.2 0.19,0.54 -0.03,1.01 -0.68,1.42 -2.77,0.16 -4.32,-1.62 -6.38,-3.16 -3.08,-3.29 -6.44,-6.22 -9.7,-9.31l-0.63,-0.02c-0.75,1.21 -1.05,2.29 -2.69,2.36 -0.42,-0.93 -0.79,-1.87 -1.11,-2.85 0.31,-0.58 0.71,-1.12 1.2,-1.62 -4.61,-2.92 -9.41,-5.46 -14.67,-6.98 -3.58,-1.7 -7.4,-1.68 -11.07,-3.1 -0.74,0.33 -1.23,1.01 -1.46,2.04 0.3,-2.89 -0.16,-5.84 0.24,-8.76z" fill="#d1d4d8"/>
  <path d="m134.433,46.9c0.97,-0.56 1.4,-0.32 1.31,0.73l-0.75,0.47 -0.63,-0.46z" fill="#d1d4d8"/>
  <path d="m29.053,49.67c0.69,-0.93 3.75,0.25 1.82,1.04 -1.4,0.53 -2.01,0.18 -1.82,-1.04z" fill="#d1d4d8"/>
  <path d="m42.983,53.5c-0.79,0.39 -1.71,0.36 -2.76,-0.09 -0.63,-1.7 3.69,-2.02 2.76,0.09z" fill="#d1d4d8"/>
  <path d="m84.223,59.41c1.34,-1.21 2.24,-1.81 4.04,-1.01 2.37,0.97 2.69,2.98 4.12,4.84 1.22,0.27 2.58,-1.39 3.64,-1.89 1.87,0.42 0.71,1.96 0.49,3.14 3.81,1.78 6.49,4.79 10.6,5.93 4.1,2.3 5.7,9.09 6.94,13.31 0.44,0.91 -0.21,4.39 0.63,4.58 0.13,-1.86 0.06,-3.7 0.23,-5.54l0.83,-0.01c0.22,1.92 0.49,3.95 0.24,5.88 -0.74,2.4 -2,4.76 -2.61,7.2 -0.32,1.45 0.3,2.99 0.15,4.47 -0.71,0.91 -1.47,1.73 -1.9,2.82 -1.89,4.61 -4.87,8.64 -8.97,11.51 0.6,0.5 1.2,1.01 1.8,1.52 -3.02,2.57 -5.73,4.75 -9.97,4.35 0.09,-0.59 0.18,-1.18 0.28,-1.78 -2.57,0.22 -4.75,2.33 -7.38,2.65 -1.79,0.23 -3.17,0.91 -4.68,1.86 -1.26,0.34 -2.78,-0.82 -3.62,-1.66 0.29,-1.15 1.79,-1.22 1.55,-2.39 -2.07,-0.93 -4.82,-1.09 -6.49,-2.63 -1.82,-1.59 -3.81,-2.88 -5.82,-4.2 -2.3,-1.52 -3.03,-4.17 -5.58,-5.47 -2.69,-1.1 -3.97,-4.63 -4.63,-7.22 0.58,-2.01 1.13,-3.88 1.05,-6.01 0.11,-5.68 1.81,-10.83 3.6,-16.14 1.62,-4.18 4.99,-6.02 7.72,-9.31 0.33,-0.7 0.42,-1.39 0.24,-2.06 -0.8,-0.28 -1.6,-0.57 -2.4,-0.86 0.63,-1.41 1.36,-2.8 2.12,-4.14 2.53,-0.86 5.1,-1.17 7.44,-2.57 1.82,-0.97 5.29,-1.53 6.34,0.83z" fill="#3d3d41"/>
  <path d="m101.083,62.66c2.75,-0.49 6.47,-1.01 8.4,1.53 1.11,1.29 2.75,3.56 2.26,5.34 -0.45,0.28 -0.9,0.54 -1.37,0.77 -0.56,-1.02 -0.82,-2.34 -1.61,-3.2 -2.91,-0.35 -6.2,-1.88 -7.68,-4.44z" fill="#3d3d41"/>
  <path d="m178.703,62.81c0.06,0.93 0.11,1.85 0.17,2.78l-1.17,0.63c-5.41,2.88 -10.64,5.56 -16.71,6.8 -2.95,0.67 -5.53,0.21 -7.59,2.83 -2.08,0.12 -3.3,1 -4.93,2.14 -3.11,0.38 -4.15,0.38 -6.22,-2.04 -4.77,0.48 -10.4,1.54 -15.07,0.58 -0.75,-1.35 -0.48,-2.08 0.79,-2.18 14.09,-2.65 31.05,-2.04 44.46,-8.25 2.04,-0.83 4.77,-1.65 6.27,-3.29z" fill="#d1d4d8"/>
  <path d="m6.383,72.17c1.04,0.48 2.14,0.53 3.31,0.15 -0.07,0.53 -0.17,1.07 -0.29,1.6 -1.37,1.32 -2.54,0.75 -4.21,0.97 -1.22,0.52 -1.94,1.04 -3.2,0.28 1.67,-0.86 3.2,-1.46 4.39,-3z" fill="#d1d4d8"/>
  <path d="m61.973,74.69c0.56,1.97 -0.92,4.7 -1.2,6.79 -1.71,1.29 -4.55,0.38 -5.14,-1.78 0.53,-1.51 1.55,-2.63 2.64,-3.76 1.21,-1.07 1.93,-2.33 3.7,-1.25z" fill="#3d3d41"/>
  <path d="m0.423,78.92c14.99,0.79 30.02,6.8 44.29,10.99 0.33,0.92 0.42,1.81 0.25,2.67 -3.96,0.47 -8.72,-1.83 -12.06,-3.89 -2.2,-0.15 -4.06,-1.08 -6.08,-1.84 -8.65,-2.42 -17.44,-3.87 -26.46,-3.3 0.06,-1.55 0.04,-3.09 0.06,-4.63z" fill="#d1d4d8"/>
  <path d="m129.193,86.88c3.18,1.64 6.57,1.28 9.71,2.9 3.87,1.79 8.08,1.44 12.05,2.97 3.92,1.52 8.13,1.36 12.01,2.95 5.23,-0.13 10.68,0.23 15.85,-0.69 -0.06,1.45 0.43,3.34 -0.52,4.51 -2.85,-0.71 -6.28,0.2 -9.32,-0.28 -6.78,0.09 -12.91,-2.1 -19.49,-3.25 -6.43,-1.84 -12.75,-3.71 -19.13,-5.74 -1.39,-0.87 -1.01,-1.95 -1.16,-3.37z" fill="#d1d4d8"/>
  <path d="m10.013,95.66c-2.09,-0.67 -2.88,-0.28 -4.9,-0.26 0.92,-2.18 4.66,-1.92 4.9,0.26z" fill="#d1d4d8"/>
  <path d="m135.803,98.91c0.95,2.55 -0.75,2.36 -2.49,3.18 -0.66,2.2 3.47,4.27 4.96,5.28 4.22,3.34 8.58,5.96 12.82,9.26 2.82,0.96 4.81,3.15 7.52,4.4 2.02,1.38 4.29,1.65 6.52,2.55 3.33,1.49 6.86,0.97 10.09,2.82 2.16,0.9 2.35,1.36 3.56,-0.88 -0.02,7.54 0.31,17.14 -0.13,24.44 -1.62,-0.24 -3.21,0.02 -4.83,-0.05 1.29,-1.91 3.37,-4 4.04,-6.17 -0.68,-1.22 -1.18,-2.75 -2.33,-3.56 -0.78,-0.79 -2.41,-1.33 -2.6,-2.48 1.35,-1.84 2.13,-3.96 3.27,-5.92 -0.57,-0.53 -1.3,-0.82 -2.2,-0.89 -6.5,-0.73 -12.91,-3.52 -18.65,-6.56 -9.21,-5.25 -18.14,-11.86 -25.15,-19.86 -1.71,-1.3 -2.02,-3.19 -3.82,-4.32 3.08,-0.31 6.24,-1.22 9.42,-1.24z" fill="#d1d4d8"/>
  <path d="m117.023,100.28c3.46,0.97 -0.34,7.31 -1.97,8.66l-0.85,-0.38c0.1,-2.72 0.63,-6.42 2.82,-8.28z" fill="#3d3d41"/>
  <path d="m159.023,103.96c1.19,0.03 2.72,-0.44 2.51,1.3 -1.85,1.03 -4.67,-0.5 -6.56,-1.03 1.28,-0.34 2.72,-0.09 4.05,-0.27z" fill="#d1d4d8"/>
  <path d="m49.023,104.29c0.46,1 0.72,2.01 0.77,3.02 -4.8,2.23 -9.68,1.76 -14.8,1.44 -10.12,0.66 -20.27,2.98 -29.98,5.81 -1.15,0.83 -3.38,0.74 -3.4,2.38 1.71,0.44 4.08,-0.62 5.28,0.8 1.4,0.88 1.36,2.39 1.15,3.86 -2.11,3.02 -4.34,3.4 -7.71,4.19 0.06,-5.1 0.21,-10.27 -0.05,-15.35 2.87,-1.29 5.95,-1.39 8.88,-2.32 7.09,-1.71 13.95,-1.32 20.83,-2.27 5.92,-0.33 13.19,-1.8 19.03,-1.56z" fill="#d1d4d8"/>
  <path d="m62.263,110.86c2.13,0.15 4.26,2.49 5.76,3.9l-0.26,1.7c-1.99,-1.33 -6.63,-2.52 -5.5,-5.6z" fill="#3d3d41"/>
  <path d="m122.453,113.07c5.53,14.29 14.7,27.78 26.99,37.12 1.17,0.59 2.16,0.91 2.87,2.09 1.04,0.08 2.01,0.5 2.91,1.25 -2.87,0.53 -4.15,3.66 -6.72,0.76 -12.31,-7.67 -19.88,-21.61 -25.79,-34.38 -0.38,-1.9 -2.75,-4.43 -1.92,-6.23 0.29,-1.1 0.84,-1.31 1.66,-0.61z" fill="#d1d4d8"/>
  <path d="m114.853,113.7c0.18,1.57 -0.11,2.99 -0.43,4.51 -1.05,0.95 -1.81,1.25 -2.27,0.92 -0.15,-2.59 1.88,-1.98 1.31,-4.26 0.42,-0.46 0.88,-0.85 1.39,-1.17z" fill="#d1d4d8"/>
  <path d="m56.653,117.2c0.85,0.8 1.62,1.69 2.4,2.56 0.05,2.5 -3.82,4.77 -6.04,4.93 -4.73,0.07 -8.99,1.54 -13.52,2.67 -5.36,1.61 -9.38,4.61 -14.09,7.7 -5.93,4.85 -11.77,9.95 -17.52,14.99 -2.46,-0.18 -4.94,-0.2 -7.41,-0.08l-0.25,-1.28c1.69,-0.33 3,-0.12 4.05,-1.67 6.16,-5.7 12.41,-11.14 19.6,-15.53 9.53,-5.62 19.95,-7.65 29.45,-12.51 0.99,-0.49 2.22,-1.82 3.33,-1.78z" fill="#d1d4d8"/>
  <path d="m112.413,122.95c-0.45,3.5 0.42,7.22 0.7,10.73 1.25,5.38 1.65,10.79 3.67,16.01 2.1,7.35 6.45,14.21 10.42,20.69 -1.24,0.54 -2.51,0.8 -3.59,1.65l-0.48,-0.68c-8.75,-13.83 -12.72,-31.02 -13.53,-47.23 0.96,-0.64 1.53,-1.69 2.81,-1.17z" fill="#d1d4d8"/>
  <path d="m71.913,127.22c0.8,0.81 3.49,1.13 3.08,2.52 -4.3,1.45 -7.58,4.25 -11.44,6.51 -3.97,2.7 -8.12,4.95 -11.58,8.37 -4.77,3.38 -8.09,7.86 -11.62,12.42 -0.83,1.15 -1.01,3.44 -2.24,4.05l-0.83,-0.39c-0.96,-1.14 -2.06,-1.51 -3.32,-2.17 0.32,-1.64 1.09,-1.74 2.41,-2.5 4.15,-6.49 9.8,-11.56 16.25,-15.7 6.65,-4.52 12.61,-8.52 19.29,-13.11z" fill="#d1d4d8"/>
  <path d="m102.383,127.83c-0.63,5.89 -2.98,12.58 -4.84,18.32 -1.91,7.19 -1.24,15.59 -1.48,23.05 0.49,2.92 0.1,6.43 1.6,9.02 -2.1,0.26 -4.16,0.47 -6.26,0.14 -0.97,-9.57 -1.01,-18.99 2.23,-28.18 1.72,-7.45 3.82,-14.25 6.36,-21.44 0.35,-0.9 1.15,-1.2 2.39,-0.91z" fill="#d1d4d8"/>
  <path d="m93.413,129.95c0.7,0.34 1.97,0.28 2.05,1.24 -1.07,1.9 -0.98,3.86 -1.37,5.96 -0.64,2.35 -1.56,4.53 -1.97,6.97l-0.55,0.18c0.62,-4.8 1.69,-9.5 1.84,-14.35z" fill="#d1d4d8"/>
  <path d="m89.043,130.64 l0.11,1.03c-2.43,2.67 -4.33,5.69 -6.66,8.48 -2.46,4.23 -5.9,7.65 -7.73,12.27 -3.41,7.78 -6.74,15.04 -6.57,23.8 -1.89,-0.67 -5.05,-0.87 -6.39,-2.41 0.78,-2.36 1.25,-4.8 1.98,-7.16 4.98,-11.89 11.9,-23.1 20.06,-33.09 1.58,-1.68 2.48,-3.68 5.2,-2.92z" fill="#d1d4d8"/>
</svg>
