<?xml version="1.0" ?>
<svg xmlns="http://www.w3.org/2000/svg" width="179.10626" height="179.09436" viewBox="0 0 179.10626 179.09436">
  <path d="m75.89,0h27.69l-0.74,0.55c-4.36,7.83 -4.13,22.95 -5.79,32.44 -2.22,18.22 -3.2,32.44 -5.08,51.03 0.46,4.06 -3.16,10.97 -0.83,14.09 0.68,0.43 1.42,0.75 2.17,1.1 -3.05,3.67 -1.56,2.38 1.94,3.64 -1.77,0.05 -3.54,0.15 -5.31,0.24l-1.7,0.04c-29.37,-0.3 -58.75,-0.04 -88.13,-0.13v-1C29.3,101.98 58.58,102.04 87.76,101.98c-1.23,-1.51 -2.53,-2.97 -3.79,-4.47 2.87,-0.34 -0.62,-5.18 -0.73,-6.71l0.86,0.18c1.01,1.37 1.98,2.73 3.08,4.03 2.3,-5.65 -1.9,-19.76 -1.98,-27.01 -1.76,-17.85 -3.06,-35.46 -5.8,-53.19 -1.7,-4.06 1.52,-14.39 -4.49,-14.48z" fill="#90a589"/>
  <path d="m74.91,0.33c6.01,0.09 2.79,10.42 4.49,14.48 2.74,17.73 4.04,35.34 5.8,53.19 0.08,7.25 4.28,21.36 1.98,27.01 -6.97,-30.7 -16.41,-61.09 -23.19,-91.83 3.59,-1.21 7.28,-1.85 10.92,-2.85z" fill="#afb3ac"/>
  <path d="m102.84,0.55c4.69,0.42 9.15,1.54 13.59,3.09 -6.25,13.51 -7.68,29.17 -12.39,43.36 -4.31,19.02 -9.23,33.03 -12.9,51.11 -2.33,-3.12 1.29,-10.03 0.83,-14.09 1.88,-18.59 2.86,-32.81 5.08,-51.03 1.66,-9.49 1.43,-24.61 5.79,-32.44z" fill="#abafa9"/>
  <path d="m63.99,3.18c6.78,30.74 16.22,61.13 23.19,91.83 -1.1,-1.3 -2.07,-2.66 -3.08,-4.03 -5.06,-15.08 -13.52,-30.32 -17.42,-45.65 -6.88,-10.56 -9.6,-23.53 -15.19,-34.8 -0.83,-0.35 -1.66,-0.66 -2.51,-0.94 4.78,-2.69 9.74,-4.89 15.01,-6.41z" fill="#7b8e73"/>
  <path d="m116.43,3.64c4.3,0.92 8.06,2.94 11.87,5.06 -10.85,26.17 -22.63,53.84 -32.22,80.35 14.6,-23.38 27.76,-50.38 41.12,-74.86 3.07,2.48 6.12,4.84 9.69,6.57 -9.06,8.41 -15.09,21.42 -22.69,31.42 -8.77,12.88 -16.1,23.76 -24.75,36.69l0.45,1.51 0.27,0.93c-1.72,3.17 -4.28,5.46 -6.86,7.9 -0.75,-0.35 -1.49,-0.67 -2.17,-1.1 3.67,-18.08 8.59,-32.09 12.9,-51.11 4.71,-14.19 6.14,-29.85 12.39,-43.36z" fill="#72836d"/>
  <path d="m128.3,8.7c3.14,1.54 6.15,3.32 8.9,5.49 -13.36,24.48 -26.52,51.48 -41.12,74.86 9.59,-26.51 21.37,-54.18 32.22,-80.35z" fill="#a9aea6"/>
  <path d="m48.98,9.59c0.85,0.28 1.68,0.59 2.51,0.94 5.59,11.27 8.31,24.24 15.19,34.8 3.9,15.33 12.36,30.57 17.42,45.65l-0.86,-0.18c-14.09,-25.26 -28.29,-50.8 -41.32,-76.64 2.26,-1.67 4.58,-3.24 7.06,-4.57z" fill="#aab1a9"/>
  <path d="m41.92,14.16c13.03,25.84 27.23,51.38 41.32,76.64 0.11,1.53 3.6,6.37 0.73,6.71 -20.37,-23.11 -41.01,-45.15 -61.61,-67.83 -1.67,-1.7 -3.1,-2.49 -5.43,-3.06 3.4,-0.86 6.71,-2 9.99,-3.23 17.48,21.82 34.79,45.77 53.15,66.57 -8.11,-14.12 -18.48,-27.05 -27.07,-40.92 -7.21,-8.69 -12.16,-21.44 -20.84,-28.33 3.41,-1.97 6.6,-4.22 9.76,-6.55z" fill="#5f6a5b"/>
  <path d="m32.16,20.71c8.68,6.89 13.63,19.64 20.84,28.33 8.59,13.87 18.96,26.8 27.07,40.92 -18.36,-20.8 -35.67,-44.75 -53.15,-66.57 1.77,-0.85 3.51,-1.75 5.24,-2.68z" fill="#a9b0a7"/>
  <path d="m146.89,20.76c1.85,0.98 3.66,2.02 5.49,3.04 -17.88,21.65 -35.14,44.41 -52.48,66.58l-0.45,-1.51c8.65,-12.93 15.98,-23.81 24.75,-36.69 7.6,-10 13.63,-23.01 22.69,-31.42z" fill="#a4aca2"/>
  <path d="m152.38,23.8c3.22,1.1 6.47,2.1 9.79,2.85 -4.93,0.75 -8.37,6.54 -11.49,10.01 -17.26,17.76 -33.23,36.91 -50.51,54.65l-0.27,-0.93c17.34,-22.17 34.6,-44.93 52.48,-66.58z" fill="#555f53"/>
  <path d="m16.93,26.62c2.33,0.57 3.76,1.36 5.43,3.06 20.6,22.68 41.24,44.72 61.61,67.83 1.26,1.5 2.56,2.96 3.79,4.47 -29.18,0.06 -58.46,0 -87.65,0.02 0.04,-24.12 -0.38,-48.58 0.2,-72.64C5.85,28.35 11.46,28.02 16.93,26.62Z" fill="#b1b1b0"/>
  <path d="m162.17,26.65c5.48,1.41 11.13,1.39 16.6,2.7 0.64,24.37 0.14,49.21 0.24,73.65 -27.91,-0.1 -55.85,0.2 -83.76,-0.15 -3.5,-1.26 -4.99,0.03 -1.94,-3.64 2.58,-2.44 5.14,-4.73 6.86,-7.9 17.28,-17.74 33.25,-36.89 50.51,-54.65 3.12,-3.47 6.56,-9.26 11.49,-10.01z" fill="#adadac"/>
  <path d="M0.11,103C29.49,103.09 58.87,102.83 88.24,103.13c-16.04,14.78 -38.19,27.54 -53.22,42.65 17.94,1.02 36.19,-0.71 54.02,0.32 0.02,10.95 0,21.91 0.01,32.86 -15.67,0.95 -33.65,-4.29 -46.3,-13.65 -12.16,-9.83 -26.85,-15.34 -42.57,-14.99 -0.29,-15.73 -0.1,-31.58 -0.07,-47.32z" fill="#5f645e"/>
  <path d="m88.24,103.13 l1.7,-0.04c12.75,9.93 25.56,19.78 38.24,29.81 4.21,4.39 12.39,7.56 14.89,12.88 -17.96,0.6 -36.05,-0.07 -54.03,0.32 -17.83,-1.03 -36.08,0.7 -54.02,-0.32 15.03,-15.11 37.18,-27.87 53.22,-42.65z" fill="#555452"/>
  <path d="m89.94,103.09c1.77,-0.09 3.54,-0.19 5.31,-0.24 27.91,0.35 55.85,0.05 83.76,0.15 -0.1,15.5 0.4,31.18 -0.22,46.65 -15.57,1.34 -28.98,4.76 -41.3,14.82 -13.8,10.41 -31.21,15.54 -48.44,14.49 -0.01,-10.95 0.01,-21.91 -0.01,-32.86 17.98,-0.39 36.07,0.28 54.03,-0.32 -2.5,-5.32 -10.68,-8.49 -14.89,-12.88 -12.68,-10.03 -25.49,-19.88 -38.24,-29.81z" fill="#787f78"/>
</svg>
