<?xml version="1.0" ?>
<svg xmlns="http://www.w3.org/2000/svg" width="177.09637" height="177.65506" viewBox="0 0 177.09637 177.65506">
  <path d="m78.671,0h19.01c14.15,2.41 26.77,6.13 38.35,15.03 11.91,9.74 25.67,13.4 40.79,14.3 0.54,19.79 0.1,39.84 0.2,59.67 -3.94,0 -7.89,0 -11.84,0 -1.8,-16.22 -5.07,-30.91 -18.97,-41.14 -24.61,-20.52 -60.67,-23.07 -90.98,-17.61 -12.89,3.65 -26.2,9.62 -33.11,21.78 -4.71,11.61 -9.09,24.17 -10.01,36.73 -4.01,0.27 -8.01,0.29 -12.02,0.24 0.08,-19.82 -0.36,-39.88 0.21,-59.66C13.641,28.15 25.611,25.44 36.851,17.8c12.14,-10.21 26.4,-15.08 41.82,-17.8z" fill="#41414e"/>
  <path d="m146.211,47.86c13.9,10.23 17.17,24.92 18.97,41.14 -1.67,12.06 -2.63,28.74 -10.8,38.33 -3.44,4.43 -6.01,0.84 -10.34,0.22 0.83,-2.71 0.39,-9.03 4.17,-9.25 11.33,0.45 10.88,-15.44 11.88,-23.3 1.15,-16.48 -3.41,-32.77 -16.27,-43.78 -23.89,-20.1 -57.6,-20.13 -86.97,-16.5 -10.92,3.01 -22.15,8.75 -29.48,17.58 -9.24,13.11 -12.21,28.09 -9.47,43.89 -2.61,-2.08 -4.21,-4.56 -5.79,-7.43 0.92,-12.56 5.3,-25.12 10.01,-36.73 6.91,-12.16 20.22,-18.13 33.11,-21.78 30.31,-5.46 66.37,-2.91 90.98,17.61z" fill="#7c7870"/>
  <path d="m143.821,51.22c12.86,11.01 17.42,27.3 16.27,43.78 -1,7.86 -0.55,23.75 -11.88,23.3 -3.78,0.22 -3.34,6.54 -4.17,9.25 -5.6,0.2 -3.81,0.2 -1.09,3.7 -1.64,7.59 -13.06,13.53 -19.92,15.66 -6.73,1.33 -12.05,-1.93 -18.54,-1.88 -0.06,-1.37 -0.05,-2.75 -0.02,-4.12 9.77,4.05 22.66,4.19 29.89,-4.61 5.98,-5.75 5.7,-14.67 9.61,-21.4 3.29,-1.18 9.37,0.39 10.12,-3.86 2.1,-7.1 3.45,-14.65 2.97,-22.07 0.09,-4.11 -0.39,-3.88 -3.96,-5.24 3.22,-1.18 3.48,-1.68 2.11,-4.91 -1.6,-8.73 -7.52,-20.33 -15.19,-25.86 -8.42,-7.25 -22.59,-13.64 -33.62,-13.34 -6.73,-3.76 -18.62,-3.73 -26.41,-3.57 -11.45,-0.57 -23.68,1.77 -34.1,6.56 -16.43,6.89 -30.1,29.05 -25.14,46.66 1.43,5.2 6.16,9.53 10.26,12.78 12.39,6.89 26.74,8.51 39.2,15.8 6.16,-4.5 6.24,7.02 9.12,11.48 -7.21,-6.44 -16.42,-7.76 -23.44,-14.3 0.02,3.59 -4.96,0.21 -6.86,-0.01 -10.68,-4.62 -22.93,-10.48 -31.13,-18.83 -2.74,-15.8 0.23,-30.78 9.47,-43.89 7.33,-8.83 18.56,-14.57 29.48,-17.58 29.37,-3.63 63.08,-3.6 86.97,16.5z" fill="#cfcebb"/>
  <path d="m79.991,36.05c0.84,3.23 1.72,6.45 2.8,9.61 -4.58,1.88 -7.25,5.4 -10.68,8.74 -9.1,-2.66 -17.5,-8.09 -26.22,-11.79 10.42,-4.79 22.65,-7.13 34.1,-6.56z" fill="#bf6a4f"/>
  <path d="m79.991,36.05c7.79,-0.16 19.68,-0.19 26.41,3.57 -1.55,2.82 -3.24,5.48 -5.5,7.8 -5.97,-2.14 -11.82,-3.32 -18.11,-1.76 -1.08,-3.16 -1.96,-6.38 -2.8,-9.61z" fill="#e1ca81"/>
  <path d="m140.021,52.96c-10.68,2.68 -21.53,4.86 -32.08,8.02 -1.27,-5.22 -3.95,-9.28 -7.04,-13.56 2.26,-2.32 3.95,-4.98 5.5,-7.8 11.03,-0.3 25.2,6.09 33.62,13.34z" fill="#4e577a"/>
  <path d="m45.891,42.61c8.72,3.7 17.12,9.13 26.22,11.79 -2.47,10.29 -1.34,18.74 7.97,24.85 -3.16,3.03 -6.31,7.6 -10.16,9.57 -16.33,0.62 -32.84,-0.31 -49.17,0.45 -4.96,-17.61 8.71,-39.77 25.14,-46.66z" fill="#4f6684"/>
  <path d="m100.901,47.42c3.09,4.28 5.77,8.34 7.04,13.56 -0.9,3.47 -1.15,6.32 -0.32,9.85 -3.28,2.43 -5.37,6.02 -8.79,8.37 -6.66,3.3 -12.05,3.02 -18.75,0.05 -9.31,-6.11 -10.44,-14.56 -7.97,-24.85 3.43,-3.34 6.1,-6.86 10.68,-8.74 6.29,-1.56 12.14,-0.38 18.11,1.76z" fill="#bac2c1"/>
  <path d="m86.401,52.38c14.31,-3.37 19.54,16.96 5.53,21.49 -14.2,3.02 -19.62,-17.18 -5.53,-21.49z" fill="#22252b"/>
  <path d="m140.021,52.96c7.67,5.53 13.59,17.13 15.19,25.86 1.37,3.23 1.11,3.73 -2.11,4.91 -15.19,-4.2 -30.52,-8.06 -45.48,-12.9 -0.83,-3.53 -0.58,-6.38 0.32,-9.85 10.55,-3.16 21.4,-5.34 32.08,-8.02z" fill="#e2cb78"/>
  <path d="m107.621,70.83c14.96,4.84 30.29,8.7 45.48,12.9 3.57,1.36 4.05,1.13 3.96,5.24 -16.78,0.69 -33.95,-0.89 -50.56,0.68 -1.13,-1.24 -2.12,-2.6 -3.22,-3.86 -1.78,-2.05 -3.25,-4.15 -4.45,-6.59 3.42,-2.35 5.51,-5.94 8.79,-8.37z" fill="#546f81"/>
  <path d="m80.081,79.25c6.7,2.97 12.09,3.25 18.75,-0.05 1.2,2.44 2.67,4.54 4.45,6.59 1.1,5.45 0.79,10.7 0.72,16.21 -24.33,0.41 -48.63,-0.26 -72.99,0.05 -4.1,-3.25 -8.83,-7.58 -10.26,-12.78 16.33,-0.76 32.84,0.17 49.17,-0.45 3.85,-1.97 7,-6.54 10.16,-9.57z" fill="#947f66"/>
  <path d="m103.281,85.79c1.1,1.26 2.09,2.62 3.22,3.86 16.61,-1.57 33.78,0.01 50.56,-0.68 0.48,7.42 -0.87,14.97 -2.97,22.07 -0.75,4.25 -6.83,2.68 -10.12,3.86 -13.28,0.24 -26.59,0.03 -39.88,0.1 -0.05,-4.33 -0.03,-8.67 -0.09,-13 0.07,-5.51 0.38,-10.76 -0.72,-16.21z" fill="#706a58"/>
  <path d="M0.091,89C4.101,89.05 8.101,89.03 12.111,88.76c1.58,2.87 3.18,5.35 5.79,7.43 8.2,8.35 20.45,14.21 31.13,18.83 1.9,0.22 6.88,3.6 6.86,0.01 7.02,6.54 16.23,7.86 23.44,14.3 8.77,8.89 12.35,20.97 16.02,32.4 3.1,0.51 6.36,0.46 9.47,0.06 0.9,-5.73 -0.34,-11.1 -0.33,-16.76 6.49,-0.05 11.81,3.21 18.54,1.88 6.86,-2.13 18.28,-8.07 19.92,-15.66 -2.72,-3.5 -4.51,-3.5 1.09,-3.7 4.33,0.62 6.9,4.21 10.34,-0.22 8.17,-9.59 9.13,-26.27 10.8,-38.33 3.95,0 7.9,0 11.84,0 -2.05,19.98 0.3,39.95 -1.35,59.68 -11.06,0.4 -19.96,2.3 -30.04,7.85 -11.52,7.52 -21.49,15.63 -35.51,18.61 -24.19,5.84 -53.91,1.79 -73.17,-15.1 -11.01,-7.59 -23.69,-10.65 -36.61,-11.34 -0.66,-19.76 -0.14,-39.88 -0.25,-59.7z" fill="#1b1e1f"/>
  <path d="m31.011,102.05c24.36,-0.31 48.66,0.36 72.99,-0.05 0.06,4.33 0.04,8.67 0.09,13 0.09,8.62 -0.45,17.33 0.38,25.91 -0.03,1.37 -0.04,2.75 0.02,4.12 -0.01,5.66 1.23,11.03 0.33,16.76 -3.11,0.4 -6.37,0.45 -9.47,-0.06 -3.67,-11.43 -7.25,-23.51 -16.02,-32.4 -2.88,-4.46 -2.96,-15.98 -9.12,-11.48 -12.46,-7.29 -26.81,-8.91 -39.2,-15.8z" fill="#aaa27f"/>
  <path d="m104.091,115c13.29,-0.07 26.6,0.14 39.88,-0.1 -3.91,6.73 -3.63,15.65 -9.61,21.4 -7.23,8.8 -20.12,8.66 -29.89,4.61 -0.83,-8.58 -0.29,-17.29 -0.38,-25.91z" fill="#8e886d"/>
</svg>
