<?xml version="1.0" ?>
<svg xmlns="http://www.w3.org/2000/svg" width="177.93814" height="177" viewBox="0 0 177.93814 177">
  <path d="m83.61,0h1.79c2.2,5.53 -2.81,9.06 -5.7,13.75 -8.43,2.26 -9.34,-8.85 -17.67,-7.7 2.21,1.98 6.73,3.02 5.88,6.74 -4.46,1.18 -12.75,-1.58 -15.92,1.86 7.25,1.72 14.43,0.99 21.69,1.7 6.49,2.46 5.27,7.74 2.34,12.6 -1.66,0.05 -3.27,0.08 -4.91,0.26 0.12,6 1.58,11.97 1.95,17.97C66.27,46.31 64.48,38.74 61.08,34c0.22,5.26 3.71,9.96 5.48,14.86 -1.81,3.31 -4.57,3.59 -5.87,7.91C52.1,59.42 46.68,49.36 46.21,41.99 45.54,32.55 40.99,25.01 40.13,15.65 42.89,14.26 45.64,13.08 47.96,10.98 59.04,3.02 70.85,2.11 83.61,0Z" fill="#242424"/>
  <path d="m85.4,0h7.72C92.49,1.96 91.92,3.86 92.08,5.95 95.83,5.61 97.93,2.42 100.42,0h1.97l-0.21,0.89c-0.98,1.49 -5.58,4.14 -3.07,5.96 0.81,1.38 3.38,2.05 1.91,3.76 -3.96,-1.96 -12.68,-3.6 -14.41,2.02 -1.33,2.69 0.94,6.28 0.27,9.21 -1.46,2.4 -3.03,4.09 -3.06,7.1 -2.6,0.05 -5.2,0.03 -7.8,0.01 2.93,-4.86 4.15,-10.14 -2.34,-12.6 -7.26,-0.71 -14.44,0.02 -21.69,-1.7 3.17,-3.44 11.46,-0.68 15.92,-1.86C68.76,9.07 64.24,8.03 62.03,6.05 70.36,4.9 71.27,16.01 79.7,13.75 82.59,9.06 87.6,5.53 85.4,0Z" fill="#525252"/>
  <path d="m93.12,0h7.3C97.93,2.42 95.83,5.61 92.08,5.95 91.92,3.86 92.49,1.96 93.12,0Z" fill="#242424"/>
  <path d="m102.18,0.89c4.67,0.99 9.28,2.28 13.95,3.31 -7.44,4.57 -17.62,7.28 -20.32,16.65 -0.98,2.69 -0.8,5.29 -0.87,8.11 -3.71,0.06 -7.41,0.06 -11.12,-0.02 0.03,-3.01 1.6,-4.7 3.06,-7.1 0.67,-2.93 -1.6,-6.52 -0.27,-9.21 1.73,-5.62 10.45,-3.98 14.41,-2.02 1.47,-1.71 -1.1,-2.38 -1.91,-3.76 -2.51,-1.82 2.09,-4.47 3.07,-5.96z" fill="#222222"/>
  <path d="m116.13,4.2c1.06,0.24 2.1,0.56 3.13,0.98 -4.14,3.84 -10.81,4.65 -13.94,9.14 -0.71,4.66 -0.29,9.6 -0.17,14.3 -1.09,0.15 -2.18,0.3 -3.27,0.44 0.38,-3.8 2.5,-9.76 -0.03,-13.04 -4.83,2.77 -3.81,8.71 -1.93,12.99C98.26,29 96.6,28.98 94.94,28.96 95.01,26.14 94.83,23.54 95.81,20.85 98.51,11.48 108.69,8.77 116.13,4.2Z" fill="#4f4f4f"/>
  <path d="m119.26,5.18c2.94,1.27 5.91,2.56 8.7,4.15 -5.35,9.3 -14.58,13.34 -20.77,21.48 -0.65,-0.76 -1.33,-1.48 -2.04,-2.19 -0.12,-4.7 -0.54,-9.64 0.17,-14.3 3.13,-4.49 9.8,-5.3 13.94,-9.14z" fill="#1d1d1d"/>
  <path d="m127.96,9.33 l1.26,0.83c-1.13,7.41 -11.26,13.66 -8.99,21.56 1.92,3.27 6.3,-0.93 8.43,-2.05 7.79,-3.65 -1.07,-10.83 3.23,-17.74 0.76,0.35 1.49,0.74 2.21,1.16 -1.31,4.55 -1.48,7.29 1.82,11 2.24,-1.5 4.3,-3.29 6.34,-5.05 1.45,0.47 2.77,1.1 4.07,1.9 -3.24,2.69 -7.45,4.23 -10.43,7.15 0.1,4.04 5.99,4.6 9,4.86 3.05,-1.63 5.4,-6.06 7.46,-8.88l1.67,0.56c-0.47,2.65 -3.97,5.73 -1.73,8.02 5.56,1.49 11.57,0.81 15.76,-3.47 1.02,-0.44 2.05,-0.71 3.09,-0.79 -4.25,8.26 -13.38,9.03 -21.3,5.86 -5.41,-0.09 -3.38,3.11 -3.17,6.76 -2.38,-2.01 -3.58,-4.99 -5.82,-7.04 -3.11,-0.67 -4.36,3.44 -6.72,5.03 0.16,-2.46 3.56,-6.12 -0.49,-6.67 -2.9,-1.34 -7,4.7 -8.74,6.69 1.16,2.66 6.55,2.7 9.07,2.98 8.75,-0.24 17.73,0.61 26.4,-0.56 1.59,0.13 4.25,-1.6 3.35,1.23 -8.95,2.04 -18.68,1.64 -27.76,0.65 1.13,3.42 6.28,8.38 10.03,5.69 4.68,-1.99 10,-2.93 15.07,-2.84 -4.31,2.39 -9.39,2.28 -13.63,4.28 -3.24,1.37 2.03,1.74 2.61,3.47 -3.02,0.25 -5.28,-1.23 -8.09,-1.89 -4.21,0.24 -7.42,2.81 -11.91,1.81 -4.75,-1.08 -8.2,-1.03 -12.84,0.52 -0.39,3.94 5.23,8.47 7.67,11.37 3.93,-2.27 4.15,-5.6 4.48,-9.72 1.67,2.4 1.81,7.82 5.95,5.28 7.75,-4.68 15.96,-3.02 22.69,-9.28 2.71,-2.11 3.95,-4.19 7.77,-3.73 5.1,0.48 7.13,-4.39 11.9,-2.61l-0.49,1.54c-5.75,1.96 -10.99,4.16 -14.84,9.1 -2.07,2.16 -2.67,5.22 -6.28,4.61 0.23,-2.57 2.45,-4.81 3.73,-7.01 -6.28,4.48 -12.02,5.97 -19.44,7.53 -1.26,4.67 9.1,0.01 7.42,3.35 -6,1.73 -15,-3.57 -18.93,2.22 1.7,3 6.49,2.72 9.15,4.99 2.54,1.17 4.96,4.88 7.2,1.24 1.79,-6.79 9.83,-12.28 16.91,-12.06 -2.92,8.62 -12.25,4.18 -14.04,11.94 -1.28,3.47 5.42,4.09 7.55,5.28 5.51,2.4 9.6,-1.62 11.23,-6.51 0.36,-3.64 0,-7.32 0.43,-10.97 1.74,3 1.38,6.29 2.43,9.42 2.03,1.48 5.68,-2.34 8.09,-2.59l0.02,2.09c-1.88,5.92 -9.03,2.11 -11.34,9.48 0.2,3.09 8.14,2.45 10.67,3.65 -1.94,2.91 0.34,4.34 0.51,7.26 -6.18,-1.65 -5.07,-8.15 -13.6,-7.14 0.7,3.93 3.27,7.47 7.69,6.55 -0.17,5.66 2.34,7.01 6,10.53l-0.02,2.02c-5.88,-1.94 -7.53,-7.21 -11.62,-10.12 -0.18,5.93 3.67,9.57 4.96,14.83 -3.87,-4.06 -7.2,-8.26 -7.75,-14.06 -0.38,-4.17 -1.22,-7.74 -5.26,-9.75 -4.26,2.04 -8.72,3.94 -12.86,6.19 -1.19,5.35 2.45,9.16 2.69,14.74 -2.32,-2.8 -2.68,-8.23 -5.83,-10.01 -3.75,1.91 -7.8,4.39 -11.25,6.8 -3.12,1.81 -1.12,5.45 -1.12,8.28 -2.08,-1.32 -1.89,-3.85 -4.75,-2.19 1.33,-3.94 2.42,-7.96 3.78,-11.89 0.58,4.72 8.19,-0.97 10.14,-2.14 5.83,-2.64 3,-9.62 -1.03,-12.51 -3.55,0.47 -6.18,2.4 -8.77,4.71 -0.77,-4.64 -2.05,-9.38 -3.19,-13.94 -5.23,-8.24 -12.51,-16.43 -21.75,-20.14 1.18,-6.61 1.03,-13.83 3.08,-20.18 6.19,-8.14 15.42,-12.18 20.77,-21.48z" fill="#5a5a5a"/>
  <path d="m129.22,10.16c0.88,0.61 1.76,1.21 2.67,1.77 -4.3,6.91 4.56,14.09 -3.23,17.74 -2.13,1.12 -6.51,5.32 -8.43,2.05 -2.27,-7.9 7.86,-14.15 8.99,-21.56z" fill="#212121"/>
  <path d="m134.1,13.09c2.62,2.68 4.22,5.08 8.16,5.95 -2.04,1.76 -4.1,3.55 -6.34,5.05 -3.3,-3.71 -3.13,-6.45 -1.82,-11z" fill="#212121"/>
  <path d="m40.13,15.65c0.86,9.36 5.41,16.9 6.08,26.34 -2.11,-0.51 -3.68,-1.34 -4.8,-3.26 1.43,-7.01 -2.75,-13.89 -3.7,-20.98 0.69,-0.9 1.49,-1.6 2.42,-2.1z" fill="#515151"/>
  <path d="m101.85,16.02c2.53,3.28 0.41,9.24 0.03,13.04l-1.96,-0.05c-1.88,-4.28 -2.9,-10.22 1.93,-12.99z" fill="#262525"/>
  <path d="m37.71,17.75c0.95,7.09 5.13,13.97 3.7,20.98 1.12,1.92 2.69,2.75 4.8,3.26 -0.12,3.35 -0.17,6.73 -0.48,10.07 -3.34,-7.52 -10.7,-8.51 -9.99,-17.32 -4.36,-0.09 -7.88,-4.22 -6.46,-8.59 -0.02,-1.94 1.28,-2.96 -1.35,-3.47 3.81,-1.05 6.99,-1.94 9.78,-4.93z" fill="#242424"/>
  <path d="m146.33,20.94c1.95,1.2 3.9,2.3 6.03,3.13 -2.06,2.82 -4.41,7.25 -7.46,8.88 -3.01,-0.26 -8.9,-0.82 -9,-4.86 2.98,-2.92 7.19,-4.46 10.43,-7.15z" fill="#202020"/>
  <path d="m27.93,22.68c2.63,0.51 1.33,1.53 1.35,3.47 -1.42,4.37 2.1,8.5 6.46,8.59 -0.71,8.81 6.65,9.8 9.99,17.32 0.31,-3.34 0.36,-6.72 0.48,-10.07 0.47,7.37 5.89,17.43 14.48,14.78 1.3,-4.32 4.06,-4.6 5.87,-7.91 -1.77,-4.9 -5.26,-9.6 -5.48,-14.86 3.4,4.74 5.19,12.31 11.98,13.18 0.35,1.53 0.69,3.06 0.8,4.63 -7.73,0.94 -14.72,9.64 -19.38,15.33 -0.93,-4.66 -6.19,-7.93 -9.22,-11.4 -1.21,-1.45 -4.98,-3.29 -4.16,0.24 1.26,5.27 3.32,13.59 8.81,15.93 1.1,-0.88 2.11,-1.86 3.14,-2.82 -4.5,13.73 -4.8,28.69 2.1,41.69 -1.75,3.68 -2.75,8.02 -4.98,11.39 -5.35,5.83 -16.84,0.81 -23.42,3.61 -4.57,4.01 -7.25,10.09 -11.7,14.22 -0.09,-2.08 0.85,-3.32 2.05,-4.87 6.83,-8.98 11.19,-19.15 14.76,-29.77 -1.26,-0.27 -2.53,-0.53 -3.81,-0.77 1.54,-1.04 4.81,-1.33 4.93,-3.45 -5.72,-0.72 -11.27,0.33 -13.7,6.15 -2.56,5.09 -2.19,13.71 -6.2,17.74 -0.29,-5.08 3,-8.8 2.93,-13.93C8.02,113.81 5.94,126.7 0,132.07v-2.88c4.84,-7.8 7.2,-15.23 14.47,-20.7 1.97,-1.52 3.17,-2.83 3.51,-5.4C9.77,104.43 5.01,109.03 0,115.2v-3c1.27,-4.08 7.24,-7.29 0,-8.72v-2.78c3.47,0.5 16.28,3.15 14.98,-3.59C11.02,90.1 5.9,92.15 0,95.16V93.25C2.39,92.24 4.1,91.95 4.86,89.17 3.34,88.15 1.63,87.34 0,86.51v-3.04c4.61,3.29 7.65,7.04 13.62,8.02 5.2,1.05 3.79,7.11 9.17,7.03 3.19,-0.24 3.57,-2.03 5.18,-4.29 2.5,0.99 6.18,3.58 8.68,1.45 2.18,-4.99 -0.87,-8.87 -3.18,-13.18 -0.56,-1.25 -3.74,-2.59 -1.45,-3.59 5.16,3.94 6.38,10.55 12.78,13.9 7.61,-6.26 1.78,-16.9 -1.89,-23.76 -2.25,-3.44 -2.55,-8.96 -5.93,-11.29 -2.95,3.08 -1.59,8.51 -3.73,12.32 -0.67,-4.02 -0.03,-7.85 0.38,-11.83 -1.71,-3.85 -7.53,-0.3 -6.51,-5.01 2.6,-0.71 7.89,0.9 8.94,-2.19 2.46,-3.48 -0.61,-7.73 -3.18,-10.1 -7.07,-0.07 -7.87,6.25 -12.75,8.03 0.74,-2.23 3.42,-4.85 0.58,-6.73C13.72,42.18 6.96,41.06 0,40.82v-3.74c6.74,2.18 13.96,-0.31 20.88,2.07 4.49,0.81 9.51,-0.61 6.11,-6.14 -5.95,-7.51 -12.1,2.2 -19.05,0.86 3.86,-4.84 11.71,-4.38 15.33,-8.64 1.48,-1.02 2.94,-1.97 4.66,-2.55z" fill="#5a5959"/>
  <path d="m59.86,23.95c-0.52,7.04 -3.24,16.26 -9.83,20 -0.25,-4.76 4.12,-9.5 6.49,-13.38 1.22,-2.16 1.97,-4.52 3.34,-6.62z" fill="#5a5a5a"/>
  <path d="m116.79,24.1c0.16,6.01 1.85,10.85 -1.16,16.48 0.61,0.56 4.68,1.66 2.64,2.7 -2.61,2.4 -3.56,-2.99 -5.82,0.14 -3.17,4.28 -4.92,-1.92 -5.42,-4.41 0.78,-5.24 5.07,-12.27 9.76,-14.91z" fill="#222222"/>
  <path d="m154.03,24.63c4.74,1.69 9.02,3.72 14.03,4.55 -4.19,4.28 -10.2,4.96 -15.76,3.47 -2.24,-2.29 1.26,-5.37 1.73,-8.02z" fill="#202020"/>
  <path d="m23.27,25.23c-3.62,4.26 -11.47,3.8 -15.33,8.64 6.95,1.34 13.1,-8.37 19.05,-0.86 3.4,5.53 -1.62,6.95 -6.11,6.14C13.96,36.77 6.74,39.26 0,37.08V29.6c8.21,-0.55 15.5,-1.54 23.27,-4.37z" fill="#222222"/>
  <path d="m171.15,28.39c1.89,0.16 3.77,0.51 5.61,0.94 0.53,5.47 -0.11,10.88 0.91,16.34 -4.77,-1.78 -6.8,3.09 -11.9,2.61 -3.82,-0.46 -5.06,1.62 -7.77,3.73 -6.73,6.26 -14.94,4.6 -22.69,9.28 -4.14,2.54 -4.28,-2.88 -5.95,-5.28 -0.33,4.12 -0.55,7.45 -4.48,9.72 -2.44,-2.9 -8.06,-7.43 -7.67,-11.37 4.64,-1.55 8.09,-1.6 12.84,-0.52 4.49,1 7.7,-1.57 11.91,-1.81 2.81,0.66 5.07,2.14 8.09,1.89 -0.58,-1.73 -5.85,-2.1 -2.61,-3.47 4.24,-2 9.32,-1.89 13.63,-4.28 -5.07,-0.09 -10.39,0.85 -15.07,2.84 -3.75,2.69 -8.9,-2.27 -10.03,-5.69 9.08,0.99 18.81,1.39 27.76,-0.65 0.9,-2.83 -1.76,-1.1 -3.35,-1.23 -8.67,1.17 -17.65,0.32 -26.4,0.56 -2.52,-0.28 -7.91,-0.32 -9.07,-2.98 1.74,-1.99 5.84,-8.03 8.74,-6.69 4.05,0.55 0.65,4.21 0.49,6.67 2.36,-1.59 3.61,-5.7 6.72,-5.03 2.24,2.05 3.44,5.03 5.82,7.04 -0.21,-3.65 -2.24,-6.85 3.17,-6.76 7.92,3.17 17.05,2.4 21.3,-5.86z" fill="#1f1f1f"/>
  <path d="m71.11,29.21c1.64,-0.18 3.25,-0.21 4.91,-0.26 2.6,0.02 5.2,0.04 7.8,-0.01 3.71,0.08 7.41,0.08 11.12,0.02 1.66,0.02 3.32,0.04 4.98,0.05l1.96,0.05c-1.45,3.66 1.65,6.79 -0.33,9.84 -1.07,-3.87 -0.78,-2.27 -3.2,-0.67 0.33,-1.87 1.28,-8.86 -1.58,-3.27 -2.3,-3.34 -2.06,-0.94 -4.33,0.7 -1.13,-2.29 -0.98,-3.56 -1.64,-0.11 -3.68,-4.72 -5.36,6.93 -8.5,6.12 -2.63,-1.88 0.52,-6.49 -4.16,-5.55 -0.02,2.06 -0.86,3.76 1.4,4.8 0.9,3.79 1.37,8.05 1.47,11.97 -1.44,-0.13 -0.95,-3.79 -1.41,-4.91 -2.17,3.15 -1.4,6.22 -1.76,9.81 -1.66,-0.37 -0.44,-7.03 -1.13,-8.87 -1.61,2.78 -1.01,5.47 -1.54,8.48l-1.04,-1.48c-0.09,-1.37 -0.18,-2.74 -0.27,-4.11 -0.11,-1.57 -0.45,-3.1 -0.8,-4.63 -0.37,-6 -1.83,-11.97 -1.95,-17.97z" fill="#b4b3b1"/>
  <path d="m101.88,29.06c1.09,-0.14 2.18,-0.29 3.27,-0.44 0.71,0.71 1.39,1.43 2.04,2.19 -2.05,6.35 -1.9,13.57 -3.08,20.18 -0.12,1.2 -0.25,2.39 -0.37,3.59 -1.58,8.02 -1.82,16.46 -3.81,24.38 -7.33,0.11 -14.66,-0.04 -21.99,0.11 -1.21,-6.91 -2.85,-14.64 -2.77,-21.67 0.53,-3.01 -0.07,-5.7 1.54,-8.48 0.69,1.84 -0.53,8.5 1.13,8.87 0.36,-3.59 -0.41,-6.66 1.76,-9.81 0.46,1.12 -0.03,4.78 1.41,4.91 -0.1,-3.92 -0.57,-8.18 -1.47,-11.97 -2.26,-1.04 -1.42,-2.74 -1.4,-4.8 4.68,-0.94 1.53,3.67 4.16,5.55 3.14,0.81 4.82,-10.84 8.5,-6.12 0.66,-3.45 0.51,-2.18 1.64,0.11 2.27,-1.64 2.03,-4.04 4.33,-0.7 0.53,1.48 -0.5,7.41 1.58,3.27 2.42,-1.6 2.13,-3.2 3.2,0.67 1.98,-3.05 -1.12,-6.18 0.33,-9.84z" fill="#c0bcb9"/>
  <path d="m98.35,38.23c-2.08,4.14 -1.05,-1.79 -1.58,-3.27 2.86,-5.59 1.91,1.4 1.58,3.27z" fill="#6b6967"/>
  <path d="m0,40.82c6.96,0.24 13.72,1.36 20.71,1.43 2.84,1.88 0.16,4.5 -0.58,6.73 4.88,-1.78 5.68,-8.1 12.75,-8.03 2.57,2.37 5.64,6.62 3.18,10.1 -1.05,3.09 -6.34,1.48 -8.94,2.19 -1.02,4.71 4.8,1.16 6.51,5.01 -0.41,3.98 -1.05,7.81 -0.38,11.83 2.14,-3.81 0.78,-9.24 3.73,-12.32 3.38,2.33 3.68,7.85 5.93,11.29 3.67,6.86 9.5,17.5 1.89,23.76 -6.4,-3.35 -7.62,-9.96 -12.78,-13.9 -2.29,1 0.89,2.34 1.45,3.59 2.31,4.31 5.36,8.19 3.18,13.18 -2.5,2.13 -6.18,-0.46 -8.68,-1.45 -1.61,2.26 -1.99,4.05 -5.18,4.29C17.41,98.6 18.82,92.54 13.62,91.49 7.65,90.51 4.61,86.76 0,83.47V82.23C1.65,77.27 1.54,63.46 0,58.44v-1.65c5.33,2.53 11.5,1.46 16.98,1.33 -1.23,5.3 -7.04,9.34 -9.87,13.94 8.29,-3.59 9.61,-11.48 16.38,-15.59 0.86,-0.79 1.2,-2.15 1.6,-3.21 -3.93,1.14 -7.97,3.88 -12.07,3.82C8.54,57.25 4.47,55.61 0,55.62Z" fill="#212121"/>
  <path d="m132.46,44.57c1.79,2.08 3.53,4.21 5.38,6.25 -6.07,1.15 -10.15,0.31 -15.84,-1.76 -2.62,0.2 -9.31,4.87 -7.92,-0.96 5.14,-6.6 10.97,-5.21 18.38,-3.53z" fill="#1e1f1f"/>
  <path d="m177.18,47.21c-0.21,2.59 0.21,5.1 0.52,7.66 -3.56,-1.37 -14.24,2.4 -15.6,6.31 -7.08,-0.22 -15.12,5.27 -16.91,12.06 -2.24,3.64 -4.66,-0.07 -7.2,-1.24 -2.66,-2.27 -7.45,-1.99 -9.15,-4.99 3.93,-5.79 12.93,-0.49 18.93,-2.22 1.68,-3.34 -8.68,1.32 -7.42,-3.35 7.42,-1.56 13.16,-3.05 19.44,-7.53 -1.28,2.2 -3.5,4.44 -3.73,7.01 3.61,0.61 4.21,-2.45 6.28,-4.61 3.85,-4.94 9.09,-7.14 14.84,-9.1z" fill="#202020"/>
  <path d="m104.11,50.99c9.24,3.71 16.52,11.9 21.75,20.14 1.14,4.56 2.42,9.3 3.19,13.94 -0.03,3.39 0.81,3.11 3.53,4.36 -1.48,1.77 -2.97,3.41 -3.87,5.58 -1.36,3.93 -2.45,7.95 -3.78,11.89l-0.31,0.89c-4.29,6.63 -10.44,10.9 -15.8,16.38 -1.66,0.43 -3.33,0.72 -5.03,0.92 -2.59,-0.07 -4.53,0.79 -6.72,2.03 -1.57,0.89 -2.72,2.64 -3.88,4 2.64,-6.75 -5.82,-3.94 -9.47,-3.27 -0.87,-0.24 -1.73,-0.5 -2.6,-0.77l-0.3,-1.68c5.14,0.43 11.63,2.41 15.41,-2.18 11.44,1.04 17.54,-5.71 24.33,-13.62 4.7,-9.36 8.45,-18 5.58,-28.73 -1.59,-11.21 -10.68,-24.16 -22.4,-26.29 0.12,-1.2 0.25,-2.39 0.37,-3.59z" fill="#764c46"/>
  <path d="m73.86,51.81c0.09,1.37 0.18,2.74 0.27,4.11 -1.81,-2.47 -3.66,-0.23 -5.97,0.3 -19.58,12.53 -22.95,44.1 -4.96,59.58 3.07,3.76 7.66,4.76 10.97,8.15l-1.02,0.1c-5.36,-0.07 -9.55,-6.12 -13.98,-8.82 -1.44,-1.4 -2.74,-2.91 -4.02,-4.45 -6.9,-13 -6.6,-27.96 -2.1,-41.69 0.47,-0.65 0.95,-1.3 1.43,-1.95 4.66,-5.69 11.65,-14.39 19.38,-15.33z" fill="#7a4a43"/>
  <path d="m25.09,53.26c-0.4,1.06 -0.74,2.42 -1.6,3.21 -6.77,4.11 -8.09,12 -16.38,15.59 2.83,-4.6 8.64,-8.64 9.87,-13.94C11.5,58.25 5.33,59.32 0,56.79v-1.17c4.47,-0.01 8.54,1.63 13.02,1.46 4.1,0.06 8.14,-2.68 12.07,-3.82z" fill="#616161"/>
  <path d="m45.26,55.74c3.03,3.47 8.29,6.74 9.22,11.4 -0.48,0.65 -0.96,1.3 -1.43,1.95 -1.03,0.96 -2.04,1.94 -3.14,2.82 -5.49,-2.34 -7.55,-10.66 -8.81,-15.93 -0.82,-3.53 2.95,-1.69 4.16,-0.24z" fill="#272726"/>
  <path d="m74.13,55.92 l1.04,1.48c-0.08,7.03 1.56,14.76 2.77,21.67 4.57,2.08 12.77,0.43 18.09,0.95 0.97,-0.23 3.85,0.36 3.9,-1.06 1.99,-7.92 2.23,-16.36 3.81,-24.38 11.72,2.13 20.81,15.08 22.4,26.29 2.87,10.73 -0.88,19.37 -5.58,28.73 -6.79,7.91 -12.89,14.66 -24.33,13.62 -3.78,4.59 -10.27,2.61 -15.41,2.18 -2.23,-0.42 -4.45,-0.87 -6.65,-1.45 -3.31,-3.39 -7.9,-4.39 -10.97,-8.15 -17.99,-15.48 -14.62,-47.05 4.96,-59.58 2.31,-0.53 4.16,-2.77 5.97,-0.3z" fill="#9d372b"/>
  <path d="m177.7,54.87 l0.04,0.91c-5.4,1.4 -10.36,3.74 -15.64,5.4 1.36,-3.91 12.04,-7.68 15.6,-6.31z" fill="#5b5b5b"/>
  <path d="m177.74,55.78c0.18,3.99 0,7.98 0.05,11.97 -2.41,0.25 -6.06,4.07 -8.09,2.59 -1.05,-3.13 -0.69,-6.42 -2.43,-9.42 -0.43,3.65 -0.07,7.33 -0.43,10.97 -1.63,4.89 -5.72,8.91 -11.23,6.51 -2.13,-1.19 -8.83,-1.81 -7.55,-5.28 1.79,-7.76 11.12,-3.32 14.04,-11.94 5.28,-1.66 10.24,-4 15.64,-5.4z" fill="#1e1e1e"/>
  <path d="m0,58.44c1.54,5.02 1.65,18.83 0,23.79z" fill="#010101"/>
  <path d="m177.81,69.84c-1.04,4.31 0.95,9.27 -0.67,13.13 -2.53,-1.2 -10.47,-0.56 -10.67,-3.65 2.31,-7.37 9.46,-3.56 11.34,-9.48z" fill="#252525"/>
  <path d="m128.11,72.09c3.02,0.75 5.95,1.99 8.77,3.29 -1.83,2 -11.3,1.51 -8.77,-3.29z" fill="#212422"/>
  <path d="m77.94,79.07c7.33,-0.15 14.66,0 21.99,-0.11 -0.05,1.42 -2.93,0.83 -3.9,1.06 -5.32,-0.52 -13.52,1.13 -18.09,-0.95z" fill="#ba8c84"/>
  <path d="m144.24,79.25c3.6,0.41 7.17,1.32 10.71,2.12 -2.88,4.68 -16.19,6.04 -10.71,-2.12z" fill="#212121"/>
  <path d="m137.82,80.36c4.03,2.89 6.86,9.87 1.03,12.51 -1.95,1.17 -9.56,6.86 -10.14,2.14 0.9,-2.17 2.39,-3.81 3.87,-5.58 -2.72,-1.25 -3.56,-0.97 -3.53,-4.36 2.59,-2.31 5.22,-4.24 8.77,-4.71z" fill="#20201f"/>
  <path d="m158.05,83.09c4.04,2.01 4.88,5.58 5.26,9.75 0.55,5.8 3.88,10 7.75,14.06 -1.29,-5.26 -5.14,-8.9 -4.96,-14.83 4.09,2.91 5.74,8.18 11.62,10.12 -0.17,8.31 0.41,16.56 0.15,24.9 -9.36,0.24 -15.52,-3.8 -22.06,-9.92 -2.31,-2.69 -5.18,-1.62 -7.94,-2.91 -0.97,-2.01 1.15,-4.49 -1.36,-6.11 -1.22,3.07 -2.22,6.5 -5.62,7.82 -3.1,0.62 -5.22,-1.76 -7.89,-2.97 -3.25,-1.98 -6.6,-1.31 -8.38,-5.21l0.31,-0.89c2.86,-1.66 2.67,0.87 4.75,2.19 0,-2.83 -2,-6.47 1.12,-8.28 3.45,-2.41 7.5,-4.89 11.25,-6.8 3.15,1.78 3.51,7.21 5.83,10.01 -0.24,-5.58 -3.88,-9.39 -2.69,-14.74 4.14,-2.25 8.6,-4.15 12.86,-6.19z" fill="#1d1d1d"/>
  <path d="m164.05,83.09c8.53,-1.01 7.42,5.49 13.6,7.14 -0.05,3.32 -0.02,6.62 0.09,9.94 -3.66,-3.52 -6.17,-4.87 -6,-10.53 -4.42,0.92 -6.99,-2.62 -7.69,-6.55z" fill="#202020"/>
  <path d="m0,86.51c1.63,0.83 3.34,1.64 4.86,2.66C4.1,91.95 2.39,92.24 0,93.25Z" fill="#1f1f1f"/>
  <path d="M14.98,97.11C16.28,103.85 3.47,101.2 0,100.7v-5.54c5.9,-3.01 11.02,-5.06 14.98,1.95z" fill="#232323"/>
  <path d="m49.94,101.09c2.22,6.56 -8.86,-1 -7.66,3.5 5.71,1.09 10.75,2.36 7.8,9.44 -1.91,10.75 -12.15,9.8 -20.39,8.25 -1.99,-2.45 1.35,-7.72 2.5,-10.17 2.9,1.46 3.03,6.92 5.68,8.96 1.42,-7.36 -6.6,-13.43 0.36,-18.81 2.24,-1.54 10.92,-5.88 11.71,-1.17z" fill="#212120"/>
  <path d="m32.98,101.14c-0.12,2.12 -3.39,2.41 -4.93,3.45 1.28,0.24 2.55,0.5 3.81,0.77 -3.57,10.62 -7.93,20.79 -14.76,29.77 -1.2,1.55 -2.14,2.79 -2.05,4.87 4.45,-4.13 7.13,-10.21 11.7,-14.22 6.58,-2.8 18.07,2.22 23.42,-3.61 2.23,-3.37 3.23,-7.71 4.98,-11.39 1.28,1.54 2.58,3.05 4.02,4.45 -3.46,6.8 -9.29,9.95 -15.86,13.12 -6.5,4.94 -14.54,5.95 -20.76,11.17 -3.68,2.74 -6.95,6.28 -9.96,9.72C8.82,148.28 5.07,148.04 1.21,147.73 0.44,142.82 1.97,137.13 0,132.62v-0.55c5.94,-5.37 8.02,-18.26 16.01,-20.97 0.07,5.13 -3.22,8.85 -2.93,13.93 4.01,-4.03 3.64,-12.65 6.2,-17.74 2.43,-5.82 7.98,-6.87 13.7,-6.15z" fill="#202020"/>
  <path d="m17.98,103.09c-0.34,2.57 -1.54,3.88 -3.51,5.4C7.2,113.96 4.84,121.39 0,129.19V115.2c5.01,-6.17 9.77,-10.77 17.98,-12.11z" fill="#1f1f1f"/>
  <path d="m0,103.48c7.24,1.43 1.27,4.64 0,8.72z" fill="#1a1a1a"/>
  <path d="m124.62,107.79c1.78,3.9 5.13,3.23 8.38,5.21 2.67,1.21 4.79,3.59 7.89,2.97 3.4,-1.32 4.4,-4.75 5.62,-7.82 2.51,1.62 0.39,4.1 1.36,6.11 2.76,1.29 5.63,0.22 7.94,2.91 6.54,6.12 12.7,10.16 22.06,9.92v2.02c-9.91,-0.06 -17.98,-4.32 -25.29,-10.67 -1.99,-1.91 -9.15,-2.78 -8.6,1.55 1.94,7.29 8.12,9.33 15.07,9.33 -2.06,0.79 -4.83,0.74 -6.56,2.09 -0.96,3.38 -2.43,6.9 -2.9,10.37 0.79,3.61 2.11,7.14 3.43,10.58 -0.88,0.26 -1.76,0.51 -2.64,0.76 -0.84,-4.01 -2.75,-7.5 -4.22,-11.27 -0.44,-2.72 2.52,-5.77 1.69,-8.7 -1.23,-4.88 -3.35,-9.36 -7.75,-12.13 -1.84,9.13 -5.41,19.29 -3.74,28.63 2.06,2.85 5.32,5.05 7.94,7.37 -1.03,0.69 -2.06,1.39 -3.1,2.07 -5.33,-3.64 -8.57,-8.85 -12.97,-13.32 -2.25,-2.8 -6.23,3.3 -8.01,1.17 1.67,-1.64 3.48,-3.04 4.95,-4.89 -2.24,-1.46 -4.61,-2.82 -7.07,-3.89 -1,2.26 -1.6,4.65 -2.69,6.87 -0.87,-3.29 0.01,-11.08 -5.41,-10.1 -5.13,-0.66 -4.33,4.4 -3.63,7.71 3.41,4.32 7.77,6.53 9.42,12.23 -2.33,2.32 -2.07,-0.95 -3.34,-2.41 -1.2,-2.24 -3.94,-3.78 -6.32,-4.45 -0.21,4.56 0.42,10.77 3.37,14.42 4.81,2.32 9.59,4.31 13.91,7.56 -0.78,0.47 -1.57,0.91 -2.38,1.32 -3.74,-1.24 -8.47,-5.84 -12.71,-5.06 -2.33,1.36 -0.97,6.5 -1.2,8.83 -1.34,0.55 -2.61,0.9 -4.07,0.91 1.42,-5.15 1.5,-9.72 -0.43,-14.68 1.73,-6.22 -2.04,-10.56 0.36,-16.21 -0.07,-3.01 -7.87,-3.12 -7.63,0.23 -1.67,6.4 2.08,13.82 2.44,20.53 -3.35,3.02 -4.98,6.04 -6.76,10.12L89.55,177h-2.79c2.44,-4.83 6.3,-9.07 8.13,-14.13 0.14,-5.97 -3.52,-13.32 -1.14,-19.18 2.2,-4.53 -0.27,-8.9 4.54,-11.41 3.64,-1.92 0.7,-3.52 -1.22,-5.16 2.19,-1.24 4.13,-2.1 6.72,-2.03 0.41,3.11 2.59,5.54 5.32,6.9 3.49,0.4 6.94,-3.51 9.96,-4.96 4.52,1.57 -2.42,5.66 0.71,8.16 4.23,2.42 8.34,4.19 11.98,7.58 3.89,-8.54 5.18,-15.88 3.39,-24.99 -2.89,-2.39 -7.3,-3.17 -10.93,-3.53 -4.27,2.94 7.27,9.02 0.19,10.41 -1.88,-2.8 -2.68,-6.98 -7.08,-5.36 -3.6,0.65 -5.02,6.96 -8.51,4.87 5.36,-5.48 11.51,-9.75 15.8,-16.38z" fill="#565556"/>
  <path d="m124.22,114.25c3.63,0.36 8.04,1.14 10.93,3.53 1.79,9.11 0.5,16.45 -3.39,24.99 -3.64,-3.39 -7.75,-5.16 -11.98,-7.58 -3.13,-2.5 3.81,-6.59 -0.71,-8.16 -3.02,1.45 -6.47,5.36 -9.96,4.96 -2.73,-1.36 -4.91,-3.79 -5.32,-6.9 1.7,-0.2 3.37,-0.49 5.03,-0.92 3.49,2.09 4.91,-4.22 8.51,-4.87 4.4,-1.62 5.2,2.56 7.08,5.36 7.08,-1.39 -4.46,-7.47 -0.19,-10.41z" fill="#201f20"/>
  <path d="m59.17,115.23c4.43,2.7 8.62,8.75 13.98,8.82 1.5,3.98 -1.04,6.1 -1.17,9.95 0.36,4.4 -5.01,6.57 -7.73,9.25 -1.53,1.92 -5.4,2.83 -2.89,5.5 -5.22,2.15 -6.67,7.33 -11.36,10.25 -2.83,1.39 -1.13,4.52 -1.84,7.15 -1.99,-0.67 -3.79,-1.47 -5.4,-2.85 1.09,-7.03 7.83,-6.86 10.61,-12.94 1.33,-2.22 0.23,-3.4 -0.94,-5.25 6.8,0.83 9.16,-5.01 14.84,-8.83 4.15,-4.77 1.97,-8.02 -2.29,-11.44 -2.91,3.35 -5.41,6.48 -9.26,8.88 -5.2,3.41 -5.39,9.17 -9.93,13.07 -4.17,4.1 -10.34,6.13 -15.75,8.3l-1.41,-1.06c3.72,-5.11 10.21,-3.77 13.37,-8.97 -6,-0.29 -9.72,4.38 -16.08,2.7 2.46,-1.31 5.6,-1.49 7.88,-2.96 1.69,-2.21 1.71,-6.04 2.07,-8.75 -8.2,2.28 -12.88,7.79 -18.09,14.04 -1.75,-0.19 -3.48,-0.43 -5.19,-0.85 3.01,-3.44 6.28,-6.98 9.96,-9.72 6.22,-5.22 14.26,-6.23 20.76,-11.17 6.57,-3.17 12.4,-6.32 15.86,-13.12z" fill="#575656"/>
  <path d="m152.58,118.44c7.31,6.35 15.38,10.61 25.29,10.67 -0.06,1.31 -0.24,2.6 -0.41,3.89 -5.83,2.5 -15.49,-1.6 -18.11,6.32 -0.1,2.74 -2.28,12.08 2.65,10.79 -2.93,0.97 -6,1.43 -8.98,2.25 -1.32,-3.44 -2.64,-6.97 -3.43,-10.58 0.47,-3.47 1.94,-6.99 2.9,-10.37 1.73,-1.35 4.5,-1.3 6.56,-2.09 -6.95,0 -13.13,-2.04 -15.07,-9.33 -0.55,-4.33 6.61,-3.46 8.6,-1.55z" fill="#202020"/>
  <path d="m61.92,120.07c0.94,4.34 -5.52,6.32 -8.01,8.83 -4.08,7.39 -8.49,12.56 -16.94,14.91 0.22,-8.94 7.64,-12.75 14.62,-16.25 3.43,-2.25 6,-7.25 10.33,-7.49z" fill="#212122"/>
  <path d="m140.1,121.02c4.4,2.77 6.52,7.25 7.75,12.13 0.83,2.93 -2.13,5.98 -1.69,8.7 1.47,3.77 3.38,7.26 4.22,11.27 -2.02,1.31 -4.03,2.63 -6.08,3.9 -2.62,-2.32 -5.88,-4.52 -7.94,-7.37 -1.67,-9.34 1.9,-19.5 3.74,-28.63z" fill="#202020"/>
  <path d="m73.15,124.05 l1.02,-0.1c2.2,0.58 4.42,1.03 6.65,1.45l0.3,1.68c-0.54,3.06 1.11,5.05 -3.11,4.99 -4.46,-0.6 0.72,6.31 -1.97,7.97 -3.57,3.26 -3.72,7.33 -5.49,11.57 -2.77,7.15 -5.42,14.31 -7.87,21.57 -5.07,-1.99 -9.86,-4.19 -14.52,-7.03 0.71,-2.63 -0.99,-5.76 1.84,-7.15 4.69,-2.92 6.14,-8.1 11.36,-10.25 -2.51,-2.67 1.36,-3.58 2.89,-5.5 2.72,-2.68 8.09,-4.85 7.73,-9.25 0.13,-3.85 2.67,-5.97 1.17,-9.95z" fill="#212020"/>
  <path d="m64.98,124.84c4.26,3.42 6.44,6.67 2.29,11.44 -5.68,3.82 -8.04,9.66 -14.84,8.83 1.17,1.85 2.27,3.03 0.94,5.25 -2.78,6.08 -9.52,5.91 -10.61,12.94 -4.4,-3.03 -7.22,-6.99 -12.72,-8.21 5.41,-2.17 11.58,-4.2 15.75,-8.3 4.54,-3.9 4.73,-9.66 9.93,-13.07 3.85,-2.4 6.35,-5.53 9.26,-8.88z" fill="#212121"/>
  <path d="m81.12,127.08c0.87,0.27 1.73,0.53 2.6,0.77 0.53,1.71 1,3.42 1.24,5.2 -1.18,-0.82 -1.89,-3.51 -2.93,-1.03 -4.58,16.04 -0.54,29.6 -0.04,44.98h-1c-0.67,-3.26 -0.83,-6.56 -1.26,-9.84 -4.44,-6.05 -3.5,-15.13 -2.78,-22.15 0.37,-1.94 -2.3,-0.57 -2.1,0.84 -2.29,10.06 -7.31,18.02 -8.91,28.23 -1.13,-0.21 -2.21,-0.51 -3.26,-0.9 2.45,-7.26 5.1,-14.42 7.87,-21.57 1.77,-4.24 1.92,-8.31 5.49,-11.57 2.69,-1.66 -2.49,-8.57 1.97,-7.97 4.22,0.06 2.57,-1.93 3.11,-4.99z" fill="#515151"/>
  <path d="m93.19,131.12c-0.85,8.66 -2.9,17.27 -3.28,25.93 -0.64,0.31 -1.26,0.63 -1.88,0.97 -0.52,-8.43 -1.77,-16.65 -3.07,-24.97 -0.24,-1.78 -0.71,-3.49 -1.24,-5.2 3.65,-0.67 12.11,-3.48 9.47,3.27z" fill="#b7b5b4"/>
  <path d="m97.07,127.12c1.92,1.64 4.86,3.24 1.22,5.16 -4.81,2.51 -2.34,6.88 -4.54,11.41 -2.38,5.86 1.28,13.21 1.14,19.18 -1.83,5.06 -5.69,9.3 -8.13,14.13h-4.77c-0.5,-15.38 -4.54,-28.94 0.04,-44.98 1.04,-2.48 1.75,0.21 2.93,1.03 1.3,8.32 2.55,16.54 3.07,24.97 0.22,4.77 3.1,2.79 1.88,-0.97 0.38,-8.66 2.43,-17.27 3.28,-25.93 1.16,-1.36 2.31,-3.11 3.88,-4z" fill="#232323"/>
  <path d="m101.23,133.5c1.04,-0.53 1.61,6.03 0.69,7.26 -5.68,-0.93 -6.03,-5.17 -0.69,-7.26z" fill="#242424"/>
  <path d="m177.46,133c0.02,0.96 0.05,1.92 0.06,2.88 -4.81,0.41 -10.16,1.4 -13.81,4.82 -2.68,1.88 -1.46,6.55 -1.71,9.41 -4.93,1.29 -2.75,-8.05 -2.65,-10.79 2.62,-7.92 12.28,-3.82 18.11,-6.32z" fill="#5e5d5e"/>
  <path d="m110,134.93c5.42,-0.98 4.54,6.81 5.41,10.1 1.09,-2.22 1.69,-4.61 2.69,-6.87 2.46,1.07 4.83,2.43 7.07,3.89 -1.47,1.85 -3.28,3.25 -4.95,4.89 1.78,2.13 5.76,-3.97 8.01,-1.17 4.4,4.47 7.64,9.68 12.97,13.32 -5.79,3.81 -11.84,7.34 -17.79,10.9 -4.32,-3.25 -9.1,-5.24 -13.91,-7.56 -2.95,-3.65 -3.58,-9.86 -3.37,-14.42 2.38,0.67 5.12,2.21 6.32,4.45 1.27,1.46 1.01,4.73 3.34,2.41 -1.65,-5.7 -6.01,-7.91 -9.42,-12.23 -0.7,-3.31 -1.5,-8.37 3.63,-7.71z" fill="#1f1f1f"/>
  <path d="m35.87,136.05c-0.36,2.71 -0.38,6.54 -2.07,8.75 -2.28,1.47 -5.42,1.65 -7.88,2.96 6.36,1.68 10.08,-2.99 16.08,-2.7 -3.16,5.2 -9.65,3.86 -13.37,8.97 -3.45,-1.77 -7.09,-3.01 -10.85,-3.94 5.21,-6.25 9.89,-11.76 18.09,-14.04z" fill="#212121"/>
  <path d="m177.52,135.88c-0.4,3.43 1.08,8.54 -0.21,11.39 -4.76,1.56 -10.47,0.89 -15.31,2.84 0.25,-2.86 -0.97,-7.53 1.71,-9.41 3.65,-3.42 9,-4.41 13.81,-4.82z" fill="#1e1e1e"/>
  <path d="m102.98,145.1c-2.4,5.65 1.37,9.99 -0.36,16.21 1.93,4.96 1.85,9.53 0.43,14.68 -4,0.13 -8.02,-0.07 -12.02,-0.01 1.78,-4.08 3.41,-7.1 6.76,-10.12 -0.36,-6.71 -4.11,-14.13 -2.44,-20.53 -0.24,-3.35 7.56,-3.24 7.63,-0.23z" fill="#212121"/>
  <path d="m76.95,145.01c-0.72,7.02 -1.66,16.1 2.78,22.15 0.43,3.28 0.59,6.58 1.26,9.84h-0.76c-4.68,-1.99 -9.45,-1.82 -14.29,-2.92 1.6,-10.21 6.62,-18.17 8.91,-28.23 -0.2,-1.41 2.47,-2.78 2.1,-0.84z" fill="#202020"/>
  <path d="m89.91,157.05c1.22,3.76 -1.66,5.74 -1.88,0.97 0.62,-0.34 1.24,-0.66 1.88,-0.97z" fill="#6f6f6f"/>
  <path d="m108.32,166.25c4.24,-0.78 8.97,3.82 12.71,5.06 -4.57,1.51 -9.33,2.34 -13.91,3.77 0.23,-2.33 -1.13,-7.47 1.2,-8.83z" fill="#212121"/>
</svg>
