<?xml version="1.0" ?>
<svg xmlns="http://www.w3.org/2000/svg" width="180" height="180" viewBox="0 0 180 180">
  <path d="m81.62,0h18.73c10.39,2.2 20.47,4.5 29.78,9.85 7.08,3.84 12.8,9.38 20.13,12.9 6.39,3.2 13.62,5.02 20.63,6.29 2.61,0.47 5.22,0.96 7.84,1.43 0.22,34.84 -0.06,69.69 0.11,104.53 0.04,4.79 -0.03,9.59 -0.16,14.38 -2.94,0.48 -5.88,0.99 -8.8,1.57 -4.99,1 -10.07,2.4 -14.87,4.09 -6.13,2.19 -11.22,5.75 -16.4,9.58 -7.21,5.36 -15.44,9.36 -24.02,11.98 -4.75,1.24 -9.59,2.24 -14.42,3.15 -10.36,-2.18 -20.85,-1.12 -31.38,-2.51 -7.34,-1.42 -14.29,-4.56 -20.72,-8.31 -6.63,-3.88 -11.83,-8.86 -18.88,-12.12 -5.75,-2.63 -11.92,-4.46 -18.1,-5.75C7.86,150.37 4.63,149.77 1.38,149.24 1.04,140.16 1.2,131.09 1.15,122 1.27,91.48 1.04,60.96 1.28,30.44 6.24,30.18 11.11,29.63 15.83,28.03 22.9,25.77 29.99,23.38 36.13,19.15 42.2,15.02 47.78,10.54 54.56,7.55 63.14,3.35 72.25,1.5 81.62,0Z" fill="#6c163d"/>
  <path d="m74.05,11.66c4.74,0.23 9.04,1.74 13.64,2.61 4.05,0.86 8.67,-1.07 12.7,-1.81 6.54,-1.46 13,-0.77 19.44,0.79 5.38,1.17 10.16,4.15 12.98,8.96 3.85,6.65 3.18,16.01 0.91,23.09l-0.55,1.14c-6.62,3.46 -12.74,7.61 -18.84,11.89 -2.77,1.79 -4.67,4.29 -6.46,6.99 0.73,0.57 1.46,1.13 2.19,1.7 -1.74,-0.03 -3.47,-0.08 -5.21,-0.08 -1.18,0 -2.37,0 -3.56,-0.03 -0.79,-0.02 -1.59,-0.04 -2.38,-0.06 -8.51,-0.54 -17,-0.19 -25.52,-0.18 -6.57,-8.8 -16.74,-15.18 -26.47,-20 -2.14,-6.53 -3.08,-13.46 -1.38,-20.21 1.41,-5.29 5.3,-9.42 10.18,-11.73 5.6,-2.64 12.2,-3.4 18.33,-3.07z" fill="#e58d92"/>
  <path d="m90.04,15.5c3.14,2.14 6.86,4.89 7.9,8.73 0.88,3.18 -2.07,5.95 -4.75,7.03 -4.13,1.88 -10.26,-0.81 -11.12,-5.39 -0.11,-4.38 4.76,-8.08 7.97,-10.37z" fill="#6e163a"/>
  <path d="M15.83,28.03C11.11,29.63 6.24,30.18 1.28,30.44 1.04,60.96 1.27,91.48 1.15,122c0.05,9.09 -0.11,18.16 0.23,27.24 3.25,0.53 6.48,1.13 9.71,1.82C7.38,150.82 3.7,150.84 0,150.35V29.23c5.27,-0.34 10.6,-0.52 15.83,-1.2z" fill="#524048"/>
  <path d="m170.89,29.04c3.04,0.19 6.07,0.18 9.11,0.01v121.91c-3.37,-0.05 -6.76,-0.15 -10.12,-0.01 2.92,-0.58 5.86,-1.09 8.8,-1.57 0.13,-4.79 0.2,-9.59 0.16,-14.38 -0.17,-34.84 0.11,-69.69 -0.11,-104.53 -2.62,-0.47 -5.23,-0.96 -7.84,-1.43z" fill="#55434b"/>
  <path d="m46.92,46.67c2.68,5.87 5.9,11.45 9.91,16.51 3.02,3.87 6.43,7.3 9.54,11.09 0.39,0.48 0.78,0.96 1.17,1.45 -0.94,4.48 -0.75,8.87 -0.44,13.4 -0.07,0.95 -0.13,1.9 -0.18,2.85 -0.3,3.99 -0.28,8.04 -0.81,12.02 -0.33,3.11 -2.63,5.28 -4.61,7.49 -6.23,6.37 -11.25,14.01 -15.57,21.77 -6.33,2.4 -13.67,2.87 -20.17,0.9 -6.63,-2.2 -10.66,-7.85 -12.57,-14.34 -3.01,-10.16 -1.2,-19.84 1.91,-29.68 2.4,2.41 4.86,5.28 7.82,6.98 1.68,0.97 3.49,1.11 5.14,-0.02 3.07,-2.18 5.08,-6.78 3.31,-10.38 -1.23,-2.8 -3.81,-5.54 -7.16,-4.63 -3.5,1.26 -6.4,4.65 -9.13,7.1C12.5,81.66 11,73.96 11.93,65.99 12.74,58.64 15.66,51.22 22.2,47.2 29.4,42.76 39.33,43.77 46.92,46.67Z" fill="#a8929e"/>
  <path d="m155.11,45.91c6.77,2.48 10.73,9.06 12.12,15.84 1.63,9.21 0.94,18.65 -2.29,27.45 -2.76,-2.44 -5.68,-5.78 -9.18,-7.07 -3.5,-0.89 -5.9,1.62 -7.08,4.63 -2.14,4.21 1.4,11.1 6.24,11.14 3.92,-0.85 7.21,-5.07 10.02,-7.75 1.71,5.92 3.35,11.6 3.39,17.84 -0.02,6.23 -0.53,12.61 -4.62,17.64 -2.84,3.42 -6.37,8.26 -11.01,9.03 -6.3,1.2 -13.19,0.86 -19.16,-1.63l-1.19,-0.52c-2.03,-6.48 -5.87,-11.62 -9.93,-16.94 -2.48,-3.2 -5.29,-6.02 -8.5,-8.49 -0.17,-2.36 -0.47,-4.71 -0.63,-7.08 -0.12,-2.38 -0.28,-4.78 -0.28,-7.17 -0.08,-6.27 0.27,-12.51 0.2,-18.77 8.26,-8.07 15.28,-16.99 19.96,-27.62l0.55,-1.14c7.08,-0.34 14.59,-2.08 21.39,0.61z" fill="#a3688e"/>
  <path d="m133.17,46.44c-4.68,10.63 -11.7,19.55 -19.96,27.62 -0.04,-2.32 -0.19,-4.64 -0.27,-6.95 -0.96,-0.04 -1.92,-0.07 -2.88,-0.09 -0.73,-0.57 -1.46,-1.13 -2.19,-1.7 1.79,-2.7 3.69,-5.2 6.46,-6.99 6.1,-4.28 12.22,-8.43 18.84,-11.89z" fill="#ae94a1"/>
  <path d="m46.92,46.67c9.73,4.82 19.9,11.2 26.47,20 -2.12,0.1 -4.23,0.26 -6.35,0.43 -0.08,0.88 -0.16,1.76 -0.24,2.64 -0.14,1.51 -0.29,3.02 -0.43,4.53C63.26,70.48 59.85,67.05 56.83,63.18 52.82,58.12 49.6,52.54 46.92,46.67Z" fill="#b34258"/>
  <path d="m98.91,66.85c3.83,6.53 7.11,12.72 4.41,20.48 -1.07,3.17 -3.69,3.79 -6.35,5.25 -0.76,-4.32 0.04,-8.31 0.59,-12.56 0.47,-4.39 -2.81,-7.43 -6.49,-9.08 -7.92,-3.59 -15.99,-2.99 -24.27,-1.2 0.08,-0.88 0.16,-1.76 0.24,-2.64 2.12,-0.17 4.23,-0.33 6.35,-0.43 8.52,-0.01 17.01,-0.36 25.52,0.18z" fill="#f3afb8"/>
  <path d="m101.29,66.91c1.19,0.03 2.38,0.03 3.56,0.03 1.67,5.4 3.51,10.3 3.3,16.08 -0.11,3.9 -1.22,8.19 -4.72,10.39 -2.45,1.2 -5.64,1.04 -8.3,1.61 -2.09,0.37 -4.02,1.88 -5.78,3 2.45,1.85 4.27,3.92 7.61,3.71 7.01,-0.07 11.47,-4.17 16.05,-8.9 0,2.39 0.16,4.79 0.28,7.17 -5.06,2.82 -10.34,5.95 -16.3,6.13 -3.23,0.1 -6.4,-0.99 -7.95,-4.01 -2.06,-4 -3.13,-7.83 -7.11,-10.45 -1.08,2.59 -2.38,5.02 -1.59,7.9 1.55,6.09 6.67,9.95 11.83,12.95 -2.41,-0.04 -4.78,0.11 -7.19,0.26 -4.3,-3.95 -9.01,-8.55 -9.27,-14.78 -0.14,-4.19 3.06,-6.02 5.64,-8.65 2.07,-1.83 3.03,-4.19 4.14,-6.65 -2.64,-0.09 -5.54,-0.72 -7.9,0.84 -4.57,2.86 -7.17,7.8 -8.01,13.02 -0.87,5.41 0.53,10.99 1.49,16.31 -1.36,-0.04 -2.71,-0.06 -4.06,-0.09 -0.33,-6.94 -0.51,-13.87 -0.09,-20.81 0.05,-0.95 0.11,-1.9 0.18,-2.85 2.82,-3.59 6.36,-9.04 11.03,-10.22 3.54,-0.98 6.29,1.16 9.33,2.58 2.45,1.37 5.05,1.51 7.78,1.77 -1.19,-3.97 -2.4,-7.28 -6.52,-8.97 -7.46,-3.61 -13.95,-1.2 -21.18,1.44 -0.39,-0.49 -0.78,-0.97 -1.17,-1.45 0.14,-1.51 0.29,-3.02 0.43,-4.53 8.28,-1.79 16.35,-2.39 24.27,1.2 3.68,1.65 6.96,4.69 6.49,9.08 -0.55,4.25 -1.35,8.24 -0.59,12.56 2.66,-1.46 5.28,-2.08 6.35,-5.25 2.7,-7.76 -0.58,-13.95 -4.41,-20.48 0.79,0.02 1.59,0.04 2.38,0.06z" fill="#933245"/>
  <path d="m104.85,66.94c1.74,0 3.47,0.05 5.21,0.08 0.96,0.02 1.92,0.05 2.88,0.09 0.08,2.31 0.23,4.63 0.27,6.95 0.07,6.26 -0.28,12.5 -0.2,18.77 -4.58,4.73 -9.04,8.83 -16.05,8.9 -3.34,0.21 -5.16,-1.86 -7.61,-3.71 1.76,-1.12 3.69,-2.63 5.78,-3 2.66,-0.57 5.85,-0.41 8.3,-1.61 3.5,-2.2 4.61,-6.49 4.72,-10.39 0.21,-5.78 -1.63,-10.68 -3.3,-16.08z" fill="#efaab2"/>
  <path d="m88.72,74.28c4.12,1.69 5.33,5 6.52,8.97 -2.73,-0.26 -5.33,-0.4 -7.78,-1.77 -3.04,-1.42 -5.79,-3.56 -9.33,-2.58 -4.67,1.18 -8.21,6.63 -11.03,10.22 -0.31,-4.53 -0.5,-8.92 0.44,-13.4 7.23,-2.64 13.72,-5.05 21.18,-1.44z" fill="#f1acb6"/>
  <path d="m85.49,82.7c-1.11,2.46 -2.07,4.82 -4.14,6.65 -2.58,2.63 -5.78,4.46 -5.64,8.65 0.26,6.23 4.97,10.83 9.27,14.78 -1.26,0.09 -2.53,0.17 -3.79,0.25 -3.39,0.11 -6.74,-0.04 -10.12,-0.16 -0.96,-5.32 -2.36,-10.9 -1.49,-16.31 0.84,-5.22 3.44,-10.16 8.01,-13.02 2.36,-1.56 5.26,-0.93 7.9,-0.84z" fill="#f0afb5"/>
  <path d="m87.44,86.24c1.65,-0.71 3.52,-0.57 5.23,-0.13 1.45,1.82 2.1,4.14 0.86,6.26 -1.62,2.42 -5.4,2.19 -7.23,0.14 -0.97,-1.94 -1.03,-5.1 1.14,-6.27z" fill="#f0a9b1"/>
  <path d="m66.92,91.97c-0.42,6.94 -0.24,13.87 0.09,20.81 1.35,0.03 2.7,0.05 4.06,0.09 3.38,0.12 6.73,0.27 10.12,0.16 -3.63,0.42 -6.98,0.84 -9.85,3.32 -7.1,6.45 -15.23,12.2 -23.92,16.29l-1.49,0.61c4.32,-7.76 9.34,-15.4 15.57,-21.77 1.98,-2.21 4.28,-4.38 4.61,-7.49 0.53,-3.98 0.51,-8.03 0.81,-12.02z" fill="#a06184"/>
  <path d="m81.93,91.67c3.98,2.62 5.05,6.45 7.11,10.45 1.55,3.02 4.72,4.11 7.95,4.01 5.96,-0.18 11.24,-3.31 16.3,-6.13 0.16,2.37 0.46,4.72 0.63,7.08 -0.4,1.46 -0.83,2.95 -1.49,4.32 -1.67,1.34 -4.35,1.56 -6.41,1.89 -4.61,-0.01 -9.25,-0.39 -13.85,-0.77 -5.16,-3 -10.28,-6.86 -11.83,-12.95 -0.79,-2.88 0.51,-5.31 1.59,-7.9z" fill="#f2b1b7"/>
  <path d="m113.92,107.08c3.21,2.47 6.02,5.29 8.5,8.49 4.06,5.32 7.9,10.46 9.93,16.94 -10.23,-4.51 -18.42,-11.48 -26.33,-19.22 2.06,-0.33 4.74,-0.55 6.41,-1.89 0.66,-1.37 1.09,-2.86 1.49,-4.32z" fill="#e79097"/>
  <path d="m84.98,112.78c2.41,-0.15 4.78,-0.3 7.19,-0.26 4.6,0.38 9.24,0.76 13.85,0.77 7.91,7.74 16.1,14.71 26.33,19.22l1.19,0.52c2.08,7.43 3.17,14.68 0.6,22.17 -0.8,2.79 -4.47,3.39 -6.84,4.36 0.92,0.46 1.84,0.93 2.76,1.4 -3.76,3.18 -7.81,5.47 -12.73,6.3 -9.02,1.98 -17.65,0.33 -26.28,-2.45 2.39,-2.78 5.43,-5.71 6.82,-9.13 1.14,-3.15 -1.6,-6.2 -4.38,-7.28 -4.17,-1.97 -10.9,0.84 -11.52,5.63 0.2,3.99 4.61,7.64 7.12,10.45 -9.75,3.81 -20.08,5.15 -30.16,1.67 -4.95,-1.77 -10.08,-4.75 -12.03,-9.93 -2.59,-7.72 -3.01,-16.06 0.52,-23.58 8.69,-4.09 16.82,-9.84 23.92,-16.29 2.87,-2.48 6.22,-2.9 9.85,-3.32 1.26,-0.08 2.53,-0.16 3.79,-0.25z" fill="#b63f59"/>
  <path d="m68.79,177.24c10.53,1.39 21.02,0.33 31.38,2.51L99.13,180h-17.5c-4.3,-0.74 -8.57,-1.83 -12.84,-2.76z" fill="#3e3539"/>
</svg>
