<?xml version="1.0" ?>
<svg xmlns="http://www.w3.org/2000/svg" width="179" height="179.02896" viewBox="0 0 179 179.02896">
  <path d="m84.54,0h9.97L93.89,0.88C90.54,1.05 87.21,1.02 83.87,0.82Z" fill="#353432"/>
  <path d="m83.87,0.82c3.34,0.2 6.67,0.23 10.02,0.06 2.01,0.07 4.03,0.16 6.04,0.23 1.28,1.44 2.49,1.26 4.16,0.67 4.08,0.65 8.13,1.39 12.03,2.79 -0.55,1.68 -0.71,2.56 -0.04,4.22 1.37,-1 2.62,-2.13 3.98,-3.13 10.12,3.83 17.96,10.52 26.96,16.17 -6.83,2.52 0.68,7.6 -4.35,10.81 -2.18,1.42 -0.98,5 -4.2,4.12 -0.71,-2.33 -1.09,-4.56 -2.54,-6.58 -2.58,0.71 -6.82,8.15 -7.15,1.94 -0.83,-2.99 -7.8,0.96 -9.35,-1.49 -2.96,-3.48 -6.52,-0.95 -10.41,-1.47 -2.86,-0.78 -3.08,4.04 -5.12,5.46 -5.32,-1.68 -13.26,-4.49 -14.55,3.38 -0.65,7.09 6.46,4.39 11.02,4.43 3.29,-0.59 10.2,-0.87 8.55,4.39 -0.92,2.3 -6.17,2.02 -7.98,4.11 -0.06,-0.99 -0.14,-1.98 -0.23,-2.97 -3.73,3.81 1.35,14.68 -5.36,13.07 -1.07,-7.41 -8.2,-6.91 -9.43,0.13 -7.19,1.37 -1.79,-9.08 -5.65,-13.22 -0.39,4.7 -0.05,9.19 -1.6,13.74 -2.13,0.36 -4.3,0.44 -6.44,0.64 -4.26,-0.34 -8.21,-0.86 -12.35,0.59 -4.32,0.21 -8.62,0.09 -12.94,-0.07 2.23,-3.26 -6.57,-5.85 -8.69,-6.31 -1.22,-2.97 6.72,-5.52 7.76,-1.67 2.72,-2.2 2.01,-4.06 3.89,0.24 2.13,-5.24 7.51,-2.28 9.45,-7.17 -2.22,-4.25 -1.4,-9.96 -1.09,-14.62 3.33,-1.08 5.63,0.59 6.17,-3.81 4.01,-0.75 4.22,2.07 4.9,5.22 1.58,-1.47 3.15,-3 4.51,-4.68C72.41,27.77 71.07,25.69 68.65,24.37 63.17,22.54 58.13,27 53.22,23.7c-0.16,-3.44 0.57,-7.6 2.3,-10.61 -1.3,0.01 -7.52,-0.28 -2.51,-1.08 4.29,-0.15 2.48,-0.32 0.11,-1.78 2.57,-0.7 5.35,0.59 1.85,-2.21 8.89,-4.29 19.08,-6.57 28.9,-7.2z" fill="#c7cdc6"/>
  <path d="m99.93,1.11c1.69,-0.5 2.79,-0.57 4.16,0.67 -1.67,0.59 -2.88,0.77 -4.16,-0.67z" fill="#6f726d"/>
  <path d="m116.12,4.57c1.34,0.34 2.64,0.64 3.94,1.09 -1.36,1 -2.61,2.13 -3.98,3.13 -0.67,-1.66 -0.51,-2.54 0.04,-4.22z" fill="#838884"/>
  <path d="m54.97,8.02c3.5,2.8 0.72,1.51 -1.85,2.21 2.37,1.46 4.18,1.63 -0.11,1.78 -5.01,0.8 1.21,1.09 2.51,1.08 -1.73,3.01 -2.46,7.17 -2.3,10.61 4.91,3.3 9.95,-1.16 15.43,0.67 2.42,1.32 3.76,3.4 5.19,5.67 -1.36,1.68 -2.93,3.21 -4.51,4.68 -0.68,-3.15 -0.89,-5.97 -4.9,-5.22 -0.54,4.4 -2.84,2.73 -6.17,3.81 -0.31,4.66 -1.13,10.37 1.09,14.62 -1.94,4.89 -7.32,1.93 -9.45,7.17 -1.88,-4.3 -1.17,-2.44 -3.89,-0.24 -1.04,-3.85 -8.98,-1.3 -7.76,1.67 2.12,0.46 10.92,3.05 8.69,6.31 -0.6,1.3 -1.08,2.37 -0.82,3.84 11.77,1.41 23.73,2.34 35.55,3.7 4.05,0.19 1.81,7.98 2.15,10.67C71.22,80.99 58.59,80.91 46,81.07l-1.5,0.13c-0.21,6.86 1.12,13.67 0.4,20.59 -1.97,-0.27 0.31,-5.84 -2.6,-6.05 -2.98,-1.23 -5.45,-2.13 -6.4,-5.55 2.3,0.99 3.61,3.98 6.02,1.67 -2.69,-5.39 -8.89,-5.87 -13.82,-3.53 -1.44,-0.93 -2.74,-2.1 -4.01,-3.24 1.77,0.22 3.51,0.61 5.28,0.79 -0.08,-2.07 0.14,-3.25 1.18,-5.06 -2.07,0.72 -4.06,1.65 -6.14,2.35 2.38,-2.85 -1.4,-4.86 0.24,-8.94 -1.09,-2.33 -11.61,-0.18 -3.96,-3.69 -3.8,-3.42 -2.32,-2.27 0.46,-5.61 -5.01,-4.23 -6.93,1.39 -6.54,5.71 0.8,2.44 0.75,3.98 0.26,6.5 -2.39,-4.59 -4.72,-9 -5.72,-14.15 2.65,-1.68 5.57,-2.4 8.52,-3.35 0.86,-2.16 -3.7,-1.43 -4.73,-3.31 1.9,-0.24 3.82,-0.33 5.72,-0.59 -1.34,-4.99 3.85,-8.75 3.72,-14.37 6.57,1.2 7.18,0.22 7.98,-6.23 3.75,3.27 4.83,-0.59 7.39,-3.09 -1.71,-4.32 -5.3,-7.18 -10.13,-5.5 -2.18,0.66 -0.93,-0.38 -0.96,-1.74C36.87,20.28 44.72,12.44 54.97,8.02Z" fill="#bfc7c0"/>
  <path d="m147.02,21.83c5.29,2.87 11.08,4.93 16.91,6.42 0.71,0.54 1.47,0.92 2.29,1.15 -1.23,0.94 -3.8,1.19 -2.68,3.21 2.1,4.83 -0.02,9.12 -2.84,13.08 -2.91,3.55 4.84,5.82 1.74,8.64 -1.71,2.82 -5.16,8.9 -8.69,4.77 -2.12,6.22 -12.6,1.35 -11.7,7.77 3.22,-2.4 4.67,-0.4 2.98,2.66 -3.41,-1.8 -6.44,-2.03 -10.2,-2.31 -0.38,-1.96 1.29,-4.66 -1.84,-4.19 -10.04,0.44 -19.7,-0.98 -29.68,-1.3 -2.23,-2.19 -2.2,-7.78 -2.37,-10.8 1.81,-2.09 7.06,-1.81 7.98,-4.11 1.65,-5.26 -5.26,-4.98 -8.55,-4.39C95.81,42.39 88.7,45.09 89.35,38c1.29,-7.87 9.23,-5.06 14.55,-3.38 2.04,-1.42 2.26,-6.24 5.12,-5.46 3.89,0.52 7.45,-2.01 10.41,1.47 1.55,2.45 8.52,-1.5 9.35,1.49 0.33,6.21 4.57,-1.23 7.15,-1.94 1.45,2.02 1.83,4.25 2.54,6.58 3.22,0.88 2.02,-2.7 4.2,-4.12 5.03,-3.21 -2.48,-8.29 4.35,-10.81z" fill="#cbd3cc"/>
  <path d="m26.66,24.81c0.03,1.36 -1.22,2.4 0.96,1.74 4.83,-1.68 8.42,1.18 10.13,5.5 -2.56,2.5 -3.64,6.36 -7.39,3.09 -0.8,6.45 -1.41,7.43 -7.98,6.23 0.13,5.62 -5.06,9.38 -3.72,14.37 -1.9,0.26 -3.82,0.35 -5.72,0.59 1.03,1.88 5.59,1.15 4.73,3.31 -2.95,0.95 -5.87,1.67 -8.52,3.35C5.78,52.14 5.71,41.31 6.03,30.08c1.41,-0.23 2.81,-0.47 4.2,-0.78 5.63,-1.04 11.16,-2.2 16.43,-4.49z" fill="#b2bcb5"/>
  <path d="m163.93,28.25c1.64,-0.62 2.75,-0.77 4.09,0.51l-1.8,0.64c-0.82,-0.23 -1.58,-0.61 -2.29,-1.15z" fill="#4f5653"/>
  <path d="m0,28.86c3.42,0.09 6.82,0.21 10.23,0.44 -1.39,0.31 -2.79,0.55 -4.2,0.78C4.43,30.07 2.79,30.05 1.2,30.19 0.66,37.14 1.28,44.16 0.85,51.13L0,50.47Z" fill="#696b61"/>
  <path d="m166.22,29.4 l1.8,-0.64 1.73,0.43c1.11,0.3 2.23,0.58 3.35,0.84 1.6,4.92 0.96,10.73 0.59,15.82 -1.85,0.09 -3.69,0.15 -5.53,0.32 0.64,1.62 1.51,3.12 2.27,4.69 -3.34,2.82 -4.56,2.42 -1.56,6.52 -3.71,-0.25 -7.36,3.17 -9.69,5.72 0.08,2.3 0.61,4.64 1.23,6.85 -1.76,4.09 -8.52,1.97 -9.3,4.9 2.79,1.54 5.98,2.19 8.82,3.64 -8.02,0.97 -4.82,5.4 -7.19,10.92 -4.32,0.94 -9.2,0.34 -13.62,0.78 -0.6,2.7 4.38,6.94 0.34,7.36 -0.47,1.64 -0.43,3.44 -0.68,5.13 -1.71,0.69 0.18,-5.83 -1.64,-5.48 -0.46,1.16 0.54,7.07 -1.02,6.52 -0.72,-6.83 0.86,-14.31 -0.83,-20.94 -0.33,-2.53 -2.41,-1.46 -4.27,-1.8 -11.35,-0.02 -22.71,0.11 -34.06,-0.05 0.72,-3.52 -2.12,-10.68 3.39,-10.53 11.44,-0.92 23.04,-3.06 34.48,-3.18 3.76,0.28 6.79,0.51 10.2,2.31 1.69,-3.06 0.24,-5.06 -2.98,-2.66 -0.9,-6.42 9.58,-1.55 11.7,-7.77 3.53,4.13 6.98,-1.95 8.69,-4.77 3.1,-2.82 -4.65,-5.09 -1.74,-8.64 2.82,-3.96 4.94,-8.25 2.84,-13.08 -1.12,-2.02 1.45,-2.27 2.68,-3.21z" fill="#c3ccc6"/>
  <path d="m169.75,29.19c3.09,-0.12 6.17,-0.21 9.25,-0.12v1.03c-1.97,-0.03 -3.93,-0.04 -5.9,-0.07 -1.12,-0.26 -2.24,-0.54 -3.35,-0.84z" fill="#848982"/>
  <path d="m1.2,30.19c1.59,-0.14 3.23,-0.12 4.83,-0.11 -0.32,11.23 -0.25,22.06 3.12,32.91 1,5.15 3.33,9.56 5.72,14.15 1.94,3.64 5.43,6.46 2.5,10.73 1.67,0.01 4.53,-2.12 2.5,0.95 -2.32,3.62 1.22,0.47 2.82,0.19 -0.07,1.5 -3.48,6.43 0.08,3.83 2.93,-2.26 -1.48,4.49 1.45,2.29 4.08,-2.18 1.49,1.88 0.8,3.55 1.86,-0.68 3.01,-2.41 4.84,-0.57 4.87,5.09 10.43,8.93 16.15,12.95 0.03,2.08 -0.2,4.12 -0.58,6.16C22.19,103.74 7.01,81.94 1.22,55.8 1.09,54.24 0.98,52.69 0.85,51.13 1.28,44.16 0.66,37.14 1.2,30.19Z" fill="#d4dbce"/>
  <path d="m173.1,30.03c1.97,0.03 3.93,0.04 5.9,0.07v22.58c-5.17,26.43 -19.99,49.76 -43.42,63.53 -0.12,-0.98 -0.21,-1.96 -0.29,-2.94 1.19,-2.17 1.1,-4.36 3.21,-5.72 3.13,-1.61 6.03,-1.27 7.4,-5.05 2.05,-0.97 3.17,0.14 1.67,-2.43 15.34,-13.96 24.13,-33.67 26.12,-54.22 0.37,-5.09 1.01,-10.9 -0.59,-15.82z" fill="#d5dcd0"/>
  <path d="m168.16,46.17c1.84,-0.17 3.68,-0.23 5.53,-0.32 -1.99,20.55 -10.78,40.26 -26.12,54.22 1.5,2.57 0.38,1.46 -1.67,2.43 -1.37,3.78 -4.27,3.44 -7.4,5.05 -2.11,1.36 -2.02,3.55 -3.21,5.72 -0.52,-10.05 -0.43,-20.43 0,-30.49 1.69,6.63 0.11,14.11 0.83,20.94 1.56,0.55 0.56,-5.36 1.02,-6.52 1.82,-0.35 -0.07,6.17 1.64,5.48 0.25,-1.69 0.21,-3.49 0.68,-5.13 4.04,-0.42 -0.94,-4.66 -0.34,-7.36 4.42,-0.44 9.3,0.16 13.62,-0.78 2.37,-5.52 -0.83,-9.95 7.19,-10.92 -2.84,-1.45 -6.03,-2.1 -8.82,-3.64 0.78,-2.93 7.54,-0.81 9.3,-4.9 -0.62,-2.21 -1.15,-4.55 -1.23,-6.85 2.33,-2.55 5.98,-5.97 9.69,-5.72 -3,-4.1 -1.78,-3.7 1.56,-6.52 -0.76,-1.57 -1.63,-3.07 -2.27,-4.69z" fill="#b6c4bf"/>
  <path d="m80.27,47.94c3.86,4.14 -1.54,14.59 5.65,13.22 0.14,6.99 0.1,13.99 0.01,20.98 -0.7,-0.36 -1.41,-0.72 -2.11,-1.09 -0.34,-2.69 1.9,-10.48 -2.15,-10.67 -11.82,-1.36 -23.78,-2.29 -35.55,-3.7 -0.26,-1.47 0.22,-2.54 0.82,-3.84 4.32,0.16 8.62,0.28 12.94,0.07 0.1,0.8 -1.61,5.8 0.16,3.09 2.95,-4.92 7.31,-2.04 12.19,-3.68 2.14,-0.2 4.31,-0.28 6.44,-0.64 1.55,-4.55 1.21,-9.04 1.6,-13.74z" fill="#7e7c68"/>
  <path d="m100.71,47.96c0.09,0.99 0.17,1.98 0.23,2.97 0.17,3.02 0.14,8.61 2.37,10.8 9.98,0.32 19.64,1.74 29.68,1.3 3.13,-0.47 1.46,2.23 1.84,4.19 -11.44,0.12 -23.04,2.26 -34.48,3.18 -5.51,-0.15 -2.67,7.01 -3.39,10.53h-2.11c0.28,-6.64 0,-13.26 0.5,-19.9 6.71,1.61 1.63,-9.26 5.36,-13.07z" fill="#7d7b66"/>
  <path d="m0,50.47 l0.85,0.66c0.13,1.56 0.24,3.11 0.37,4.67 -0.37,17.61 -0.35,35.36 -0.02,52.98 -0.55,13.78 0.14,27.6 -0.39,41.38L0,149.79Z" fill="#0c151a"/>
  <path d="m179,52.68v64.92c-0.91,-4.91 -2.75,-9.51 -3.38,-14.44 -4.15,-1.06 -2.86,3.11 -7.39,3.1 -3.91,1.07 4.68,0.05 3.71,1.9 0.96,4.83 -6.57,2.66 -5.92,7.83 -0.13,4.29 -0.81,2.9 -3.7,1.7 -1.28,4.52 -6.86,5.97 -2.44,10.49 -7.44,2.15 -9.11,11.24 -12.44,16.27 -3.06,2.38 0.92,2.71 2.46,4.34 -1.86,0.61 -6.73,-0.88 -5.91,2.26 -0.02,1.74 -0.11,3.55 2.09,3.69 2.02,-3.23 5.33,-3.52 8.79,-3.52 -2.87,3.17 -4.07,2.67 1.26,2.97 -7.64,2.93 -14.24,7.39 -20.92,12.01 -1.25,-9.49 1.7,-21.57 -1.89,-30.12 2.23,-4.99 1.77,-9.8 1.57,-15.11 0.2,-1.59 0.43,-3.17 0.69,-4.76 23.43,-13.77 38.25,-37.1 43.42,-63.53z" fill="#26404e"/>
  <path d="m1.22,55.8c5.79,26.14 20.97,47.94 44.21,61.42 0.23,1.53 0.44,3.07 0.6,4.6 -0.12,15.1 0.1,30.2 -0.12,45.3 -9.27,-6.53 -17.02,-11.54 -28.09,-14.89 7.73,3.03 10.08,-8.9 3.36,-11.44 -2.22,-3.26 1.44,-8.18 -5.02,-8.02C13.37,130 16.2,123.64 10.85,121.11 7.7,119.65 10.03,111.29 5.26,113.27 1.87,116.54 3.17,110.62 1.2,108.78 0.87,91.16 0.85,73.41 1.22,55.8Z" fill="#264151"/>
  <path d="m95.35,61.03c-0.5,6.64 -0.22,13.26 -0.5,19.9 0.82,13.38 -0.23,26.59 0.19,40.07 -0.1,19.33 -0.01,38.66 -0.04,57.99 -3,0.01 -6,0 -9,-0.01 -0.03,-19.33 0.06,-38.66 -0.04,-57.98 0.05,-12.95 0.1,-25.91 -0.03,-38.86 0.09,-6.99 0.13,-13.99 -0.01,-20.98 1.23,-7.04 8.36,-7.54 9.43,-0.13z" fill="#545648"/>
  <path d="m72.23,62.32c-4.88,1.64 -9.24,-1.24 -12.19,3.68 -1.77,2.71 -0.06,-2.29 -0.16,-3.09 4.14,-1.45 8.09,-0.93 12.35,-0.59z" fill="#a8a495"/>
  <path d="m21.15,64.93c-2.78,3.34 -4.26,2.19 -0.46,5.61 -7.65,3.51 2.87,1.36 3.96,3.69 -1.64,4.08 2.14,6.09 -0.24,8.94 2.08,-0.7 4.07,-1.63 6.14,-2.35 -1.04,1.81 -1.26,2.99 -1.18,5.06 -1.77,-0.18 -3.51,-0.57 -5.28,-0.79 1.27,1.14 2.57,2.31 4.01,3.24 4.93,-2.34 11.13,-1.86 13.82,3.53 -2.41,2.31 -3.72,-0.68 -6.02,-1.67 0.95,3.42 3.42,4.32 6.4,5.55 2.91,0.21 0.63,5.78 2.6,6.05C45.62,94.87 44.29,88.06 44.5,81.2L46,81.07c0.01,10 -0.01,19.99 0.01,29.99 -5.72,-4.02 -11.28,-7.86 -16.15,-12.95 -1.83,-1.84 -2.98,-0.11 -4.84,0.57 0.69,-1.67 3.28,-5.73 -0.8,-3.55 -2.93,2.2 1.48,-4.55 -1.45,-2.29 -3.56,2.6 -0.15,-2.33 -0.08,-3.83 -1.6,0.28 -5.14,3.43 -2.82,-0.19 2.03,-3.07 -0.83,-0.94 -2.5,-0.95 2.93,-4.27 -0.56,-7.09 -2.5,-10.73 0.49,-2.52 0.54,-4.06 -0.26,-6.5 -0.39,-4.32 1.53,-9.94 6.54,-5.71z" fill="#b2bcb6"/>
  <path d="m46,81.07c12.59,-0.16 25.22,-0.08 37.82,-0.02 0.7,0.37 1.41,0.73 2.11,1.09 0.13,12.95 0.08,25.91 0.03,38.86 -13.13,0.52 -27.01,-1.07 -39.93,0.82 -0.16,-1.53 -0.37,-3.07 -0.6,-4.6 0.38,-2.04 0.61,-4.08 0.58,-6.16 -0.02,-10 0,-19.99 -0.01,-29.99z" fill="#5e635c"/>
  <path d="m94.85,80.93h2.11c11.35,0.16 22.71,0.03 34.06,0.05 1.86,0.34 3.94,-0.73 4.27,1.8 -0.43,10.06 -0.52,20.44 0,30.49 0.08,0.98 0.17,1.96 0.29,2.94 -0.26,1.59 -0.49,3.17 -0.69,4.76 -4.51,0.02 -9.03,0.15 -13.54,-0.05 0.57,-1.99 2.43,-2.68 -0.23,-3.92 -1.59,1.33 -2.82,4.18 -5.12,3.95 -6.97,0.2 -13.97,-0.04 -20.96,0.05 -0.42,-13.48 0.63,-26.69 -0.19,-40.07z" fill="#5f655d"/>
  <path d="m175.62,103.16c0.63,4.93 2.47,9.53 3.38,14.44v33.52c-8.39,-0.76 -14.99,0.3 -22.87,3.07 -5.33,-0.3 -4.13,0.2 -1.26,-2.97 -3.46,0 -6.77,0.29 -8.79,3.52 -2.2,-0.14 -2.11,-1.95 -2.09,-3.69 -0.82,-3.14 4.05,-1.65 5.91,-2.26 -1.54,-1.63 -5.52,-1.96 -2.46,-4.34 3.33,-5.03 5,-14.12 12.44,-16.27 -4.42,-4.52 1.16,-5.97 2.44,-10.49 2.89,1.2 3.57,2.59 3.7,-1.7 -0.65,-5.17 6.88,-3 5.92,-7.83 0.97,-1.85 -7.62,-0.83 -3.71,-1.9 4.53,0.01 3.24,-4.16 7.39,-3.1z" fill="#2e4a59"/>
  <path d="m1.2,108.78c1.97,1.84 0.67,7.76 4.06,4.49 4.77,-1.98 2.44,6.38 5.59,7.84 5.35,2.53 2.52,8.89 5.31,11.66 6.46,-0.16 2.8,4.76 5.02,8.02 6.72,2.54 4.37,14.47 -3.36,11.44 -5.57,-1.57 -11.71,-0.46 -17.01,-2.07 0.53,-13.78 -0.16,-27.6 0.39,-41.38z" fill="#314e5d"/>
  <path d="m121.12,117c2.66,1.24 0.8,1.93 0.23,3.92 4.51,0.2 9.03,0.07 13.54,0.05 0.2,5.31 0.66,10.12 -1.57,15.11 3.59,8.55 0.64,20.63 1.89,30.12 -11.23,8.06 -26.35,13.19 -40.21,12.79 0.03,-19.33 -0.06,-38.66 0.04,-57.99 6.99,-0.09 13.99,0.15 20.96,-0.05 2.3,0.23 3.53,-2.62 5.12,-3.95z" fill="#888367"/>
  <path d="m85.96,121c0.1,19.32 0.01,38.65 0.04,57.98 -13.4,0.58 -29.16,-4.03 -40.09,-11.86 0.22,-15.1 0,-30.2 0.12,-45.3 12.92,-1.89 26.8,-0.3 39.93,-0.82z" fill="#888266"/>
  <path d="m56.17,132.25c1.66,-0.23 2.26,1.86 0.66,2.5 -1.66,0.23 -2.26,-1.86 -0.66,-2.5z" fill="#3f4228"/>
</svg>
